<svg width="515" height="391" viewBox="0 0 515 391" fill="none" xmlns="http://www.w3.org/2000/svg">
<g filter="url(#filter0_d)">
<rect x="20" y="7" width="475" height="351" rx="20" fill="white"/>
<path d="M61.088 43.598L61.196 45.506C61.208 46.118 61.34 46.616 61.592 47H59.09C58.874 46.64 58.76 46.13 58.748 45.47L58.694 44.066C58.658 43.286 58.478 42.746 58.154 42.446C57.842 42.134 57.338 41.978 56.642 41.978H53.474V47H51.044V34.184H56.858C58.286 34.184 59.396 34.508 60.188 35.156C60.98 35.804 61.376 36.686 61.376 37.802C61.376 39.338 60.662 40.358 59.234 40.862C59.882 41.066 60.344 41.39 60.62 41.834C60.908 42.266 61.064 42.854 61.088 43.598ZM53.474 36.182V40.07H56.714C57.398 40.07 57.926 39.902 58.298 39.566C58.682 39.218 58.874 38.72 58.874 38.072C58.874 37.46 58.676 36.992 58.28 36.668C57.896 36.344 57.344 36.182 56.624 36.182H53.474ZM71.6371 42.518V43.058H64.6891C64.7731 43.85 65.0191 44.45 65.4271 44.858C65.8471 45.254 66.4051 45.452 67.1011 45.452C68.1331 45.452 68.8411 45.008 69.2251 44.12H71.4031C71.1631 45.068 70.6591 45.824 69.8911 46.388C69.1231 46.94 68.1871 47.216 67.0831 47.216C65.7031 47.216 64.5871 46.772 63.7351 45.884C62.8831 44.996 62.4571 43.82 62.4571 42.356C62.4571 40.892 62.8771 39.716 63.7171 38.828C64.5691 37.94 65.6791 37.496 67.0471 37.496C68.4511 37.496 69.5671 37.958 70.3951 38.882C71.2231 39.806 71.6371 41.018 71.6371 42.518ZM67.0291 39.26C65.6971 39.26 64.9231 39.998 64.7071 41.474H69.3691C69.2731 40.79 69.0211 40.25 68.6131 39.854C68.2051 39.458 67.6771 39.26 67.0291 39.26ZM76.738 47.252C74.026 47.252 72.61 46.184 72.49 44.048H74.704C74.764 44.624 74.95 45.032 75.262 45.272C75.586 45.512 76.09 45.632 76.774 45.632C77.998 45.632 78.61 45.26 78.61 44.516C78.61 44.18 78.478 43.922 78.214 43.742C77.95 43.562 77.476 43.412 76.792 43.292L75.73 43.112C73.702 42.776 72.688 41.84 72.688 40.304C72.688 39.428 73.024 38.744 73.696 38.252C74.368 37.748 75.316 37.496 76.54 37.496C79.192 37.496 80.56 38.546 80.644 40.646H78.502C78.478 40.094 78.304 39.704 77.98 39.476C77.656 39.236 77.176 39.116 76.54 39.116C75.46 39.116 74.92 39.476 74.92 40.196C74.92 40.508 75.04 40.754 75.28 40.934C75.52 41.102 75.916 41.234 76.468 41.33L77.638 41.51C78.766 41.714 79.582 42.038 80.086 42.482C80.602 42.926 80.86 43.544 80.86 44.336C80.86 45.272 80.5 45.992 79.78 46.496C79.06 47 78.046 47.252 76.738 47.252ZM90.8324 42.518V43.058H83.8844C83.9684 43.85 84.2144 44.45 84.6224 44.858C85.0424 45.254 85.6004 45.452 86.2964 45.452C87.3284 45.452 88.0364 45.008 88.4204 44.12H90.5984C90.3584 45.068 89.8544 45.824 89.0864 46.388C88.3184 46.94 87.3824 47.216 86.2784 47.216C84.8984 47.216 83.7824 46.772 82.9304 45.884C82.0784 44.996 81.6524 43.82 81.6524 42.356C81.6524 40.892 82.0724 39.716 82.9124 38.828C83.7644 37.94 84.8744 37.496 86.2424 37.496C87.6464 37.496 88.7624 37.958 89.5904 38.882C90.4184 39.806 90.8324 41.018 90.8324 42.518ZM86.2244 39.26C84.8924 39.26 84.1184 39.998 83.9024 41.474H88.5644C88.4684 40.79 88.2164 40.25 87.8084 39.854C87.4004 39.458 86.8724 39.26 86.2244 39.26ZM97.2649 37.568C97.4689 37.568 97.6549 37.58 97.8229 37.604V39.692H97.2469C96.3829 39.692 95.7169 39.914 95.2489 40.358C94.7929 40.79 94.5649 41.432 94.5649 42.284V47H92.2969V37.712H94.4929V39.368C95.0089 38.168 95.9329 37.568 97.2649 37.568ZM104.587 40.196L105.487 37.712H107.845L104.389 47H101.779L98.3411 37.712H100.771L101.671 40.214C102.091 41.522 102.577 43.1 103.129 44.948C103.573 43.46 104.059 41.876 104.587 40.196ZM116.715 47H114.447C114.339 46.808 114.255 46.43 114.195 45.866C113.571 46.766 112.575 47.216 111.207 47.216C110.187 47.216 109.371 46.97 108.759 46.478C108.159 45.986 107.859 45.302 107.859 44.426C107.859 42.734 109.047 41.768 111.423 41.528L112.827 41.402C113.295 41.342 113.631 41.234 113.835 41.078C114.039 40.91 114.141 40.664 114.141 40.34C114.141 39.944 114.009 39.656 113.745 39.476C113.493 39.284 113.061 39.188 112.449 39.188C111.789 39.188 111.315 39.302 111.027 39.53C110.739 39.746 110.571 40.124 110.523 40.664H108.291C108.423 38.552 109.815 37.496 112.467 37.496C115.047 37.496 116.337 38.426 116.337 40.286V45.236C116.337 46.052 116.463 46.64 116.715 47ZM111.747 45.596C112.455 45.596 113.031 45.404 113.475 45.02C113.919 44.624 114.141 44.06 114.141 43.328V42.482C113.925 42.674 113.571 42.8 113.079 42.86L111.855 43.004C111.255 43.076 110.823 43.22 110.559 43.436C110.307 43.64 110.181 43.94 110.181 44.336C110.181 44.732 110.313 45.044 110.577 45.272C110.853 45.488 111.243 45.596 111.747 45.596ZM122.627 37.712V39.44H120.791V44.462C120.791 44.762 120.869 44.972 121.025 45.092C121.193 45.212 121.469 45.272 121.853 45.272H122.627V47C122.135 47.048 121.739 47.072 121.439 47.072C120.431 47.072 119.693 46.886 119.225 46.514C118.769 46.13 118.541 45.524 118.541 44.696V39.44H117.101V37.712H118.541V35.012H120.791V37.712H122.627ZM126.205 36.506H123.973V34.382H126.205V36.506ZM126.223 47H123.955V37.712H126.223V47ZM137.087 42.356C137.087 43.82 136.655 44.996 135.791 45.884C134.927 46.772 133.787 47.216 132.371 47.216C130.955 47.216 129.815 46.772 128.951 45.884C128.075 45.008 127.637 43.832 127.637 42.356C127.637 40.88 128.075 39.704 128.951 38.828C129.815 37.94 130.955 37.496 132.371 37.496C133.787 37.496 134.927 37.934 135.791 38.81C136.655 39.686 137.087 40.868 137.087 42.356ZM130.589 44.57C131.021 45.086 131.615 45.344 132.371 45.344C133.127 45.344 133.715 45.086 134.135 44.57C134.567 44.042 134.783 43.304 134.783 42.356C134.783 41.408 134.567 40.676 134.135 40.16C133.715 39.632 133.127 39.368 132.371 39.368C131.615 39.368 131.021 39.626 130.589 40.142C130.169 40.658 129.959 41.396 129.959 42.356C129.959 43.316 130.169 44.054 130.589 44.57ZM143.604 37.496C144.612 37.496 145.404 37.79 145.98 38.378C146.568 38.954 146.862 39.776 146.862 40.844V47H144.594V41.222C144.594 40.046 144.012 39.458 142.848 39.458C142.272 39.458 141.78 39.668 141.372 40.088C140.976 40.496 140.778 41.066 140.778 41.798V47H138.51V37.712H140.706V39.044C141.414 38.012 142.38 37.496 143.604 37.496ZM152.359 47.252C149.647 47.252 148.231 46.184 148.111 44.048H150.325C150.385 44.624 150.571 45.032 150.883 45.272C151.207 45.512 151.711 45.632 152.395 45.632C153.619 45.632 154.231 45.26 154.231 44.516C154.231 44.18 154.099 43.922 153.835 43.742C153.571 43.562 153.097 43.412 152.413 43.292L151.351 43.112C149.323 42.776 148.309 41.84 148.309 40.304C148.309 39.428 148.645 38.744 149.317 38.252C149.989 37.748 150.937 37.496 152.161 37.496C154.813 37.496 156.181 38.546 156.265 40.646H154.123C154.099 40.094 153.925 39.704 153.601 39.476C153.277 39.236 152.797 39.116 152.161 39.116C151.081 39.116 150.541 39.476 150.541 40.196C150.541 40.508 150.661 40.754 150.901 40.934C151.141 41.102 151.537 41.234 152.089 41.33L153.259 41.51C154.387 41.714 155.203 42.038 155.707 42.482C156.223 42.926 156.481 43.544 156.481 44.336C156.481 45.272 156.121 45.992 155.401 46.496C154.681 47 153.667 47.252 152.359 47.252Z" fill="black"/>
<path d="M429.208 34.744H436.904V36.317H433.94V44H432.172V36.317H429.208V34.744ZM442.981 40.646C442.981 41.7033 442.669 42.5527 442.045 43.194C441.421 43.8353 440.598 44.156 439.575 44.156C438.552 44.156 437.729 43.8353 437.105 43.194C436.472 42.5613 436.156 41.712 436.156 40.646C436.156 39.58 436.472 38.7307 437.105 38.098C437.729 37.4567 438.552 37.136 439.575 37.136C440.598 37.136 441.421 37.4523 442.045 38.085C442.669 38.7177 442.981 39.5713 442.981 40.646ZM438.288 42.245C438.6 42.6177 439.029 42.804 439.575 42.804C440.121 42.804 440.546 42.6177 440.849 42.245C441.161 41.8637 441.317 41.3307 441.317 40.646C441.317 39.9613 441.161 39.4327 440.849 39.06C440.546 38.6787 440.121 38.488 439.575 38.488C439.029 38.488 438.6 38.6743 438.288 39.047C437.985 39.4197 437.833 39.9527 437.833 40.646C437.833 41.3393 437.985 41.8723 438.288 42.245ZM448.793 38.163V34.744H450.431V44H448.845V43.064C448.351 43.792 447.644 44.156 446.726 44.156C445.798 44.156 445.066 43.8353 444.529 43.194C443.983 42.5527 443.71 41.7033 443.71 40.646C443.71 39.5713 443.983 38.7177 444.529 38.085C445.057 37.4523 445.79 37.136 446.726 37.136C447.627 37.136 448.316 37.4783 448.793 38.163ZM445.387 40.698C445.387 41.3913 445.538 41.9157 445.842 42.271C446.145 42.6263 446.565 42.804 447.103 42.804C447.64 42.804 448.065 42.6177 448.377 42.245C448.68 41.8723 448.832 41.3393 448.832 40.646C448.832 39.9527 448.68 39.4197 448.377 39.047C448.073 38.6743 447.649 38.488 447.103 38.488C446.574 38.488 446.154 38.683 445.842 39.073C445.538 39.463 445.387 40.0047 445.387 40.698ZM457.785 44H456.147C456.069 43.8613 456.008 43.5883 455.965 43.181C455.514 43.831 454.795 44.156 453.807 44.156C453.07 44.156 452.481 43.9783 452.039 43.623C451.606 43.2677 451.389 42.7737 451.389 42.141C451.389 40.919 452.247 40.2213 453.963 40.048L454.977 39.957C455.315 39.9137 455.558 39.8357 455.705 39.723C455.852 39.6017 455.926 39.424 455.926 39.19C455.926 38.904 455.831 38.696 455.64 38.566C455.458 38.4273 455.146 38.358 454.704 38.358C454.227 38.358 453.885 38.4403 453.677 38.605C453.469 38.761 453.348 39.034 453.313 39.424H451.701C451.796 37.8987 452.802 37.136 454.717 37.136C456.58 37.136 457.512 37.8077 457.512 39.151V42.726C457.512 43.3153 457.603 43.74 457.785 44ZM454.197 42.986C454.708 42.986 455.124 42.8473 455.445 42.57C455.766 42.284 455.926 41.8767 455.926 41.348V40.737C455.77 40.8757 455.514 40.9667 455.159 41.01L454.275 41.114C453.842 41.166 453.53 41.27 453.339 41.426C453.157 41.5733 453.066 41.79 453.066 42.076C453.066 42.362 453.161 42.5873 453.352 42.752C453.551 42.908 453.833 42.986 454.197 42.986ZM462.266 38.982L462.812 37.292H464.528L461.941 44.546C461.663 45.3087 461.317 45.833 460.901 46.119C460.476 46.4137 459.861 46.561 459.055 46.561C458.786 46.561 458.548 46.548 458.34 46.522V45.235H458.964C459.319 45.235 459.592 45.1353 459.783 44.936C459.973 44.7367 460.069 44.4767 460.069 44.156C460.069 43.8353 459.965 43.3847 459.757 42.804L457.807 37.292H459.575L460.121 38.969C460.502 40.165 460.857 41.413 461.187 42.713C461.447 41.7337 461.806 40.49 462.266 38.982Z" fill="#A0A0A0"/>
<rect x="50" y="81" width="415" height="50" rx="8" fill="#DFDFDF"/>
<path d="M70.288 100.184H80.944V102.362H76.84V113H74.392V102.362H70.288V100.184ZM88.4106 113H86.1426C86.0346 112.808 85.9506 112.43 85.8906 111.866C85.2666 112.766 84.2706 113.216 82.9026 113.216C81.8826 113.216 81.0666 112.97 80.4546 112.478C79.8546 111.986 79.5546 111.302 79.5546 110.426C79.5546 108.734 80.7426 107.768 83.1186 107.528L84.5226 107.402C84.9906 107.342 85.3266 107.234 85.5306 107.078C85.7346 106.91 85.8366 106.664 85.8366 106.34C85.8366 105.944 85.7046 105.656 85.4406 105.476C85.1886 105.284 84.7566 105.188 84.1446 105.188C83.4846 105.188 83.0106 105.302 82.7226 105.53C82.4346 105.746 82.2666 106.124 82.2186 106.664H79.9866C80.1186 104.552 81.5106 103.496 84.1626 103.496C86.7426 103.496 88.0326 104.426 88.0326 106.286V111.236C88.0326 112.052 88.1586 112.64 88.4106 113ZM83.4426 111.596C84.1506 111.596 84.7266 111.404 85.1706 111.02C85.6146 110.624 85.8366 110.06 85.8366 109.328V108.482C85.6206 108.674 85.2666 108.8 84.7746 108.86L83.5506 109.004C82.9506 109.076 82.5186 109.22 82.2546 109.436C82.0026 109.64 81.8766 109.94 81.8766 110.336C81.8766 110.732 82.0086 111.044 82.2726 111.272C82.5486 111.488 82.9386 111.596 83.4426 111.596ZM94.857 103.496C96.129 103.496 97.143 103.934 97.899 104.81C98.643 105.698 99.015 106.88 99.015 108.356C99.015 109.82 98.643 110.996 97.899 111.884C97.143 112.772 96.129 113.216 94.857 113.216C93.549 113.216 92.559 112.7 91.887 111.668V113H89.709V100.184H91.977V104.918C92.637 103.97 93.597 103.496 94.857 103.496ZM92.571 110.57C92.979 111.086 93.561 111.344 94.317 111.344C95.061 111.344 95.649 111.074 96.081 110.534C96.501 110.006 96.711 109.256 96.711 108.284C96.711 107.336 96.501 106.616 96.081 106.124C95.673 105.62 95.085 105.368 94.317 105.368C93.561 105.368 92.973 105.626 92.553 106.142C92.133 106.658 91.923 107.396 91.923 108.356C91.923 109.328 92.139 110.066 92.571 110.57ZM102.7 113H100.432V100.184H102.7V113ZM113.293 108.518V109.058H106.345C106.429 109.85 106.675 110.45 107.083 110.858C107.503 111.254 108.061 111.452 108.757 111.452C109.789 111.452 110.497 111.008 110.881 110.12H113.059C112.819 111.068 112.315 111.824 111.547 112.388C110.779 112.94 109.843 113.216 108.739 113.216C107.359 113.216 106.243 112.772 105.391 111.884C104.539 110.996 104.113 109.82 104.113 108.356C104.113 106.892 104.533 105.716 105.373 104.828C106.225 103.94 107.335 103.496 108.703 103.496C110.107 103.496 111.223 103.958 112.051 104.882C112.879 105.806 113.293 107.018 113.293 108.518ZM108.685 105.26C107.353 105.26 106.579 105.998 106.363 107.474H111.025C110.929 106.79 110.677 106.25 110.269 105.854C109.861 105.458 109.333 105.26 108.685 105.26ZM121.145 110.948H127.751V113H118.427L118.481 112.046C118.529 111.062 118.733 110.18 119.093 109.4C119.537 108.428 120.455 107.624 121.847 106.988L123.107 106.34C123.851 105.98 124.379 105.614 124.691 105.242C125.003 104.87 125.159 104.408 125.159 103.856C125.159 103.268 124.973 102.806 124.601 102.47C124.229 102.122 123.713 101.948 123.053 101.948C121.577 101.948 120.839 102.728 120.839 104.288H118.499C118.487 102.908 118.877 101.834 119.669 101.066C120.473 100.286 121.625 99.896 123.125 99.896C124.505 99.896 125.597 100.244 126.401 100.94C127.205 101.636 127.607 102.548 127.607 103.676C127.607 104.648 127.337 105.476 126.797 106.16C126.257 106.832 125.399 107.462 124.223 108.05L123.035 108.68C122.363 109.04 121.889 109.382 121.613 109.706C121.349 110.018 121.193 110.432 121.145 110.948ZM136.569 106.196C138.057 106.772 138.801 107.828 138.801 109.364C138.801 110.564 138.351 111.512 137.451 112.208C136.539 112.928 135.315 113.288 133.779 113.288C132.243 113.288 131.025 112.928 130.125 112.208C129.225 111.512 128.775 110.564 128.775 109.364C128.775 107.852 129.513 106.796 130.989 106.196C129.861 105.608 129.297 104.69 129.297 103.442C129.297 102.35 129.711 101.486 130.539 100.85C131.379 100.214 132.459 99.896 133.779 99.896C135.099 99.896 136.179 100.214 137.019 100.85C137.847 101.486 138.261 102.35 138.261 103.442C138.261 104.69 137.697 105.608 136.569 106.196ZM136.047 103.586C136.047 102.998 135.843 102.542 135.435 102.218C135.027 101.894 134.475 101.732 133.779 101.732C133.107 101.732 132.561 101.894 132.141 102.218C131.721 102.542 131.511 102.998 131.511 103.586C131.511 104.15 131.715 104.594 132.123 104.918C132.531 105.242 133.083 105.404 133.779 105.404C134.475 105.404 135.027 105.242 135.435 104.918C135.843 104.594 136.047 104.15 136.047 103.586ZM133.779 111.344C134.607 111.344 135.243 111.158 135.687 110.786C136.143 110.414 136.371 109.892 136.371 109.22C136.371 108.536 136.143 108.008 135.687 107.636C135.231 107.264 134.595 107.078 133.779 107.078C132.963 107.078 132.327 107.264 131.871 107.636C131.415 108.008 131.187 108.536 131.187 109.22C131.187 109.892 131.415 110.414 131.871 110.786C132.327 111.158 132.963 111.344 133.779 111.344Z" fill="black"/>
<path d="M296.56 111.192C295.296 111.192 294.288 110.78 293.536 109.956C292.768 109.14 292.384 108.064 292.384 106.728C292.384 105.4 292.768 104.32 293.536 103.488C294.288 102.672 295.296 102.264 296.56 102.264C297.808 102.264 298.816 102.672 299.584 103.488C300.344 104.32 300.724 105.4 300.724 106.728C300.724 108.056 300.344 109.132 299.584 109.956C298.816 110.78 297.808 111.192 296.56 111.192ZM294.496 109.14C295.008 109.74 295.696 110.04 296.56 110.04C297.424 110.04 298.112 109.74 298.624 109.14C299.136 108.556 299.392 107.752 299.392 106.728C299.392 105.704 299.136 104.896 298.624 104.304C298.104 103.712 297.416 103.416 296.56 103.416C295.704 103.416 295.016 103.712 294.496 104.304C293.976 104.912 293.716 105.72 293.716 106.728C293.716 107.744 293.976 108.548 294.496 109.14ZM304.993 104.664C305.857 104.664 306.545 104.956 307.057 105.54C307.569 106.124 307.825 106.912 307.825 107.904C307.825 108.888 307.569 109.672 307.057 110.256C306.537 110.848 305.849 111.144 304.993 111.144C304.113 111.144 303.441 110.808 302.977 110.136V113.352H301.777V104.808H302.929V105.744C303.393 105.024 304.081 104.664 304.993 104.664ZM303.445 109.524C303.765 109.916 304.205 110.112 304.765 110.112C305.325 110.112 305.769 109.912 306.097 109.512C306.417 109.12 306.577 108.568 306.577 107.856C306.577 107.168 306.417 106.636 306.097 106.26C305.777 105.884 305.333 105.696 304.765 105.696C304.213 105.696 303.773 105.888 303.445 106.272C303.117 106.672 302.953 107.216 302.953 107.904C302.953 108.592 303.117 109.132 303.445 109.524ZM314.471 107.952V108.3H309.803C309.859 108.908 310.039 109.368 310.343 109.68C310.647 109.984 311.059 110.136 311.579 110.136C312.363 110.136 312.875 109.792 313.115 109.104H314.327C314.159 109.736 313.831 110.236 313.343 110.604C312.863 110.964 312.267 111.144 311.555 111.144C310.667 111.144 309.951 110.848 309.407 110.256C308.863 109.664 308.591 108.88 308.591 107.904C308.591 106.928 308.863 106.144 309.407 105.552C309.951 104.96 310.659 104.664 311.531 104.664C312.443 104.664 313.163 104.972 313.691 105.588C314.211 106.204 314.471 106.992 314.471 107.952ZM311.531 105.672C311.059 105.672 310.671 105.816 310.367 106.104C310.071 106.392 309.887 106.808 309.815 107.352H313.235C313.179 106.848 312.999 106.444 312.695 106.14C312.399 105.828 312.011 105.672 311.531 105.672ZM318.631 104.664C319.311 104.664 319.843 104.856 320.227 105.24C320.611 105.616 320.803 106.152 320.803 106.848V111H319.603V107.016C319.603 106.152 319.167 105.72 318.295 105.72C317.895 105.72 317.535 105.872 317.215 106.176C316.895 106.488 316.735 106.932 316.735 107.508V111H315.535V104.808H316.687V105.732C317.159 105.02 317.807 104.664 318.631 104.664ZM327.748 107.952V108.3H323.08C323.136 108.908 323.316 109.368 323.62 109.68C323.924 109.984 324.336 110.136 324.856 110.136C325.64 110.136 326.152 109.792 326.392 109.104H327.604C327.436 109.736 327.108 110.236 326.62 110.604C326.14 110.964 325.544 111.144 324.832 111.144C323.944 111.144 323.228 110.848 322.684 110.256C322.14 109.664 321.868 108.88 321.868 107.904C321.868 106.928 322.14 106.144 322.684 105.552C323.228 104.96 323.936 104.664 324.808 104.664C325.72 104.664 326.44 104.972 326.968 105.588C327.488 106.204 327.748 106.992 327.748 107.952ZM324.808 105.672C324.336 105.672 323.948 105.816 323.644 106.104C323.348 106.392 323.164 106.808 323.092 107.352H326.512C326.456 106.848 326.276 106.444 325.972 106.14C325.676 105.828 325.288 105.672 324.808 105.672ZM333.361 105.648V102.456H334.561V111H333.409V110.088C332.945 110.792 332.261 111.144 331.357 111.144C330.493 111.144 329.805 110.852 329.293 110.268C328.781 109.684 328.525 108.896 328.525 107.904C328.525 106.912 328.781 106.124 329.293 105.54C329.805 104.956 330.493 104.664 331.357 104.664C332.229 104.664 332.897 104.992 333.361 105.648ZM329.773 107.952C329.773 108.64 329.937 109.172 330.265 109.548C330.593 109.924 331.033 110.112 331.585 110.112C332.153 110.112 332.597 109.916 332.917 109.524C333.237 109.148 333.397 108.608 333.397 107.904C333.397 107.208 333.237 106.664 332.917 106.272C332.597 105.888 332.153 105.696 331.585 105.696C331.033 105.696 330.593 105.896 330.265 106.296C329.937 106.696 329.773 107.248 329.773 107.952Z" fill="black"/>
<circle cx="284.5" cy="107.5" r="2.5" fill="#FADC3F"/>
<path d="M425.334 106.16C426.006 106.448 426.534 106.868 426.918 107.42C427.314 107.96 427.512 108.596 427.512 109.328C427.512 110.516 427.08 111.47 426.216 112.19C425.34 112.922 424.17 113.288 422.706 113.288C421.074 113.288 419.826 112.892 418.962 112.1C418.11 111.296 417.684 110.18 417.684 108.752H420.042C420.078 110.408 420.942 111.236 422.634 111.236C423.366 111.236 423.942 111.056 424.362 110.696C424.782 110.336 424.992 109.85 424.992 109.238C424.992 108.578 424.776 108.068 424.344 107.708C423.912 107.348 423.312 107.168 422.544 107.168H421.59V105.386H422.526C424.026 105.386 424.776 104.792 424.776 103.604C424.776 103.064 424.584 102.644 424.2 102.344C423.816 102.032 423.288 101.876 422.616 101.876C421.164 101.876 420.402 102.554 420.33 103.91H417.99C418.014 102.626 418.422 101.636 419.214 100.94C420.018 100.244 421.158 99.896 422.634 99.896C424.014 99.896 425.106 100.214 425.91 100.85C426.726 101.474 427.134 102.326 427.134 103.406C427.134 104.63 426.534 105.548 425.334 106.16ZM437.096 107.996H438.806V110.048H437.096V113H434.666V110.048H428.438V107.744L434.432 100.184H437.096V107.996ZM434.72 107.996V102.794L430.598 107.996H434.72ZM444.168 108.41C444.168 109.31 443.76 110.114 442.944 110.822H449.028V113H439.902V111.02C440.55 110.696 441.018 110.342 441.306 109.958C441.606 109.562 441.756 109.082 441.756 108.518C441.756 108.254 441.72 107.996 441.648 107.744H439.614V106.43H441.144C441.144 106.418 441.114 106.352 441.054 106.232C440.514 105.08 440.244 104.162 440.244 103.478C440.244 102.386 440.64 101.516 441.432 100.868C442.2 100.22 443.238 99.896 444.546 99.896C445.986 99.896 447.078 100.25 447.822 100.958C448.566 101.666 448.968 102.68 449.028 104H446.67C446.634 103.292 446.448 102.764 446.112 102.416C445.776 102.068 445.242 101.894 444.51 101.894C443.934 101.894 443.49 102.038 443.178 102.326C442.866 102.602 442.71 102.986 442.71 103.478C442.71 103.91 442.92 104.594 443.34 105.53C443.436 105.77 443.562 106.07 443.718 106.43H447.39V107.744H444.114C444.15 107.96 444.168 108.182 444.168 108.41Z" fill="black"/>
<path d="M363.925 102.744H365.043V112H363.652V105.396H361.533V104.369L361.741 104.356C362.408 104.313 362.907 104.174 363.236 103.94C363.574 103.697 363.804 103.299 363.925 102.744ZM367.969 110.791H372.805V112H366.409L366.448 111.415C366.482 110.782 366.625 110.176 366.877 109.595C367.163 108.928 367.752 108.364 368.645 107.905L369.698 107.32C370.252 107.025 370.651 106.726 370.894 106.423C371.136 106.111 371.258 105.734 371.258 105.292C371.258 104.815 371.106 104.438 370.803 104.161C370.508 103.884 370.096 103.745 369.568 103.745C368.38 103.745 367.787 104.365 367.787 105.604H366.422C366.413 104.633 366.686 103.879 367.241 103.342C367.795 102.805 368.584 102.536 369.607 102.536C370.543 102.536 371.288 102.787 371.843 103.29C372.406 103.801 372.688 104.451 372.688 105.24C372.688 105.89 372.506 106.462 372.142 106.956C371.778 107.45 371.206 107.905 370.426 108.321L369.503 108.841C368.974 109.136 368.593 109.426 368.359 109.712C368.133 109.998 368.003 110.358 367.969 110.791ZM375.345 107.164H373.772V105.617H375.345V107.164ZM375.345 112H373.772V110.453H375.345V112ZM378.011 110.791H382.847V112H376.451L376.49 111.415C376.524 110.782 376.667 110.176 376.919 109.595C377.205 108.928 377.794 108.364 378.687 107.905L379.74 107.32C380.294 107.025 380.693 106.726 380.936 106.423C381.178 106.111 381.3 105.734 381.3 105.292C381.3 104.815 381.148 104.438 380.845 104.161C380.55 103.884 380.138 103.745 379.61 103.745C378.422 103.745 377.829 104.365 377.829 105.604H376.464C376.455 104.633 376.728 103.879 377.283 103.342C377.837 102.805 378.626 102.536 379.649 102.536C380.585 102.536 381.33 102.787 381.885 103.29C382.448 103.801 382.73 104.451 382.73 105.24C382.73 105.89 382.548 106.462 382.184 106.956C381.82 107.45 381.248 107.905 380.468 108.321L379.545 108.841C379.016 109.136 378.635 109.426 378.401 109.712C378.175 109.998 378.045 110.358 378.011 110.791ZM387.172 112.208C386.028 112.208 385.157 111.792 384.559 110.96C383.961 110.128 383.662 108.932 383.662 107.372C383.662 105.812 383.961 104.616 384.559 103.784C385.157 102.952 386.028 102.536 387.172 102.536C388.325 102.536 389.196 102.952 389.785 103.784C390.383 104.607 390.682 105.803 390.682 107.372C390.682 108.941 390.383 110.141 389.785 110.973C389.196 111.796 388.325 112.208 387.172 112.208ZM387.172 110.999C388.55 110.999 389.239 109.79 389.239 107.372C389.239 104.954 388.55 103.745 387.172 103.745C385.803 103.745 385.118 104.954 385.118 107.372C385.118 109.79 385.803 110.999 387.172 110.999Z" fill="black"/>
<rect x="50" y="146" width="415" height="50" rx="8" fill="#DFDFDF"/>
<path d="M70.288 165.184H80.944V167.362H76.84V178H74.392V167.362H70.288V165.184ZM88.4106 178H86.1426C86.0346 177.808 85.9506 177.43 85.8906 176.866C85.2666 177.766 84.2706 178.216 82.9026 178.216C81.8826 178.216 81.0666 177.97 80.4546 177.478C79.8546 176.986 79.5546 176.302 79.5546 175.426C79.5546 173.734 80.7426 172.768 83.1186 172.528L84.5226 172.402C84.9906 172.342 85.3266 172.234 85.5306 172.078C85.7346 171.91 85.8366 171.664 85.8366 171.34C85.8366 170.944 85.7046 170.656 85.4406 170.476C85.1886 170.284 84.7566 170.188 84.1446 170.188C83.4846 170.188 83.0106 170.302 82.7226 170.53C82.4346 170.746 82.2666 171.124 82.2186 171.664H79.9866C80.1186 169.552 81.5106 168.496 84.1626 168.496C86.7426 168.496 88.0326 169.426 88.0326 171.286V176.236C88.0326 177.052 88.1586 177.64 88.4106 178ZM83.4426 176.596C84.1506 176.596 84.7266 176.404 85.1706 176.02C85.6146 175.624 85.8366 175.06 85.8366 174.328V173.482C85.6206 173.674 85.2666 173.8 84.7746 173.86L83.5506 174.004C82.9506 174.076 82.5186 174.22 82.2546 174.436C82.0026 174.64 81.8766 174.94 81.8766 175.336C81.8766 175.732 82.0086 176.044 82.2726 176.272C82.5486 176.488 82.9386 176.596 83.4426 176.596ZM94.857 168.496C96.129 168.496 97.143 168.934 97.899 169.81C98.643 170.698 99.015 171.88 99.015 173.356C99.015 174.82 98.643 175.996 97.899 176.884C97.143 177.772 96.129 178.216 94.857 178.216C93.549 178.216 92.559 177.7 91.887 176.668V178H89.709V165.184H91.977V169.918C92.637 168.97 93.597 168.496 94.857 168.496ZM92.571 175.57C92.979 176.086 93.561 176.344 94.317 176.344C95.061 176.344 95.649 176.074 96.081 175.534C96.501 175.006 96.711 174.256 96.711 173.284C96.711 172.336 96.501 171.616 96.081 171.124C95.673 170.62 95.085 170.368 94.317 170.368C93.561 170.368 92.973 170.626 92.553 171.142C92.133 171.658 91.923 172.396 91.923 173.356C91.923 174.328 92.139 175.066 92.571 175.57ZM102.7 178H100.432V165.184H102.7V178ZM113.293 173.518V174.058H106.345C106.429 174.85 106.675 175.45 107.083 175.858C107.503 176.254 108.061 176.452 108.757 176.452C109.789 176.452 110.497 176.008 110.881 175.12H113.059C112.819 176.068 112.315 176.824 111.547 177.388C110.779 177.94 109.843 178.216 108.739 178.216C107.359 178.216 106.243 177.772 105.391 176.884C104.539 175.996 104.113 174.82 104.113 173.356C104.113 171.892 104.533 170.716 105.373 169.828C106.225 168.94 107.335 168.496 108.703 168.496C110.107 168.496 111.223 168.958 112.051 169.882C112.879 170.806 113.293 172.018 113.293 173.518ZM108.685 170.26C107.353 170.26 106.579 170.998 106.363 172.474H111.025C110.929 171.79 110.677 171.25 110.269 170.854C109.861 170.458 109.333 170.26 108.685 170.26ZM121.145 175.948H127.751V178H118.427L118.481 177.046C118.529 176.062 118.733 175.18 119.093 174.4C119.537 173.428 120.455 172.624 121.847 171.988L123.107 171.34C123.851 170.98 124.379 170.614 124.691 170.242C125.003 169.87 125.159 169.408 125.159 168.856C125.159 168.268 124.973 167.806 124.601 167.47C124.229 167.122 123.713 166.948 123.053 166.948C121.577 166.948 120.839 167.728 120.839 169.288H118.499C118.487 167.908 118.877 166.834 119.669 166.066C120.473 165.286 121.625 164.896 123.125 164.896C124.505 164.896 125.597 165.244 126.401 165.94C127.205 166.636 127.607 167.548 127.607 168.676C127.607 169.648 127.337 170.476 126.797 171.16C126.257 171.832 125.399 172.462 124.223 173.05L123.035 173.68C122.363 174.04 121.889 174.382 121.613 174.706C121.349 175.018 121.193 175.432 121.145 175.948ZM136.569 171.196C138.057 171.772 138.801 172.828 138.801 174.364C138.801 175.564 138.351 176.512 137.451 177.208C136.539 177.928 135.315 178.288 133.779 178.288C132.243 178.288 131.025 177.928 130.125 177.208C129.225 176.512 128.775 175.564 128.775 174.364C128.775 172.852 129.513 171.796 130.989 171.196C129.861 170.608 129.297 169.69 129.297 168.442C129.297 167.35 129.711 166.486 130.539 165.85C131.379 165.214 132.459 164.896 133.779 164.896C135.099 164.896 136.179 165.214 137.019 165.85C137.847 166.486 138.261 167.35 138.261 168.442C138.261 169.69 137.697 170.608 136.569 171.196ZM136.047 168.586C136.047 167.998 135.843 167.542 135.435 167.218C135.027 166.894 134.475 166.732 133.779 166.732C133.107 166.732 132.561 166.894 132.141 167.218C131.721 167.542 131.511 167.998 131.511 168.586C131.511 169.15 131.715 169.594 132.123 169.918C132.531 170.242 133.083 170.404 133.779 170.404C134.475 170.404 135.027 170.242 135.435 169.918C135.843 169.594 136.047 169.15 136.047 168.586ZM133.779 176.344C134.607 176.344 135.243 176.158 135.687 175.786C136.143 175.414 136.371 174.892 136.371 174.22C136.371 173.536 136.143 173.008 135.687 172.636C135.231 172.264 134.595 172.078 133.779 172.078C132.963 172.078 132.327 172.264 131.871 172.636C131.415 173.008 131.187 173.536 131.187 174.22C131.187 174.892 131.415 175.414 131.871 175.786C132.327 176.158 132.963 176.344 133.779 176.344Z" fill="black"/>
<path d="M296.56 176.192C295.296 176.192 294.288 175.78 293.536 174.956C292.768 174.14 292.384 173.064 292.384 171.728C292.384 170.4 292.768 169.32 293.536 168.488C294.288 167.672 295.296 167.264 296.56 167.264C297.808 167.264 298.816 167.672 299.584 168.488C300.344 169.32 300.724 170.4 300.724 171.728C300.724 173.056 300.344 174.132 299.584 174.956C298.816 175.78 297.808 176.192 296.56 176.192ZM294.496 174.14C295.008 174.74 295.696 175.04 296.56 175.04C297.424 175.04 298.112 174.74 298.624 174.14C299.136 173.556 299.392 172.752 299.392 171.728C299.392 170.704 299.136 169.896 298.624 169.304C298.104 168.712 297.416 168.416 296.56 168.416C295.704 168.416 295.016 168.712 294.496 169.304C293.976 169.912 293.716 170.72 293.716 171.728C293.716 172.744 293.976 173.548 294.496 174.14ZM304.993 169.664C305.857 169.664 306.545 169.956 307.057 170.54C307.569 171.124 307.825 171.912 307.825 172.904C307.825 173.888 307.569 174.672 307.057 175.256C306.537 175.848 305.849 176.144 304.993 176.144C304.113 176.144 303.441 175.808 302.977 175.136V178.352H301.777V169.808H302.929V170.744C303.393 170.024 304.081 169.664 304.993 169.664ZM303.445 174.524C303.765 174.916 304.205 175.112 304.765 175.112C305.325 175.112 305.769 174.912 306.097 174.512C306.417 174.12 306.577 173.568 306.577 172.856C306.577 172.168 306.417 171.636 306.097 171.26C305.777 170.884 305.333 170.696 304.765 170.696C304.213 170.696 303.773 170.888 303.445 171.272C303.117 171.672 302.953 172.216 302.953 172.904C302.953 173.592 303.117 174.132 303.445 174.524ZM314.471 172.952V173.3H309.803C309.859 173.908 310.039 174.368 310.343 174.68C310.647 174.984 311.059 175.136 311.579 175.136C312.363 175.136 312.875 174.792 313.115 174.104H314.327C314.159 174.736 313.831 175.236 313.343 175.604C312.863 175.964 312.267 176.144 311.555 176.144C310.667 176.144 309.951 175.848 309.407 175.256C308.863 174.664 308.591 173.88 308.591 172.904C308.591 171.928 308.863 171.144 309.407 170.552C309.951 169.96 310.659 169.664 311.531 169.664C312.443 169.664 313.163 169.972 313.691 170.588C314.211 171.204 314.471 171.992 314.471 172.952ZM311.531 170.672C311.059 170.672 310.671 170.816 310.367 171.104C310.071 171.392 309.887 171.808 309.815 172.352H313.235C313.179 171.848 312.999 171.444 312.695 171.14C312.399 170.828 312.011 170.672 311.531 170.672ZM318.631 169.664C319.311 169.664 319.843 169.856 320.227 170.24C320.611 170.616 320.803 171.152 320.803 171.848V176H319.603V172.016C319.603 171.152 319.167 170.72 318.295 170.72C317.895 170.72 317.535 170.872 317.215 171.176C316.895 171.488 316.735 171.932 316.735 172.508V176H315.535V169.808H316.687V170.732C317.159 170.02 317.807 169.664 318.631 169.664ZM327.748 172.952V173.3H323.08C323.136 173.908 323.316 174.368 323.62 174.68C323.924 174.984 324.336 175.136 324.856 175.136C325.64 175.136 326.152 174.792 326.392 174.104H327.604C327.436 174.736 327.108 175.236 326.62 175.604C326.14 175.964 325.544 176.144 324.832 176.144C323.944 176.144 323.228 175.848 322.684 175.256C322.14 174.664 321.868 173.88 321.868 172.904C321.868 171.928 322.14 171.144 322.684 170.552C323.228 169.96 323.936 169.664 324.808 169.664C325.72 169.664 326.44 169.972 326.968 170.588C327.488 171.204 327.748 171.992 327.748 172.952ZM324.808 170.672C324.336 170.672 323.948 170.816 323.644 171.104C323.348 171.392 323.164 171.808 323.092 172.352H326.512C326.456 171.848 326.276 171.444 325.972 171.14C325.676 170.828 325.288 170.672 324.808 170.672ZM333.361 170.648V167.456H334.561V176H333.409V175.088C332.945 175.792 332.261 176.144 331.357 176.144C330.493 176.144 329.805 175.852 329.293 175.268C328.781 174.684 328.525 173.896 328.525 172.904C328.525 171.912 328.781 171.124 329.293 170.54C329.805 169.956 330.493 169.664 331.357 169.664C332.229 169.664 332.897 169.992 333.361 170.648ZM329.773 172.952C329.773 173.64 329.937 174.172 330.265 174.548C330.593 174.924 331.033 175.112 331.585 175.112C332.153 175.112 332.597 174.916 332.917 174.524C333.237 174.148 333.397 173.608 333.397 172.904C333.397 172.208 333.237 171.664 332.917 171.272C332.597 170.888 332.153 170.696 331.585 170.696C331.033 170.696 330.593 170.896 330.265 171.296C329.937 171.696 329.773 172.248 329.773 172.952Z" fill="black"/>
<circle cx="284.5" cy="172.5" r="2.5" fill="#FADC3F"/>
<path d="M425.334 171.16C426.006 171.448 426.534 171.868 426.918 172.42C427.314 172.96 427.512 173.596 427.512 174.328C427.512 175.516 427.08 176.47 426.216 177.19C425.34 177.922 424.17 178.288 422.706 178.288C421.074 178.288 419.826 177.892 418.962 177.1C418.11 176.296 417.684 175.18 417.684 173.752H420.042C420.078 175.408 420.942 176.236 422.634 176.236C423.366 176.236 423.942 176.056 424.362 175.696C424.782 175.336 424.992 174.85 424.992 174.238C424.992 173.578 424.776 173.068 424.344 172.708C423.912 172.348 423.312 172.168 422.544 172.168H421.59V170.386H422.526C424.026 170.386 424.776 169.792 424.776 168.604C424.776 168.064 424.584 167.644 424.2 167.344C423.816 167.032 423.288 166.876 422.616 166.876C421.164 166.876 420.402 167.554 420.33 168.91H417.99C418.014 167.626 418.422 166.636 419.214 165.94C420.018 165.244 421.158 164.896 422.634 164.896C424.014 164.896 425.106 165.214 425.91 165.85C426.726 166.474 427.134 167.326 427.134 168.406C427.134 169.63 426.534 170.548 425.334 171.16ZM437.096 172.996H438.806V175.048H437.096V178H434.666V175.048H428.438V172.744L434.432 165.184H437.096V172.996ZM434.72 172.996V167.794L430.598 172.996H434.72ZM444.168 173.41C444.168 174.31 443.76 175.114 442.944 175.822H449.028V178H439.902V176.02C440.55 175.696 441.018 175.342 441.306 174.958C441.606 174.562 441.756 174.082 441.756 173.518C441.756 173.254 441.72 172.996 441.648 172.744H439.614V171.43H441.144C441.144 171.418 441.114 171.352 441.054 171.232C440.514 170.08 440.244 169.162 440.244 168.478C440.244 167.386 440.64 166.516 441.432 165.868C442.2 165.22 443.238 164.896 444.546 164.896C445.986 164.896 447.078 165.25 447.822 165.958C448.566 166.666 448.968 167.68 449.028 169H446.67C446.634 168.292 446.448 167.764 446.112 167.416C445.776 167.068 445.242 166.894 444.51 166.894C443.934 166.894 443.49 167.038 443.178 167.326C442.866 167.602 442.71 167.986 442.71 168.478C442.71 168.91 442.92 169.594 443.34 170.53C443.436 170.77 443.562 171.07 443.718 171.43H447.39V172.744H444.114C444.15 172.96 444.168 173.182 444.168 173.41Z" fill="black"/>
<path d="M363.925 167.744H365.043V177H363.652V170.396H361.533V169.369L361.741 169.356C362.408 169.313 362.907 169.174 363.236 168.94C363.574 168.697 363.804 168.299 363.925 167.744ZM367.969 175.791H372.805V177H366.409L366.448 176.415C366.482 175.782 366.625 175.176 366.877 174.595C367.163 173.928 367.752 173.364 368.645 172.905L369.698 172.32C370.252 172.025 370.651 171.726 370.894 171.423C371.136 171.111 371.258 170.734 371.258 170.292C371.258 169.815 371.106 169.438 370.803 169.161C370.508 168.884 370.096 168.745 369.568 168.745C368.38 168.745 367.787 169.365 367.787 170.604H366.422C366.413 169.633 366.686 168.879 367.241 168.342C367.795 167.805 368.584 167.536 369.607 167.536C370.543 167.536 371.288 167.787 371.843 168.29C372.406 168.801 372.688 169.451 372.688 170.24C372.688 170.89 372.506 171.462 372.142 171.956C371.778 172.45 371.206 172.905 370.426 173.321L369.503 173.841C368.974 174.136 368.593 174.426 368.359 174.712C368.133 174.998 368.003 175.358 367.969 175.791ZM375.345 172.164H373.772V170.617H375.345V172.164ZM375.345 177H373.772V175.453H375.345V177ZM378.011 175.791H382.847V177H376.451L376.49 176.415C376.524 175.782 376.667 175.176 376.919 174.595C377.205 173.928 377.794 173.364 378.687 172.905L379.74 172.32C380.294 172.025 380.693 171.726 380.936 171.423C381.178 171.111 381.3 170.734 381.3 170.292C381.3 169.815 381.148 169.438 380.845 169.161C380.55 168.884 380.138 168.745 379.61 168.745C378.422 168.745 377.829 169.365 377.829 170.604H376.464C376.455 169.633 376.728 168.879 377.283 168.342C377.837 167.805 378.626 167.536 379.649 167.536C380.585 167.536 381.33 167.787 381.885 168.29C382.448 168.801 382.73 169.451 382.73 170.24C382.73 170.89 382.548 171.462 382.184 171.956C381.82 172.45 381.248 172.905 380.468 173.321L379.545 173.841C379.016 174.136 378.635 174.426 378.401 174.712C378.175 174.998 378.045 175.358 378.011 175.791ZM387.172 177.208C386.028 177.208 385.157 176.792 384.559 175.96C383.961 175.128 383.662 173.932 383.662 172.372C383.662 170.812 383.961 169.616 384.559 168.784C385.157 167.952 386.028 167.536 387.172 167.536C388.325 167.536 389.196 167.952 389.785 168.784C390.383 169.607 390.682 170.803 390.682 172.372C390.682 173.941 390.383 175.141 389.785 175.973C389.196 176.796 388.325 177.208 387.172 177.208ZM387.172 175.999C388.55 175.999 389.239 174.79 389.239 172.372C389.239 169.954 388.55 168.745 387.172 168.745C385.803 168.745 385.118 169.954 385.118 172.372C385.118 174.79 385.803 175.999 387.172 175.999Z" fill="black"/>
<rect x="50" y="211" width="415" height="50" rx="8" fill="#DFDFDF"/>
<path d="M70.288 230.184H80.944V232.362H76.84V243H74.392V232.362H70.288V230.184ZM88.4106 243H86.1426C86.0346 242.808 85.9506 242.43 85.8906 241.866C85.2666 242.766 84.2706 243.216 82.9026 243.216C81.8826 243.216 81.0666 242.97 80.4546 242.478C79.8546 241.986 79.5546 241.302 79.5546 240.426C79.5546 238.734 80.7426 237.768 83.1186 237.528L84.5226 237.402C84.9906 237.342 85.3266 237.234 85.5306 237.078C85.7346 236.91 85.8366 236.664 85.8366 236.34C85.8366 235.944 85.7046 235.656 85.4406 235.476C85.1886 235.284 84.7566 235.188 84.1446 235.188C83.4846 235.188 83.0106 235.302 82.7226 235.53C82.4346 235.746 82.2666 236.124 82.2186 236.664H79.9866C80.1186 234.552 81.5106 233.496 84.1626 233.496C86.7426 233.496 88.0326 234.426 88.0326 236.286V241.236C88.0326 242.052 88.1586 242.64 88.4106 243ZM83.4426 241.596C84.1506 241.596 84.7266 241.404 85.1706 241.02C85.6146 240.624 85.8366 240.06 85.8366 239.328V238.482C85.6206 238.674 85.2666 238.8 84.7746 238.86L83.5506 239.004C82.9506 239.076 82.5186 239.22 82.2546 239.436C82.0026 239.64 81.8766 239.94 81.8766 240.336C81.8766 240.732 82.0086 241.044 82.2726 241.272C82.5486 241.488 82.9386 241.596 83.4426 241.596ZM94.857 233.496C96.129 233.496 97.143 233.934 97.899 234.81C98.643 235.698 99.015 236.88 99.015 238.356C99.015 239.82 98.643 240.996 97.899 241.884C97.143 242.772 96.129 243.216 94.857 243.216C93.549 243.216 92.559 242.7 91.887 241.668V243H89.709V230.184H91.977V234.918C92.637 233.97 93.597 233.496 94.857 233.496ZM92.571 240.57C92.979 241.086 93.561 241.344 94.317 241.344C95.061 241.344 95.649 241.074 96.081 240.534C96.501 240.006 96.711 239.256 96.711 238.284C96.711 237.336 96.501 236.616 96.081 236.124C95.673 235.62 95.085 235.368 94.317 235.368C93.561 235.368 92.973 235.626 92.553 236.142C92.133 236.658 91.923 237.396 91.923 238.356C91.923 239.328 92.139 240.066 92.571 240.57ZM102.7 243H100.432V230.184H102.7V243ZM113.293 238.518V239.058H106.345C106.429 239.85 106.675 240.45 107.083 240.858C107.503 241.254 108.061 241.452 108.757 241.452C109.789 241.452 110.497 241.008 110.881 240.12H113.059C112.819 241.068 112.315 241.824 111.547 242.388C110.779 242.94 109.843 243.216 108.739 243.216C107.359 243.216 106.243 242.772 105.391 241.884C104.539 240.996 104.113 239.82 104.113 238.356C104.113 236.892 104.533 235.716 105.373 234.828C106.225 233.94 107.335 233.496 108.703 233.496C110.107 233.496 111.223 233.958 112.051 234.882C112.879 235.806 113.293 237.018 113.293 238.518ZM108.685 235.26C107.353 235.26 106.579 235.998 106.363 237.474H111.025C110.929 236.79 110.677 236.25 110.269 235.854C109.861 235.458 109.333 235.26 108.685 235.26ZM121.145 240.948H127.751V243H118.427L118.481 242.046C118.529 241.062 118.733 240.18 119.093 239.4C119.537 238.428 120.455 237.624 121.847 236.988L123.107 236.34C123.851 235.98 124.379 235.614 124.691 235.242C125.003 234.87 125.159 234.408 125.159 233.856C125.159 233.268 124.973 232.806 124.601 232.47C124.229 232.122 123.713 231.948 123.053 231.948C121.577 231.948 120.839 232.728 120.839 234.288H118.499C118.487 232.908 118.877 231.834 119.669 231.066C120.473 230.286 121.625 229.896 123.125 229.896C124.505 229.896 125.597 230.244 126.401 230.94C127.205 231.636 127.607 232.548 127.607 233.676C127.607 234.648 127.337 235.476 126.797 236.16C126.257 236.832 125.399 237.462 124.223 238.05L123.035 238.68C122.363 239.04 121.889 239.382 121.613 239.706C121.349 240.018 121.193 240.432 121.145 240.948ZM136.569 236.196C138.057 236.772 138.801 237.828 138.801 239.364C138.801 240.564 138.351 241.512 137.451 242.208C136.539 242.928 135.315 243.288 133.779 243.288C132.243 243.288 131.025 242.928 130.125 242.208C129.225 241.512 128.775 240.564 128.775 239.364C128.775 237.852 129.513 236.796 130.989 236.196C129.861 235.608 129.297 234.69 129.297 233.442C129.297 232.35 129.711 231.486 130.539 230.85C131.379 230.214 132.459 229.896 133.779 229.896C135.099 229.896 136.179 230.214 137.019 230.85C137.847 231.486 138.261 232.35 138.261 233.442C138.261 234.69 137.697 235.608 136.569 236.196ZM136.047 233.586C136.047 232.998 135.843 232.542 135.435 232.218C135.027 231.894 134.475 231.732 133.779 231.732C133.107 231.732 132.561 231.894 132.141 232.218C131.721 232.542 131.511 232.998 131.511 233.586C131.511 234.15 131.715 234.594 132.123 234.918C132.531 235.242 133.083 235.404 133.779 235.404C134.475 235.404 135.027 235.242 135.435 234.918C135.843 234.594 136.047 234.15 136.047 233.586ZM133.779 241.344C134.607 241.344 135.243 241.158 135.687 240.786C136.143 240.414 136.371 239.892 136.371 239.22C136.371 238.536 136.143 238.008 135.687 237.636C135.231 237.264 134.595 237.078 133.779 237.078C132.963 237.078 132.327 237.264 131.871 237.636C131.415 238.008 131.187 238.536 131.187 239.22C131.187 239.892 131.415 240.414 131.871 240.786C132.327 241.158 132.963 241.344 133.779 241.344Z" fill="black"/>
<path d="M296.56 241.192C295.296 241.192 294.288 240.78 293.536 239.956C292.768 239.14 292.384 238.064 292.384 236.728C292.384 235.4 292.768 234.32 293.536 233.488C294.288 232.672 295.296 232.264 296.56 232.264C297.808 232.264 298.816 232.672 299.584 233.488C300.344 234.32 300.724 235.4 300.724 236.728C300.724 238.056 300.344 239.132 299.584 239.956C298.816 240.78 297.808 241.192 296.56 241.192ZM294.496 239.14C295.008 239.74 295.696 240.04 296.56 240.04C297.424 240.04 298.112 239.74 298.624 239.14C299.136 238.556 299.392 237.752 299.392 236.728C299.392 235.704 299.136 234.896 298.624 234.304C298.104 233.712 297.416 233.416 296.56 233.416C295.704 233.416 295.016 233.712 294.496 234.304C293.976 234.912 293.716 235.72 293.716 236.728C293.716 237.744 293.976 238.548 294.496 239.14ZM304.993 234.664C305.857 234.664 306.545 234.956 307.057 235.54C307.569 236.124 307.825 236.912 307.825 237.904C307.825 238.888 307.569 239.672 307.057 240.256C306.537 240.848 305.849 241.144 304.993 241.144C304.113 241.144 303.441 240.808 302.977 240.136V243.352H301.777V234.808H302.929V235.744C303.393 235.024 304.081 234.664 304.993 234.664ZM303.445 239.524C303.765 239.916 304.205 240.112 304.765 240.112C305.325 240.112 305.769 239.912 306.097 239.512C306.417 239.12 306.577 238.568 306.577 237.856C306.577 237.168 306.417 236.636 306.097 236.26C305.777 235.884 305.333 235.696 304.765 235.696C304.213 235.696 303.773 235.888 303.445 236.272C303.117 236.672 302.953 237.216 302.953 237.904C302.953 238.592 303.117 239.132 303.445 239.524ZM314.471 237.952V238.3H309.803C309.859 238.908 310.039 239.368 310.343 239.68C310.647 239.984 311.059 240.136 311.579 240.136C312.363 240.136 312.875 239.792 313.115 239.104H314.327C314.159 239.736 313.831 240.236 313.343 240.604C312.863 240.964 312.267 241.144 311.555 241.144C310.667 241.144 309.951 240.848 309.407 240.256C308.863 239.664 308.591 238.88 308.591 237.904C308.591 236.928 308.863 236.144 309.407 235.552C309.951 234.96 310.659 234.664 311.531 234.664C312.443 234.664 313.163 234.972 313.691 235.588C314.211 236.204 314.471 236.992 314.471 237.952ZM311.531 235.672C311.059 235.672 310.671 235.816 310.367 236.104C310.071 236.392 309.887 236.808 309.815 237.352H313.235C313.179 236.848 312.999 236.444 312.695 236.14C312.399 235.828 312.011 235.672 311.531 235.672ZM318.631 234.664C319.311 234.664 319.843 234.856 320.227 235.24C320.611 235.616 320.803 236.152 320.803 236.848V241H319.603V237.016C319.603 236.152 319.167 235.72 318.295 235.72C317.895 235.72 317.535 235.872 317.215 236.176C316.895 236.488 316.735 236.932 316.735 237.508V241H315.535V234.808H316.687V235.732C317.159 235.02 317.807 234.664 318.631 234.664ZM327.748 237.952V238.3H323.08C323.136 238.908 323.316 239.368 323.62 239.68C323.924 239.984 324.336 240.136 324.856 240.136C325.64 240.136 326.152 239.792 326.392 239.104H327.604C327.436 239.736 327.108 240.236 326.62 240.604C326.14 240.964 325.544 241.144 324.832 241.144C323.944 241.144 323.228 240.848 322.684 240.256C322.14 239.664 321.868 238.88 321.868 237.904C321.868 236.928 322.14 236.144 322.684 235.552C323.228 234.96 323.936 234.664 324.808 234.664C325.72 234.664 326.44 234.972 326.968 235.588C327.488 236.204 327.748 236.992 327.748 237.952ZM324.808 235.672C324.336 235.672 323.948 235.816 323.644 236.104C323.348 236.392 323.164 236.808 323.092 237.352H326.512C326.456 236.848 326.276 236.444 325.972 236.14C325.676 235.828 325.288 235.672 324.808 235.672ZM333.361 235.648V232.456H334.561V241H333.409V240.088C332.945 240.792 332.261 241.144 331.357 241.144C330.493 241.144 329.805 240.852 329.293 240.268C328.781 239.684 328.525 238.896 328.525 237.904C328.525 236.912 328.781 236.124 329.293 235.54C329.805 234.956 330.493 234.664 331.357 234.664C332.229 234.664 332.897 234.992 333.361 235.648ZM329.773 237.952C329.773 238.64 329.937 239.172 330.265 239.548C330.593 239.924 331.033 240.112 331.585 240.112C332.153 240.112 332.597 239.916 332.917 239.524C333.237 239.148 333.397 238.608 333.397 237.904C333.397 237.208 333.237 236.664 332.917 236.272C332.597 235.888 332.153 235.696 331.585 235.696C331.033 235.696 330.593 235.896 330.265 236.296C329.937 236.696 329.773 237.248 329.773 237.952Z" fill="black"/>
<circle cx="284.5" cy="237.5" r="2.5" fill="#FADC3F"/>
<path d="M425.334 236.16C426.006 236.448 426.534 236.868 426.918 237.42C427.314 237.96 427.512 238.596 427.512 239.328C427.512 240.516 427.08 241.47 426.216 242.19C425.34 242.922 424.17 243.288 422.706 243.288C421.074 243.288 419.826 242.892 418.962 242.1C418.11 241.296 417.684 240.18 417.684 238.752H420.042C420.078 240.408 420.942 241.236 422.634 241.236C423.366 241.236 423.942 241.056 424.362 240.696C424.782 240.336 424.992 239.85 424.992 239.238C424.992 238.578 424.776 238.068 424.344 237.708C423.912 237.348 423.312 237.168 422.544 237.168H421.59V235.386H422.526C424.026 235.386 424.776 234.792 424.776 233.604C424.776 233.064 424.584 232.644 424.2 232.344C423.816 232.032 423.288 231.876 422.616 231.876C421.164 231.876 420.402 232.554 420.33 233.91H417.99C418.014 232.626 418.422 231.636 419.214 230.94C420.018 230.244 421.158 229.896 422.634 229.896C424.014 229.896 425.106 230.214 425.91 230.85C426.726 231.474 427.134 232.326 427.134 233.406C427.134 234.63 426.534 235.548 425.334 236.16ZM437.096 237.996H438.806V240.048H437.096V243H434.666V240.048H428.438V237.744L434.432 230.184H437.096V237.996ZM434.72 237.996V232.794L430.598 237.996H434.72ZM444.168 238.41C444.168 239.31 443.76 240.114 442.944 240.822H449.028V243H439.902V241.02C440.55 240.696 441.018 240.342 441.306 239.958C441.606 239.562 441.756 239.082 441.756 238.518C441.756 238.254 441.72 237.996 441.648 237.744H439.614V236.43H441.144C441.144 236.418 441.114 236.352 441.054 236.232C440.514 235.08 440.244 234.162 440.244 233.478C440.244 232.386 440.64 231.516 441.432 230.868C442.2 230.22 443.238 229.896 444.546 229.896C445.986 229.896 447.078 230.25 447.822 230.958C448.566 231.666 448.968 232.68 449.028 234H446.67C446.634 233.292 446.448 232.764 446.112 232.416C445.776 232.068 445.242 231.894 444.51 231.894C443.934 231.894 443.49 232.038 443.178 232.326C442.866 232.602 442.71 232.986 442.71 233.478C442.71 233.91 442.92 234.594 443.34 235.53C443.436 235.77 443.562 236.07 443.718 236.43H447.39V237.744H444.114C444.15 237.96 444.168 238.182 444.168 238.41Z" fill="black"/>
<path d="M363.925 232.744H365.043V242H363.652V235.396H361.533V234.369L361.741 234.356C362.408 234.313 362.907 234.174 363.236 233.94C363.574 233.697 363.804 233.299 363.925 232.744ZM367.969 240.791H372.805V242H366.409L366.448 241.415C366.482 240.782 366.625 240.176 366.877 239.595C367.163 238.928 367.752 238.364 368.645 237.905L369.698 237.32C370.252 237.025 370.651 236.726 370.894 236.423C371.136 236.111 371.258 235.734 371.258 235.292C371.258 234.815 371.106 234.438 370.803 234.161C370.508 233.884 370.096 233.745 369.568 233.745C368.38 233.745 367.787 234.365 367.787 235.604H366.422C366.413 234.633 366.686 233.879 367.241 233.342C367.795 232.805 368.584 232.536 369.607 232.536C370.543 232.536 371.288 232.787 371.843 233.29C372.406 233.801 372.688 234.451 372.688 235.24C372.688 235.89 372.506 236.462 372.142 236.956C371.778 237.45 371.206 237.905 370.426 238.321L369.503 238.841C368.974 239.136 368.593 239.426 368.359 239.712C368.133 239.998 368.003 240.358 367.969 240.791ZM375.345 237.164H373.772V235.617H375.345V237.164ZM375.345 242H373.772V240.453H375.345V242ZM378.011 240.791H382.847V242H376.451L376.49 241.415C376.524 240.782 376.667 240.176 376.919 239.595C377.205 238.928 377.794 238.364 378.687 237.905L379.74 237.32C380.294 237.025 380.693 236.726 380.936 236.423C381.178 236.111 381.3 235.734 381.3 235.292C381.3 234.815 381.148 234.438 380.845 234.161C380.55 233.884 380.138 233.745 379.61 233.745C378.422 233.745 377.829 234.365 377.829 235.604H376.464C376.455 234.633 376.728 233.879 377.283 233.342C377.837 232.805 378.626 232.536 379.649 232.536C380.585 232.536 381.33 232.787 381.885 233.29C382.448 233.801 382.73 234.451 382.73 235.24C382.73 235.89 382.548 236.462 382.184 236.956C381.82 237.45 381.248 237.905 380.468 238.321L379.545 238.841C379.016 239.136 378.635 239.426 378.401 239.712C378.175 239.998 378.045 240.358 378.011 240.791ZM387.172 242.208C386.028 242.208 385.157 241.792 384.559 240.96C383.961 240.128 383.662 238.932 383.662 237.372C383.662 235.812 383.961 234.616 384.559 233.784C385.157 232.952 386.028 232.536 387.172 232.536C388.325 232.536 389.196 232.952 389.785 233.784C390.383 234.607 390.682 235.803 390.682 237.372C390.682 238.941 390.383 240.141 389.785 240.973C389.196 241.796 388.325 242.208 387.172 242.208ZM387.172 240.999C388.55 240.999 389.239 239.79 389.239 237.372C389.239 234.954 388.55 233.745 387.172 233.745C385.803 233.745 385.118 234.954 385.118 237.372C385.118 239.79 385.803 240.999 387.172 240.999Z" fill="black"/>
<rect x="50" y="276" width="415" height="50" rx="8" fill="#DFDFDF"/>
<path d="M70.288 295.184H80.944V297.362H76.84V308H74.392V297.362H70.288V295.184ZM88.4106 308H86.1426C86.0346 307.808 85.9506 307.43 85.8906 306.866C85.2666 307.766 84.2706 308.216 82.9026 308.216C81.8826 308.216 81.0666 307.97 80.4546 307.478C79.8546 306.986 79.5546 306.302 79.5546 305.426C79.5546 303.734 80.7426 302.768 83.1186 302.528L84.5226 302.402C84.9906 302.342 85.3266 302.234 85.5306 302.078C85.7346 301.91 85.8366 301.664 85.8366 301.34C85.8366 300.944 85.7046 300.656 85.4406 300.476C85.1886 300.284 84.7566 300.188 84.1446 300.188C83.4846 300.188 83.0106 300.302 82.7226 300.53C82.4346 300.746 82.2666 301.124 82.2186 301.664H79.9866C80.1186 299.552 81.5106 298.496 84.1626 298.496C86.7426 298.496 88.0326 299.426 88.0326 301.286V306.236C88.0326 307.052 88.1586 307.64 88.4106 308ZM83.4426 306.596C84.1506 306.596 84.7266 306.404 85.1706 306.02C85.6146 305.624 85.8366 305.06 85.8366 304.328V303.482C85.6206 303.674 85.2666 303.8 84.7746 303.86L83.5506 304.004C82.9506 304.076 82.5186 304.22 82.2546 304.436C82.0026 304.64 81.8766 304.94 81.8766 305.336C81.8766 305.732 82.0086 306.044 82.2726 306.272C82.5486 306.488 82.9386 306.596 83.4426 306.596ZM94.857 298.496C96.129 298.496 97.143 298.934 97.899 299.81C98.643 300.698 99.015 301.88 99.015 303.356C99.015 304.82 98.643 305.996 97.899 306.884C97.143 307.772 96.129 308.216 94.857 308.216C93.549 308.216 92.559 307.7 91.887 306.668V308H89.709V295.184H91.977V299.918C92.637 298.97 93.597 298.496 94.857 298.496ZM92.571 305.57C92.979 306.086 93.561 306.344 94.317 306.344C95.061 306.344 95.649 306.074 96.081 305.534C96.501 305.006 96.711 304.256 96.711 303.284C96.711 302.336 96.501 301.616 96.081 301.124C95.673 300.62 95.085 300.368 94.317 300.368C93.561 300.368 92.973 300.626 92.553 301.142C92.133 301.658 91.923 302.396 91.923 303.356C91.923 304.328 92.139 305.066 92.571 305.57ZM102.7 308H100.432V295.184H102.7V308ZM113.293 303.518V304.058H106.345C106.429 304.85 106.675 305.45 107.083 305.858C107.503 306.254 108.061 306.452 108.757 306.452C109.789 306.452 110.497 306.008 110.881 305.12H113.059C112.819 306.068 112.315 306.824 111.547 307.388C110.779 307.94 109.843 308.216 108.739 308.216C107.359 308.216 106.243 307.772 105.391 306.884C104.539 305.996 104.113 304.82 104.113 303.356C104.113 301.892 104.533 300.716 105.373 299.828C106.225 298.94 107.335 298.496 108.703 298.496C110.107 298.496 111.223 298.958 112.051 299.882C112.879 300.806 113.293 302.018 113.293 303.518ZM108.685 300.26C107.353 300.26 106.579 300.998 106.363 302.474H111.025C110.929 301.79 110.677 301.25 110.269 300.854C109.861 300.458 109.333 300.26 108.685 300.26ZM121.145 305.948H127.751V308H118.427L118.481 307.046C118.529 306.062 118.733 305.18 119.093 304.4C119.537 303.428 120.455 302.624 121.847 301.988L123.107 301.34C123.851 300.98 124.379 300.614 124.691 300.242C125.003 299.87 125.159 299.408 125.159 298.856C125.159 298.268 124.973 297.806 124.601 297.47C124.229 297.122 123.713 296.948 123.053 296.948C121.577 296.948 120.839 297.728 120.839 299.288H118.499C118.487 297.908 118.877 296.834 119.669 296.066C120.473 295.286 121.625 294.896 123.125 294.896C124.505 294.896 125.597 295.244 126.401 295.94C127.205 296.636 127.607 297.548 127.607 298.676C127.607 299.648 127.337 300.476 126.797 301.16C126.257 301.832 125.399 302.462 124.223 303.05L123.035 303.68C122.363 304.04 121.889 304.382 121.613 304.706C121.349 305.018 121.193 305.432 121.145 305.948ZM136.569 301.196C138.057 301.772 138.801 302.828 138.801 304.364C138.801 305.564 138.351 306.512 137.451 307.208C136.539 307.928 135.315 308.288 133.779 308.288C132.243 308.288 131.025 307.928 130.125 307.208C129.225 306.512 128.775 305.564 128.775 304.364C128.775 302.852 129.513 301.796 130.989 301.196C129.861 300.608 129.297 299.69 129.297 298.442C129.297 297.35 129.711 296.486 130.539 295.85C131.379 295.214 132.459 294.896 133.779 294.896C135.099 294.896 136.179 295.214 137.019 295.85C137.847 296.486 138.261 297.35 138.261 298.442C138.261 299.69 137.697 300.608 136.569 301.196ZM136.047 298.586C136.047 297.998 135.843 297.542 135.435 297.218C135.027 296.894 134.475 296.732 133.779 296.732C133.107 296.732 132.561 296.894 132.141 297.218C131.721 297.542 131.511 297.998 131.511 298.586C131.511 299.15 131.715 299.594 132.123 299.918C132.531 300.242 133.083 300.404 133.779 300.404C134.475 300.404 135.027 300.242 135.435 299.918C135.843 299.594 136.047 299.15 136.047 298.586ZM133.779 306.344C134.607 306.344 135.243 306.158 135.687 305.786C136.143 305.414 136.371 304.892 136.371 304.22C136.371 303.536 136.143 303.008 135.687 302.636C135.231 302.264 134.595 302.078 133.779 302.078C132.963 302.078 132.327 302.264 131.871 302.636C131.415 303.008 131.187 303.536 131.187 304.22C131.187 304.892 131.415 305.414 131.871 305.786C132.327 306.158 132.963 306.344 133.779 306.344Z" fill="black"/>
<path d="M296.56 306.192C295.296 306.192 294.288 305.78 293.536 304.956C292.768 304.14 292.384 303.064 292.384 301.728C292.384 300.4 292.768 299.32 293.536 298.488C294.288 297.672 295.296 297.264 296.56 297.264C297.808 297.264 298.816 297.672 299.584 298.488C300.344 299.32 300.724 300.4 300.724 301.728C300.724 303.056 300.344 304.132 299.584 304.956C298.816 305.78 297.808 306.192 296.56 306.192ZM294.496 304.14C295.008 304.74 295.696 305.04 296.56 305.04C297.424 305.04 298.112 304.74 298.624 304.14C299.136 303.556 299.392 302.752 299.392 301.728C299.392 300.704 299.136 299.896 298.624 299.304C298.104 298.712 297.416 298.416 296.56 298.416C295.704 298.416 295.016 298.712 294.496 299.304C293.976 299.912 293.716 300.72 293.716 301.728C293.716 302.744 293.976 303.548 294.496 304.14ZM304.993 299.664C305.857 299.664 306.545 299.956 307.057 300.54C307.569 301.124 307.825 301.912 307.825 302.904C307.825 303.888 307.569 304.672 307.057 305.256C306.537 305.848 305.849 306.144 304.993 306.144C304.113 306.144 303.441 305.808 302.977 305.136V308.352H301.777V299.808H302.929V300.744C303.393 300.024 304.081 299.664 304.993 299.664ZM303.445 304.524C303.765 304.916 304.205 305.112 304.765 305.112C305.325 305.112 305.769 304.912 306.097 304.512C306.417 304.12 306.577 303.568 306.577 302.856C306.577 302.168 306.417 301.636 306.097 301.26C305.777 300.884 305.333 300.696 304.765 300.696C304.213 300.696 303.773 300.888 303.445 301.272C303.117 301.672 302.953 302.216 302.953 302.904C302.953 303.592 303.117 304.132 303.445 304.524ZM314.471 302.952V303.3H309.803C309.859 303.908 310.039 304.368 310.343 304.68C310.647 304.984 311.059 305.136 311.579 305.136C312.363 305.136 312.875 304.792 313.115 304.104H314.327C314.159 304.736 313.831 305.236 313.343 305.604C312.863 305.964 312.267 306.144 311.555 306.144C310.667 306.144 309.951 305.848 309.407 305.256C308.863 304.664 308.591 303.88 308.591 302.904C308.591 301.928 308.863 301.144 309.407 300.552C309.951 299.96 310.659 299.664 311.531 299.664C312.443 299.664 313.163 299.972 313.691 300.588C314.211 301.204 314.471 301.992 314.471 302.952ZM311.531 300.672C311.059 300.672 310.671 300.816 310.367 301.104C310.071 301.392 309.887 301.808 309.815 302.352H313.235C313.179 301.848 312.999 301.444 312.695 301.14C312.399 300.828 312.011 300.672 311.531 300.672ZM318.631 299.664C319.311 299.664 319.843 299.856 320.227 300.24C320.611 300.616 320.803 301.152 320.803 301.848V306H319.603V302.016C319.603 301.152 319.167 300.72 318.295 300.72C317.895 300.72 317.535 300.872 317.215 301.176C316.895 301.488 316.735 301.932 316.735 302.508V306H315.535V299.808H316.687V300.732C317.159 300.02 317.807 299.664 318.631 299.664ZM327.748 302.952V303.3H323.08C323.136 303.908 323.316 304.368 323.62 304.68C323.924 304.984 324.336 305.136 324.856 305.136C325.64 305.136 326.152 304.792 326.392 304.104H327.604C327.436 304.736 327.108 305.236 326.62 305.604C326.14 305.964 325.544 306.144 324.832 306.144C323.944 306.144 323.228 305.848 322.684 305.256C322.14 304.664 321.868 303.88 321.868 302.904C321.868 301.928 322.14 301.144 322.684 300.552C323.228 299.96 323.936 299.664 324.808 299.664C325.72 299.664 326.44 299.972 326.968 300.588C327.488 301.204 327.748 301.992 327.748 302.952ZM324.808 300.672C324.336 300.672 323.948 300.816 323.644 301.104C323.348 301.392 323.164 301.808 323.092 302.352H326.512C326.456 301.848 326.276 301.444 325.972 301.14C325.676 300.828 325.288 300.672 324.808 300.672ZM333.361 300.648V297.456H334.561V306H333.409V305.088C332.945 305.792 332.261 306.144 331.357 306.144C330.493 306.144 329.805 305.852 329.293 305.268C328.781 304.684 328.525 303.896 328.525 302.904C328.525 301.912 328.781 301.124 329.293 300.54C329.805 299.956 330.493 299.664 331.357 299.664C332.229 299.664 332.897 299.992 333.361 300.648ZM329.773 302.952C329.773 303.64 329.937 304.172 330.265 304.548C330.593 304.924 331.033 305.112 331.585 305.112C332.153 305.112 332.597 304.916 332.917 304.524C333.237 304.148 333.397 303.608 333.397 302.904C333.397 302.208 333.237 301.664 332.917 301.272C332.597 300.888 332.153 300.696 331.585 300.696C331.033 300.696 330.593 300.896 330.265 301.296C329.937 301.696 329.773 302.248 329.773 302.952Z" fill="black"/>
<circle cx="284.5" cy="302.5" r="2.5" fill="#FADC3F"/>
<path d="M425.334 301.16C426.006 301.448 426.534 301.868 426.918 302.42C427.314 302.96 427.512 303.596 427.512 304.328C427.512 305.516 427.08 306.47 426.216 307.19C425.34 307.922 424.17 308.288 422.706 308.288C421.074 308.288 419.826 307.892 418.962 307.1C418.11 306.296 417.684 305.18 417.684 303.752H420.042C420.078 305.408 420.942 306.236 422.634 306.236C423.366 306.236 423.942 306.056 424.362 305.696C424.782 305.336 424.992 304.85 424.992 304.238C424.992 303.578 424.776 303.068 424.344 302.708C423.912 302.348 423.312 302.168 422.544 302.168H421.59V300.386H422.526C424.026 300.386 424.776 299.792 424.776 298.604C424.776 298.064 424.584 297.644 424.2 297.344C423.816 297.032 423.288 296.876 422.616 296.876C421.164 296.876 420.402 297.554 420.33 298.91H417.99C418.014 297.626 418.422 296.636 419.214 295.94C420.018 295.244 421.158 294.896 422.634 294.896C424.014 294.896 425.106 295.214 425.91 295.85C426.726 296.474 427.134 297.326 427.134 298.406C427.134 299.63 426.534 300.548 425.334 301.16ZM437.096 302.996H438.806V305.048H437.096V308H434.666V305.048H428.438V302.744L434.432 295.184H437.096V302.996ZM434.72 302.996V297.794L430.598 302.996H434.72ZM444.168 303.41C444.168 304.31 443.76 305.114 442.944 305.822H449.028V308H439.902V306.02C440.55 305.696 441.018 305.342 441.306 304.958C441.606 304.562 441.756 304.082 441.756 303.518C441.756 303.254 441.72 302.996 441.648 302.744H439.614V301.43H441.144C441.144 301.418 441.114 301.352 441.054 301.232C440.514 300.08 440.244 299.162 440.244 298.478C440.244 297.386 440.64 296.516 441.432 295.868C442.2 295.22 443.238 294.896 444.546 294.896C445.986 294.896 447.078 295.25 447.822 295.958C448.566 296.666 448.968 297.68 449.028 299H446.67C446.634 298.292 446.448 297.764 446.112 297.416C445.776 297.068 445.242 296.894 444.51 296.894C443.934 296.894 443.49 297.038 443.178 297.326C442.866 297.602 442.71 297.986 442.71 298.478C442.71 298.91 442.92 299.594 443.34 300.53C443.436 300.77 443.562 301.07 443.718 301.43H447.39V302.744H444.114C444.15 302.96 444.168 303.182 444.168 303.41Z" fill="black"/>
<path d="M363.925 297.744H365.043V307H363.652V300.396H361.533V299.369L361.741 299.356C362.408 299.313 362.907 299.174 363.236 298.94C363.574 298.697 363.804 298.299 363.925 297.744ZM367.969 305.791H372.805V307H366.409L366.448 306.415C366.482 305.782 366.625 305.176 366.877 304.595C367.163 303.928 367.752 303.364 368.645 302.905L369.698 302.32C370.252 302.025 370.651 301.726 370.894 301.423C371.136 301.111 371.258 300.734 371.258 300.292C371.258 299.815 371.106 299.438 370.803 299.161C370.508 298.884 370.096 298.745 369.568 298.745C368.38 298.745 367.787 299.365 367.787 300.604H366.422C366.413 299.633 366.686 298.879 367.241 298.342C367.795 297.805 368.584 297.536 369.607 297.536C370.543 297.536 371.288 297.787 371.843 298.29C372.406 298.801 372.688 299.451 372.688 300.24C372.688 300.89 372.506 301.462 372.142 301.956C371.778 302.45 371.206 302.905 370.426 303.321L369.503 303.841C368.974 304.136 368.593 304.426 368.359 304.712C368.133 304.998 368.003 305.358 367.969 305.791ZM375.345 302.164H373.772V300.617H375.345V302.164ZM375.345 307H373.772V305.453H375.345V307ZM378.011 305.791H382.847V307H376.451L376.49 306.415C376.524 305.782 376.667 305.176 376.919 304.595C377.205 303.928 377.794 303.364 378.687 302.905L379.74 302.32C380.294 302.025 380.693 301.726 380.936 301.423C381.178 301.111 381.3 300.734 381.3 300.292C381.3 299.815 381.148 299.438 380.845 299.161C380.55 298.884 380.138 298.745 379.61 298.745C378.422 298.745 377.829 299.365 377.829 300.604H376.464C376.455 299.633 376.728 298.879 377.283 298.342C377.837 297.805 378.626 297.536 379.649 297.536C380.585 297.536 381.33 297.787 381.885 298.29C382.448 298.801 382.73 299.451 382.73 300.24C382.73 300.89 382.548 301.462 382.184 301.956C381.82 302.45 381.248 302.905 380.468 303.321L379.545 303.841C379.016 304.136 378.635 304.426 378.401 304.712C378.175 304.998 378.045 305.358 378.011 305.791ZM387.172 307.208C386.028 307.208 385.157 306.792 384.559 305.96C383.961 305.128 383.662 303.932 383.662 302.372C383.662 300.812 383.961 299.616 384.559 298.784C385.157 297.952 386.028 297.536 387.172 297.536C388.325 297.536 389.196 297.952 389.785 298.784C390.383 299.607 390.682 300.803 390.682 302.372C390.682 303.941 390.383 305.141 389.785 305.973C389.196 306.796 388.325 307.208 387.172 307.208ZM387.172 305.999C388.55 305.999 389.239 304.79 389.239 302.372C389.239 299.954 388.55 298.745 387.172 298.745C385.803 298.745 385.118 299.954 385.118 302.372C385.118 304.79 385.803 305.999 387.172 305.999Z" fill="black"/>
</g>
<defs>
<filter id="filter0_d" x="0" y="0" width="515" height="391" filterUnits="userSpaceOnUse" color-interpolation-filters="sRGB">
<feFlood flood-opacity="0" result="BackgroundImageFix"/>
<feColorMatrix in="SourceAlpha" type="matrix" values="0 0 0 0 0 0 0 0 0 0 0 0 0 0 0 0 0 0 127 0" result="hardAlpha"/>
<feOffset dy="13"/>
<feGaussianBlur stdDeviation="10"/>
<feComposite in2="hardAlpha" operator="out"/>
<feColorMatrix type="matrix" values="0 0 0 0 0.5375 0 0 0 0 0.5375 0 0 0 0 0.5375 0 0 0 0.16 0"/>
<feBlend mode="normal" in2="BackgroundImageFix" result="effect1_dropShadow"/>
<feBlend mode="normal" in="SourceGraphic" in2="effect1_dropShadow" result="shape"/>
</filter>
</defs>
</svg>
