<svg width="529" height="391" viewBox="0 0 529 391" fill="none" xmlns="http://www.w3.org/2000/svg">
<g filter="url(#filter0_d)">
<rect x="20" y="7" width="489" height="351" rx="20" fill="white"/>
<path d="M50.288 34.184H60.944V36.362H56.84V47H54.392V36.362H50.288V34.184ZM65.9583 37.568C66.1623 37.568 66.3483 37.58 66.5163 37.604V39.692H65.9403C65.0763 39.692 64.4103 39.914 63.9423 40.358C63.4863 40.79 63.2583 41.432 63.2583 42.284V47H60.9903V37.712H63.1863V39.368C63.7023 38.168 64.6263 37.568 65.9583 37.568ZM76.0844 42.518V43.058H69.1364C69.2204 43.85 69.4664 44.45 69.8744 44.858C70.2944 45.254 70.8524 45.452 71.5484 45.452C72.5804 45.452 73.2884 45.008 73.6724 44.12H75.8504C75.6104 45.068 75.1064 45.824 74.3384 46.388C73.5704 46.94 72.6344 47.216 71.5304 47.216C70.1504 47.216 69.0344 46.772 68.1824 45.884C67.3304 44.996 66.9044 43.82 66.9044 42.356C66.9044 40.892 67.3244 39.716 68.1644 38.828C69.0164 37.94 70.1264 37.496 71.4944 37.496C72.8984 37.496 74.0144 37.958 74.8424 38.882C75.6704 39.806 76.0844 41.018 76.0844 42.518ZM71.4764 39.26C70.1444 39.26 69.3704 39.998 69.1544 41.474H73.8164C73.7204 40.79 73.4684 40.25 73.0604 39.854C72.6524 39.458 72.1244 39.26 71.4764 39.26ZM82.6429 37.496C83.6509 37.496 84.4429 37.79 85.0189 38.378C85.6069 38.954 85.9009 39.776 85.9009 40.844V47H83.6329V41.222C83.6329 40.046 83.0509 39.458 81.8869 39.458C81.3109 39.458 80.8189 39.668 80.4109 40.088C80.0149 40.496 79.8169 41.066 79.8169 41.798V47H77.5489V37.712H79.7449V39.044C80.4529 38.012 81.4189 37.496 82.6429 37.496ZM94.3682 38.918V34.184H96.6362V47H94.4402V45.704C93.7562 46.712 92.7782 47.216 91.5062 47.216C90.2222 47.216 89.2082 46.772 88.4642 45.884C87.7082 44.996 87.3302 43.82 87.3302 42.356C87.3302 40.868 87.7082 39.686 88.4642 38.81C89.1962 37.934 90.2102 37.496 91.5062 37.496C92.7542 37.496 93.7082 37.97 94.3682 38.918ZM89.6522 42.428C89.6522 43.388 89.8622 44.114 90.2822 44.606C90.7022 45.098 91.2842 45.344 92.0282 45.344C92.7722 45.344 93.3602 45.086 93.7922 44.57C94.2122 44.054 94.4222 43.316 94.4222 42.356C94.4222 41.396 94.2122 40.658 93.7922 40.142C93.3722 39.626 92.7842 39.368 92.0282 39.368C91.2962 39.368 90.7142 39.638 90.2822 40.178C89.8622 40.718 89.6522 41.468 89.6522 42.428ZM100.717 36.506H98.4848V34.382H100.717V36.506ZM100.735 47H98.4668V37.712H100.735V47ZM107.657 37.496C108.665 37.496 109.457 37.79 110.033 38.378C110.621 38.954 110.915 39.776 110.915 40.844V47H108.647V41.222C108.647 40.046 108.065 39.458 106.901 39.458C106.325 39.458 105.833 39.668 105.425 40.088C105.029 40.496 104.831 41.066 104.831 41.798V47H102.563V37.712H104.759V39.044C105.467 38.012 106.433 37.496 107.657 37.496ZM119.454 38.99V37.712H121.65V46.694C121.65 47.954 121.248 48.944 120.444 49.664C119.652 50.384 118.524 50.744 117.06 50.744C115.764 50.744 114.744 50.456 114 49.88C113.268 49.304 112.866 48.512 112.794 47.504H115.026C115.134 48.5 115.824 48.998 117.096 48.998C117.84 48.998 118.404 48.806 118.788 48.422C119.184 48.038 119.382 47.48 119.382 46.748V45.578C118.71 46.502 117.762 46.964 116.538 46.964C115.278 46.964 114.264 46.526 113.496 45.65C112.728 44.798 112.344 43.658 112.344 42.23C112.344 40.79 112.728 39.644 113.496 38.792C114.252 37.928 115.26 37.496 116.52 37.496C117.828 37.496 118.806 37.994 119.454 38.99ZM117.042 45.092C117.798 45.092 118.386 44.84 118.806 44.336C119.226 43.832 119.436 43.13 119.436 42.23C119.436 41.33 119.226 40.628 118.806 40.124C118.386 39.62 117.798 39.368 117.042 39.368C116.31 39.368 115.728 39.626 115.296 40.142C114.876 40.646 114.666 41.348 114.666 42.248C114.666 43.136 114.876 43.832 115.296 44.336C115.728 44.84 116.31 45.092 117.042 45.092ZM133.989 38.918V34.184H136.257V47H134.061V45.704C133.377 46.712 132.399 47.216 131.127 47.216C129.843 47.216 128.829 46.772 128.085 45.884C127.329 44.996 126.951 43.82 126.951 42.356C126.951 40.868 127.329 39.686 128.085 38.81C128.817 37.934 129.831 37.496 131.127 37.496C132.375 37.496 133.329 37.97 133.989 38.918ZM129.273 42.428C129.273 43.388 129.483 44.114 129.903 44.606C130.323 45.098 130.905 45.344 131.649 45.344C132.393 45.344 132.981 45.086 133.413 44.57C133.833 44.054 134.043 43.316 134.043 42.356C134.043 41.396 133.833 40.658 133.413 40.142C132.993 39.626 132.405 39.368 131.649 39.368C130.917 39.368 130.335 39.638 129.903 40.178C129.483 40.718 129.273 41.468 129.273 42.428ZM140.338 36.506H138.106V34.382H140.338V36.506ZM140.356 47H138.088V37.712H140.356V47ZM145.838 47.252C143.126 47.252 141.71 46.184 141.59 44.048H143.804C143.864 44.624 144.05 45.032 144.362 45.272C144.686 45.512 145.19 45.632 145.874 45.632C147.098 45.632 147.71 45.26 147.71 44.516C147.71 44.18 147.578 43.922 147.314 43.742C147.05 43.562 146.576 43.412 145.892 43.292L144.83 43.112C142.802 42.776 141.788 41.84 141.788 40.304C141.788 39.428 142.124 38.744 142.796 38.252C143.468 37.748 144.416 37.496 145.64 37.496C148.292 37.496 149.66 38.546 149.744 40.646H147.602C147.578 40.094 147.404 39.704 147.08 39.476C146.756 39.236 146.276 39.116 145.64 39.116C144.56 39.116 144.02 39.476 144.02 40.196C144.02 40.508 144.14 40.754 144.38 40.934C144.62 41.102 145.016 41.234 145.568 41.33L146.738 41.51C147.866 41.714 148.682 42.038 149.186 42.482C149.702 42.926 149.96 43.544 149.96 44.336C149.96 45.272 149.6 45.992 148.88 46.496C148.16 47 147.146 47.252 145.838 47.252ZM156.26 37.496C157.268 37.496 158.06 37.79 158.636 38.378C159.224 38.954 159.518 39.776 159.518 40.844V47H157.25V41.222C157.25 40.046 156.668 39.458 155.504 39.458C154.928 39.458 154.436 39.668 154.028 40.088C153.632 40.496 153.434 41.066 153.434 41.798V47H151.166V34.184H153.434V38.954C154.142 37.982 155.084 37.496 156.26 37.496ZM170.127 42.518V43.058H163.179C163.263 43.85 163.509 44.45 163.917 44.858C164.337 45.254 164.895 45.452 165.591 45.452C166.623 45.452 167.331 45.008 167.715 44.12H169.893C169.653 45.068 169.149 45.824 168.381 46.388C167.613 46.94 166.677 47.216 165.573 47.216C164.193 47.216 163.077 46.772 162.225 45.884C161.373 44.996 160.947 43.82 160.947 42.356C160.947 40.892 161.367 39.716 162.207 38.828C163.059 37.94 164.169 37.496 165.537 37.496C166.941 37.496 168.057 37.958 168.885 38.882C169.713 39.806 170.127 41.018 170.127 42.518ZM165.519 39.26C164.187 39.26 163.413 39.998 163.197 41.474H167.859C167.763 40.79 167.511 40.25 167.103 39.854C166.695 39.458 166.167 39.26 165.519 39.26ZM175.228 47.252C172.516 47.252 171.1 46.184 170.98 44.048H173.194C173.254 44.624 173.44 45.032 173.752 45.272C174.076 45.512 174.58 45.632 175.264 45.632C176.488 45.632 177.1 45.26 177.1 44.516C177.1 44.18 176.968 43.922 176.704 43.742C176.44 43.562 175.966 43.412 175.282 43.292L174.22 43.112C172.192 42.776 171.178 41.84 171.178 40.304C171.178 39.428 171.514 38.744 172.186 38.252C172.858 37.748 173.806 37.496 175.03 37.496C177.682 37.496 179.05 38.546 179.134 40.646H176.992C176.968 40.094 176.794 39.704 176.47 39.476C176.146 39.236 175.666 39.116 175.03 39.116C173.95 39.116 173.41 39.476 173.41 40.196C173.41 40.508 173.53 40.754 173.77 40.934C174.01 41.102 174.406 41.234 174.958 41.33L176.128 41.51C177.256 41.714 178.072 42.038 178.576 42.482C179.092 42.926 179.35 43.544 179.35 44.336C179.35 45.272 178.99 45.992 178.27 46.496C177.55 47 176.536 47.252 175.228 47.252Z" fill="black"/>
<rect x="50" y="83" width="429" height="50" rx="8" fill="#DFDFDF"/>
<circle cx="75" cy="108" r="15" fill="white"/>
<rect x="50" y="148" width="429" height="50" rx="8" fill="#DFDFDF"/>
<circle cx="75" cy="173" r="15" fill="white"/>
<rect x="50" y="213" width="429" height="50" rx="8" fill="#DFDFDF"/>
<circle cx="75" cy="238" r="15" fill="white"/>
<rect x="50" y="278" width="429" height="50" rx="8" fill="#DFDFDF"/>
<circle cx="75" cy="303" r="15" fill="white"/>
<path d="M443.208 34.744H450.904V36.317H447.94V44H446.172V36.317H443.208V34.744ZM456.981 40.646C456.981 41.7033 456.669 42.5527 456.045 43.194C455.421 43.8353 454.598 44.156 453.575 44.156C452.552 44.156 451.729 43.8353 451.105 43.194C450.472 42.5613 450.156 41.712 450.156 40.646C450.156 39.58 450.472 38.7307 451.105 38.098C451.729 37.4567 452.552 37.136 453.575 37.136C454.598 37.136 455.421 37.4523 456.045 38.085C456.669 38.7177 456.981 39.5713 456.981 40.646ZM452.288 42.245C452.6 42.6177 453.029 42.804 453.575 42.804C454.121 42.804 454.546 42.6177 454.849 42.245C455.161 41.8637 455.317 41.3307 455.317 40.646C455.317 39.9613 455.161 39.4327 454.849 39.06C454.546 38.6787 454.121 38.488 453.575 38.488C453.029 38.488 452.6 38.6743 452.288 39.047C451.985 39.4197 451.833 39.9527 451.833 40.646C451.833 41.3393 451.985 41.8723 452.288 42.245ZM462.793 38.163V34.744H464.431V44H462.845V43.064C462.351 43.792 461.644 44.156 460.726 44.156C459.798 44.156 459.066 43.8353 458.529 43.194C457.983 42.5527 457.71 41.7033 457.71 40.646C457.71 39.5713 457.983 38.7177 458.529 38.085C459.057 37.4523 459.79 37.136 460.726 37.136C461.627 37.136 462.316 37.4783 462.793 38.163ZM459.387 40.698C459.387 41.3913 459.538 41.9157 459.842 42.271C460.145 42.6263 460.565 42.804 461.103 42.804C461.64 42.804 462.065 42.6177 462.377 42.245C462.68 41.8723 462.832 41.3393 462.832 40.646C462.832 39.9527 462.68 39.4197 462.377 39.047C462.073 38.6743 461.649 38.488 461.103 38.488C460.574 38.488 460.154 38.683 459.842 39.073C459.538 39.463 459.387 40.0047 459.387 40.698ZM471.785 44H470.147C470.069 43.8613 470.008 43.5883 469.965 43.181C469.514 43.831 468.795 44.156 467.807 44.156C467.07 44.156 466.481 43.9783 466.039 43.623C465.606 43.2677 465.389 42.7737 465.389 42.141C465.389 40.919 466.247 40.2213 467.963 40.048L468.977 39.957C469.315 39.9137 469.558 39.8357 469.705 39.723C469.852 39.6017 469.926 39.424 469.926 39.19C469.926 38.904 469.831 38.696 469.64 38.566C469.458 38.4273 469.146 38.358 468.704 38.358C468.227 38.358 467.885 38.4403 467.677 38.605C467.469 38.761 467.348 39.034 467.313 39.424H465.701C465.796 37.8987 466.802 37.136 468.717 37.136C470.58 37.136 471.512 37.8077 471.512 39.151V42.726C471.512 43.3153 471.603 43.74 471.785 44ZM468.197 42.986C468.708 42.986 469.124 42.8473 469.445 42.57C469.766 42.284 469.926 41.8767 469.926 41.348V40.737C469.77 40.8757 469.514 40.9667 469.159 41.01L468.275 41.114C467.842 41.166 467.53 41.27 467.339 41.426C467.157 41.5733 467.066 41.79 467.066 42.076C467.066 42.362 467.161 42.5873 467.352 42.752C467.551 42.908 467.833 42.986 468.197 42.986ZM476.266 38.982L476.812 37.292H478.528L475.941 44.546C475.663 45.3087 475.317 45.833 474.901 46.119C474.476 46.4137 473.861 46.561 473.055 46.561C472.786 46.561 472.548 46.548 472.34 46.522V45.235H472.964C473.319 45.235 473.592 45.1353 473.783 44.936C473.973 44.7367 474.069 44.4767 474.069 44.156C474.069 43.8353 473.965 43.3847 473.757 42.804L471.807 37.292H473.575L474.121 38.969C474.502 40.165 474.857 41.413 475.187 42.713C475.447 41.7337 475.806 40.49 476.266 38.982Z" fill="#A0A0A0"/>
</g>
<defs>
<filter id="filter0_d" x="0" y="0" width="529" height="391" filterUnits="userSpaceOnUse" color-interpolation-filters="sRGB">
<feFlood flood-opacity="0" result="BackgroundImageFix"/>
<feColorMatrix in="SourceAlpha" type="matrix" values="0 0 0 0 0 0 0 0 0 0 0 0 0 0 0 0 0 0 127 0" result="hardAlpha"/>
<feOffset dy="13"/>
<feGaussianBlur stdDeviation="10"/>
<feComposite in2="hardAlpha" operator="out"/>
<feColorMatrix type="matrix" values="0 0 0 0 0.5375 0 0 0 0 0.5375 0 0 0 0 0.5375 0 0 0 0.16 0"/>
<feBlend mode="normal" in2="BackgroundImageFix" result="effect1_dropShadow"/>
<feBlend mode="normal" in="SourceGraphic" in2="effect1_dropShadow" result="shape"/>
</filter>
</defs>
</svg>
