<svg width="529" height="282" viewBox="0 0 529 282" fill="none" xmlns="http://www.w3.org/2000/svg">
<g filter="url(#filter0_d)">
<rect x="20" y="7" width="489" height="242" rx="20" fill="white"/>
<path d="M47.06 37.172L48.968 32.456H50.288V41H49.304V38.264C49.304 36.464 49.316 35.012 49.34 33.908C49.148 34.436 48.896 35.084 48.584 35.852L46.472 41H45.608L43.484 35.852C43.172 35.084 42.92 34.436 42.728 33.908C42.752 35.012 42.764 36.464 42.764 38.264V41H41.78V32.456H43.1L45.08 37.316C45.376 38.044 45.7 38.864 46.052 39.776C46.54 38.48 46.876 37.612 47.06 37.172ZM56.6464 40.256C56.0784 40.848 55.3584 41.144 54.4864 41.144C53.6144 41.144 52.8944 40.848 52.3264 40.256C51.7664 39.672 51.4864 38.888 51.4864 37.904C51.4864 36.92 51.7664 36.136 52.3264 35.552C52.8944 34.96 53.6144 34.664 54.4864 34.664C55.3584 34.664 56.0784 34.96 56.6464 35.552C57.2064 36.136 57.4864 36.92 57.4864 37.904C57.4864 38.888 57.2064 39.672 56.6464 40.256ZM53.0344 39.644C53.3944 40.068 53.8784 40.28 54.4864 40.28C55.0944 40.28 55.5784 40.068 55.9384 39.644C56.2984 39.228 56.4784 38.648 56.4784 37.904C56.4784 37.152 56.2984 36.568 55.9384 36.152C55.5784 35.736 55.0944 35.528 54.4864 35.528C53.8784 35.528 53.3944 35.736 53.0344 36.152C52.6744 36.568 52.4944 37.152 52.4944 37.904C52.4944 38.648 52.6744 39.228 53.0344 39.644ZM61.4862 34.664C62.1742 34.664 62.7102 34.852 63.0942 35.228C63.4782 35.604 63.6702 36.132 63.6702 36.812V41H62.7102V36.908C62.7102 35.988 62.2382 35.528 61.2942 35.528C60.8462 35.528 60.4502 35.696 60.1062 36.032C59.7622 36.368 59.5902 36.856 59.5902 37.496V41H58.6302V34.808H59.5422V35.732C60.0142 35.02 60.6622 34.664 61.4862 34.664Z" fill="black"/>
<path d="M85.364 216.96C85.828 217.336 86.156 217.836 86.348 218.46C86.54 219.076 86.636 219.852 86.636 220.788C86.636 222.196 86.364 223.3 85.82 224.1C85.284 224.892 84.516 225.288 83.516 225.288C82.748 225.288 82.112 225.084 81.608 224.676C81.104 224.268 80.788 223.704 80.66 222.984H81.644C81.74 223.432 81.948 223.776 82.268 224.016C82.596 224.256 83.012 224.376 83.516 224.376C84.9 224.376 85.604 223.236 85.628 220.956C85.396 221.3 85.076 221.58 84.668 221.796C84.268 222.012 83.864 222.12 83.456 222.12C82.56 222.12 81.852 221.848 81.332 221.304C80.804 220.76 80.54 220.072 80.54 219.24C80.54 218.4 80.808 217.712 81.344 217.176C81.872 216.632 82.584 216.36 83.48 216.36C84.224 216.36 84.852 216.56 85.364 216.96ZM82.124 220.656C82.468 221.024 82.92 221.208 83.48 221.208C84.032 221.208 84.488 221.024 84.848 220.656C85.208 220.296 85.388 219.824 85.388 219.24C85.388 218.664 85.208 218.188 84.848 217.812C84.488 217.452 84.032 217.272 83.48 217.272C82.92 217.272 82.468 217.456 82.124 217.824C81.772 218.2 81.596 218.672 81.596 219.24C81.596 219.808 81.772 220.28 82.124 220.656Z" fill="#6D6C6C"/>
<path d="M170.688 216.456H171.504V225H170.496V218.628H168.552V217.836L168.744 217.824C169.352 217.784 169.804 217.664 170.1 217.464C170.396 217.264 170.592 216.928 170.688 216.456ZM173.981 224.088H178.493V225H172.853L172.877 224.532C172.925 223.828 173.085 223.224 173.357 222.72C173.629 222.216 174.089 221.776 174.737 221.4L175.817 220.776C176.361 220.456 176.745 220.144 176.969 219.84C177.201 219.536 177.317 219.168 177.317 218.736C177.317 218.264 177.165 217.888 176.861 217.608C176.565 217.32 176.153 217.176 175.625 217.176C174.433 217.176 173.837 217.788 173.837 219.012H172.841C172.833 218.14 173.077 217.464 173.573 216.984C174.069 216.504 174.761 216.264 175.649 216.264C176.457 216.264 177.113 216.492 177.617 216.948C178.121 217.42 178.373 218.016 178.373 218.736C178.373 219.84 177.725 220.768 176.429 221.52L175.517 222.048C174.989 222.368 174.609 222.68 174.377 222.984C174.145 223.28 174.013 223.648 173.981 224.088Z" fill="#6D6C6C"/>
<path d="M261.688 216.456H262.504V225H261.496V218.628H259.552V217.836L259.744 217.824C260.352 217.784 260.804 217.664 261.1 217.464C261.396 217.264 261.592 216.928 261.688 216.456ZM266.853 219.432C267.765 219.432 268.477 219.7 268.989 220.236C269.501 220.772 269.757 221.464 269.757 222.312C269.757 223.152 269.489 223.84 268.953 224.376C268.409 224.92 267.689 225.192 266.793 225.192C265.977 225.192 265.301 224.956 264.765 224.484C264.229 224.02 263.937 223.4 263.889 222.624H264.897C264.945 223.136 265.145 223.54 265.497 223.836C265.849 224.132 266.281 224.28 266.793 224.28C267.353 224.28 267.809 224.1 268.161 223.74C268.521 223.372 268.701 222.896 268.701 222.312C268.701 221.728 268.521 221.256 268.161 220.896C267.809 220.528 267.353 220.344 266.793 220.344C265.953 220.344 265.369 220.688 265.041 221.376H264.105L264.825 216.456H269.241V217.368H265.641L265.233 220.056C265.697 219.64 266.237 219.432 266.853 219.432Z" fill="#6D6C6C"/>
<path d="M353.688 216.456H354.504V225H353.496V218.628H351.552V217.836L351.744 217.824C352.352 217.784 352.804 217.664 353.1 217.464C353.396 217.264 353.592 216.928 353.688 216.456ZM360.317 220.416C360.813 220.608 361.201 220.892 361.481 221.268C361.761 221.636 361.901 222.072 361.901 222.576C361.901 223.376 361.617 224.012 361.049 224.484C360.481 224.956 359.733 225.192 358.805 225.192C357.877 225.192 357.129 224.956 356.561 224.484C355.993 224.012 355.709 223.376 355.709 222.576C355.709 222.072 355.849 221.636 356.129 221.268C356.409 220.892 356.797 220.608 357.293 220.416C356.469 220.056 356.057 219.452 356.057 218.604C356.057 217.876 356.317 217.3 356.837 216.876C357.357 216.468 358.013 216.264 358.805 216.264C359.597 216.264 360.253 216.468 360.773 216.876C361.293 217.3 361.553 217.876 361.553 218.604C361.553 219.452 361.141 220.056 360.317 220.416ZM360.065 217.548C359.745 217.3 359.325 217.176 358.805 217.176C358.285 217.176 357.865 217.3 357.545 217.548C357.217 217.804 357.053 218.156 357.053 218.604C357.053 219.052 357.217 219.404 357.545 219.66C357.865 219.908 358.285 220.032 358.805 220.032C359.325 220.032 359.745 219.908 360.065 219.66C360.393 219.404 360.557 219.052 360.557 218.604C360.557 218.156 360.393 217.804 360.065 217.548ZM357.317 223.824C357.693 224.128 358.189 224.28 358.805 224.28C359.421 224.28 359.917 224.128 360.293 223.824C360.661 223.528 360.845 223.112 360.845 222.576C360.845 222.032 360.661 221.612 360.293 221.316C359.925 221.02 359.429 220.872 358.805 220.872C358.181 220.872 357.685 221.02 357.317 221.316C356.949 221.612 356.765 222.032 356.765 222.576C356.765 223.112 356.949 223.528 357.317 223.824Z" fill="#6D6C6C"/>
<path d="M444.692 224.088H449.204V225H443.564L443.588 224.532C443.636 223.828 443.796 223.224 444.068 222.72C444.34 222.216 444.8 221.776 445.448 221.4L446.528 220.776C447.072 220.456 447.456 220.144 447.68 219.84C447.912 219.536 448.028 219.168 448.028 218.736C448.028 218.264 447.876 217.888 447.572 217.608C447.276 217.32 446.864 217.176 446.336 217.176C445.144 217.176 444.548 217.788 444.548 219.012H443.552C443.544 218.14 443.788 217.464 444.284 216.984C444.78 216.504 445.472 216.264 446.36 216.264C447.168 216.264 447.824 216.492 448.328 216.948C448.832 217.42 449.084 218.016 449.084 218.736C449.084 219.84 448.436 220.768 447.14 221.52L446.228 222.048C445.7 222.368 445.32 222.68 445.088 222.984C444.856 223.28 444.724 223.648 444.692 224.088ZM452.262 216.456H453.078V225H452.07V218.628H450.126V217.836L450.318 217.824C450.926 217.784 451.378 217.664 451.674 217.464C451.97 217.264 452.166 216.928 452.262 216.456Z" fill="#6D6C6C"/>
<path d="M116.192 32.456H123.296V33.908H120.56V41H118.928V33.908H116.192V32.456ZM126.961 38.276V34.808H128.473V41H127.009V40.1C126.537 40.796 125.889 41.144 125.065 41.144C124.401 41.144 123.873 40.952 123.481 40.568C123.097 40.176 122.905 39.624 122.905 38.912V34.808H124.417V38.66C124.417 39.444 124.805 39.836 125.581 39.836C125.965 39.836 126.289 39.7 126.553 39.428C126.825 39.148 126.961 38.764 126.961 38.276ZM135.546 38.012V38.372H130.914C130.97 38.9 131.134 39.3 131.406 39.572C131.686 39.836 132.058 39.968 132.522 39.968C133.21 39.968 133.682 39.672 133.938 39.08H135.39C135.23 39.712 134.894 40.216 134.382 40.592C133.87 40.96 133.246 41.144 132.51 41.144C131.59 41.144 130.846 40.848 130.278 40.256C129.71 39.664 129.426 38.88 129.426 37.904C129.426 36.928 129.706 36.144 130.266 35.552C130.834 34.96 131.574 34.664 132.486 34.664C133.422 34.664 134.166 34.972 134.718 35.588C135.27 36.204 135.546 37.012 135.546 38.012ZM132.474 35.84C131.586 35.84 131.07 36.332 130.926 37.316H134.034C133.97 36.86 133.802 36.5 133.53 36.236C133.258 35.972 132.906 35.84 132.474 35.84Z" fill="black"/>
<path d="M195.084 36.668L196.248 32.456H197.292L194.868 41H193.74L192.516 36.644C192.172 35.412 191.912 34.448 191.736 33.752C191.56 34.448 191.3 35.412 190.956 36.644L189.732 41H188.604L186.18 32.456H187.224L188.388 36.668C188.756 37.972 189.024 38.992 189.192 39.728C189.472 38.656 189.744 37.628 190.008 36.644L191.172 32.456H192.3L193.464 36.644C193.736 37.628 194.008 38.656 194.28 39.728C194.448 38.992 194.716 37.972 195.084 36.668ZM202.808 37.904V38.24H198.104C198.152 38.912 198.34 39.42 198.668 39.764C198.996 40.1 199.444 40.268 200.012 40.268C200.868 40.268 201.416 39.884 201.656 39.116H202.652C202.484 39.74 202.172 40.236 201.716 40.604C201.26 40.964 200.684 41.144 199.988 41.144C199.132 41.144 198.44 40.852 197.912 40.268C197.376 39.684 197.108 38.896 197.108 37.904C197.108 36.928 197.372 36.144 197.9 35.552C198.42 34.96 199.108 34.664 199.964 34.664C200.852 34.664 201.548 34.972 202.052 35.588C202.556 36.204 202.808 36.976 202.808 37.904ZM199.964 35.54C199.46 35.54 199.048 35.7 198.728 36.02C198.408 36.332 198.208 36.784 198.128 37.376H201.776C201.728 36.832 201.544 36.392 201.224 36.056C200.904 35.712 200.484 35.54 199.964 35.54ZM208.603 35.696V32.456H209.563V41H208.651V40.04C208.155 40.776 207.447 41.144 206.527 41.144C205.655 41.144 204.959 40.848 204.439 40.256C203.911 39.664 203.647 38.88 203.647 37.904C203.647 36.912 203.911 36.124 204.439 35.54C204.951 34.956 205.647 34.664 206.527 34.664C207.415 34.664 208.107 35.008 208.603 35.696ZM204.655 37.952C204.655 38.688 204.835 39.26 205.195 39.668C205.555 40.076 206.039 40.28 206.647 40.28C207.255 40.28 207.739 40.068 208.099 39.644C208.459 39.228 208.639 38.648 208.639 37.904C208.639 37.168 208.459 36.588 208.099 36.164C207.739 35.74 207.255 35.528 206.647 35.528C206.047 35.528 205.563 35.748 205.195 36.188C204.835 36.62 204.655 37.208 204.655 37.952Z" fill="black"/>
<path d="M261.24 32.456H268.092V33.368H265.188V41H264.144V33.368H261.24V32.456ZM271.678 34.664C272.366 34.664 272.902 34.852 273.286 35.228C273.67 35.604 273.862 36.132 273.862 36.812V41H272.902V36.908C272.902 35.988 272.43 35.528 271.486 35.528C271.038 35.528 270.642 35.696 270.298 36.032C269.954 36.368 269.782 36.856 269.782 37.496V41H268.822V32.456H269.782V35.66C270.254 34.996 270.886 34.664 271.678 34.664ZM279.148 38.312V34.808H280.108V41H279.196V40.076C278.724 40.788 278.076 41.144 277.252 41.144C276.564 41.144 276.028 40.956 275.644 40.58C275.26 40.204 275.068 39.676 275.068 38.996V34.808H276.028V38.9C276.028 39.82 276.5 40.28 277.444 40.28C277.892 40.28 278.288 40.112 278.632 39.776C278.976 39.44 279.148 38.952 279.148 38.312Z" fill="black"/>
<path d="M338.432 32.456V33.368H333.788V36.092H337.952V37.004H333.788V41H332.78V32.456H338.432ZM342.116 34.712C342.276 34.712 342.384 34.716 342.44 34.724V35.648H342.2C341.56 35.648 341.06 35.808 340.7 36.128C340.348 36.44 340.172 36.888 340.172 37.472V41H339.212V34.808H340.124V35.9C340.54 35.108 341.204 34.712 342.116 34.712ZM344.321 33.872H343.301V32.696H344.321V33.872ZM344.297 41H343.337V34.808H344.297V41Z" fill="black"/>
<path d="M400.912 41.192C399.8 41.192 398.932 40.94 398.308 40.436C397.684 39.932 397.368 39.18 397.36 38.18H398.404C398.428 39.58 399.264 40.28 400.912 40.28C401.608 40.28 402.14 40.144 402.508 39.872C402.884 39.6 403.072 39.204 403.072 38.684C403.072 38.276 402.916 37.96 402.604 37.736C402.3 37.504 401.764 37.304 400.996 37.136L400.24 36.968C399.376 36.768 398.728 36.48 398.296 36.104C397.864 35.72 397.648 35.184 397.648 34.496C397.648 33.816 397.912 33.276 398.44 32.876C398.968 32.468 399.676 32.264 400.564 32.264C401.164 32.264 401.684 32.336 402.124 32.48C402.572 32.624 402.92 32.828 403.168 33.092C403.416 33.348 403.596 33.628 403.708 33.932C403.828 34.236 403.892 34.572 403.9 34.94H402.868C402.82 34.332 402.62 33.888 402.268 33.608C401.924 33.32 401.356 33.176 400.564 33.176C399.964 33.176 399.5 33.292 399.172 33.524C398.852 33.756 398.692 34.08 398.692 34.496C398.692 34.912 398.832 35.236 399.112 35.468C399.384 35.7 399.912 35.904 400.696 36.08L401.452 36.248C402.396 36.456 403.076 36.756 403.492 37.148C403.908 37.532 404.116 38.044 404.116 38.684C404.116 39.46 403.832 40.072 403.264 40.52C402.696 40.968 401.912 41.192 400.912 41.192ZM410.261 40.22H410.609V41C410.449 41.024 410.273 41.036 410.081 41.036C409.433 41.036 409.085 40.74 409.037 40.148C408.605 40.812 407.933 41.144 407.021 41.144C406.341 41.144 405.805 40.988 405.413 40.676C405.029 40.356 404.837 39.908 404.837 39.332C404.837 38.212 405.601 37.572 407.129 37.412L408.017 37.316C408.665 37.244 408.989 36.96 408.989 36.464C408.989 36.12 408.881 35.872 408.665 35.72C408.457 35.568 408.101 35.492 407.597 35.492C407.061 35.492 406.673 35.584 406.433 35.768C406.201 35.944 406.069 36.26 406.037 36.716H405.077C405.157 35.348 405.997 34.664 407.597 34.664C409.149 34.664 409.925 35.264 409.925 36.464V39.92C409.925 40.12 410.037 40.22 410.261 40.22ZM407.069 40.328C407.581 40.328 408.029 40.172 408.413 39.86C408.797 39.556 408.989 39.12 408.989 38.552V37.82C408.813 37.956 408.541 38.044 408.173 38.084L407.273 38.192C406.753 38.256 406.381 38.376 406.157 38.552C405.941 38.728 405.833 38.98 405.833 39.308C405.833 39.628 405.937 39.88 406.145 40.064C406.353 40.24 406.661 40.328 407.069 40.328ZM413.932 34.808V35.648H412.66V39.668C412.66 40.02 412.896 40.196 413.368 40.196H413.932V41C413.668 41.024 413.44 41.036 413.248 41.036C412.216 41.036 411.7 40.608 411.7 39.752V35.648H410.68V34.808H411.7V33.056H412.66V34.808H413.932Z" fill="black"/>
<path d="M469.912 41.192C468.8 41.192 467.932 40.94 467.308 40.436C466.684 39.932 466.368 39.18 466.36 38.18H467.404C467.428 39.58 468.264 40.28 469.912 40.28C470.608 40.28 471.14 40.144 471.508 39.872C471.884 39.6 472.072 39.204 472.072 38.684C472.072 38.276 471.916 37.96 471.604 37.736C471.3 37.504 470.764 37.304 469.996 37.136L469.24 36.968C468.376 36.768 467.728 36.48 467.296 36.104C466.864 35.72 466.648 35.184 466.648 34.496C466.648 33.816 466.912 33.276 467.44 32.876C467.968 32.468 468.676 32.264 469.564 32.264C470.164 32.264 470.684 32.336 471.124 32.48C471.572 32.624 471.92 32.828 472.168 33.092C472.416 33.348 472.596 33.628 472.708 33.932C472.828 34.236 472.892 34.572 472.9 34.94H471.868C471.82 34.332 471.62 33.888 471.268 33.608C470.924 33.32 470.356 33.176 469.564 33.176C468.964 33.176 468.5 33.292 468.172 33.524C467.852 33.756 467.692 34.08 467.692 34.496C467.692 34.912 467.832 35.236 468.112 35.468C468.384 35.7 468.912 35.904 469.696 36.08L470.452 36.248C471.396 36.456 472.076 36.756 472.492 37.148C472.908 37.532 473.116 38.044 473.116 38.684C473.116 39.46 472.832 40.072 472.264 40.52C471.696 40.968 470.912 41.192 469.912 41.192ZM478.218 38.312V34.808H479.178V41H478.266V40.076C477.794 40.788 477.146 41.144 476.322 41.144C475.634 41.144 475.098 40.956 474.714 40.58C474.33 40.204 474.138 39.676 474.138 38.996V34.808H475.098V38.9C475.098 39.82 475.57 40.28 476.514 40.28C476.962 40.28 477.358 40.112 477.702 39.776C478.046 39.44 478.218 38.952 478.218 38.312ZM483.474 34.664C484.162 34.664 484.698 34.852 485.082 35.228C485.466 35.604 485.658 36.132 485.658 36.812V41H484.698V36.908C484.698 35.988 484.226 35.528 483.282 35.528C482.834 35.528 482.438 35.696 482.094 36.032C481.75 36.368 481.578 36.856 481.578 37.496V41H480.618V34.808H481.53V35.732C482.002 35.02 482.65 34.664 483.474 34.664Z" fill="black"/>
<path d="M205.15 71.032H206.354V81H204.856V73.888H202.574V72.782L202.798 72.768C203.517 72.7213 204.053 72.572 204.408 72.32C204.772 72.0587 205.019 71.6293 205.15 71.032ZM213.876 77.29H215.206V78.592H213.876V81H212.378V78.592H207.45V77.164L212.238 71.032H213.876V77.29ZM212.392 77.29V72.796L208.892 77.29H212.392ZM228.054 81H226.472L225.492 78.41H221.012L220.046 81H218.492L222.384 71.032H224.106L228.054 81ZM221.698 76.562L221.488 77.108H225.002L224.792 76.562C224.297 75.33 223.779 73.9673 223.238 72.474C222.594 74.1913 222.081 75.554 221.698 76.562ZM235.032 76.198L237.006 71.032H239.092V81H237.65V77.878C237.65 75.6287 237.669 73.944 237.706 72.824C237.51 73.4213 237.23 74.1913 236.866 75.134L234.612 81H233.352L231.07 75.134C230.762 74.3127 230.487 73.5567 230.244 72.866C230.282 73.9767 230.3 75.6473 230.3 77.878V81H228.858V71.032H230.93L232.974 76.338C233.394 77.4393 233.735 78.3773 233.996 79.152C234.304 78.228 234.65 77.2433 235.032 76.198ZM247.417 77.668H243.315V76.45H247.417V77.668ZM257.74 75.792C258.309 76.0067 258.738 76.324 259.028 76.744C259.317 77.1547 259.462 77.6307 259.462 78.172C259.462 79.0493 259.172 79.74 258.594 80.244C258.024 80.748 257.203 81 256.13 81H251.636V71.032H255.934C256.942 71.032 257.712 71.27 258.244 71.746C258.785 72.222 259.056 72.8473 259.056 73.622C259.056 74.5927 258.617 75.316 257.74 75.792ZM255.836 72.32H253.134V75.302H255.836C257.002 75.302 257.586 74.784 257.586 73.748C257.586 73.3 257.432 72.95 257.124 72.698C256.825 72.446 256.396 72.32 255.836 72.32ZM253.134 79.712H256.046C256.662 79.712 257.133 79.5767 257.46 79.306C257.786 79.0353 257.95 78.648 257.95 78.144C257.95 77.08 257.315 76.548 256.046 76.548H253.134V79.712ZM265.253 77.85V73.776H266.653V81H265.309V79.922C264.758 80.7527 264.002 81.168 263.041 81.168C262.247 81.168 261.627 80.944 261.179 80.496C260.731 80.048 260.507 79.4227 260.507 78.62V73.776H261.907V78.424C261.907 79.432 262.415 79.936 263.433 79.936C263.946 79.936 264.375 79.754 264.721 79.39C265.075 79.0167 265.253 78.5033 265.253 77.85ZM270.905 81.182C268.899 81.182 267.844 80.356 267.741 78.704H269.141C269.197 79.208 269.361 79.5627 269.631 79.768C269.902 79.9733 270.331 80.076 270.919 80.076C271.983 80.076 272.515 79.74 272.515 79.068C272.515 78.7787 272.403 78.5547 272.179 78.396C271.955 78.2373 271.554 78.1067 270.975 78.004L270.233 77.864C268.703 77.584 267.937 76.8653 267.937 75.708C267.937 75.064 268.185 74.5553 268.679 74.182C269.174 73.7993 269.855 73.608 270.723 73.608C272.711 73.608 273.729 74.4153 273.775 76.03H272.417C272.389 75.5447 272.24 75.204 271.969 75.008C271.699 74.8027 271.283 74.7 270.723 74.7C270.275 74.7 269.93 74.784 269.687 74.952C269.445 75.12 269.323 75.358 269.323 75.666C269.323 75.946 269.431 76.1653 269.645 76.324C269.86 76.4733 270.201 76.5947 270.667 76.688L271.423 76.814C272.31 76.982 272.949 77.234 273.341 77.57C273.733 77.906 273.929 78.3727 273.929 78.97C273.929 79.67 273.663 80.216 273.131 80.608C272.599 80.9907 271.857 81.182 270.905 81.182ZM276.386 72.754H274.958V71.256H276.386V72.754ZM276.372 81H274.972V73.776H276.372V81ZM284.462 77.444V77.85H279.016C279.082 78.5593 279.292 79.096 279.646 79.46C280.001 79.8147 280.482 79.992 281.088 79.992C282.003 79.992 282.6 79.5907 282.88 78.788H284.294C284.098 79.5253 283.716 80.1087 283.146 80.538C282.586 80.958 281.891 81.168 281.06 81.168C280.024 81.168 279.189 80.8227 278.554 80.132C277.92 79.4413 277.602 78.5267 277.602 77.388C277.602 76.2493 277.92 75.3347 278.554 74.644C279.189 73.9533 280.015 73.608 281.032 73.608C282.096 73.608 282.936 73.9673 283.552 74.686C284.159 75.4047 284.462 76.324 284.462 77.444ZM281.032 74.784C280.482 74.784 280.029 74.952 279.674 75.288C279.329 75.624 279.114 76.1093 279.03 76.744H283.02C282.955 76.156 282.745 75.6847 282.39 75.33C282.045 74.966 281.592 74.784 281.032 74.784ZM288.337 81.182C286.33 81.182 285.276 80.356 285.173 78.704H286.573C286.629 79.208 286.792 79.5627 287.063 79.768C287.334 79.9733 287.763 80.076 288.351 80.076C289.415 80.076 289.947 79.74 289.947 79.068C289.947 78.7787 289.835 78.5547 289.611 78.396C289.387 78.2373 288.986 78.1067 288.407 78.004L287.665 77.864C286.134 77.584 285.369 76.8653 285.369 75.708C285.369 75.064 285.616 74.5553 286.111 74.182C286.606 73.7993 287.287 73.608 288.155 73.608C290.143 73.608 291.16 74.4153 291.207 76.03H289.849C289.821 75.5447 289.672 75.204 289.401 75.008C289.13 74.8027 288.715 74.7 288.155 74.7C287.707 74.7 287.362 74.784 287.119 74.952C286.876 75.12 286.755 75.358 286.755 75.666C286.755 75.946 286.862 76.1653 287.077 76.324C287.292 76.4733 287.632 76.5947 288.099 76.688L288.855 76.814C289.742 76.982 290.381 77.234 290.773 77.57C291.165 77.906 291.361 78.3727 291.361 78.97C291.361 79.67 291.095 80.216 290.563 80.608C290.031 80.9907 289.289 81.182 288.337 81.182ZM295.71 73.776V74.924H294.254V79.264C294.254 79.4787 294.315 79.6373 294.436 79.74C294.567 79.8333 294.781 79.88 295.08 79.88H295.71V81C295.402 81.028 295.117 81.042 294.856 81.042C294.175 81.042 293.671 80.9113 293.344 80.65C293.017 80.3887 292.854 79.9687 292.854 79.39V74.924H291.692V73.776H292.854V71.704H294.254V73.776H295.71ZM303.093 73.776V74.924H301.637V79.264C301.637 79.4787 301.698 79.6373 301.819 79.74C301.95 79.8333 302.164 79.88 302.463 79.88H303.093V81C302.785 81.028 302.5 81.042 302.239 81.042C301.558 81.042 301.054 80.9113 300.727 80.65C300.4 80.3887 300.237 79.9687 300.237 79.39V74.924H299.075V73.776H300.237V71.704H301.637V73.776H303.093ZM305.63 72.754H304.202V71.256H305.63V72.754ZM305.616 81H304.216V73.776H305.616V81ZM315.078 73.608C315.862 73.608 316.474 73.8413 316.912 74.308C317.351 74.7653 317.57 75.3813 317.57 76.156V81H316.156V76.338C316.156 75.3393 315.694 74.84 314.77 74.84C314.276 74.84 313.87 75.0313 313.552 75.414C313.235 75.7873 313.076 76.3287 313.076 77.038V81H311.676V76.338C311.676 75.3393 311.21 74.84 310.276 74.84C309.782 74.84 309.376 75.0313 309.058 75.414C308.741 75.7967 308.582 76.338 308.582 77.038V81H307.182V73.776H308.526V74.854C309.021 74.0233 309.716 73.608 310.612 73.608C311.704 73.608 312.446 74.0607 312.838 74.966C313.352 74.0607 314.098 73.608 315.078 73.608ZM325.656 77.444V77.85H320.21C320.275 78.5593 320.485 79.096 320.84 79.46C321.194 79.8147 321.675 79.992 322.282 79.992C323.196 79.992 323.794 79.5907 324.074 78.788H325.488C325.292 79.5253 324.909 80.1087 324.34 80.538C323.78 80.958 323.084 81.168 322.254 81.168C321.218 81.168 320.382 80.8227 319.748 80.132C319.113 79.4413 318.796 78.5267 318.796 77.388C318.796 76.2493 319.113 75.3347 319.748 74.644C320.382 73.9533 321.208 73.608 322.226 73.608C323.29 73.608 324.13 73.9673 324.746 74.686C325.352 75.4047 325.656 76.324 325.656 77.444ZM322.226 74.784C321.675 74.784 321.222 74.952 320.868 75.288C320.522 75.624 320.308 76.1093 320.224 76.744H324.214C324.148 76.156 323.938 75.6847 323.584 75.33C323.238 74.966 322.786 74.784 322.226 74.784Z" fill="black"/>
<rect x="40" y="205" width="449" height="1" fill="black"/>
<rect x="40" y="174" width="449" height="1" fill="#DEDBDB"/>
<rect x="40" y="143" width="449" height="1" fill="#DEDBDB"/>
<rect x="40" y="112" width="449" height="1" fill="#DEDBDB"/>
<path d="M123 190C123 190 181 139 221.5 138.5C262 138 280 180.5 319 183.5C358 186.5 372.5 110.576 394 110.576C415.5 110.576 464 190 464 190" stroke="black"/>
<circle cx="394" cy="111" r="4" fill="#FC1414"/>
</g>
<defs>
<filter id="filter0_d" x="0" y="0" width="529" height="282" filterUnits="userSpaceOnUse" color-interpolation-filters="sRGB">
<feFlood flood-opacity="0" result="BackgroundImageFix"/>
<feColorMatrix in="SourceAlpha" type="matrix" values="0 0 0 0 0 0 0 0 0 0 0 0 0 0 0 0 0 0 127 0" result="hardAlpha"/>
<feOffset dy="13"/>
<feGaussianBlur stdDeviation="10"/>
<feComposite in2="hardAlpha" operator="out"/>
<feColorMatrix type="matrix" values="0 0 0 0 0.5375 0 0 0 0 0.5375 0 0 0 0 0.5375 0 0 0 0.16 0"/>
<feBlend mode="normal" in2="BackgroundImageFix" result="effect1_dropShadow"/>
<feBlend mode="normal" in="SourceGraphic" in2="effect1_dropShadow" result="shape"/>
</filter>
</defs>
</svg>
