<svg width="262" height="282" viewBox="0 0 262 282" fill="none" xmlns="http://www.w3.org/2000/svg">
<g filter="url(#filter0_d)">
<rect x="20" y="7" width="222" height="242" rx="20" fill="white"/>
<path d="M61.556 45.452C60.38 46.676 58.832 47.288 56.912 47.288C54.992 47.288 53.444 46.676 52.268 45.452C51.092 44.216 50.504 42.596 50.504 40.592C50.504 38.588 51.092 36.968 52.268 35.732C53.444 34.508 54.992 33.896 56.912 33.896C58.832 33.896 60.38 34.508 61.556 35.732C62.72 36.944 63.302 38.564 63.302 40.592C63.302 42.62 62.72 44.24 61.556 45.452ZM53.042 40.592C53.042 41.996 53.396 43.106 54.104 43.922C54.812 44.738 55.748 45.146 56.912 45.146C58.088 45.146 59.03 44.738 59.738 43.922C60.434 43.118 60.782 42.008 60.782 40.592C60.782 39.176 60.434 38.066 59.738 37.262C59.03 36.446 58.088 36.038 56.912 36.038C55.748 36.038 54.812 36.446 54.104 37.262C53.396 38.078 53.042 39.188 53.042 40.592ZM69.7024 37.568C69.9064 37.568 70.0924 37.58 70.2604 37.604V39.692H69.6844C68.8204 39.692 68.1544 39.914 67.6864 40.358C67.2304 40.79 67.0024 41.432 67.0024 42.284V47H64.7344V37.712H66.9304V39.368C67.4464 38.168 68.3704 37.568 69.7024 37.568ZM77.6865 38.918V34.184H79.9545V47H77.7585V45.704C77.0745 46.712 76.0965 47.216 74.8245 47.216C73.5405 47.216 72.5265 46.772 71.7825 45.884C71.0265 44.996 70.6485 43.82 70.6485 42.356C70.6485 40.868 71.0265 39.686 71.7825 38.81C72.5145 37.934 73.5285 37.496 74.8245 37.496C76.0725 37.496 77.0265 37.97 77.6865 38.918ZM72.9705 42.428C72.9705 43.388 73.1805 44.114 73.6005 44.606C74.0205 45.098 74.6025 45.344 75.3465 45.344C76.0905 45.344 76.6785 45.086 77.1105 44.57C77.5305 44.054 77.7405 43.316 77.7405 42.356C77.7405 41.396 77.5305 40.658 77.1105 40.142C76.6905 39.626 76.1025 39.368 75.3465 39.368C74.6145 39.368 74.0325 39.638 73.6005 40.178C73.1805 40.718 72.9705 41.468 72.9705 42.428ZM90.5512 42.518V43.058H83.6032C83.6872 43.85 83.9332 44.45 84.3412 44.858C84.7612 45.254 85.3192 45.452 86.0152 45.452C87.0472 45.452 87.7552 45.008 88.1392 44.12H90.3172C90.0772 45.068 89.5732 45.824 88.8052 46.388C88.0372 46.94 87.1012 47.216 85.9972 47.216C84.6172 47.216 83.5012 46.772 82.6492 45.884C81.7972 44.996 81.3712 43.82 81.3712 42.356C81.3712 40.892 81.7912 39.716 82.6312 38.828C83.4832 37.94 84.5932 37.496 85.9612 37.496C87.3652 37.496 88.4812 37.958 89.3092 38.882C90.1372 39.806 90.5512 41.018 90.5512 42.518ZM85.9432 39.26C84.6112 39.26 83.8372 39.998 83.6212 41.474H88.2832C88.1872 40.79 87.9352 40.25 87.5272 39.854C87.1192 39.458 86.5912 39.26 85.9432 39.26ZM96.9837 37.568C97.1877 37.568 97.3737 37.58 97.5417 37.604V39.692H96.9657C96.1017 39.692 95.4357 39.914 94.9677 40.358C94.5117 40.79 94.2837 41.432 94.2837 42.284V47H92.0157V37.712H94.2117V39.368C94.7277 38.168 95.6517 37.568 96.9837 37.568ZM102.226 47.252C99.5143 47.252 98.0983 46.184 97.9783 44.048H100.192C100.252 44.624 100.438 45.032 100.75 45.272C101.074 45.512 101.578 45.632 102.262 45.632C103.486 45.632 104.098 45.26 104.098 44.516C104.098 44.18 103.966 43.922 103.702 43.742C103.438 43.562 102.964 43.412 102.28 43.292L101.218 43.112C99.1903 42.776 98.1763 41.84 98.1763 40.304C98.1763 39.428 98.5123 38.744 99.1843 38.252C99.8563 37.748 100.804 37.496 102.028 37.496C104.68 37.496 106.048 38.546 106.132 40.646H103.99C103.966 40.094 103.792 39.704 103.468 39.476C103.144 39.236 102.664 39.116 102.028 39.116C100.948 39.116 100.408 39.476 100.408 40.196C100.408 40.508 100.528 40.754 100.768 40.934C101.008 41.102 101.404 41.234 101.956 41.33L103.126 41.51C104.254 41.714 105.07 42.038 105.574 42.482C106.09 42.926 106.348 43.544 106.348 44.336C106.348 45.272 105.988 45.992 105.268 46.496C104.548 47 103.534 47.252 102.226 47.252Z" fill="black"/>
<path d="M176.208 34.744H183.904V36.317H180.94V44H179.172V36.317H176.208V34.744ZM189.981 40.646C189.981 41.7033 189.669 42.5527 189.045 43.194C188.421 43.8353 187.598 44.156 186.575 44.156C185.552 44.156 184.729 43.8353 184.105 43.194C183.472 42.5613 183.156 41.712 183.156 40.646C183.156 39.58 183.472 38.7307 184.105 38.098C184.729 37.4567 185.552 37.136 186.575 37.136C187.598 37.136 188.421 37.4523 189.045 38.085C189.669 38.7177 189.981 39.5713 189.981 40.646ZM185.288 42.245C185.6 42.6177 186.029 42.804 186.575 42.804C187.121 42.804 187.546 42.6177 187.849 42.245C188.161 41.8637 188.317 41.3307 188.317 40.646C188.317 39.9613 188.161 39.4327 187.849 39.06C187.546 38.6787 187.121 38.488 186.575 38.488C186.029 38.488 185.6 38.6743 185.288 39.047C184.985 39.4197 184.833 39.9527 184.833 40.646C184.833 41.3393 184.985 41.8723 185.288 42.245ZM195.793 38.163V34.744H197.431V44H195.845V43.064C195.351 43.792 194.644 44.156 193.726 44.156C192.798 44.156 192.066 43.8353 191.529 43.194C190.983 42.5527 190.71 41.7033 190.71 40.646C190.71 39.5713 190.983 38.7177 191.529 38.085C192.057 37.4523 192.79 37.136 193.726 37.136C194.627 37.136 195.316 37.4783 195.793 38.163ZM192.387 40.698C192.387 41.3913 192.538 41.9157 192.842 42.271C193.145 42.6263 193.565 42.804 194.103 42.804C194.64 42.804 195.065 42.6177 195.377 42.245C195.68 41.8723 195.832 41.3393 195.832 40.646C195.832 39.9527 195.68 39.4197 195.377 39.047C195.073 38.6743 194.649 38.488 194.103 38.488C193.574 38.488 193.154 38.683 192.842 39.073C192.538 39.463 192.387 40.0047 192.387 40.698ZM204.785 44H203.147C203.069 43.8613 203.008 43.5883 202.965 43.181C202.514 43.831 201.795 44.156 200.807 44.156C200.07 44.156 199.481 43.9783 199.039 43.623C198.606 43.2677 198.389 42.7737 198.389 42.141C198.389 40.919 199.247 40.2213 200.963 40.048L201.977 39.957C202.315 39.9137 202.558 39.8357 202.705 39.723C202.852 39.6017 202.926 39.424 202.926 39.19C202.926 38.904 202.831 38.696 202.64 38.566C202.458 38.4273 202.146 38.358 201.704 38.358C201.227 38.358 200.885 38.4403 200.677 38.605C200.469 38.761 200.348 39.034 200.313 39.424H198.701C198.796 37.8987 199.802 37.136 201.717 37.136C203.58 37.136 204.512 37.8077 204.512 39.151V42.726C204.512 43.3153 204.603 43.74 204.785 44ZM201.197 42.986C201.708 42.986 202.124 42.8473 202.445 42.57C202.766 42.284 202.926 41.8767 202.926 41.348V40.737C202.77 40.8757 202.514 40.9667 202.159 41.01L201.275 41.114C200.842 41.166 200.53 41.27 200.339 41.426C200.157 41.5733 200.066 41.79 200.066 42.076C200.066 42.362 200.161 42.5873 200.352 42.752C200.551 42.908 200.833 42.986 201.197 42.986ZM209.266 38.982L209.812 37.292H211.528L208.941 44.546C208.663 45.3087 208.317 45.833 207.901 46.119C207.476 46.4137 206.861 46.561 206.055 46.561C205.786 46.561 205.548 46.548 205.34 46.522V45.235H205.964C206.319 45.235 206.592 45.1353 206.783 44.936C206.973 44.7367 207.069 44.4767 207.069 44.156C207.069 43.8353 206.965 43.3847 206.757 42.804L204.807 37.292H206.575L207.121 38.969C207.502 40.165 207.857 41.413 208.187 42.713C208.447 41.7337 208.806 40.49 209.266 38.982Z" fill="#A0A0A0"/>
<path d="M113.81 115.64H117.02V137H112.97V122.6H108.05V119.75L108.53 119.72C110.09 119.62 111.28 119.27 112.1 118.67C112.94 118.05 113.51 117.04 113.81 115.64ZM133.726 128.66H136.576V132.08H133.726V137H129.676V132.08H119.296V128.24L129.286 115.64H133.726V128.66ZM129.766 128.66V119.99L122.896 128.66H129.766ZM146.721 122.96C149.041 122.96 150.851 123.64 152.151 125C153.411 126.36 154.041 128.05 154.041 130.07C154.041 132.29 153.301 134.08 151.821 135.44C150.341 136.8 148.421 137.48 146.061 137.48C143.881 137.48 142.051 136.89 140.571 135.71C139.131 134.55 138.331 132.95 138.171 130.91H142.041C142.181 131.93 142.611 132.74 143.331 133.34C144.071 133.92 144.981 134.21 146.061 134.21C147.281 134.21 148.261 133.83 149.001 133.07C149.761 132.29 150.141 131.29 150.141 130.07C150.141 128.85 149.761 127.86 149.001 127.1C148.261 126.32 147.281 125.93 146.061 125.93C144.261 125.93 143.011 126.65 142.311 128.09H138.591L140.571 115.64H152.931V119.06H143.751L142.821 124.37C143.981 123.43 145.281 122.96 146.721 122.96Z" fill="black"/>
<rect x="50" y="168" width="162" height="4" rx="2" fill="#FDA623"/>
<rect x="50" y="168" width="71" height="4" rx="2" fill="#249C46"/>
<path d="M50.93 182.32H55.475C56.635 182.32 57.535 182.625 58.175 183.235C58.815 183.835 59.135 184.655 59.135 185.695C59.135 186.725 58.815 187.545 58.175 188.155C57.535 188.755 56.635 189.055 55.475 189.055H52.535V193H50.93V182.32ZM52.535 187.645H55.445C56.115 187.645 56.625 187.48 56.975 187.15C57.325 186.81 57.5 186.325 57.5 185.695C57.5 185.065 57.325 184.58 56.975 184.24C56.625 183.9 56.115 183.73 55.445 183.73H52.535V187.645ZM66.5234 191.845H66.9434V193C66.7234 193.03 66.4784 193.045 66.2084 193.045C65.7284 193.045 65.3684 192.96 65.1284 192.79C64.8984 192.61 64.7584 192.33 64.7084 191.95C64.1884 192.77 63.3484 193.18 62.1884 193.18C61.3384 193.18 60.6634 192.98 60.1634 192.58C59.6734 192.17 59.4284 191.605 59.4284 190.885C59.4284 189.485 60.3984 188.685 62.3384 188.485L63.4784 188.365C63.8784 188.315 64.1684 188.215 64.3484 188.065C64.5384 187.905 64.6334 187.68 64.6334 187.39C64.6334 187 64.5084 186.72 64.2584 186.55C64.0184 186.37 63.6134 186.28 63.0434 186.28C62.4234 186.28 61.9784 186.385 61.7084 186.595C61.4384 186.795 61.2834 187.155 61.2434 187.675H59.7584C59.8684 185.945 60.9634 185.08 63.0434 185.08C65.0834 185.08 66.1034 185.84 66.1034 187.36V191.455C66.1034 191.715 66.2434 191.845 66.5234 191.845ZM62.4134 192.01C63.0534 192.01 63.5834 191.83 64.0034 191.47C64.4234 191.11 64.6334 190.6 64.6334 189.94V189.13C64.4434 189.29 64.1234 189.395 63.6734 189.445L62.5934 189.565C62.0134 189.635 61.5984 189.775 61.3484 189.985C61.0984 190.185 60.9734 190.47 60.9734 190.84C60.9734 191.21 61.0934 191.5 61.3334 191.71C61.5834 191.91 61.9434 192.01 62.4134 192.01ZM71.8047 185.08C72.6547 185.08 73.3197 185.32 73.7997 185.8C74.2797 186.27 74.5197 186.94 74.5197 187.81V193H73.0197V188.02C73.0197 186.94 72.4747 186.4 71.3847 186.4C70.8847 186.4 70.4347 186.59 70.0347 186.97C69.6347 187.36 69.4347 187.915 69.4347 188.635V193H67.9347V185.26H69.3747V186.415C69.9647 185.525 70.7747 185.08 71.8047 185.08ZM81.8961 186.31V182.32H83.3961V193H81.9561V191.86C81.3761 192.74 80.5211 193.18 79.3911 193.18C78.3111 193.18 77.4511 192.815 76.8111 192.085C76.1711 191.355 75.8511 190.37 75.8511 189.13C75.8511 187.89 76.1711 186.905 76.8111 186.175C77.4511 185.445 78.3111 185.08 79.3911 185.08C80.4811 185.08 81.3161 185.49 81.8961 186.31ZM77.4111 189.19C77.4111 190.05 77.6161 190.715 78.0261 191.185C78.4361 191.655 78.9861 191.89 79.6761 191.89C80.3861 191.89 80.9411 191.645 81.3411 191.155C81.7411 190.685 81.9411 190.01 81.9411 189.13C81.9411 188.26 81.7411 187.58 81.3411 187.09C80.9411 186.61 80.3861 186.37 79.6761 186.37C78.9861 186.37 78.4361 186.62 78.0261 187.12C77.6161 187.62 77.4111 188.31 77.4111 189.19ZM91.748 191.845H92.168V193C91.948 193.03 91.703 193.045 91.433 193.045C90.953 193.045 90.593 192.96 90.353 192.79C90.123 192.61 89.983 192.33 89.933 191.95C89.413 192.77 88.573 193.18 87.413 193.18C86.563 193.18 85.888 192.98 85.388 192.58C84.898 192.17 84.653 191.605 84.653 190.885C84.653 189.485 85.623 188.685 87.563 188.485L88.703 188.365C89.103 188.315 89.393 188.215 89.573 188.065C89.763 187.905 89.858 187.68 89.858 187.39C89.858 187 89.733 186.72 89.483 186.55C89.243 186.37 88.838 186.28 88.268 186.28C87.648 186.28 87.203 186.385 86.933 186.595C86.663 186.795 86.508 187.155 86.468 187.675H84.983C85.093 185.945 86.188 185.08 88.268 185.08C90.308 185.08 91.328 185.84 91.328 187.36V191.455C91.328 191.715 91.468 191.845 91.748 191.845ZM87.638 192.01C88.278 192.01 88.808 191.83 89.228 191.47C89.648 191.11 89.858 190.6 89.858 189.94V189.13C89.668 189.29 89.348 189.395 88.898 189.445L87.818 189.565C87.238 189.635 86.823 189.775 86.573 189.985C86.323 190.185 86.198 190.47 86.198 190.84C86.198 191.21 86.318 191.5 86.558 191.71C86.808 191.91 87.168 192.01 87.638 192.01Z" fill="black"/>
</g>
<defs>
<filter id="filter0_d" x="0" y="0" width="262" height="282" filterUnits="userSpaceOnUse" color-interpolation-filters="sRGB">
<feFlood flood-opacity="0" result="BackgroundImageFix"/>
<feColorMatrix in="SourceAlpha" type="matrix" values="0 0 0 0 0 0 0 0 0 0 0 0 0 0 0 0 0 0 127 0" result="hardAlpha"/>
<feOffset dy="13"/>
<feGaussianBlur stdDeviation="10"/>
<feComposite in2="hardAlpha" operator="out"/>
<feColorMatrix type="matrix" values="0 0 0 0 0.5375 0 0 0 0 0.5375 0 0 0 0 0.5375 0 0 0 0.16 0"/>
<feBlend mode="normal" in2="BackgroundImageFix" result="effect1_dropShadow"/>
<feBlend mode="normal" in="SourceGraphic" in2="effect1_dropShadow" result="shape"/>
</filter>
</defs>
</svg>
