<svg width="262" height="282" viewBox="0 0 262 282" fill="none" xmlns="http://www.w3.org/2000/svg">
<g filter="url(#filter0_d)">
<rect x="20" y="7" width="222" height="242" rx="20" fill="white"/>
<path d="M51.044 34.184H56.678C58.106 34.184 59.216 34.562 60.008 35.318C60.812 36.062 61.214 37.076 61.214 38.36C61.214 39.632 60.812 40.646 60.008 41.402C59.216 42.146 58.106 42.518 56.678 42.518H53.474V47H51.044V34.184ZM53.474 40.43H56.57C57.278 40.43 57.818 40.256 58.19 39.908C58.574 39.548 58.766 39.032 58.766 38.36C58.766 37.688 58.574 37.172 58.19 36.812C57.818 36.452 57.278 36.272 56.57 36.272H53.474V40.43ZM70.3442 47H68.0762C67.9682 46.808 67.8842 46.43 67.8242 45.866C67.2002 46.766 66.2042 47.216 64.8362 47.216C63.8162 47.216 63.0002 46.97 62.3882 46.478C61.7882 45.986 61.4882 45.302 61.4882 44.426C61.4882 42.734 62.6762 41.768 65.0522 41.528L66.4562 41.402C66.9242 41.342 67.2602 41.234 67.4642 41.078C67.6682 40.91 67.7702 40.664 67.7702 40.34C67.7702 39.944 67.6382 39.656 67.3742 39.476C67.1222 39.284 66.6902 39.188 66.0782 39.188C65.4182 39.188 64.9442 39.302 64.6562 39.53C64.3682 39.746 64.2002 40.124 64.1522 40.664H61.9202C62.0522 38.552 63.4442 37.496 66.0962 37.496C68.6762 37.496 69.9662 38.426 69.9662 40.286V45.236C69.9662 46.052 70.0922 46.64 70.3442 47ZM65.3762 45.596C66.0842 45.596 66.6602 45.404 67.1042 45.02C67.5482 44.624 67.7702 44.06 67.7702 43.328V42.482C67.5542 42.674 67.2002 42.8 66.7082 42.86L65.4842 43.004C64.8842 43.076 64.4522 43.22 64.1882 43.436C63.9362 43.64 63.8102 43.94 63.8102 44.336C63.8102 44.732 63.9422 45.044 64.2062 45.272C64.4822 45.488 64.8722 45.596 65.3762 45.596ZM76.5483 40.052L77.3043 37.712H79.6803L76.0983 47.756C75.7143 48.812 75.2343 49.538 74.6583 49.934C74.0703 50.342 73.2183 50.546 72.1023 50.546C71.7303 50.546 71.4003 50.528 71.1123 50.492V48.71H71.9763C72.4683 48.71 72.8463 48.572 73.1103 48.296C73.3743 48.02 73.5063 47.66 73.5063 47.216C73.5063 46.772 73.3623 46.148 73.0743 45.344L70.3743 37.712H72.8223L73.5783 40.034C74.1063 41.69 74.5983 43.418 75.0543 45.218C75.4143 43.862 75.9123 42.14 76.5483 40.052ZM91.1567 37.496C92.1767 37.496 92.9687 37.796 93.5327 38.396C94.1087 38.996 94.3967 39.818 94.3967 40.862V47H92.1287V41.222C92.1287 40.046 91.5947 39.458 90.5267 39.458C89.9507 39.458 89.4827 39.668 89.1227 40.088C88.7747 40.496 88.6007 41.096 88.6007 41.888V47H86.3507V41.222C86.3507 40.046 85.8107 39.458 84.7307 39.458C84.1667 39.458 83.7047 39.668 83.3447 40.088C82.9967 40.496 82.8227 41.096 82.8227 41.888V47H80.5547V37.712H82.7507V39.044C83.3867 38.012 84.2687 37.496 85.3967 37.496C86.8127 37.496 87.7727 38.072 88.2767 39.224C88.9727 38.072 89.9327 37.496 91.1567 37.496ZM105 42.518V43.058H98.0524C98.1364 43.85 98.3824 44.45 98.7904 44.858C99.2104 45.254 99.7684 45.452 100.464 45.452C101.496 45.452 102.204 45.008 102.588 44.12H104.766C104.526 45.068 104.022 45.824 103.254 46.388C102.486 46.94 101.55 47.216 100.446 47.216C99.0664 47.216 97.9504 46.772 97.0984 45.884C96.2464 44.996 95.8204 43.82 95.8204 42.356C95.8204 40.892 96.2404 39.716 97.0804 38.828C97.9324 37.94 99.0424 37.496 100.41 37.496C101.814 37.496 102.93 37.958 103.758 38.882C104.586 39.806 105 41.018 105 42.518ZM100.392 39.26C99.0604 39.26 98.2864 39.998 98.0704 41.474H102.732C102.636 40.79 102.384 40.25 101.976 39.854C101.568 39.458 101.04 39.26 100.392 39.26ZM111.559 37.496C112.567 37.496 113.359 37.79 113.935 38.378C114.523 38.954 114.817 39.776 114.817 40.844V47H112.549V41.222C112.549 40.046 111.967 39.458 110.803 39.458C110.227 39.458 109.735 39.668 109.327 40.088C108.931 40.496 108.733 41.066 108.733 41.798V47H106.465V37.712H108.661V39.044C109.369 38.012 110.335 37.496 111.559 37.496ZM121.186 37.712V39.44H119.35V44.462C119.35 44.762 119.428 44.972 119.584 45.092C119.752 45.212 120.028 45.272 120.412 45.272H121.186V47C120.694 47.048 120.298 47.072 119.998 47.072C118.99 47.072 118.252 46.886 117.784 46.514C117.328 46.13 117.1 45.524 117.1 44.696V39.44H115.66V37.712H117.1V35.012H119.35V37.712H121.186ZM126.15 47.252C123.438 47.252 122.022 46.184 121.902 44.048H124.116C124.176 44.624 124.362 45.032 124.674 45.272C124.998 45.512 125.502 45.632 126.186 45.632C127.41 45.632 128.022 45.26 128.022 44.516C128.022 44.18 127.89 43.922 127.626 43.742C127.362 43.562 126.888 43.412 126.204 43.292L125.142 43.112C123.114 42.776 122.1 41.84 122.1 40.304C122.1 39.428 122.436 38.744 123.108 38.252C123.78 37.748 124.728 37.496 125.952 37.496C128.604 37.496 129.972 38.546 130.056 40.646H127.914C127.89 40.094 127.716 39.704 127.392 39.476C127.068 39.236 126.588 39.116 125.952 39.116C124.872 39.116 124.332 39.476 124.332 40.196C124.332 40.508 124.452 40.754 124.692 40.934C124.932 41.102 125.328 41.234 125.88 41.33L127.05 41.51C128.178 41.714 128.994 42.038 129.498 42.482C130.014 42.926 130.272 43.544 130.272 44.336C130.272 45.272 129.912 45.992 129.192 46.496C128.472 47 127.458 47.252 126.15 47.252Z" fill="black"/>
<path d="M176.208 34.744H183.904V36.317H180.94V44H179.172V36.317H176.208V34.744ZM189.981 40.646C189.981 41.7033 189.669 42.5527 189.045 43.194C188.421 43.8353 187.598 44.156 186.575 44.156C185.552 44.156 184.729 43.8353 184.105 43.194C183.472 42.5613 183.156 41.712 183.156 40.646C183.156 39.58 183.472 38.7307 184.105 38.098C184.729 37.4567 185.552 37.136 186.575 37.136C187.598 37.136 188.421 37.4523 189.045 38.085C189.669 38.7177 189.981 39.5713 189.981 40.646ZM185.288 42.245C185.6 42.6177 186.029 42.804 186.575 42.804C187.121 42.804 187.546 42.6177 187.849 42.245C188.161 41.8637 188.317 41.3307 188.317 40.646C188.317 39.9613 188.161 39.4327 187.849 39.06C187.546 38.6787 187.121 38.488 186.575 38.488C186.029 38.488 185.6 38.6743 185.288 39.047C184.985 39.4197 184.833 39.9527 184.833 40.646C184.833 41.3393 184.985 41.8723 185.288 42.245ZM195.793 38.163V34.744H197.431V44H195.845V43.064C195.351 43.792 194.644 44.156 193.726 44.156C192.798 44.156 192.066 43.8353 191.529 43.194C190.983 42.5527 190.71 41.7033 190.71 40.646C190.71 39.5713 190.983 38.7177 191.529 38.085C192.057 37.4523 192.79 37.136 193.726 37.136C194.627 37.136 195.316 37.4783 195.793 38.163ZM192.387 40.698C192.387 41.3913 192.538 41.9157 192.842 42.271C193.145 42.6263 193.565 42.804 194.103 42.804C194.64 42.804 195.065 42.6177 195.377 42.245C195.68 41.8723 195.832 41.3393 195.832 40.646C195.832 39.9527 195.68 39.4197 195.377 39.047C195.073 38.6743 194.649 38.488 194.103 38.488C193.574 38.488 193.154 38.683 192.842 39.073C192.538 39.463 192.387 40.0047 192.387 40.698ZM204.785 44H203.147C203.069 43.8613 203.008 43.5883 202.965 43.181C202.514 43.831 201.795 44.156 200.807 44.156C200.07 44.156 199.481 43.9783 199.039 43.623C198.606 43.2677 198.389 42.7737 198.389 42.141C198.389 40.919 199.247 40.2213 200.963 40.048L201.977 39.957C202.315 39.9137 202.558 39.8357 202.705 39.723C202.852 39.6017 202.926 39.424 202.926 39.19C202.926 38.904 202.831 38.696 202.64 38.566C202.458 38.4273 202.146 38.358 201.704 38.358C201.227 38.358 200.885 38.4403 200.677 38.605C200.469 38.761 200.348 39.034 200.313 39.424H198.701C198.796 37.8987 199.802 37.136 201.717 37.136C203.58 37.136 204.512 37.8077 204.512 39.151V42.726C204.512 43.3153 204.603 43.74 204.785 44ZM201.197 42.986C201.708 42.986 202.124 42.8473 202.445 42.57C202.766 42.284 202.926 41.8767 202.926 41.348V40.737C202.77 40.8757 202.514 40.9667 202.159 41.01L201.275 41.114C200.842 41.166 200.53 41.27 200.339 41.426C200.157 41.5733 200.066 41.79 200.066 42.076C200.066 42.362 200.161 42.5873 200.352 42.752C200.551 42.908 200.833 42.986 201.197 42.986ZM209.266 38.982L209.812 37.292H211.528L208.941 44.546C208.663 45.3087 208.317 45.833 207.901 46.119C207.476 46.4137 206.861 46.561 206.055 46.561C205.786 46.561 205.548 46.548 205.34 46.522V45.235H205.964C206.319 45.235 206.592 45.1353 206.783 44.936C206.973 44.7367 207.069 44.4767 207.069 44.156C207.069 43.8353 206.965 43.3847 206.757 42.804L204.807 37.292H206.575L207.121 38.969C207.502 40.165 207.857 41.413 208.187 42.713C208.447 41.7337 208.806 40.49 209.266 38.982Z" fill="#A0A0A0"/>
<path d="M88.7 133.58H99.71V137H84.17L84.26 135.41C84.34 133.77 84.68 132.3 85.28 131C86.02 129.38 87.55 128.04 89.87 126.98L91.97 125.9C93.21 125.3 94.09 124.69 94.61 124.07C95.13 123.45 95.39 122.68 95.39 121.76C95.39 120.78 95.08 120.01 94.46 119.45C93.84 118.87 92.98 118.58 91.88 118.58C89.42 118.58 88.19 119.88 88.19 122.48H84.29C84.27 120.18 84.92 118.39 86.24 117.11C87.58 115.81 89.5 115.16 92 115.16C94.3 115.16 96.12 115.74 97.46 116.9C98.8 118.06 99.47 119.58 99.47 121.46C99.47 123.08 99.02 124.46 98.12 125.6C97.22 126.72 95.79 127.77 93.83 128.75L91.85 129.8C90.73 130.4 89.94 130.97 89.48 131.51C89.04 132.03 88.78 132.72 88.7 133.58ZM114.589 128.66H117.439V132.08H114.589V137H110.539V132.08H100.159V128.24L110.149 115.64H114.589V128.66ZM110.629 128.66V119.99L103.759 128.66H110.629ZM118.974 137V132.71H123.384V137.33C123.384 140.15 122.094 141.61 119.514 141.71H118.974V139.55L119.484 139.52C120.404 139.46 120.864 138.79 120.864 137.51V137H118.974ZM138.432 125.66C140.912 126.62 142.152 128.38 142.152 130.94C142.152 132.94 141.402 134.52 139.902 135.68C138.382 136.88 136.342 137.48 133.782 137.48C131.222 137.48 129.192 136.88 127.692 135.68C126.192 134.52 125.442 132.94 125.442 130.94C125.442 128.42 126.672 126.66 129.132 125.66C127.252 124.68 126.312 123.15 126.312 121.07C126.312 119.25 127.002 117.81 128.382 116.75C129.782 115.69 131.582 115.16 133.782 115.16C135.982 115.16 137.782 115.69 139.182 116.75C140.562 117.81 141.252 119.25 141.252 121.07C141.252 123.15 140.312 124.68 138.432 125.66ZM137.562 121.31C137.562 120.33 137.222 119.57 136.542 119.03C135.862 118.49 134.942 118.22 133.782 118.22C132.662 118.22 131.752 118.49 131.052 119.03C130.352 119.57 130.002 120.33 130.002 121.31C130.002 122.25 130.342 122.99 131.022 123.53C131.702 124.07 132.622 124.34 133.782 124.34C134.942 124.34 135.862 124.07 136.542 123.53C137.222 122.99 137.562 122.25 137.562 121.31ZM133.782 134.24C135.162 134.24 136.222 133.93 136.962 133.31C137.722 132.69 138.102 131.82 138.102 130.7C138.102 129.56 137.722 128.68 136.962 128.06C136.202 127.44 135.142 127.13 133.782 127.13C132.422 127.13 131.362 127.44 130.602 128.06C129.842 128.68 129.462 129.56 129.462 130.7C129.462 131.82 129.842 132.69 130.602 133.31C131.362 133.93 132.422 134.24 133.782 134.24ZM152.487 122.96C154.807 122.96 156.617 123.64 157.917 125C159.177 126.36 159.807 128.05 159.807 130.07C159.807 132.29 159.067 134.08 157.587 135.44C156.107 136.8 154.187 137.48 151.827 137.48C149.647 137.48 147.817 136.89 146.337 135.71C144.897 134.55 144.097 132.95 143.937 130.91H147.807C147.947 131.93 148.377 132.74 149.097 133.34C149.837 133.92 150.747 134.21 151.827 134.21C153.047 134.21 154.027 133.83 154.767 133.07C155.527 132.29 155.907 131.29 155.907 130.07C155.907 128.85 155.527 127.86 154.767 127.1C154.027 126.32 153.047 125.93 151.827 125.93C150.027 125.93 148.777 126.65 148.077 128.09H144.357L146.337 115.64H158.697V119.06H149.517L148.587 124.37C149.747 123.43 151.047 122.96 152.487 122.96ZM174.058 125.6C175.178 126.08 176.058 126.78 176.698 127.7C177.358 128.6 177.688 129.66 177.688 130.88C177.688 132.86 176.968 134.45 175.528 135.65C174.068 136.87 172.118 137.48 169.678 137.48C166.958 137.48 164.878 136.82 163.438 135.5C162.018 134.16 161.308 132.3 161.308 129.92H165.238C165.298 132.68 166.738 134.06 169.558 134.06C170.778 134.06 171.738 133.76 172.438 133.16C173.138 132.56 173.488 131.75 173.488 130.73C173.488 129.63 173.128 128.78 172.408 128.18C171.688 127.58 170.688 127.28 169.408 127.28H167.818V124.31H169.378C171.878 124.31 173.128 123.32 173.128 121.34C173.128 120.44 172.808 119.74 172.168 119.24C171.528 118.72 170.648 118.46 169.528 118.46C167.108 118.46 165.838 119.59 165.718 121.85H161.818C161.858 119.71 162.538 118.06 163.858 116.9C165.198 115.74 167.098 115.16 169.558 115.16C171.858 115.16 173.678 115.69 175.018 116.75C176.378 117.79 177.058 119.21 177.058 121.01C177.058 123.05 176.058 124.58 174.058 125.6Z" fill="black"/>
<rect x="50" y="168" width="162" height="4" rx="2" fill="#FDA623"/>
<path d="M55.52 193.24C54.03 193.24 52.82 192.735 51.89 191.725C50.95 190.725 50.48 189.37 50.48 187.66C50.48 185.96 50.945 184.605 51.875 183.595C52.805 182.585 54.02 182.08 55.52 182.08C56.7 182.08 57.715 182.395 58.565 183.025C59.415 183.665 59.96 184.61 60.2 185.86H58.58C58.38 185.08 58.01 184.495 57.47 184.105C56.94 183.705 56.29 183.505 55.52 183.505C54.49 183.505 53.67 183.88 53.06 184.63C52.45 185.37 52.145 186.38 52.145 187.66C52.145 188.94 52.45 189.955 53.06 190.705C53.67 191.445 54.49 191.815 55.52 191.815C56.29 191.815 56.98 191.58 57.59 191.11C58.18 190.64 58.535 189.955 58.655 189.055H60.26C60.13 190.385 59.615 191.415 58.715 192.145C57.825 192.875 56.76 193.24 55.52 193.24ZM68.1787 191.845H68.5987V193C68.3787 193.03 68.1337 193.045 67.8637 193.045C67.3837 193.045 67.0237 192.96 66.7837 192.79C66.5537 192.61 66.4137 192.33 66.3637 191.95C65.8437 192.77 65.0037 193.18 63.8437 193.18C62.9937 193.18 62.3187 192.98 61.8187 192.58C61.3287 192.17 61.0837 191.605 61.0837 190.885C61.0837 189.485 62.0537 188.685 63.9937 188.485L65.1337 188.365C65.5337 188.315 65.8237 188.215 66.0037 188.065C66.1937 187.905 66.2887 187.68 66.2887 187.39C66.2887 187 66.1637 186.72 65.9137 186.55C65.6737 186.37 65.2687 186.28 64.6987 186.28C64.0787 186.28 63.6337 186.385 63.3637 186.595C63.0937 186.795 62.9387 187.155 62.8987 187.675H61.4137C61.5237 185.945 62.6187 185.08 64.6987 185.08C66.7387 185.08 67.7587 185.84 67.7587 187.36V191.455C67.7587 191.715 67.8987 191.845 68.1787 191.845ZM64.0687 192.01C64.7087 192.01 65.2387 191.83 65.6587 191.47C66.0787 191.11 66.2887 190.6 66.2887 189.94V189.13C66.0987 189.29 65.7787 189.395 65.3287 189.445L64.2487 189.565C63.6687 189.635 63.2537 189.775 63.0037 189.985C62.7537 190.185 62.6287 190.47 62.6287 190.84C62.6287 191.21 62.7487 191.5 62.9887 191.71C63.2387 191.91 63.5987 192.01 64.0687 192.01ZM73.445 185.14C73.665 185.14 73.81 185.145 73.88 185.155V186.58H73.505C72.735 186.58 72.14 186.77 71.72 187.15C71.3 187.53 71.09 188.08 71.09 188.8V193H69.59V185.26H71.03V186.64C71.52 185.64 72.325 185.14 73.445 185.14ZM80.2408 186.31V182.32H81.7408V193H80.3008V191.86C79.7208 192.74 78.8658 193.18 77.7358 193.18C76.6558 193.18 75.7958 192.815 75.1558 192.085C74.5158 191.355 74.1958 190.37 74.1958 189.13C74.1958 187.89 74.5158 186.905 75.1558 186.175C75.7958 185.445 76.6558 185.08 77.7358 185.08C78.8258 185.08 79.6608 185.49 80.2408 186.31ZM75.7558 189.19C75.7558 190.05 75.9608 190.715 76.3708 191.185C76.7808 191.655 77.3308 191.89 78.0208 191.89C78.7308 191.89 79.2858 191.645 79.6858 191.155C80.0858 190.685 80.2858 190.01 80.2858 189.13C80.2858 188.26 80.0858 187.58 79.6858 187.09C79.2858 186.61 78.7308 186.37 78.0208 186.37C77.3308 186.37 76.7808 186.62 76.3708 187.12C75.9608 187.62 75.7558 188.31 75.7558 189.19Z" fill="black"/>
<path d="M182.52 193.24C181.03 193.24 179.82 192.735 178.89 191.725C177.95 190.725 177.48 189.37 177.48 187.66C177.48 185.96 177.945 184.605 178.875 183.595C179.805 182.585 181.02 182.08 182.52 182.08C183.7 182.08 184.715 182.395 185.565 183.025C186.415 183.665 186.96 184.61 187.2 185.86H185.58C185.38 185.08 185.01 184.495 184.47 184.105C183.94 183.705 183.29 183.505 182.52 183.505C181.49 183.505 180.67 183.88 180.06 184.63C179.45 185.37 179.145 186.38 179.145 187.66C179.145 188.94 179.45 189.955 180.06 190.705C180.67 191.445 181.49 191.815 182.52 191.815C183.29 191.815 183.98 191.58 184.59 191.11C185.18 190.64 185.535 189.955 185.655 189.055H187.26C187.13 190.385 186.615 191.415 185.715 192.145C184.825 192.875 183.76 193.24 182.52 193.24ZM195.179 191.845H195.599V193C195.379 193.03 195.134 193.045 194.864 193.045C194.384 193.045 194.024 192.96 193.784 192.79C193.554 192.61 193.414 192.33 193.364 191.95C192.844 192.77 192.004 193.18 190.844 193.18C189.994 193.18 189.319 192.98 188.819 192.58C188.329 192.17 188.084 191.605 188.084 190.885C188.084 189.485 189.054 188.685 190.994 188.485L192.134 188.365C192.534 188.315 192.824 188.215 193.004 188.065C193.194 187.905 193.289 187.68 193.289 187.39C193.289 187 193.164 186.72 192.914 186.55C192.674 186.37 192.269 186.28 191.699 186.28C191.079 186.28 190.634 186.385 190.364 186.595C190.094 186.795 189.939 187.155 189.899 187.675H188.414C188.524 185.945 189.619 185.08 191.699 185.08C193.739 185.08 194.759 185.84 194.759 187.36V191.455C194.759 191.715 194.899 191.845 195.179 191.845ZM191.069 192.01C191.709 192.01 192.239 191.83 192.659 191.47C193.079 191.11 193.289 190.6 193.289 189.94V189.13C193.099 189.29 192.779 189.395 192.329 189.445L191.249 189.565C190.669 189.635 190.254 189.775 190.004 189.985C189.754 190.185 189.629 190.47 189.629 190.84C189.629 191.21 189.749 191.5 189.989 191.71C190.239 191.91 190.599 192.01 191.069 192.01ZM199.484 193.195C197.334 193.195 196.204 192.31 196.094 190.54H197.594C197.654 191.08 197.829 191.46 198.119 191.68C198.409 191.9 198.869 192.01 199.499 192.01C200.639 192.01 201.209 191.65 201.209 190.93C201.209 190.62 201.089 190.38 200.849 190.21C200.609 190.04 200.179 189.9 199.559 189.79L198.764 189.64C197.124 189.34 196.304 188.57 196.304 187.33C196.304 186.64 196.569 186.095 197.099 185.695C197.629 185.285 198.359 185.08 199.289 185.08C201.419 185.08 202.509 185.945 202.559 187.675H201.104C201.074 187.155 200.914 186.79 200.624 186.58C200.334 186.36 199.889 186.25 199.289 186.25C198.809 186.25 198.439 186.34 198.179 186.52C197.919 186.7 197.789 186.955 197.789 187.285C197.789 187.585 197.904 187.82 198.134 187.99C198.364 188.15 198.729 188.28 199.229 188.38L200.039 188.515C200.989 188.695 201.674 188.965 202.094 189.325C202.514 189.685 202.724 190.185 202.724 190.825C202.724 191.575 202.439 192.16 201.869 192.58C201.299 192.99 200.504 193.195 199.484 193.195ZM207.711 185.08C208.561 185.08 209.226 185.32 209.706 185.8C210.186 186.27 210.426 186.94 210.426 187.81V193H208.926V188.02C208.926 186.94 208.381 186.4 207.291 186.4C206.791 186.4 206.341 186.59 205.941 186.97C205.541 187.36 205.341 187.915 205.341 188.635V193H203.841V182.32H205.341V186.325C205.931 185.495 206.721 185.08 207.711 185.08Z" fill="black"/>
<rect x="50" y="168" width="71" height="4" rx="2" fill="#249C46"/>
</g>
<defs>
<filter id="filter0_d" x="0" y="0" width="262" height="282" filterUnits="userSpaceOnUse" color-interpolation-filters="sRGB">
<feFlood flood-opacity="0" result="BackgroundImageFix"/>
<feColorMatrix in="SourceAlpha" type="matrix" values="0 0 0 0 0 0 0 0 0 0 0 0 0 0 0 0 0 0 127 0" result="hardAlpha"/>
<feOffset dy="13"/>
<feGaussianBlur stdDeviation="10"/>
<feComposite in2="hardAlpha" operator="out"/>
<feColorMatrix type="matrix" values="0 0 0 0 0.5375 0 0 0 0 0.5375 0 0 0 0 0.5375 0 0 0 0.16 0"/>
<feBlend mode="normal" in2="BackgroundImageFix" result="effect1_dropShadow"/>
<feBlend mode="normal" in="SourceGraphic" in2="effect1_dropShadow" result="shape"/>
</filter>
</defs>
</svg>
