<svg width="76" height="86" viewBox="0 0 76 86" fill="none" xmlns="http://www.w3.org/2000/svg">
<path d="M69.6836 37.4298C69.6836 20.1342 55.4868 6.14026 37.9405 6.14026C20.3185 6.14026 6.05936 21.3644 6.05936 40.1766L6.0459 85.4786H21.7215L21.735 65.7244C31.9532 71.6807 44.6494 71.5566 54.6473 65.3909C69.899 55.9856 69.7055 38.1772 69.6836 37.4298Z" fill="white"/>
<path d="M28.772 40.0209C29.3538 40.0209 29.8253 39.5494 29.8253 38.9676C29.8253 38.3859 29.3538 37.9144 28.772 37.9144C28.1903 37.9144 27.7188 38.3859 27.7188 38.9676C27.7188 39.5494 28.1903 40.0209 28.772 40.0209Z" fill="#80D0A4"/>
<path d="M51.7732 36.5566C50.0841 34.7564 46.5795 32.5643 43.947 34.0121C42.6434 34.7296 41.4957 36.3702 41.6897 37.915C41.9336 39.8556 44.067 39.8671 45.7012 42.5188C47.44 45.3391 46.6306 46.7754 47.9775 47.4878C49.6219 48.3585 52.8788 46.6081 53.9551 44.0292C55.399 40.5744 52.3081 37.1247 51.7732 36.5566ZM48.801 39.5709C48.7716 39.6654 48.7333 39.7548 48.6874 39.8403C48.6644 39.8824 48.6389 39.9246 48.612 39.9641C48.5584 40.0446 48.4959 40.1186 48.4282 40.1863C48.3605 40.254 48.2852 40.3165 48.2061 40.3701C47.966 40.5323 47.6762 40.6268 47.3647 40.6268C46.5336 40.6268 45.8607 39.9526 45.8607 39.1228C45.8607 38.4474 46.305 37.8767 46.9179 37.6865C47.0596 37.6431 47.2089 37.6188 47.3647 37.6188C47.5728 37.6188 47.7707 37.661 47.9507 37.7376C48.0401 37.7759 48.1256 37.8218 48.2061 37.8767C48.2456 37.9035 48.2852 37.9329 48.3222 37.9635C48.5074 38.1167 48.6567 38.3134 48.7512 38.5393C48.8278 38.7193 48.8699 38.9172 48.8699 39.1253C48.8687 39.2798 48.8457 39.4292 48.801 39.5709Z" fill="#80D0A4"/>
<path d="M47.2281 40.0209C47.8098 40.0209 48.2814 39.5494 48.2814 38.9676C48.2814 38.3859 47.8098 37.9144 47.2281 37.9144C46.6464 37.9144 46.1748 38.3859 46.1748 38.9676C46.1748 39.5494 46.6464 40.0209 47.2281 40.0209Z" fill="#80D0A4"/>
<path d="M28.1605 24.7057C27.3217 23.1877 25.7054 22.1587 23.8478 22.1587C21.1284 22.1587 18.9248 24.3636 18.9248 27.0817C18.9248 28.7912 19.7968 30.2964 21.1182 31.1786C22.9158 28.5027 25.3313 26.2774 28.1605 24.7057Z" fill="#80D0A4"/>
<path d="M54.9088 31.1611C56.2149 30.2763 57.0741 28.7799 57.0741 27.0818C57.0741 24.3624 54.8693 22.1587 52.1511 22.1587C50.3012 22.1587 48.69 23.1801 47.8486 24.6879C50.6855 26.2571 53.1074 28.4824 54.9088 31.1611Z" fill="#80D0A4"/>
<path d="M32.052 34.0121C29.4194 32.5643 25.9149 34.7564 24.2258 36.5566C23.6921 37.126 20.5999 40.5744 22.0426 44.0305C23.1189 46.6094 26.3757 48.3585 28.0202 47.4891C29.3671 46.7767 28.5576 45.3404 30.2965 42.5201C31.932 39.8671 34.0641 39.8556 34.3079 37.9163C34.5033 36.3702 33.3568 34.7283 32.052 34.0121ZM30.0718 39.5709C30.0425 39.6654 30.0042 39.7548 29.9582 39.8403C29.9352 39.8824 29.9097 39.9246 29.8829 39.9641C29.8433 40.0229 29.7973 40.0778 29.7501 40.1314C29.6684 40.222 29.5777 40.3025 29.4769 40.3714C29.4105 40.4161 29.3377 40.4557 29.2637 40.4901C29.233 40.5042 29.2024 40.517 29.1705 40.5297C29.0045 40.5936 28.8245 40.6293 28.6355 40.6293C28.324 40.6293 28.0342 40.5348 27.7942 40.3727C27.7137 40.3191 27.6397 40.2565 27.572 40.1888C27.5235 40.1403 27.4801 40.0867 27.438 40.0331C27.2465 39.7803 27.1316 39.4675 27.1316 39.1253C27.1316 38.8828 27.1903 38.6542 27.2924 38.4512C27.3129 38.4104 27.3346 38.3708 27.3588 38.3325C27.3946 38.275 27.4329 38.2202 27.475 38.1678C27.5363 38.0938 27.6052 38.0248 27.6793 37.9635C27.7163 37.9329 27.7546 37.9035 27.7955 37.8767C27.8759 37.8231 27.9614 37.7759 28.0508 37.7376C28.2308 37.661 28.4287 37.6188 28.6368 37.6188C28.7402 37.6188 28.8424 37.629 28.9394 37.6495C29.053 37.6724 29.1615 37.7107 29.2649 37.758C29.339 37.7925 29.4105 37.8308 29.4782 37.8767C29.5548 37.9278 29.625 37.9865 29.6914 38.0516C29.6939 38.0542 29.6977 38.058 29.7016 38.0606C29.736 38.095 29.768 38.1308 29.7986 38.1678C29.8905 38.2789 29.9671 38.404 30.0233 38.5393C30.0999 38.7193 30.142 38.9172 30.142 39.1253C30.1395 39.2798 30.1152 39.4292 30.0718 39.5709Z" fill="#80D0A4"/>
<path d="M42.3613 51.5906C41.2046 51.9021 40.0224 52.0872 38.8363 52.1472V50.3866C44.1589 50.1747 46.4187 44.5725 38.0052 44.5674C38.0039 44.5674 38.0014 44.5674 38.0001 44.5674C37.9988 44.5674 37.9962 44.5674 37.995 44.5674C29.5814 44.5725 31.8412 50.1747 37.1638 50.3866V52.1472C35.9765 52.0885 34.7955 51.9021 33.6388 51.5906C33.1894 51.4706 32.7068 51.7055 32.56 52.1421C32.4132 52.5775 32.7004 53.0703 33.2035 53.2056C36.3455 54.0521 39.656 54.0521 42.798 53.2056C43.301 53.0703 43.5882 52.5775 43.4414 52.1421C43.2946 51.7055 42.8107 51.4693 42.3613 51.5906Z" fill="#80D0A4"/>
<path d="M38.0001 63.6763C52.1806 63.6763 63.6761 52.1808 63.6761 38.0004C63.6761 23.82 52.1806 12.3245 38.0001 12.3245C23.8197 12.3245 12.3242 23.82 12.3242 38.0004C12.3242 52.1808 23.8197 63.6763 38.0001 63.6763Z" stroke="#80D0A4" stroke-width="3" stroke-miterlimit="10"/>
</svg>
