<svg width="56" height="56" viewBox="0 0 56 56" fill="none" xmlns="http://www.w3.org/2000/svg">
<path d="M33.6739 41.1658C33.3956 40.7981 32.8402 40.7445 32.4138 40.9883C31.2992 41.633 30.0774 42.0148 28.8365 42.1322V40.3704C34.1591 40.1584 36.4188 34.5563 28.0053 34.5511C28.004 34.5511 28.0015 34.5511 28.0002 34.5511C27.9989 34.5511 27.9964 34.5511 27.9951 34.5511C19.5816 34.5563 21.8414 40.1584 27.164 40.3704V42.1322C25.923 42.0148 24.7012 41.633 23.5866 40.9883C23.1602 40.7432 22.6048 40.7981 22.3265 41.1658C22.0495 41.5322 22.2256 42.1348 22.7491 42.4374C25.9945 44.3154 30.0072 44.3154 33.2526 42.4374C33.7748 42.1348 33.951 41.5322 33.6739 41.1658Z" fill="#80D0A4"/>
<path d="M18.772 30.0161C19.3537 30.0161 19.8253 29.5445 19.8253 28.9628C19.8253 28.3811 19.3537 27.9095 18.772 27.9095C18.1903 27.9095 17.7188 28.3811 17.7188 28.9628C17.7188 29.5445 18.1903 30.0161 18.772 30.0161Z" fill="#80D0A4"/>
<path d="M41.7734 26.5512C40.0843 24.7511 36.5798 22.559 33.9472 24.0067C32.6437 24.7243 31.4959 26.3648 31.69 27.9096C31.9338 29.8502 34.0672 29.8617 35.7014 32.5135C37.4403 35.3337 36.6308 36.77 37.9778 37.4824C39.6222 38.3531 42.8791 36.6028 43.9553 34.0238C45.3993 30.569 42.3084 27.1194 41.7734 26.5512ZM38.8013 29.5655C38.7719 29.66 38.7336 29.7494 38.6876 29.8349C38.6646 29.8771 38.6391 29.9192 38.6123 29.9588C38.5587 30.0392 38.4961 30.1132 38.4285 30.1809C38.3608 30.2486 38.2855 30.3111 38.2063 30.3648C37.9663 30.5269 37.6765 30.6214 37.365 30.6214C36.5338 30.6214 35.861 29.9473 35.861 29.1174C35.861 28.442 36.3053 27.8713 36.9181 27.6811C37.0598 27.6377 37.2092 27.6134 37.365 27.6134C37.5731 27.6134 37.7709 27.6556 37.951 27.7322C38.0403 27.7705 38.1259 27.8164 38.2063 27.8713C38.2459 27.8982 38.2855 27.9275 38.3225 27.9582C38.5076 28.1114 38.657 28.308 38.7515 28.534C38.8281 28.714 38.8702 28.9119 38.8702 29.12C38.8689 29.2744 38.8459 29.4238 38.8013 29.5655Z" fill="#80D0A4"/>
<path d="M37.2281 30.0161C37.8098 30.0161 38.2814 29.5445 38.2814 28.9628C38.2814 28.3811 37.8098 27.9095 37.2281 27.9095C36.6464 27.9095 36.1748 28.3811 36.1748 28.9628C36.1748 29.5445 36.6464 30.0161 37.2281 30.0161Z" fill="#80D0A4"/>
<path d="M18.1605 14.7007C17.3217 13.1827 15.7054 12.1537 13.8478 12.1537C11.1284 12.1537 8.9248 14.3586 8.9248 17.0767C8.9248 18.7862 9.7968 20.2914 11.1182 21.1736C12.9158 18.4977 15.3313 16.2723 18.1605 14.7007Z" fill="#80D0A4"/>
<path d="M44.9088 21.1558C46.2149 20.271 47.0741 18.7747 47.0741 17.0767C47.0741 14.3573 44.8693 12.1537 42.1511 12.1537C40.3012 12.1537 38.69 13.1751 37.8486 14.6828C40.6855 16.2519 43.1074 18.4772 44.9088 21.1558Z" fill="#80D0A4"/>
<path d="M22.052 24.0067C19.4194 22.559 15.9149 24.7511 14.2258 26.5512C13.6921 27.1206 10.5999 30.569 12.0426 34.0251C13.1189 36.604 16.3758 38.3531 18.0202 37.4837C19.3671 36.7713 18.5576 35.335 20.2965 32.5147C21.932 29.8617 24.0641 29.8502 24.308 27.9109C24.5033 26.3648 23.3568 24.7243 22.052 24.0067ZM20.0718 29.5655C20.0425 29.66 20.0042 29.7494 19.9582 29.8349C19.9352 29.8771 19.9097 29.9192 19.8829 29.9588C19.8433 30.0175 19.7973 30.0724 19.7501 30.126C19.6684 30.2167 19.5777 30.2971 19.4769 30.366C19.4105 30.4107 19.3377 30.4503 19.2637 30.4848C19.233 30.4988 19.2024 30.5116 19.1705 30.5244C19.0045 30.5882 18.8245 30.6239 18.6355 30.6239C18.324 30.6239 18.0342 30.5295 17.7942 30.3673C17.7137 30.3137 17.6397 30.2511 17.572 30.1835C17.5235 30.135 17.4801 30.0813 17.438 30.0277C17.2465 29.7749 17.1316 29.4621 17.1316 29.12C17.1316 28.8774 17.1903 28.6489 17.2924 28.4459C17.3129 28.405 17.3346 28.3654 17.3588 28.3271C17.3946 28.2697 17.4329 28.2148 17.475 28.1624C17.5363 28.0884 17.6052 28.0194 17.6793 27.9582C17.7163 27.9275 17.7546 27.8982 17.7955 27.8713C17.8759 27.8177 17.9614 27.7705 18.0508 27.7322C18.2308 27.6556 18.4287 27.6135 18.6368 27.6135C18.7402 27.6135 18.8424 27.6237 18.9394 27.6441C19.053 27.6671 19.1615 27.7054 19.2649 27.7526C19.339 27.7871 19.4105 27.8254 19.4782 27.8713C19.5548 27.9224 19.625 27.9811 19.6914 28.0463C19.6939 28.0488 19.6978 28.0526 19.7016 28.0552C19.7361 28.0897 19.768 28.1254 19.7986 28.1624C19.8905 28.2735 19.9671 28.3986 20.0233 28.534C20.0999 28.714 20.142 28.9119 20.142 29.12C20.1395 29.2745 20.1152 29.4238 20.0718 29.5655Z" fill="#80D0A4"/>
<path d="M28.0001 53.6761C42.1806 53.6761 53.6761 42.1806 53.6761 28.0002C53.6761 13.8198 42.1806 2.32428 28.0001 2.32428C13.8197 2.32428 2.32422 13.8198 2.32422 28.0002C2.32422 42.1806 13.8197 53.6761 28.0001 53.6761Z" stroke="#80D0A4" stroke-width="3" stroke-miterlimit="10"/>
</svg>
