<svg width="20" height="20" viewBox="0 0 20 20" fill="none" xmlns="http://www.w3.org/2000/svg">
<path d="M9.99978 0C5.99899 0 2.74414 3.25485 2.74414 7.2556C2.74414 8.85783 3.11113 10.5137 3.83492 12.1772C4.40727 13.4928 5.20325 14.8165 6.20067 16.1115C7.89188 18.3074 9.5638 19.6519 9.63412 19.7081L9.9997 20L10.3653 19.7081C10.4356 19.6519 12.1075 18.3074 13.7987 16.1115C14.7961 14.8165 15.5921 13.4928 16.1645 12.1772C16.8883 10.5137 17.2553 8.85779 17.2553 7.2556C17.2553 3.25485 14.0005 0 9.99978 0ZM10.3859 6.16111V6.74708C10.3859 7.74525 9.71083 8.58818 8.79345 8.84482V13.1834H7.62149V8.84474C6.70415 8.58814 6.02907 7.74521 6.02907 6.74701V6.16103V4.47095H7.20102V6.16103H7.62153V4.47095H8.79349V6.16103H9.21404V4.47095H10.386V6.16111H10.3859ZM13.9704 8.41451C13.9704 9.39791 13.3071 10.2288 12.4045 10.4847V13.1834H11.2325V10.5664V9.51131V4.47149H11.8185C13.005 4.47149 13.9704 5.43685 13.9704 6.62341V8.41451Z" fill="current"/>
</svg>
