<svg width="576" height="361" viewBox="0 0 576 361" fill="none" xmlns="http://www.w3.org/2000/svg">
<g opacity="0.1" clip-path="url(#clip0)">
<path d="M575.312 475.416C556.186 476.761 528.481 460.53 506.256 433.238C499.979 425.444 494.409 417.105 489.611 408.324C492.608 397.989 490.035 365.942 493.748 355.83C504.395 361 524.232 386.928 538.806 388.683C541.808 391.787 545.423 395.919 548.113 399.125C570.347 426.519 580.481 456.915 575.312 475.416Z" fill="#24AE5F"/>
<path d="M610.146 372.35C599.085 385.067 571.794 392.201 540.989 388.995L538.82 388.683C525.251 387.119 512.022 383.387 499.639 377.622C501.347 372.848 488.834 361.856 490.686 357.124C493.427 350.074 510.607 349.297 513.697 342.373C524.39 340.893 535.218 340.721 545.954 341.856C576.759 345.058 601.877 357.673 610.146 372.35Z" fill="#4FBA6F"/>
<path d="M549.155 274.867C542.748 285.202 536.75 295.747 531.17 306.398C524.865 318.181 519.072 330.172 513.697 342.373C508.532 353.951 503.878 365.733 499.639 377.622C495.917 387.752 492.608 397.99 489.611 408.325C486.717 417.836 484.134 427.45 481.859 437.273C440.691 434.393 401.496 418.539 369.9 391.992V391.889C369.593 390.144 369.388 388.385 369.281 386.617C399.318 337.338 421.333 283.602 434.511 227.417C441.626 227.92 448.704 228.851 455.703 230.209C470.514 232.787 484.958 237.161 498.709 243.234C517.047 251.126 534.065 261.796 549.155 274.867Z" fill="#71C285"/>
<path d="M371.347 403.262L372.902 413.495C339.23 424.737 303.134 426.598 268.49 418.869C267.56 415.561 266.527 412.359 265.698 409.051C263.837 402.638 262.287 396.231 260.738 389.716C258.258 385.686 255.773 381.549 253.502 377.417C257.941 330.856 256.382 283.918 248.849 237.757C289.109 224.314 332.641 224.314 372.902 237.757C364.828 286.971 363.614 337.068 369.281 386.617C369.388 388.385 369.593 390.144 369.9 391.889V391.992C370.314 395.817 370.831 399.539 371.347 403.262Z" fill="#4FBA6F"/>
<path d="M372.902 237.757C332.641 224.314 289.109 224.314 248.849 237.757C254.074 190.907 256.42 143.783 255.88 96.6449C255.88 94.5788 255.88 92.201 255.773 90.1349C256.057 90.7538 256.406 91.3401 256.81 91.8892C265.494 103.364 292.72 68.013 324.456 43.9227C347.406 26.5565 369.077 31.7263 373.046 17.6686C367.834 78.6598 365.456 191.754 372.902 237.757Z" fill="#71C285"/>
<path d="M157.941 443.476C158.458 437.994 149.295 447.092 148.574 442.336C149.193 441.405 150.319 414.425 150.836 413.495C142.05 403.467 151.366 386.719 130.482 383.825C117.378 345.705 100.077 309.162 78.8999 274.867C110.873 246.971 151.101 230.307 193.437 227.417C205.787 280.158 226.038 330.726 253.502 377.417C254.121 378.553 254.842 379.795 255.466 380.931C257.22 383.927 258.979 386.822 260.738 389.716C235.889 411.424 205.88 426.375 173.59 433.136C174.521 429.311 157.527 447.092 157.941 443.476Z" fill="#71C285"/>
<path d="M193.437 227.417C151.101 230.307 110.873 246.971 78.8997 274.867C65.3911 217.45 42.6642 162.606 11.5986 112.462C43.6647 84.644 83.8973 67.9944 126.243 65.0116C139.714 122.424 162.408 177.273 193.437 227.417Z" fill="#4FBA6F"/>
<path d="M373.106 17.2545C373.106 17.4593 373.106 17.5616 373.004 17.6687C369.076 31.7264 352.948 51.6752 329.998 69.046C298.262 93.1316 265.493 103.364 256.81 91.8892C256.405 91.3401 256.056 90.7538 255.773 90.1349V90.0279C249.881 77.6268 268.281 50.4374 298.574 27.5896C330.309 3.50395 363.078 -6.72871 371.761 4.63936C374.153 8.4039 374.651 13.0712 373.106 17.2545Z" fill="#F9EAB0"/>
<path d="M372.902 248.092C371.817 248.092 370.742 247.919 369.714 247.584C331.515 234.899 290.24 234.899 252.041 247.584C248.476 248.939 244.461 248.217 241.585 245.709C238.714 243.206 237.453 239.32 238.304 235.607C239.156 231.889 241.985 228.943 245.666 227.943C288.002 213.871 333.758 213.871 376.094 227.943C380.896 229.539 383.837 234.374 383.046 239.371C382.255 244.369 377.96 248.059 372.902 248.092Z" fill="#4C8056"/>
<path d="M78.9001 285.202C74.5725 285.207 70.7009 282.517 69.1932 278.46C67.6902 274.402 68.8722 269.837 72.1574 267.022C105.824 237.715 148.128 220.181 192.655 217.078C195.391 216.84 198.114 217.715 200.203 219.507C202.288 221.298 203.567 223.858 203.744 226.598C203.972 229.344 203.093 232.066 201.306 234.16C199.519 236.254 196.969 237.548 194.223 237.757C154.116 240.558 116.01 256.352 85.68 282.745C83.7907 284.355 81.3803 285.23 78.9001 285.202Z" fill="#4C8056"/>
<path d="M11.5988 122.82C7.27118 122.815 3.40892 120.121 1.91055 116.058C0.412183 112.001 1.60343 107.44 4.88868 104.625C38.6299 75.4256 80.9007 57.9152 125.405 54.7044C131.101 54.2623 136.075 58.5154 136.517 64.2064C136.964 69.8975 132.711 74.8719 127.02 75.3186C86.8756 78.213 48.7416 94.0063 18.3089 120.349C16.4382 121.95 14.0604 122.829 11.5988 122.82Z" fill="#4C8056"/>
<path d="M549.156 285.202C546.694 285.207 544.312 284.323 542.436 282.722C528.137 270.349 512.027 260.242 494.665 252.745C481.622 246.975 467.923 242.806 453.874 240.339C447.234 239.064 440.524 238.204 433.776 237.757C428.067 237.347 423.767 232.392 424.177 226.682C424.581 220.972 429.537 216.673 435.247 217.077C442.771 217.617 450.259 218.604 457.667 220.037C473.255 222.773 488.448 227.385 502.925 233.774C522.171 242.084 540.026 253.294 555.875 267.012C559.165 269.823 560.356 274.388 558.853 278.45C557.355 282.508 553.483 285.207 549.156 285.202Z" fill="#4C8056"/>
</g>
<defs>
<clipPath id="clip0">
<rect width="610" height="610" fill="white"/>
</clipPath>
</defs>
</svg>
