<svg width="24" height="22" viewBox="0 0 24 22" fill="none" xmlns="http://www.w3.org/2000/svg">
<path d="M24 5.75V19.25C24 20.4922 22.9922 21.5 21.75 21.5H2.25C1.00781 21.5 0 20.4922 0 19.25V5.75C0 4.50781 1.00781 3.5 2.25 3.5H6.375L6.95156 1.95781C7.27969 1.08125 8.11875 0.5 9.05625 0.5H14.9391C15.8766 0.5 16.7156 1.08125 17.0438 1.95781L17.625 3.5H21.75C22.9922 3.5 24 4.50781 24 5.75ZM17.625 12.5C17.625 9.39688 15.1031 6.875 12 6.875C8.89688 6.875 6.375 9.39688 6.375 12.5C6.375 15.6031 8.89688 18.125 12 18.125C15.1031 18.125 17.625 15.6031 17.625 12.5ZM16.125 12.5C16.125 14.7734 14.2734 16.625 12 16.625C9.72656 16.625 7.875 14.7734 7.875 12.5C7.875 10.2266 9.72656 8.375 12 8.375C14.2734 8.375 16.125 10.2266 16.125 12.5ZM10.5 12.5C10.5 11.675 11.175 11 12 11C12.4125 11 12.75 10.6625 12.75 10.25C12.75 9.8375 12.4125 9.5 12 9.5C10.3453 9.5 9 10.8453 9 12.5C9 12.9125 9.3375 13.25 9.75 13.25C10.1625 13.25 10.5 12.9125 10.5 12.5Z" fill="#FF9F96"/>
</svg>
