<svg width="40" height="40" viewBox="0 0 40 40" fill="none" xmlns="http://www.w3.org/2000/svg">
<path d="M40 11.25V33.75C40 35.8203 38.3203 37.5 36.25 37.5H3.75C1.67969 37.5 0 35.8203 0 33.75V11.25C0 9.17969 1.67969 7.5 3.75 7.5H10.625L11.5859 4.92969C12.1328 3.46875 13.5312 2.5 15.0938 2.5H24.8984C26.4609 2.5 27.8594 3.46875 28.4062 4.92969L29.375 7.5H36.25C38.3203 7.5 40 9.17969 40 11.25ZM29.375 22.5C29.375 17.3281 25.1719 13.125 20 13.125C14.8281 13.125 10.625 17.3281 10.625 22.5C10.625 27.6719 14.8281 31.875 20 31.875C25.1719 31.875 29.375 27.6719 29.375 22.5ZM26.875 22.5C26.875 26.2891 23.7891 29.375 20 29.375C16.2109 29.375 13.125 26.2891 13.125 22.5C13.125 18.7109 16.2109 15.625 20 15.625C23.7891 15.625 26.875 18.7109 26.875 22.5ZM17.5 22.5C17.5 21.125 18.625 20 20 20C20.6875 20 21.25 19.4375 21.25 18.75C21.25 18.0625 20.6875 17.5 20 17.5C17.2422 17.5 15 19.7422 15 22.5C15 23.1875 15.5625 23.75 16.25 23.75C16.9375 23.75 17.5 23.1875 17.5 22.5Z" fill="#FF9F96"/>
</svg>
