<svg width="20" height="20" viewBox="0 0 20 20" fill="none" xmlns="http://www.w3.org/2000/svg">
<g clip-path="url(#clip0)">
<path d="M16.8182 16.3635H3.18535C2.93457 16.3635 2.73126 16.5668 2.73079 16.8176L2.729 18.1431C2.72858 18.6389 2.92119 19.105 3.27143 19.4557C3.6221 19.8068 4.08774 19.9999 4.58359 19.9999H15.4181C16.4408 19.9999 17.2727 19.168 17.2727 18.1453V16.818C17.2727 16.5668 17.0694 16.3635 16.8182 16.3635Z" fill="black"/>
<path d="M15 1.8182C14.7217 1.8182 14.4358 1.84615 14.1331 1.90253C13.093 0.689787 11.6025 0 10 0C6.99222 0 4.54547 2.44675 4.54547 5.45455C4.54547 5.70533 4.34174 5.90911 4.09091 5.90911C3.84013 5.90911 3.63635 5.70537 3.63635 5.45455C3.63635 4.47043 3.86276 3.51827 4.30931 2.62475C4.38878 2.46584 4.36833 2.2754 4.25736 2.1369C4.14639 1.99931 3.96482 1.93803 3.79262 1.98021C1.5594 2.5373 0 4.52681 0 6.81819C0 8.70738 1.06534 10.4248 2.73793 11.274L2.73303 14.9995C2.73303 15.1198 2.78054 15.2357 2.86577 15.3214C2.95142 15.4066 3.06686 15.4545 3.18759 15.4545H16.8182C17.0695 15.4545 17.2728 15.2512 17.2728 15V11.2673C18.9391 10.4159 20 8.70111 20 6.81814C20 4.06117 17.757 1.8182 15 1.8182ZM6.65216 12.6243C6.56736 12.6935 6.4653 12.7273 6.36409 12.7273C6.23272 12.7273 6.10219 12.6705 6.01211 12.5613C5.86206 12.3779 4.54547 10.7391 4.54547 9.54546C4.54547 9.29421 4.74878 9.0909 5.00003 9.0909C5.25128 9.0909 5.45459 9.29421 5.45459 9.54546C5.45459 10.2033 6.22786 11.3903 6.71523 11.9842C6.87409 12.1786 6.84614 12.4649 6.65216 12.6243ZM10.4545 12.2727C10.4545 12.524 10.2512 12.7273 9.99998 12.7273C9.74873 12.7273 9.54546 12.524 9.54546 12.2727V9.54546C9.54546 9.29421 9.74877 9.0909 10 9.0909C10.2513 9.0909 10.4546 9.29421 10.4546 9.54546V12.2727H10.4545ZM13.9879 12.5613C13.8978 12.6705 13.7677 12.7273 13.6364 12.7273C13.5347 12.7273 13.4326 12.6935 13.3483 12.6243C13.1543 12.4649 13.1259 12.1786 13.2848 11.9847C13.7722 11.3894 14.5454 10.2011 14.5454 9.54546C14.5454 9.29421 14.7488 9.0909 15 9.0909C15.2513 9.0909 15.4546 9.29421 15.4546 9.54546C15.4546 10.7391 14.138 12.3779 13.9879 12.5613Z" fill="black"/>
</g>
<defs>
<clipPath id="clip0">
<rect width="20" height="20" fill="white"/>
</clipPath>
</defs>
</svg>
