<svg width="16" height="12" viewBox="0 0 16 12" fill="none" xmlns="http://www.w3.org/2000/svg">
<path d="M14.5271 0.259766H1.47294C0.649906 0.259766 0 0.928203 0 1.7327V10.2681C0 11.0911 0.668437 11.741 1.47294 11.741H14.5271C15.3501 11.741 16 11.0726 16 10.2681V1.7327C16 0.90964 15.3316 0.259766 14.5271 0.259766ZM6.99581 9.7327H2.97916C2.72028 9.7327 2.51041 9.52283 2.51041 9.26395C2.51041 8.36848 2.98803 7.58255 3.70187 7.14736C3.42953 6.84239 3.26356 6.44048 3.26356 6.00042C3.26356 5.04983 4.03691 4.27645 4.9875 4.27645C5.93809 4.27645 6.71147 5.04983 6.71147 6.00042C6.71147 6.44052 6.5455 6.84242 6.27313 7.14739C6.98697 7.58258 7.46459 8.36855 7.46459 9.26398C7.46456 9.52283 7.25469 9.7327 6.99581 9.7327ZM12.0167 9.7327H9.50625C9.24738 9.7327 9.0375 9.52283 9.0375 9.26395C9.0375 9.00508 9.24738 8.7952 9.50625 8.7952H12.0167C12.2755 8.7952 12.4854 9.00508 12.4854 9.26395C12.4854 9.52283 12.2755 9.7327 12.0167 9.7327ZM13.0208 7.72436H9.50625C9.24738 7.72436 9.0375 7.51448 9.0375 7.25561C9.0375 6.99673 9.24738 6.78686 9.50625 6.78686H13.0208C13.2797 6.78686 13.4896 6.99673 13.4896 7.25561C13.4896 7.51448 13.2797 7.72436 13.0208 7.72436ZM13.0208 5.71602H9.50625C9.24738 5.71602 9.0375 5.50614 9.0375 5.24727C9.0375 4.98839 9.24738 4.77852 9.50625 4.77852H13.0208C13.2797 4.77852 13.4896 4.98839 13.4896 5.24727C13.4896 5.50614 13.2797 5.71602 13.0208 5.71602ZM13.0208 3.20558H2.97916C2.72028 3.20558 2.51041 2.9957 2.51041 2.73683C2.51041 2.47795 2.72028 2.26808 2.97916 2.26808H13.0208C13.2797 2.26808 13.4896 2.47795 13.4896 2.73683C13.4896 2.9957 13.2797 3.20558 13.0208 3.20558Z" fill="current"/>
</svg>
