<svg width="15" height="15" viewBox="0 0 15 15" fill="none" xmlns="http://www.w3.org/2000/svg">
<path d="M14.9609 5.66832C14.8627 5.35138 14.5933 5.12627 14.2745 5.09629L9.94515 4.68608L8.23319 0.504793C8.10695 0.198358 7.81947 0 7.50006 0C7.18065 0 6.89317 0.198358 6.76693 0.505509L5.05497 4.68608L0.724884 5.09629C0.406731 5.12698 0.138017 5.35138 0.0392523 5.66832C-0.0595126 5.98526 0.031699 6.3329 0.272374 6.55204L3.54489 9.54688L2.5799 13.9825C2.50929 14.3087 2.6306 14.6458 2.88993 14.8414C3.02932 14.9465 3.1924 15 3.35686 15C3.49865 15 3.63931 14.9601 3.76554 14.8813L7.50006 12.5522L11.2332 14.8813C11.5064 15.0528 11.8507 15.0371 12.1095 14.8414C12.3689 14.6452 12.4901 14.308 12.4195 13.9825L11.4545 9.54688L14.7271 6.55263C14.9677 6.3329 15.0596 5.98586 14.9609 5.66832Z" fill="#C4C4C4"/>
</svg>
