<svg width="12" height="13" viewBox="0 0 12 13" fill="none" xmlns="http://www.w3.org/2000/svg">
<path d="M10.9286 5.55455H7.28571C7.16738 5.55455 7.07143 5.4586 7.07143 5.34026V1.69741C7.07143 1.10571 6.59169 0.625977 6 0.625977C5.40831 0.625977 4.92857 1.10571 4.92857 1.69741V5.34026C4.92857 5.4586 4.83262 5.55455 4.71429 5.55455H1.07143C0.479736 5.55455 0 6.03428 0 6.62598C0 7.21767 0.479736 7.69741 1.07143 7.69741H4.71429C4.83262 7.69741 4.92857 7.79335 4.92857 7.91169V11.5545C4.92857 12.1462 5.40831 12.626 6 12.626C6.59169 12.626 7.07143 12.1462 7.07143 11.5545V7.91169C7.07143 7.79335 7.16738 7.69741 7.28571 7.69741H10.9286C11.5203 7.69741 12 7.21767 12 6.62598C12 6.03428 11.5203 5.55455 10.9286 5.55455Z" fill="#35644A"/>
</svg>
