<svg width="14" height="14" viewBox="0 0 14 14" fill="none" xmlns="http://www.w3.org/2000/svg">
<g clip-path="url(#clip0)">
<path d="M14 9.47458C14 7.73729 13.0033 6.18681 11.5106 5.43262C11.4643 8.76364 8.76364 11.4643 5.43262 11.5106C6.18681 13.0033 7.73729 14 9.47458 14C10.2891 14 11.0812 13.783 11.7772 13.3708L13.9802 13.9802L13.3708 11.7772C13.783 11.0812 14 10.2891 14 9.47458Z" fill="white"/>
<path d="M10.6914 5.3457C10.6914 2.39803 8.29338 0 5.3457 0C2.39803 0 0 2.39803 0 5.3457C0 6.30637 0.255707 7.24171 0.741272 8.06288L0.0196533 10.6716L2.62852 9.95013C3.44969 10.4357 4.38504 10.6914 5.3457 10.6914C8.29338 10.6914 10.6914 8.29338 10.6914 5.3457ZM4.52539 4.10156H3.70508C3.70508 3.19687 4.44101 2.46094 5.3457 2.46094C6.2504 2.46094 6.98633 3.19687 6.98633 4.10156C6.98633 4.56075 6.79193 5.00209 6.4528 5.31227L5.75586 5.95015V6.58984H4.93555V5.58891L5.89899 4.70708C6.07117 4.54953 6.16602 4.33452 6.16602 4.10156C6.16602 3.64922 5.79805 3.28125 5.3457 3.28125C4.89336 3.28125 4.52539 3.64922 4.52539 4.10156ZM4.93555 7.41016H5.75586V8.23047H4.93555V7.41016Z" fill="white"/>
</g>
<defs>
<clipPath id="clip0">
<rect width="14" height="14" fill="white"/>
</clipPath>
</defs>
</svg>
