<svg width="24" height="24" viewBox="0 0 24 24" fill="none" xmlns="http://www.w3.org/2000/svg">
<g clip-path="url(#clip0)">
<path d="M1.49996 1.63305C-0.386045 3.59205 -4.48748e-05 5.67305 -4.48748e-05 11.995C-4.48748e-05 17.245 -0.916045 22.508 3.87796 23.747C5.37496 24.132 18.639 24.132 20.134 23.745C22.13 23.23 23.754 21.611 23.976 18.788C24.007 18.394 24.007 5.60305 23.975 5.20105C23.739 2.19405 21.888 0.461046 19.449 0.110046C18.89 0.0290464 18.778 0.00504639 15.91 4.63873e-05C5.73696 0.00504639 3.50696 -0.447954 1.49996 1.63305Z" fill="url(#paint0_linear)"/>
<path d="M11.9981 3.13892C8.36706 3.13892 4.91906 2.81592 3.60206 6.19592C3.05806 7.59193 3.13706 9.40493 3.13706 12.0009C3.13706 14.2789 3.06406 16.4199 3.60206 17.8049C4.91606 21.1869 8.39206 20.8629 11.9961 20.8629C15.4731 20.8629 19.0581 21.2249 20.3911 17.8049C20.9361 16.3949 20.8561 14.6089 20.8561 12.0009C20.8561 8.53893 21.0471 6.30392 19.3681 4.62592C17.6681 2.92592 15.3691 3.13892 11.9941 3.13892H11.9981ZM11.2041 4.73592C18.7781 4.72392 19.7421 3.88192 19.2101 15.5789C19.0211 19.7159 15.8711 19.2619 11.9991 19.2619C4.93906 19.2619 4.73606 19.0599 4.73606 11.9969C4.73606 4.85192 5.29606 4.73992 11.2041 4.73392V4.73592ZM16.7281 6.20692C16.1411 6.20692 15.6651 6.68292 15.6651 7.26992C15.6651 7.85693 16.1411 8.33293 16.7281 8.33293C17.3151 8.33293 17.7911 7.85693 17.7911 7.26992C17.7911 6.68292 17.3151 6.20692 16.7281 6.20692ZM11.9981 7.44992C9.48506 7.44992 7.44806 9.48793 7.44806 12.0009C7.44806 14.5139 9.48506 16.5509 11.9981 16.5509C14.5111 16.5509 16.5471 14.5139 16.5471 12.0009C16.5471 9.48793 14.5111 7.44992 11.9981 7.44992ZM11.9981 9.04693C15.9031 9.04693 15.9081 14.9549 11.9981 14.9549C8.09406 14.9549 8.08806 9.04693 11.9981 9.04693Z" fill="white"/>
</g>
<defs>
<linearGradient id="paint0_linear" x1="1.54598" y1="22.4671" x2="23.8514" y2="3.16201" gradientUnits="userSpaceOnUse">
<stop stop-color="#FFDD55"/>
<stop offset="0.5" stop-color="#FF543E"/>
<stop offset="1" stop-color="#C837AB"/>
</linearGradient>
<clipPath id="clip0">
<rect width="24" height="24" fill="white"/>
</clipPath>
</defs>
</svg>
