<svg width="430" height="461" viewBox="0 0 430 461" fill="none" xmlns="http://www.w3.org/2000/svg">
<g opacity="0.1" clip-path="url(#clip0)">
<path d="M38.447 127.788C47.4608 120.639 58.975 112.564 71.865 105.991C79.8217 101.934 88.1764 98.5956 96.8661 96.4824C110.494 93.1689 150.946 87.5019 150.262 111.184C150.076 117.608 144.664 122.721 138.951 124.897C133.054 127.143 126.578 127.098 120.278 127.468C101.012 128.595 83.6385 133.698 66.1493 141.494C48.0902 149.543 29.2468 160.142 18.5096 177.385C13.0388 186.171 13.4449 197.873 14.1193 207.808C15.1764 223.383 33.972 230.614 45.2035 219.783C68.9936 196.84 109.757 164.437 155.32 158.135C161.699 157.252 167.318 162.443 167.007 168.91C166.813 172.953 164.15 176.474 160.426 178.058C138.988 187.171 69.3601 219.076 37.7366 261.398C30.8324 270.638 28.1222 282.344 30.2417 293.682C31.4374 300.08 33.1112 307.817 35.3559 315.728C39.5193 330.401 58.5608 334.354 68.2229 322.552C83.6502 303.707 109.846 278.05 150.36 256.532C160.648 251.069 173.228 257.872 174.151 269.569C174.668 276.116 171.008 282.28 165.199 285.341C138.188 299.575 67.7898 342.29 93.9921 389.053C99.0307 398.044 105.537 404.359 114.397 409.99C120.232 413.698 126.43 416.821 132.766 419.575C138.686 422.148 144.752 424.36 150.865 426.424C167.492 432.04 183.436 442.423 193.345 457.127C193.474 457.317 193.61 457.534 193.755 457.772C196.368 462.078 202.629 462.078 205.242 457.772C205.387 457.534 205.523 457.317 205.652 457.127C215.56 442.424 231.505 432.04 248.132 426.424C254.244 424.36 260.31 422.147 266.23 419.575C272.567 416.821 278.766 413.699 284.6 409.99C293.459 404.36 299.966 398.045 305.005 389.053C331.207 342.29 260.809 299.575 233.798 285.341C227.989 282.28 224.329 276.116 224.846 269.569C225.77 257.872 238.349 251.068 248.637 256.532C289.151 278.05 315.348 303.707 330.775 322.552C340.437 334.354 359.478 330.402 363.641 315.728C365.887 307.815 367.56 300.076 368.756 293.678C370.875 282.343 368.165 270.642 361.264 261.404C329.642 219.08 260.011 187.172 238.571 178.06C234.846 176.476 232.182 172.954 231.989 168.911C231.679 162.444 237.298 157.254 243.676 158.137C289.239 164.438 330.002 196.842 353.793 219.785C365.024 230.616 383.82 223.385 384.878 207.809C385.552 197.874 385.958 186.173 380.487 177.387C369.75 160.144 350.907 149.545 332.848 141.496C315.359 133.7 297.986 128.597 278.719 127.469C272.419 127.1 265.943 127.145 260.046 124.899C254.333 122.722 248.92 117.61 248.735 111.186C248.051 87.5037 288.503 93.1707 302.131 96.4842C310.821 98.5974 319.175 101.935 327.132 105.993C340.024 112.567 351.538 120.643 360.553 127.793C370.281 135.509 384.601 128.312 384.278 115.899C384.077 108.203 383.189 100.409 381.895 92.8601C374.091 47.3571 339.541 10.6067 294.209 1.86212C270.921 -2.63083 252.386 1.52717 238.112 8.86986C213.808 21.3718 185.187 21.3718 160.883 8.86986C146.611 1.52537 128.076 -2.63263 104.788 1.86032C59.4558 10.6049 24.906 47.3553 17.1023 92.8583C15.8075 100.406 14.9198 108.2 14.719 115.897C14.3957 128.311 28.7173 135.505 38.447 127.788Z" fill="#4DA629"/>
<path d="M384.883 207.812C383.818 223.385 365.03 230.611 353.793 219.781C330.003 196.843 289.241 164.437 243.68 158.138C237.297 157.249 231.684 162.446 231.989 168.912C232.183 172.952 234.842 176.472 238.575 178.056C260.013 187.171 329.641 219.077 361.269 261.405C368.17 270.641 370.876 282.342 368.754 293.681C367.559 300.073 365.891 307.818 363.639 315.73C359.48 330.405 340.433 334.351 330.771 322.549C315.346 303.705 289.147 278.053 248.635 256.533C238.352 251.068 225.772 257.876 224.845 269.567C224.326 276.117 227.986 282.278 233.794 285.344C260.808 299.573 331.205 342.29 305.007 389.055C299.967 398.041 293.464 404.359 284.598 409.992C278.761 413.698 272.564 416.82 266.227 419.571C260.307 422.146 254.248 424.36 248.135 426.427C231.505 432.041 215.562 442.426 205.65 457.128C205.52 457.314 205.39 457.536 205.242 457.777C202.63 462.075 196.367 462.075 193.755 457.777C193.606 457.536 193.476 457.314 193.347 457.128C192.05 455.211 190.661 453.367 189.17 451.598C189.037 451.441 204.882 436.161 206.165 435.132C213.534 429.223 221.512 424.07 229.934 419.791C257.381 405.846 301.413 393.175 286.961 352.759C279.513 331.931 262.958 322.067 244.262 312.413C235.156 307.711 225.878 302.879 218.759 295.508C208.813 285.209 205.662 270.545 212.045 257.485C216.976 247.399 227.674 238.132 239.348 238.173C243.36 238.188 247.499 238.328 251.444 239.124C260.387 240.931 268.416 245.96 275.583 251.604C288.497 261.776 301.903 271.35 315.207 281.109C320.154 284.75 334.013 297.683 339.98 295.395C354.83 289.697 347.215 270.706 340.267 261.405C332.438 250.924 323.181 241.433 312.023 234.549C288.834 220.241 264.744 207.394 239.942 196.111C233.095 192.997 226.097 189.941 220.302 185.148C215.449 181.135 210.851 175.419 210.668 168.831C210.399 159.158 216.063 150.148 224.702 145.888C235.749 140.44 253.172 145.155 264.224 148.816C267.307 149.838 270.391 150.859 273.475 151.881C291.143 157.733 307.66 166.543 323.307 176.534C331.151 181.544 338.811 186.849 346.348 192.309C351.967 196.379 360.293 203.685 366.921 198.126C371.317 194.439 368.457 185.589 365.815 181.684C362.083 176.167 356.723 171.341 351.112 167.789C341.658 161.804 330.717 158.702 319.992 155.514C308.351 152.053 296.766 148.403 285.243 144.566C276.648 141.704 267.781 140.478 259.26 137.682C244.848 132.953 229.941 119.982 232.416 103.347C234.649 88.3283 250.987 77.3265 265.165 75.5509C281.851 73.462 298.511 79.0327 314.368 83.2636C319.473 84.6259 323.865 87.4946 328.824 89.3755C335.467 91.8957 341.076 95.9168 348.472 96.6525C367.729 98.5676 358.519 77.9991 353.949 68.3928C349.116 58.2319 343.293 47.709 336.032 39.041C320.015 19.9482 297.707 6.58909 273.213 1.86384C270.425 1.32631 267.701 0.909428 265.051 0.622204C273.797 -0.442958 283.505 -0.202554 294.215 1.86384C339.544 10.6093 374.089 47.3597 381.899 92.8555C383.187 100.406 384.076 108.197 384.28 115.896C384.604 128.309 370.282 135.508 360.555 127.791C351.541 120.639 340.026 112.57 327.13 105.992C319.173 101.934 310.825 98.5991 302.135 96.4877C288.508 93.1715 248.052 87.5018 248.738 111.19C248.923 117.61 254.333 122.724 260.049 124.901C265.942 127.143 272.417 127.096 278.716 127.467C297.986 128.597 315.356 133.702 332.846 141.493C350.911 149.543 369.754 160.142 380.491 177.391C385.957 186.171 385.55 197.872 384.883 207.812Z" fill="#488929"/>
<path d="M177.862 362.996C188.854 350.181 192.097 334.932 185.107 328.937C178.117 322.942 163.541 328.47 152.549 341.285C141.558 354.1 138.314 369.348 145.304 375.344C152.294 381.339 166.871 375.811 177.862 362.996Z" fill="#FEE8C7"/>
<path d="M314.47 57.1305C317.813 48.5473 310.487 37.6803 298.107 32.8583C285.726 28.0363 272.98 31.0854 269.637 39.6687C266.294 48.2519 273.62 59.119 286.001 63.9409C298.381 68.7629 311.127 65.7138 314.47 57.1305Z" fill="#FEE8C7"/>
</g>
<defs>
<clipPath id="clip0">
<rect width="461" height="461" fill="white" transform="translate(-31)"/>
</clipPath>
</defs>
</svg>
