<svg width="354" height="191" viewBox="0 0 354 191" fill="none" xmlns="http://www.w3.org/2000/svg">
<g opacity="0.1" clip-path="url(#clip0)">
<path d="M255.76 100.885C256.153 99.2098 258.176 98.5467 259.496 99.653C283.126 119.468 303.331 143.484 316.947 170.864C337.467 212.102 341.962 267.409 302.162 299.027C291.15 307.778 277.97 313.42 264.308 316.511C264.85 330.507 262.799 344.697 257.185 357.591C236.903 404.202 182.312 414.127 137.176 404.942C107.21 398.851 78.7938 385.526 53.5504 367.812C52.1411 366.822 52.2597 364.696 53.7789 363.881C91.5974 343.568 112.742 318.61 114.117 316.95C114.256 316.797 114.378 316.638 114.498 316.482C119.492 309.979 118.492 300.646 112.139 295.361C105.632 289.94 95.9677 290.832 90.5505 297.342C90.222 297.732 66.9561 325.18 25.6829 343.45C24.8323 343.825 23.8295 343.655 23.1543 343.02C19.649 339.725 16.2373 336.347 12.9365 332.903C1.33248 320.809 -8.938 307.784 -17.9597 294.025C-18.8303 292.698 -18.1182 290.904 -16.5772 290.528C19.5289 281.677 42.6659 266.869 44.3159 265.798C45.811 264.821 47.0838 263.632 48.1097 262.292C51.9623 257.276 52.4361 250.18 48.7869 244.582C44.1668 237.485 34.6646 235.485 27.5711 240.111C27.1965 240.354 3.10363 255.76 -33.8381 262.867C-34.8614 263.064 -35.901 262.546 -36.356 261.607C-45.7068 242.424 -53.0863 222.249 -58.6785 201.501C-59.0272 200.211 -58.1993 198.889 -56.8844 198.635C-31.0496 193.679 -14.4656 186.02 -13.0268 185.344C-10.7805 184.284 -8.90278 182.693 -7.4667 180.788C-4.12455 176.347 -3.21786 170.181 -5.7018 164.92C-9.31834 157.269 -18.4425 153.983 -26.0979 157.606C-26.2534 157.674 -40.8385 164.392 -63.6512 168.641C-64.9203 168.879 -66.1452 168.042 -66.3688 166.771C-72.6425 130.852 -74.1666 93.9972 -71.9306 58.2776C-37.9973 46.9016 -1.99613 38.8683 34.3242 35.6597C35.6099 35.5478 36.7353 36.5151 36.8325 37.8027C38.613 60.9393 35.8858 76.7638 35.8599 76.9316C34.3345 85.2626 39.861 93.2303 48.1854 94.7506C53.9121 95.7927 59.6358 93.3258 63.0614 88.9513C64.5337 87.0722 65.5869 84.8474 66.0315 82.4036C66.3135 80.8391 69.4344 62.8436 67.5573 36.6018C67.4627 35.266 68.5266 34.125 69.8634 34.1289C91.3514 34.1819 112.744 36.1067 133.694 40.1882C134.715 40.3889 135.484 41.2566 135.561 42.2958C138.222 79.8209 129.557 107.072 129.419 107.5C126.779 115.544 131.163 124.209 139.212 126.844C145.559 128.926 152.295 126.634 156.148 121.62C157.177 120.281 157.998 118.747 158.556 117.051C159.165 115.177 167.5 89.0064 166.738 51.8358C166.704 50.253 168.257 49.1016 169.76 49.5979C185.382 54.7671 200.618 61.329 215.293 69.4175C219.472 71.7209 223.617 74.1454 227.704 76.6791C228.491 77.1706 228.915 78.0955 228.772 79.014C221.769 123.604 201.253 153.164 200.96 153.579C196.068 160.492 197.7 170.059 204.617 174.948C211.362 179.721 220.637 178.28 225.628 171.781C225.751 171.624 225.874 171.465 225.986 171.291C227.231 169.532 245.892 142.663 255.76 100.885Z" fill="#73D98B"/>
<path d="M-71.9307 58.2777C-72.3943 65.6564 -72.6838 73.0869 -72.8171 80.5447C-38.5013 69.0767 -2.11204 60.9715 34.5989 57.7325C35.9048 57.615 37.0446 58.6013 37.147 59.9062C37.1902 60.4625 37.2262 61.0108 37.2653 61.5587C37.5331 55.1713 37.5472 47.0774 36.8323 37.8028C36.7351 36.5152 35.6094 35.5449 34.327 35.6594C-1.99627 38.8684 -37.9974 46.9017 -71.9307 58.2777Z" fill="#00C756"/>
<path d="M67.5574 36.6018C68.007 42.898 68.1694 48.7148 68.1507 53.9485C68.5716 53.397 69.2292 53.0327 69.9796 53.0329C91.4647 53.0863 112.86 55.0107 133.807 59.0926C134.832 59.2929 135.6 60.1606 135.674 61.2002C135.762 62.4441 135.837 63.6748 135.902 64.8979C136.176 57.9447 136.132 50.3607 135.557 42.2933C135.484 41.2537 134.715 40.386 133.694 40.1882C112.744 36.1038 91.3511 34.179 69.8635 34.1289C68.5267 34.125 67.4599 35.2664 67.5574 36.6018Z" fill="#00C756"/>
<path d="M166.736 51.8362C166.882 58.9673 166.694 65.688 166.288 71.9142C166.582 71.8936 166.88 71.9113 167.18 72.0094C182.804 77.1783 198.038 83.7406 212.716 91.8287C216.724 94.0379 220.697 96.3653 224.621 98.789C226.248 92.5999 227.676 85.9914 228.772 79.0111C228.915 78.0956 228.492 77.1706 227.704 76.6791C223.62 74.1451 219.472 71.7209 215.293 69.4176C200.615 61.3294 185.382 54.7671 169.76 49.5979C168.254 49.099 166.704 50.25 166.736 51.8362Z" fill="#00C756"/>
<path d="M255.76 100.885C254.094 107.937 252.173 114.553 250.135 120.706C271.996 139.824 290.66 162.619 303.48 188.397C319.654 220.899 325.867 262.138 308.291 293.631C341.416 261.398 336.343 209.849 316.948 170.864C303.332 143.484 283.126 119.468 259.496 99.653C258.176 98.5468 256.153 99.207 255.76 100.885Z" fill="#00C756"/>
<path d="M174.529 172.254C175.407 165.962 171.022 160.153 164.73 159.271C158.439 158.393 152.63 162.781 151.751 169.07L146.101 209.506L100.242 176.445L107.969 121.136C108.848 114.845 104.462 109.032 98.1706 108.154C91.8795 107.276 86.0698 111.661 85.1885 117.952L79.1409 161.233L34.2886 128.9C30.4781 126.151 25.1725 126.928 22.3105 130.655C19.4514 134.381 20.0667 139.708 23.7032 142.68L66.516 177.672L26.2615 194.684C20.41 197.156 17.672 203.9 20.1437 209.752C22.6151 215.6 29.3628 218.341 35.2114 215.869L86.6567 194.133L130.431 229.91L92.8209 245.801C86.9723 248.273 84.2318 255.021 86.7032 260.869C89.1749 266.721 95.9223 269.458 101.774 266.987L150.568 246.37L194.342 282.147L159.38 296.919C153.532 299.39 150.791 306.138 153.263 311.987C155.734 317.838 162.482 320.576 168.333 318.104L214.479 298.606L320.878 385.565C326.279 389.98 334.259 389.056 338.507 383.524L348.199 370.905C352.447 365.373 351.281 357.425 345.625 353.346L234.156 272.985L241.091 223.371C241.966 217.08 237.581 211.267 231.292 210.389C225.001 209.51 219.189 213.899 218.31 220.187L213.058 257.776L167.199 224.715L174.529 172.254Z" fill="#B9EBC2"/>
</g>
<defs>
<clipPath id="clip0">
<rect width="388.482" height="388.482" fill="white" transform="translate(-31.4556 435.724) rotate(-97.4758)"/>
</clipPath>
</defs>
</svg>
