<svg width="333" height="348" viewBox="0 0 333 348" fill="none" xmlns="http://www.w3.org/2000/svg">
<g opacity="0.1" clip-path="url(#clip0)">
<path d="M329.144 281.275C330.942 281.949 331.383 284.27 329.966 285.562C304.582 308.695 275.043 327.455 242.736 338.48C194.076 355.099 132.16 352.061 102.923 303.717C94.8303 290.34 90.496 275.027 89.059 259.552C73.4767 258.128 58.0566 253.824 44.5901 245.788C-4.09049 216.749 -7.15 155.265 9.58459 106.94C20.6869 74.8567 39.5771 45.522 62.8677 20.3109C64.169 18.9035 66.5067 19.3409 67.1888 21.1297C84.1916 65.6627 108.764 92.5246 110.403 94.2772C110.552 94.4515 110.711 94.6093 110.866 94.7639C117.343 101.196 127.826 101.442 134.604 95.2177C141.554 88.8417 141.971 78.0825 135.548 71.1837C135.164 70.7661 108.141 41.2111 93.9032 -6.82719C93.6118 -7.81696 93.9463 -8.89552 94.7476 -9.54659C98.9064 -12.9269 103.145 -16.1922 107.439 -19.3259C122.522 -30.3449 138.442 -39.7625 154.994 -47.7004C156.59 -48.4665 158.474 -47.4242 158.666 -45.6748C163.222 -4.67995 176.262 22.9086 177.209 24.8783C178.073 26.6638 179.205 28.2356 180.54 29.5575C185.536 34.5195 193.327 36.065 200.059 32.8589C208.592 28.8012 212.188 18.6372 208.095 10.1666C207.88 9.71938 194.317 -19.0069 191.814 -60.6693C191.745 -61.8235 192.47 -62.8922 193.576 -63.2572C216.184 -70.7742 239.604 -75.9795 263.398 -79.1362C264.878 -79.3335 266.222 -78.232 266.312 -76.7489C268.047 -47.6149 274.12 -28.2667 274.659 -26.5864C275.507 -23.9624 276.997 -21.6672 278.898 -19.8126C283.331 -15.4951 290.03 -13.6076 296.218 -15.5806C305.218 -18.4545 310.185 -28.0168 307.284 -36.9609C307.231 -37.1417 301.91 -54.1553 300.519 -79.8629C300.44 -81.2933 301.546 -82.5199 302.986 -82.5823C343.684 -84.2988 384.729 -80.6554 423.969 -73.0398C431.638 -34.0705 435.303 6.69088 433.578 47.107C433.515 48.5374 432.28 49.6357 430.84 49.5567C404.953 48.1757 387.821 42.8914 387.639 42.8388C378.633 39.9583 369.004 44.8874 366.11 53.8249C364.123 59.974 366.024 66.6262 370.372 71.0259C372.239 72.9166 374.55 74.3963 377.193 75.2381C378.885 75.7741 398.364 81.8048 427.704 83.5279C429.198 83.6166 430.307 84.9517 430.108 86.4215C426.926 110.051 421.685 133.306 414.119 155.761C413.748 156.856 412.675 157.576 411.513 157.511C369.56 155.021 340.634 141.556 340.18 141.342C331.654 137.278 321.419 140.849 317.33 149.323C314.102 156.005 315.661 163.745 320.655 168.707C321.989 170.032 323.568 171.157 325.366 172.015C327.353 172.956 355.13 185.902 396.414 190.429C398.172 190.62 399.222 192.495 398.454 194.076C390.457 210.514 380.974 226.328 369.882 241.302C366.723 245.567 363.435 249.776 360.034 253.906C359.375 254.702 358.289 255.034 357.293 254.745C308.92 240.605 279.159 213.77 278.742 213.388C271.795 207.009 260.961 207.423 254.541 214.325C248.273 221.056 248.521 231.467 254.994 237.896C255.15 238.053 255.309 238.211 255.484 238.359C257.253 239.984 284.301 264.389 329.144 281.275Z" fill="#73D98B"/>
<path d="M329.146 281.274C321.576 278.424 314.527 275.356 308.007 272.225C283.654 293.513 255.691 310.754 225.275 321.135C186.922 334.235 140.34 335.117 108.01 311.237C138.9 352.327 196.736 354.189 242.738 338.48C275.045 327.455 304.583 308.695 329.967 285.562C331.384 284.27 330.947 281.949 329.146 281.274Z" fill="#00C756"/>
<path d="M261.899 181.617C268.74 183.491 275.813 179.506 277.704 172.712C279.591 165.919 275.574 158.895 268.737 157.021L224.768 144.969L268.055 99.2952L328.195 115.779C335.036 117.654 342.112 113.668 344 106.875C345.887 100.081 341.874 93.0573 335.033 91.1797L287.971 78.2798L330.305 33.6087C333.904 29.814 333.814 23.8656 330.103 20.1794C326.391 16.4965 320.401 16.4045 316.58 19.9755L271.598 62.0193L258.605 15.2832C256.717 8.48961 249.645 4.50423 242.804 6.37854C235.966 8.25285 231.95 15.2799 233.837 22.0702L250.436 81.7983L204.444 124.786L192.309 81.1209C190.421 74.3306 183.345 70.3419 176.508 72.2163C169.667 74.0906 165.654 81.1176 167.541 87.9112L183.286 144.561L137.294 187.549L126.013 146.959C124.125 140.168 117.05 136.18 110.212 138.054C103.371 139.928 99.358 146.955 101.245 153.749L116.136 207.325L4.34764 311.813C-1.32768 317.117 -1.46344 326.028 4.04633 331.5L16.6155 343.982C22.1252 349.453 31.0985 349.319 36.4394 343.686L141.655 232.667L195.603 247.458C202.444 249.329 209.52 245.344 211.408 238.553C213.295 231.76 209.278 224.733 202.441 222.858L161.568 211.655L204.855 165.981L261.899 181.617Z" fill="#B9EBC2"/>
</g>
<defs>
<clipPath id="clip0">
<rect width="434" height="431" fill="white" transform="translate(0 -83)"/>
</clipPath>
</defs>
</svg>
