<svg width="476" height="719" viewBox="0 0 476 719" fill="none" xmlns="http://www.w3.org/2000/svg">
<path d="M0 0L6.93878 9.33766L13.8776 0L19.4286 9.33766L26.3673 0L33.3061 9.33766L40.2449 0L47.1837 9.33766L54.1224 0L61.0612 9.33766L62.449 7.47013L63.8367 5.6026L68 0L74.9388 9.33766L81.8775 0L88.8163 9.33766L95.7551 0L102.694 9.33766L109.633 0L116.571 9.33766L123.51 0L130.449 9.33766L133.224 5.6026L137.388 0L144.327 9.33766L151.265 0L158.204 9.33766L165.143 0L172.082 9.33766L179.02 0L185.959 9.33766L192.898 0L199.837 9.33766L206.775 0L213.714 9.33766L220.653 0L227.592 9.33766L234.531 0L241.469 9.33766L248.408 0L255.347 9.33766L262.286 0L269.224 9.33766L276.163 0L283.102 9.33766L290.041 0L296.98 9.33766L303.918 0L310.857 9.33766L317.796 0L324.735 9.33766L331.673 0L338.612 9.33766L345.551 0L352.49 9.33766L359.429 0L366.367 9.33766L373.306 0L380.245 9.33766L387.184 0L394.122 9.33766L401.061 0L408 9.33766L414.939 0L421.878 9.33766L428.816 0L435.755 9.33766L442.694 0L449.633 9.33766L456.571 0L463.51 9.33766L470.449 0L476 9.33766V712.464L471.837 719L464.898 709.662L457.959 719L451.02 709.662L444.082 719L437.143 709.662L430.204 719L423.265 709.662L416.327 719L409.388 709.662L402.449 719L395.51 709.662L388.571 719L381.633 709.662L374.694 719L367.755 709.662L360.816 719L353.878 709.662L346.939 719L340 709.662L333.061 719L326.122 709.662L319.184 719L312.245 709.662L305.306 719L298.367 709.662L291.429 719L284.49 709.662L277.551 719L270.612 709.662L263.673 719L256.735 709.662L249.796 719L242.857 709.662L235.918 719L228.98 709.662L222.041 719L215.102 709.662L208.163 719L201.224 709.662L194.126 719L187.347 709.662L180.408 719L173.469 709.662L166.269 719L159.592 709.662L152.653 719L145.714 709.662L138.775 719L131.837 709.662L124.898 719L117.959 709.662L111.02 719L104.082 709.662L97.1429 719L90.2041 709.662L83.2653 719L76.3265 709.662L69.3877 719L62.449 709.662L55.5102 719L48.5714 709.662L41.6327 719L34.6939 709.662L27.7551 719L20.8163 709.662L13.8776 719L6.93878 709.662L0 719V0Z" fill="#FEFEFE"/>
</svg>
