<svg width="12" height="12" viewBox="0 0 12 12" fill="none" xmlns="http://www.w3.org/2000/svg">
<g clip-path="url(#clip0)">
<path d="M6.3293 9.10387L11.8643 3.55351C12.0455 3.37166 12.0452 3.07724 11.8634 2.8957C11.6815 2.71429 11.3869 2.71476 11.2055 2.89663L5.99998 8.11662L0.794438 2.89645C0.613032 2.7146 0.318635 2.71413 0.136761 2.89551C0.0455894 2.98652 3.79957e-06 3.10574 3.79436e-06 3.22497C3.78916e-06 3.34389 0.0452842 3.46265 0.135823 3.55349L5.67068 9.10387C5.75782 9.19145 5.87642 9.2406 5.99998 9.2406C6.12354 9.2406 6.24199 9.19131 6.3293 9.10387Z" fill="black"/>
</g>
<defs>
<clipPath id="clip0">
<rect width="12" height="12" fill="white" transform="translate(12) rotate(90)"/>
</clipPath>
</defs>
</svg>
