<svg width="16" height="17" viewBox="0 0 16 17" fill="none" xmlns="http://www.w3.org/2000/svg">
<g clip-path="url(#clip0)">
<path d="M4.48226 2.8803C4.01716 2.03957 3.1755 1.47466 2.38783 1.47466C1.80047 1.47466 1.20377 1.78524 0.750751 2.32674C0.322349 2.83882 0.0766602 3.47856 0.0766602 4.08187C0.0766602 4.82518 0.514851 5.52545 1.24883 5.95507C1.28677 5.97729 1.32835 5.98785 1.36942 5.98785C1.45077 5.98785 1.53004 5.9463 1.57481 5.87159C2.26172 4.7248 3.23277 3.80394 4.38293 3.20845C4.44027 3.17876 4.48319 3.12714 4.50187 3.06537C4.52059 3.00354 4.51351 2.9368 4.48226 2.8803Z" fill="#525256"/>
<path d="M2.00056 5.20333C1.26659 4.77372 0.828396 4.07345 0.828396 3.33013C0.828396 2.81669 1.00687 2.27716 1.32395 1.81209C1.11764 1.94707 0.923706 2.12002 0.750751 2.32674C0.322349 2.83882 0.0766602 3.47857 0.0766602 4.08187C0.0766602 4.82519 0.514851 5.52546 1.24883 5.95507C1.28677 5.97729 1.32835 5.98785 1.36942 5.98785C1.45077 5.98785 1.53004 5.9463 1.57481 5.87159C1.71192 5.64267 1.86055 5.42291 2.0195 5.21277C2.01316 5.20974 2.00675 5.20694 2.00056 5.20333Z" fill="#454549"/>
<path d="M11.5946 2.8803C12.0597 2.03957 12.9014 1.47466 13.689 1.47466C14.2764 1.47466 14.8731 1.78524 15.3261 2.32674C15.7545 2.83882 16.0002 3.47856 16.0002 4.08187C16.0002 4.82518 15.562 5.52545 14.828 5.95507C14.7901 5.97729 14.7485 5.98785 14.7074 5.98785C14.6261 5.98785 14.5468 5.9463 14.502 5.87159C13.8151 4.7248 12.8441 3.80394 11.6939 3.20845C11.6366 3.17876 11.5936 3.12714 11.575 3.06537C11.5562 3.00354 11.5633 2.9368 11.5946 2.8803Z" fill="#525256"/>
<path d="M14.0761 5.20333C14.81 4.77372 15.2482 4.07345 15.2482 3.33013C15.2482 2.81669 15.0698 2.27716 14.7527 1.81209C14.959 1.94707 15.1529 2.12002 15.3259 2.32674C15.7543 2.83882 16 3.47857 16 4.08187C16 4.82519 15.5618 5.52546 14.8278 5.95507C14.7899 5.97729 14.7483 5.98785 14.7072 5.98785C14.6259 5.98785 14.5466 5.9463 14.5018 5.87159C14.3647 5.64267 14.2161 5.42291 14.0571 5.21277C14.0635 5.20974 14.0699 5.20694 14.0761 5.20333Z" fill="#454549"/>
<path d="M13.9498 4.478C12.9187 3.30532 11.0486 1.9081 7.99078 1.89978C7.98938 1.89974 7.98798 1.89974 7.98654 1.89974H7.96346C7.96205 1.89974 7.96062 1.89974 7.95922 1.89978C4.90141 1.9081 3.0313 3.30532 2.00027 4.478C0.729064 5.92385 0 7.8607 0 9.79197C0 11.5577 0.821632 13.0363 2.37609 14.0679C3.78668 15.004 5.7689 15.5212 7.96001 15.5253C7.96116 15.5254 7.96234 15.5254 7.96349 15.5254H7.98657C7.98775 15.5254 7.9889 15.5254 7.99005 15.5253C10.1812 15.5212 12.1634 15.004 13.574 14.0679C15.1284 13.0363 15.9501 11.5577 15.9501 9.79197C15.95 7.8607 15.221 5.92385 13.9498 4.478Z" fill="#E0E0E0"/>
<path d="M13.5739 12.9635C12.1634 13.8996 10.1811 14.4169 7.99002 14.421C7.98887 14.421 7.98769 14.421 7.98654 14.421H7.96346C7.96228 14.421 7.96113 14.421 7.95998 14.421C5.76887 14.4169 3.78668 13.8996 2.37606 12.9635C0.972904 12.0324 0.167088 10.7369 0.0235007 9.19476C0.00819496 9.39351 0 9.59274 0 9.79197C0 11.5577 0.821632 13.0363 2.37609 14.0679C3.78668 15.004 5.7689 15.5212 7.96001 15.5253C7.96116 15.5254 7.96234 15.5254 7.96349 15.5254H7.98657C7.98775 15.5254 7.9889 15.5254 7.99005 15.5253C10.1812 15.5212 12.1634 15.004 13.574 14.0679C15.1284 13.0363 15.9501 11.5577 15.9501 9.79197C15.9501 9.59277 15.9419 9.39354 15.9266 9.19476C15.7829 10.7369 14.9771 12.0324 13.5739 12.9635Z" fill="#C4C4C4"/>
<path d="M6.47923 6.70173C6.16001 6.30512 5.65348 6.07764 5.08953 6.07764C4.51438 6.07764 3.95285 6.27662 3.50835 6.6379C2.99701 7.05351 2.65764 7.66801 2.52693 8.41493C2.40401 9.11727 2.53991 9.76575 2.89972 10.194C3.18996 10.5395 3.59674 10.7221 4.07613 10.7221C4.60293 10.7221 5.21131 10.4517 5.74529 9.98023C6.27955 9.50855 6.65923 8.90328 6.78691 8.31962C6.92399 7.69307 6.81471 7.11853 6.47923 6.70173Z" fill="#525256"/>
<path d="M10.8419 11.6162C10.7926 11.4936 10.6532 11.4343 10.5307 11.4836C9.2527 11.9979 8.46768 11.2015 8.27754 10.9749V10.6102C8.27754 10.4781 8.17046 10.371 8.03838 10.371C7.90631 10.371 7.79923 10.4781 7.79923 10.6102V10.9748C7.60813 11.2024 6.82333 11.9976 5.546 11.4836C5.42349 11.4343 5.28414 11.4936 5.23488 11.6162C5.18558 11.7387 5.24492 11.878 5.36747 11.9273C5.73359 12.0747 6.06761 12.1317 6.3655 12.1317C6.83258 12.1317 7.21066 11.9914 7.48307 11.8394C7.72599 11.7038 7.91214 11.5449 8.03838 11.4188C8.16459 11.5449 8.35078 11.7038 8.5937 11.8394C8.86614 11.9914 9.24413 12.1317 9.71127 12.1317C10.0091 12.1317 10.3432 12.0747 10.7093 11.9273C10.8318 11.878 10.8912 11.7387 10.8419 11.6162Z" fill="#2B2B2D"/>
<path d="M8.03843 9.05346C7.58388 9.05346 6.73779 9.05346 6.73779 9.71266C6.73779 9.95969 6.94018 10.2101 7.37474 10.5008C7.65008 10.685 7.92141 10.8191 7.93282 10.8247C7.96611 10.8411 8.00227 10.8493 8.03846 10.8493C8.07466 10.8493 8.11082 10.8411 8.14411 10.8247C8.15552 10.8191 8.42685 10.685 8.70219 10.5008C9.13672 10.2101 9.3391 9.95969 9.3391 9.71266C9.33904 9.05346 8.49298 9.05346 8.03843 9.05346Z" fill="#525256"/>
<path d="M9.21991 9.35527C8.54827 9.94327 7.52859 9.94327 6.85695 9.35527C6.78275 9.4451 6.73779 9.56136 6.73779 9.71266C6.73779 9.95969 6.94018 10.2101 7.37474 10.5008C7.65008 10.685 7.92141 10.8191 7.93282 10.8247C7.96611 10.8411 8.00227 10.8493 8.03846 10.8493C8.07466 10.8493 8.11082 10.8411 8.14411 10.8247C8.15552 10.8191 8.42685 10.685 8.70219 10.5008C9.13672 10.2101 9.3391 9.95969 9.3391 9.71266C9.33904 9.56136 9.29411 9.4451 9.21991 9.35527Z" fill="#454549"/>
<path d="M13.4001 8.41493C13.2694 7.66801 12.9301 7.05354 12.4187 6.6379C11.9742 6.27662 11.4127 6.07764 10.8376 6.07764C10.2736 6.07764 9.76709 6.30512 9.44783 6.70173C9.11235 7.1185 9.0031 7.69307 9.14016 8.31958C9.26783 8.90324 9.64748 9.50852 10.1818 9.9802C10.7158 10.4516 11.3242 10.722 11.851 10.722C12.3303 10.722 12.7371 10.5395 13.0274 10.194C13.3872 9.76575 13.523 9.1173 13.4001 8.41493Z" fill="#525256"/>
<path d="M5.74504 8.86221C5.21103 9.33365 4.60266 9.60406 4.07588 9.60406C3.59649 9.60406 3.18971 9.42147 2.89948 9.07601C2.7284 8.87241 2.60864 8.61865 2.54253 8.33339C2.53715 8.36053 2.53147 8.38744 2.52669 8.41493C2.40376 9.11727 2.53966 9.76576 2.89948 10.194C3.18971 10.5395 3.59649 10.7221 4.07588 10.7221C4.60269 10.7221 5.21106 10.4517 5.74504 9.98023C6.27931 9.50856 6.65898 8.90328 6.78666 8.31962C6.86912 7.94265 6.86175 7.58481 6.77027 7.26853C6.62911 7.83127 6.25896 8.40852 5.74504 8.86221Z" fill="#454549"/>
<path d="M13.3842 8.33336C13.3181 8.61865 13.1984 8.87241 13.0273 9.07604C12.7371 9.42147 12.3303 9.60406 11.8509 9.60406C11.3241 9.60406 10.7157 9.33369 10.1817 8.8622C9.66781 8.40852 9.29763 7.83127 9.1565 7.26849C9.06499 7.58478 9.05765 7.94262 9.14011 8.31958C9.26779 8.90324 9.64743 9.50852 10.1817 9.98019C10.7157 10.4516 11.3241 10.722 11.8509 10.722C12.3303 10.722 12.7371 10.5395 13.0273 10.194C13.3872 9.76572 13.523 9.11727 13.4002 8.41489C13.3953 8.38744 13.3896 8.3605 13.3842 8.33336Z" fill="#454549"/>
<path d="M4.90434 7.53006C4.57814 7.53006 4.31274 7.79546 4.31274 8.12169C4.31274 8.4479 4.57814 8.71329 4.90434 8.71329C5.23055 8.71329 5.49594 8.44793 5.49594 8.12169C5.49594 7.79546 5.23058 7.53006 4.90434 7.53006Z" fill="#2B2B2D"/>
<path d="M11.0225 7.53006C10.6963 7.53006 10.4309 7.79546 10.4309 8.12169C10.4309 8.4479 10.6963 8.71329 11.0225 8.71329C11.3487 8.71329 11.6141 8.44793 11.6141 8.12169C11.6141 7.79546 11.3487 7.53006 11.0225 7.53006Z" fill="#2B2B2D"/>
</g>
<defs>
<clipPath id="clip0">
<rect width="16" height="16" fill="white" transform="translate(0 0.5)"/>
</clipPath>
</defs>
</svg>
