<svg width="85" height="26" viewBox="0 0 85 26" fill="none" xmlns="http://www.w3.org/2000/svg">
<path d="M16.7587 12.9809C16.7587 8.39422 13.0227 4.68311 8.40527 4.68311C3.7679 4.68311 0.0155046 8.72044 0.0155046 13.7093L0.0119629 25.7231H4.13712L4.14066 20.4844C6.82967 22.064 10.1708 22.0311 12.8018 20.396C16.8154 17.9018 16.7645 13.1791 16.7587 12.9809Z" fill="#35644A"/>
<path d="M33.4868 4.68311H29.483V5.99199C28.1876 5.11155 26.7603 4.68311 25.1134 4.68311C20.496 4.68311 16.76 8.39466 16.76 12.9809C16.7542 13.1787 16.7033 17.9018 20.7169 20.396C23.3479 22.0311 26.689 22.064 29.378 20.4844V21.676L33.5032 21.6951V13.7093L33.4868 4.68311Z" fill="#35644A"/>
<path d="M51.5215 12.7938C51.4215 8.29377 47.7244 4.68311 43.1703 4.68311C41.523 4.68311 40.0961 5.11155 38.8008 5.99199V5.37244V4.68311H34.7969L34.7805 13.7093V21.6951H51.5237C51.5237 21.6951 51.5229 12.856 51.5215 12.7938Z" fill="#35644A"/>
<path d="M68.2545 0.282227H64.2493L64.2471 5.992C62.9517 5.11156 61.5244 4.68312 59.8776 4.68312C55.2606 4.68312 51.5241 8.39467 51.5241 12.9809C51.5184 13.1787 51.4675 17.9018 55.481 20.396C58.1121 22.0311 61.4532 22.064 64.1422 20.4844V21.676L68.2673 21.6951V13.7093L68.2545 0.282227Z" fill="#35644A"/>
<path d="M84.9951 4.68311H80.9912V5.99199C79.6959 5.11155 78.2686 4.68311 76.6217 4.68311C72.0043 4.68311 68.2683 8.39466 68.2683 12.9809C68.2625 13.1787 68.2116 17.9018 72.2252 20.396C74.8562 22.0311 78.1973 22.064 80.8863 20.4844V21.676L85.0115 21.6951V13.7093L84.9951 4.68311Z" fill="#35644A"/>
</svg>
