<svg width="20" height="20" viewBox="0 0 20 20" fill="none" xmlns="http://www.w3.org/2000/svg">
<g clip-path="url(#clip0)">
<path d="M19.7494 9.76582C20.112 9.36709 20.077 8.75595 19.6713 8.40116L10.733 0.580135C10.3273 0.225345 9.67686 0.232777 9.2797 0.59689L0.311057 8.81815C-0.0861093 9.18226 -0.105603 9.79261 0.267898 10.1809L0.492754 10.415C0.865799 10.8033 1.46878 10.8496 1.8387 10.5181L2.50897 9.91785V18.7056C2.50897 19.2448 2.94584 19.6812 3.4846 19.6812H6.98061C7.51937 19.6812 7.95624 19.2448 7.95624 18.7056V12.5577H12.4154V18.7056C12.4077 19.2444 12.7932 19.6808 13.3319 19.6808H17.0368C17.5756 19.6808 18.0125 19.2444 18.0125 18.7052V10.0416C18.0125 10.0416 18.1976 10.2038 18.426 10.4045C18.654 10.6049 19.1328 10.4442 19.4954 10.0451L19.7494 9.76582Z" fill="current"/>
</g>
<defs>
<clipPath id="clip0">
<rect width="20" height="20" fill="white"/>
</clipPath>
</defs>
</svg>
