<svg width="20" height="20" viewBox="0 0 20 20" fill="none" xmlns="http://www.w3.org/2000/svg">
<g clip-path="url(#clip0)">
<path d="M19.5833 19.1668H19.1666V7.08343C19.1666 6.85343 18.98 6.66675 18.75 6.66675H16.25C16.02 6.66675 15.8333 6.85343 15.8333 7.08343V19.1667H14.1666V12.0834C14.1666 11.8534 13.9799 11.6667 13.7499 11.6667H11.2499C11.0199 11.6667 10.8332 11.8534 10.8332 12.0834V19.1667H9.16656V10.4167C9.16656 10.1867 8.97988 10.0001 8.74988 10.0001H6.24988C6.01988 10.0001 5.8332 10.1867 5.8332 10.4167V19.1667H4.16652V14.5834C4.16652 14.3534 3.97984 14.1667 3.74984 14.1667H1.25C1.02 14.1667 0.83332 14.3534 0.83332 14.5834V19.1667H0.41668C0.18668 19.1668 0 19.3534 0 19.5834C0 19.8134 0.18668 20.0001 0.41668 20.0001H1.25H3.75H6.25H8.75H11.25H13.75H16.25H18.75H19.5833C19.8133 20.0001 20 19.8134 20 19.5834C20 19.3534 19.8133 19.1668 19.5833 19.1668Z" fill="Analytics"/>
<path d="M17.5002 0C16.581 0 15.8335 0.7475 15.8335 1.66668C15.8335 1.975 15.9235 2.26 16.0693 2.50836L13.3418 5.23586C13.0935 5.09 12.8085 5 12.5002 5C11.9777 5 11.516 5.24668 11.2102 5.62418L9.16268 5.04C9.16268 5.02668 9.16686 5.01418 9.16686 5C9.16686 4.08082 8.41936 3.33332 7.50018 3.33332C6.581 3.33332 5.8335 4.08082 5.8335 5C5.8335 5.2425 5.88768 5.47082 5.981 5.67832L3.37682 7.75582C3.12186 7.59582 2.82268 7.5 2.50018 7.5C1.581 7.5 0.833496 8.2475 0.833496 9.16668C0.833496 10.0859 1.581 10.8334 2.50018 10.8334C3.41936 10.8334 4.16686 10.0859 4.16686 9.16668C4.16686 8.87418 4.08436 8.6025 3.95104 8.36336L6.50353 6.32754C6.78271 6.53754 7.12521 6.66672 7.50021 6.66672C8.11104 6.66672 8.64104 6.33254 8.93104 5.8409L10.8619 6.39172C10.846 6.48172 10.8335 6.57254 10.8335 6.66672C10.8335 7.5859 11.581 8.3334 12.5002 8.3334C13.4194 8.3334 14.1669 7.5859 14.1669 6.66672C14.1669 6.3584 14.0769 6.0734 13.9311 5.82504L16.6594 3.09672C16.9069 3.2434 17.1919 3.3334 17.5002 3.3334C18.4194 3.3334 19.1669 2.5859 19.1669 1.66672C19.1669 0.7475 18.4194 0 17.5002 0Z" fill="Analytics"/>
</g>
<defs>
<clipPath id="clip0">
<rect width="20" height="20" fill="white"/>
</clipPath>
</defs>
</svg>
