<svg width="20" height="20" viewBox="0 0 20 20" fill="none" xmlns="http://www.w3.org/2000/svg">
<path d="M12.9297 10C11.3143 10 10 11.3143 10 12.9297V13.5156H15.8594V12.9297C15.8594 11.3143 14.545 10 12.9297 10Z" fill="current"/>
<path d="M5.89844 20H20V4.6875H5.89844V20ZM17.0312 18.2031H8.82812V17.0312H17.0312V18.2031ZM7.65625 13.5156H8.82812V12.9297C8.82812 10.8689 10.3613 9.17473 12.3438 8.88734V7.65625H13.5156V8.88734C15.498 9.17473 17.0312 10.8689 17.0312 12.9297V13.5156H18.2031V14.6875H7.65625V13.5156Z" fill="current"/>
<path d="M4.72656 3.51562L11.7578 0H0V15.2734H4.72656V3.51562Z" fill="current"/>
<path d="M11.7576 1.3125L7.35132 3.51562H11.7576V1.3125Z" fill="current"/>
</svg>
