<svg width="20" height="20" viewBox="0 0 20 20" fill="none" xmlns="http://www.w3.org/2000/svg">
<path d="M18.2739 16.8692L16.8431 14.4842C16.1823 13.3834 15.8331 12.1225 15.8331 10.8392V8.75C15.8331 6.1125 14.0731 3.88168 11.6664 3.1625V1.66668C11.6664 0.7475 10.9189 0 9.99972 0C9.08054 0 8.33304 0.7475 8.33304 1.66668V3.1625C5.9264 3.88168 4.1664 6.1125 4.1664 8.75V10.8392C4.1664 12.1225 3.81722 13.3825 3.15722 14.4834L1.7264 16.8684C1.6489 16.9975 1.64722 17.1575 1.7214 17.2884C1.79558 17.4192 1.93308 17.5 2.08308 17.5H17.9164C18.0664 17.5 18.2047 17.4192 18.2789 17.2892C18.3531 17.1592 18.3506 16.9975 18.2739 16.8692Z" fill="current"/>
<path d="M7.37549 18.3333C7.84549 19.3149 8.84049 19.9999 9.99963 19.9999C11.1588 19.9999 12.1538 19.3149 12.6238 18.3333H7.37549Z" fill="current"/>
</svg>
