<svg width="20" height="20" viewBox="0 0 20 20" fill="none" xmlns="http://www.w3.org/2000/svg">
<path d="M16.9038 0H3.09643C2.77284 0 2.5105 0.262343 2.5105 0.585936V17.6881C2.5105 17.8435 2.57226 17.9925 2.6821 18.1024L4.40803 19.8284C4.63686 20.0572 5.00784 20.0572 5.23671 19.8284L6.54831 18.5168L7.85983 19.8284C7.96971 19.9382 8.11873 20 8.27412 20C8.42951 20 8.57858 19.9383 8.68846 19.8284L10 18.5168L11.3116 19.8284C11.4215 19.9382 11.5706 20 11.7259 20C11.8813 20 12.0304 19.9383 12.1403 19.8284L13.4518 18.5168L14.7634 19.8284C14.8778 19.9428 15.0277 20 15.1777 20C15.3276 20 15.4776 19.9428 15.592 19.8284L17.3179 18.1024C17.4278 17.9925 17.4896 17.8435 17.4896 17.6881V0.585936C17.4897 0.262343 17.2273 0 16.9038 0ZM9.41404 4.4012V3.72398C9.41404 3.40038 9.67643 3.13804 9.99998 3.13804C10.3236 3.13804 10.5859 3.40038 10.5859 3.72398V4.39323H11.2553C11.5788 4.39323 11.8412 4.65558 11.8412 4.97917C11.8412 5.30276 11.5788 5.56511 11.2553 5.56511H9.58166C9.21264 5.56511 8.9124 5.86534 8.9124 6.23436C8.9124 6.60343 9.21264 6.9037 9.58166 6.9037H10.4185C11.4337 6.9037 12.2597 7.72959 12.2597 8.74483C12.2597 9.70354 11.5229 10.4931 10.5859 10.578V11.2553C10.5859 11.5788 10.3236 11.8412 9.99998 11.8412C9.67643 11.8412 9.41404 11.5788 9.41404 11.2553V10.5859H8.74479C8.42123 10.5859 8.15885 10.3236 8.15885 9.99998C8.15885 9.67639 8.42123 9.41404 8.74479 9.41404H10.4185C10.7875 9.41404 11.0878 9.11381 11.0878 8.74479C11.0878 8.37577 10.7876 8.07553 10.4185 8.07553H9.58166C8.56643 8.07553 7.74053 7.24956 7.74053 6.23432C7.74057 5.27565 8.47717 4.48616 9.41404 4.4012ZM13.1381 14.9792H6.86205C6.53846 14.9792 6.27612 14.7168 6.27612 14.3932C6.27612 14.0696 6.53846 13.8073 6.86205 13.8073H13.1381C13.4617 13.8073 13.724 14.0696 13.724 14.3932C13.724 14.7168 13.4617 14.9792 13.1381 14.9792Z" fill="current"/>
</svg>
