<svg width="20" height="20" viewBox="0 0 20 20" fill="none" xmlns="http://www.w3.org/2000/svg">
<g clip-path="url(#clip0)">
<path d="M3.54148 18.3334H0.624817C0.43315 18.3334 0.252317 18.2459 0.13315 18.0942C0.0148166 17.9434 -0.0276833 17.7467 0.0173167 17.5601L3.76732 2.14341C3.83482 1.86925 4.07815 1.67341 4.36065 1.66675C4.64482 1.66758 4.89565 1.84508 4.97482 2.11758L8.72482 15.0342C8.77898 15.2234 8.74232 15.4267 8.62398 15.5834C8.50565 15.7409 8.32148 15.8334 8.12398 15.8334H4.62732L4.14982 17.8526C4.08232 18.1342 3.83148 18.3334 3.54148 18.3334Z" fill="#7C7A7A"/>
<path d="M19.1668 18.3334H16.2501C15.8793 18.3334 15.5526 18.0884 15.4501 17.7317L14.8993 15.8334H12.4676L12.8834 17.2684C12.9568 17.5201 12.9068 17.7909 12.7501 18.0009C12.5918 18.2101 12.3451 18.3334 12.0834 18.3334H9.16677C8.80093 18.3334 8.47677 18.0942 8.3701 17.7434L3.78677 2.74341C3.70927 2.49091 3.75677 2.21675 3.91343 2.00425C4.0701 1.79175 4.31927 1.66675 4.58343 1.66675H14.5834C14.9493 1.66675 15.2734 1.90591 15.3801 2.25675L19.9634 17.2567C20.0409 17.5092 19.9934 17.7834 19.8368 17.9959C19.6801 18.2084 19.4309 18.3334 19.1668 18.3334ZM16.8759 16.6667H18.0401L13.9668 3.33341H5.7101L9.78427 16.6667H10.9751L10.5593 15.2317C10.4859 14.9801 10.5359 14.7092 10.6926 14.4992C10.8501 14.2901 11.0959 14.1667 11.3584 14.1667H15.5251C15.8959 14.1667 16.2226 14.4117 16.3251 14.7684L16.8759 16.6667Z" fill="#7C7A7A"/>
</g>
<defs>
<clipPath id="clip0">
<rect width="20" height="20" fill="white"/>
</clipPath>
</defs>
</svg>
