<svg width="20" height="20" viewBox="0 0 20 20" fill="none" xmlns="http://www.w3.org/2000/svg">
<path d="M10 11.0811C11.0523 11.0811 11.905 10.2281 11.905 9.17603C11.905 8.12393 11.0523 7.27075 10 7.27075C8.94778 7.27075 8.09497 8.12393 8.09497 9.17603C8.09497 10.2281 8.94778 11.0811 10 11.0811Z" fill="current"/>
<path d="M14.5022 2.39156H11.5411V0.51373C11.5411 0.22998 11.311 0 11.0273 0H8.97241C8.68871 0 8.45868 0.22998 8.45868 0.51373V2.39161H5.49749C4.38703 2.39161 3.48706 3.29173 3.48706 4.40214V17.9895C3.48706 19.0999 4.38703 20 5.49749 20H14.5022C15.6127 20 16.5127 19.0998 16.5127 17.9895V4.40214C16.5127 3.29168 15.6127 2.39156 14.5022 2.39156ZM9.3341 0.74543H10.6657C10.8465 0.74543 10.993 0.891994 10.993 1.07289C10.993 1.25379 10.8465 1.40041 10.6657 1.40041H9.3341C9.15331 1.40041 9.00669 1.25379 9.00669 1.07289C9.00669 0.891994 9.15331 0.74543 9.3341 0.74543ZM8.30966 3.07389H8.45868V3.20784C8.45868 3.49159 8.68871 3.72158 8.97241 3.72158H11.0272C11.311 3.72158 11.541 3.49159 11.541 3.20784V3.07389H11.69C11.9984 3.07389 12.2482 3.32382 12.2482 3.63211C12.2482 3.94041 11.9984 4.19034 11.69 4.19034H8.30966C8.00132 4.19034 7.75144 3.94035 7.75144 3.63211C7.75144 3.32382 8.00132 3.07389 8.30966 3.07389ZM6.54589 6.77639H13.4538V13.3169H12.6586L12.7616 11.9792C12.7756 11.7986 12.7134 11.6204 12.5903 11.4874C12.4673 11.3545 12.2943 11.279 12.1133 11.279H7.88654C7.70543 11.279 7.53256 11.3545 7.40944 11.4874C7.28637 11.6205 7.22432 11.7987 7.23823 11.9792L7.34113 13.3169H6.54594L6.54589 6.77639ZM13.3727 17.123H6.62707C6.28033 17.123 5.99913 16.8419 5.99913 16.4949C5.99913 16.1481 6.28027 15.8669 6.62707 15.8669H13.3727C13.7194 15.8669 14.0007 16.1481 14.0007 16.4949C14.0006 16.8418 13.7194 17.123 13.3727 17.123Z" fill="current"/>
</svg>
