<svg width="20" height="20" viewBox="0 0 20 20" fill="none" xmlns="http://www.w3.org/2000/svg">
<path d="M11.9301 9.89531C14.6582 9.89531 16.8773 7.67578 16.8773 4.94766C16.8773 2.21953 14.6582 0 11.9301 0C9.20195 0 6.98242 2.21953 6.98242 4.94766C6.98242 7.67578 9.20195 9.89531 11.9301 9.89531ZM11.3441 2.03945V1.90508C11.3441 1.58125 11.6062 1.31914 11.9301 1.31914C12.2535 1.31914 12.516 1.58125 12.516 1.90508V2.04023C13.2133 2.18984 13.7379 2.81094 13.7379 3.55234C13.7379 3.87578 13.4754 4.13828 13.152 4.13828C12.8281 4.13828 12.566 3.87578 12.566 3.55234C12.566 3.3457 12.3977 3.17734 12.191 3.17734H11.6656C11.459 3.17734 11.2906 3.3457 11.2906 3.55234C11.2906 3.6707 11.3473 3.7832 11.4426 3.85352L11.9301 4.21445L13.1145 5.09102C13.5035 5.37891 13.7379 5.83945 13.741 6.32383V6.3293C13.7438 6.74258 13.5855 7.13242 13.2949 7.42656C13.0793 7.64492 12.8098 7.79141 12.516 7.85313V7.99024C12.516 8.31406 12.2535 8.57617 11.9301 8.57617C11.6062 8.57617 11.3441 8.31406 11.3441 7.99024V7.85508C11.0582 7.79414 10.7953 7.65352 10.5828 7.44336C10.2887 7.15313 10.1254 6.76563 10.123 6.35234C10.1211 6.02891 10.3816 5.76484 10.7051 5.76289H10.709C11.0309 5.76289 11.293 6.02305 11.2949 6.34531C11.2957 6.54754 11.4584 6.71797 11.6719 6.71797C11.9956 6.71602 11.875 6.71672 12.1965 6.71484C12.4045 6.7132 12.5707 6.54441 12.5691 6.33711V6.33164C12.5684 6.21445 12.5117 6.10274 12.4172 6.03281L11.9301 5.67227L10.7453 4.7957C10.3531 4.50508 10.1188 4.04024 10.1188 3.55234C10.1188 2.80938 10.6449 2.18789 11.3441 2.03945Z" fill="black"/>
<path d="M3.91366 12.7106C3.76347 12.4502 3.42984 12.3596 3.16784 12.5107L0.411672 14.1018C0.150696 14.2528 0.0611646 14.5866 0.211829 14.8479L3.02878 19.7269C3.17956 19.9878 3.51316 20.0774 3.7746 19.9268L6.53077 18.3353C6.79214 18.1846 6.88132 17.8509 6.73062 17.5895L3.91366 12.7106Z" fill="black"/>
<path d="M19.7064 11.7367C19.4412 11.3684 18.9279 11.2852 18.56 11.5504C17.4436 12.3547 15.2998 13.8992 15.1295 14.0223C15.051 14.0891 14.9686 14.1496 14.8826 14.2031C14.5455 14.4152 14.1545 14.5285 13.7463 14.5285H10.9396C10.6162 14.5285 10.3537 14.2664 10.3537 13.9426C10.3537 13.6184 10.6166 13.3566 10.9396 13.3566H13.9412C14.3822 13.3566 14.7354 12.9895 14.717 12.5477C14.6998 12.1285 14.342 11.8035 13.9225 11.8035H11.6377C11.483 11.6398 11.3135 11.4898 11.1318 11.3559C10.5072 10.8953 9.73535 10.623 8.8998 10.623C7.41426 10.623 5.93613 11.559 5.32324 12.8082L7.72012 16.9594H12.2162C13.099 16.9594 13.9686 16.7336 14.7338 16.2934C14.999 16.141 15.283 15.9578 15.5908 15.7367C16.8807 14.8102 19.5178 12.8852 19.5197 12.884C19.8885 12.6191 19.9721 12.1051 19.7064 11.7367Z" fill="black"/>
</svg>
