<svg width="50" height="13" viewBox="0 0 50 13" fill="none" xmlns="http://www.w3.org/2000/svg">
<path d="M18.7102 3.19727H15.947C15.8555 3.19721 15.767 3.22909 15.6975 3.28716C15.6279 3.34523 15.5819 3.42567 15.5676 3.514L14.45 10.4398C14.4449 10.472 14.4469 10.5048 14.456 10.5361C14.4651 10.5674 14.4811 10.5964 14.5027 10.6211C14.5244 10.6458 14.5512 10.6656 14.5815 10.6792C14.6117 10.6928 14.6446 10.6998 14.6779 10.6997H15.9971C16.0886 10.6998 16.1772 10.6678 16.2467 10.6097C16.3163 10.5515 16.3623 10.471 16.3765 10.3826L16.6779 8.51457C16.6921 8.42625 16.738 8.34576 16.8075 8.28762C16.877 8.22948 16.9654 8.1975 17.0569 8.19745H17.9317C19.7519 8.19745 20.8024 7.3365 21.0767 5.63042C21.2004 4.884 21.082 4.29753 20.7244 3.88681C20.3317 3.4358 19.6351 3.19727 18.7102 3.19727ZM19.029 5.72678C18.8779 6.69593 18.1203 6.69593 17.3878 6.69593H16.9708L17.2634 4.88598C17.2719 4.83302 17.2995 4.7848 17.3412 4.74997C17.3829 4.71515 17.436 4.69602 17.4908 4.69602H17.682C18.1809 4.69602 18.6517 4.69602 18.8949 4.97405C19.0399 5.13992 19.0844 5.38635 19.029 5.72678ZM26.9701 5.69558H25.6468C25.592 5.69558 25.5389 5.71471 25.4972 5.74954C25.4555 5.78436 25.4279 5.83259 25.4194 5.88554L25.3608 6.24729L25.2682 6.11618C24.9818 5.7098 24.343 5.57394 23.7054 5.57394C22.2432 5.57394 20.9943 6.65644 20.7511 8.17494C20.6246 8.93241 20.8044 9.65671 21.244 10.1618C21.6472 10.6263 22.2242 10.8198 22.9107 10.8198C24.0888 10.8198 24.7422 10.0793 24.7422 10.0793L24.6832 10.4387C24.6779 10.4708 24.6799 10.5037 24.6889 10.535C24.6978 10.5663 24.7137 10.5954 24.7353 10.6201C24.7568 10.6449 24.7837 10.6648 24.8139 10.6785C24.8441 10.6922 24.877 10.6993 24.9103 10.6993H26.1022C26.1937 10.6994 26.2823 10.6674 26.3518 10.6093C26.4214 10.5511 26.4674 10.4706 26.4816 10.3822L27.1967 5.95544C27.202 5.92338 27.2001 5.89059 27.1911 5.85932C27.1821 5.82806 27.1663 5.79907 27.1448 5.77436C27.1232 5.74965 27.0964 5.72981 27.0663 5.71621C27.0361 5.70261 27.0033 5.69557 26.9701 5.69558ZM25.1256 8.21285C24.9979 8.95176 24.3979 9.44779 23.6327 9.44779C23.2484 9.44779 22.9414 9.32734 22.7442 9.09907C22.5486 8.87238 22.4743 8.54972 22.5365 8.19034C22.6557 7.45775 23.2658 6.94553 24.0194 6.94553C24.3951 6.94553 24.7006 7.06756 24.9018 7.2978C25.1034 7.53041 25.1834 7.85504 25.1256 8.21285ZM34.0174 5.69558H32.6877C32.6249 5.69568 32.5632 5.71073 32.5078 5.73942C32.4524 5.76812 32.405 5.8096 32.3697 5.86026L30.5357 8.50075L29.7584 5.96334C29.7345 5.88595 29.6858 5.81812 29.6194 5.7699C29.553 5.72168 29.4726 5.69562 29.3899 5.69558H28.0832C28.0465 5.69548 28.0104 5.70395 27.9777 5.72028C27.945 5.73661 27.9169 5.76033 27.8955 5.78946C27.8741 5.81858 27.8601 5.85228 27.8548 5.88775C27.8494 5.92322 27.8528 5.95942 27.8646 5.99335L29.3293 10.1946L27.9523 12.0946C27.9278 12.1283 27.9133 12.1679 27.9103 12.2091C27.9074 12.2503 27.9161 12.2915 27.9355 12.3283C27.9549 12.365 27.9842 12.3957 28.0203 12.4172C28.0564 12.4387 28.0979 12.45 28.1402 12.45H29.4683C29.5303 12.4501 29.5914 12.4355 29.6463 12.4074C29.7013 12.3794 29.7485 12.3387 29.7838 12.2889L34.2065 6.04904C34.2304 6.01528 34.2445 5.97575 34.2471 5.93474C34.2497 5.89373 34.2408 5.85279 34.2213 5.81638C34.2019 5.77996 34.1725 5.74945 34.1366 5.72816C34.1006 5.70687 34.0594 5.6956 34.0174 5.69558Z" fill="#253B80"/>
<path d="M38.4193 3.19668H35.6557C35.5642 3.19672 35.4758 3.22864 35.4064 3.28671C35.3369 3.34477 35.2909 3.42516 35.2767 3.51342L34.1591 10.4393C34.1539 10.4713 34.1559 10.5041 34.1649 10.5354C34.1739 10.5667 34.1898 10.5957 34.2113 10.6204C34.2329 10.6451 34.2597 10.6649 34.2899 10.6785C34.3201 10.6921 34.3529 10.6991 34.3862 10.6991H35.8043C35.8683 10.699 35.9302 10.6766 35.9788 10.6359C36.0273 10.5953 36.0595 10.539 36.0694 10.4772L36.3866 8.51399C36.4007 8.42566 36.4467 8.34518 36.5162 8.28703C36.5856 8.22889 36.6741 8.19691 36.7656 8.19686H37.6399C39.4605 8.19686 40.5106 7.33592 40.7854 5.62983C40.9094 4.88342 40.7902 4.29695 40.4326 3.88623C40.0403 3.43522 39.3441 3.19668 38.4193 3.19668ZM38.7381 5.72619C38.5874 6.69535 37.8298 6.69535 37.0969 6.69535H36.6803L36.9732 4.88539C36.9816 4.83244 37.0091 4.78417 37.0508 4.74933C37.0924 4.71449 37.1455 4.69537 37.2003 4.69543H37.3914C37.89 4.69543 38.3611 4.69543 38.6043 4.97346C38.7494 5.13933 38.7934 5.38577 38.7381 5.72619ZM46.6787 5.695H45.3563C45.3014 5.69485 45.2484 5.71394 45.2067 5.7488C45.165 5.78365 45.1375 5.83197 45.1292 5.88496L45.0706 6.24671L44.9777 6.11559C44.6912 5.70921 44.0528 5.57336 43.4153 5.57336C41.953 5.57336 40.7046 6.65585 40.4613 8.17435C40.3353 8.93182 40.5143 9.65612 40.9538 10.1612C41.3579 10.6257 41.9341 10.8192 42.6205 10.8192C43.7987 10.8192 44.452 10.0787 44.452 10.0787L44.3931 10.4381C44.3878 10.4703 44.3897 10.5032 44.3988 10.5346C44.4078 10.566 44.4237 10.5951 44.4454 10.6199C44.4671 10.6446 44.494 10.6645 44.5243 10.6782C44.5546 10.6918 44.5876 10.6988 44.6209 10.6987H45.8125C45.9039 10.6987 45.9924 10.6667 46.0618 10.6086C46.1313 10.5504 46.1773 10.4699 46.1914 10.3816L46.907 5.95486C46.9121 5.9227 46.91 5.88984 46.9008 5.85855C46.8917 5.82727 46.8757 5.79828 46.854 5.77359C46.8323 5.7489 46.8054 5.7291 46.7752 5.71553C46.7449 5.70196 46.712 5.69496 46.6787 5.695ZM44.8343 8.21226C44.7074 8.95117 44.1066 9.4472 43.3413 9.4472C42.9579 9.4472 42.65 9.32675 42.4528 9.09848C42.2573 8.87179 42.1838 8.54914 42.2452 8.18975C42.3652 7.45716 42.9745 6.94494 43.728 6.94494C44.1038 6.94494 44.4092 7.06697 44.6104 7.29722C44.8129 7.52983 44.8929 7.85446 44.8343 8.21226ZM48.2387 3.38664L47.1046 10.4393C47.0994 10.4713 47.1014 10.5041 47.1104 10.5354C47.1194 10.5667 47.1353 10.5957 47.1568 10.6204C47.1784 10.6451 47.2052 10.6649 47.2354 10.6785C47.2656 10.6921 47.2984 10.6991 47.3316 10.6991H48.4719C48.6614 10.6991 48.8222 10.5648 48.8512 10.382L49.9696 3.45655C49.9748 3.42444 49.9728 3.39162 49.9638 3.36034C49.9548 3.32906 49.939 3.30006 49.9174 3.27533C49.8958 3.2506 49.869 3.23073 49.8388 3.21708C49.8087 3.20344 49.7758 3.19635 49.7426 3.19629H48.4658C48.411 3.19648 48.358 3.21574 48.3164 3.25062C48.2748 3.2855 48.2473 3.33372 48.2387 3.38664Z" fill="#179BD7"/>
<path d="M2.97485 12.0458L3.18616 10.7339L2.71546 10.7232H0.467773L2.0298 1.04237C2.03445 1.01279 2.04982 0.985825 2.07311 0.966397C2.09639 0.946969 2.12605 0.936367 2.15667 0.936525H5.94658C7.20476 0.936525 8.07305 1.19244 8.52638 1.69755C8.73891 1.93451 8.87426 2.18213 8.93972 2.45463C9.0084 2.74056 9.00961 3.08217 8.94254 3.49882L8.9377 3.52923V3.7962L9.15022 3.91389C9.31247 3.99423 9.4583 4.10291 9.58053 4.23457C9.76234 4.43717 9.87992 4.69466 9.92962 4.99994C9.98093 5.31391 9.96396 5.68751 9.87992 6.11048C9.78295 6.59703 9.62618 7.02078 9.41446 7.36753C9.22766 7.67816 8.9765 7.9472 8.67709 8.15739C8.39588 8.35248 8.06173 8.50058 7.68395 8.59536C7.31789 8.68856 6.90052 8.73556 6.44274 8.73556H6.14779C5.93688 8.73556 5.73203 8.80981 5.57122 8.9429C5.41064 9.07741 5.30412 9.26326 5.27061 9.46736L5.24839 9.58544L4.87506 11.8977L4.85809 11.9827C4.85364 12.0095 4.84597 12.0229 4.83465 12.032C4.82369 12.0408 4.81002 12.0457 4.79587 12.0458H2.97485Z" fill="#253B80"/>
<path d="M9.35106 3.55957C9.33975 3.63026 9.32682 3.70253 9.31227 3.77678C8.81247 6.28497 7.10257 7.15144 4.91872 7.15144H3.8068C3.53973 7.15144 3.31468 7.34101 3.27306 7.5985L2.70377 11.1276L2.54256 12.1279C2.53613 12.1676 2.53859 12.2082 2.54974 12.2468C2.5609 12.2855 2.5805 12.3214 2.60718 12.3519C2.63387 12.3825 2.66702 12.407 2.70434 12.4238C2.74166 12.4407 2.78226 12.4494 2.82337 12.4494H4.79549C5.02903 12.4494 5.22741 12.2835 5.26418 12.0584L5.28357 11.9605L5.65489 9.65726L5.67873 9.53088C5.71509 9.30498 5.91388 9.13911 6.14741 9.13911H6.44237C8.35308 9.13911 9.84884 8.38085 10.286 6.18663C10.4686 5.27 10.3741 4.50463 9.89086 3.96635C9.7377 3.79983 9.55478 3.66199 9.35106 3.55957Z" fill="#179BD7"/>
<path d="M8.82861 3.35615C8.66902 3.31103 8.50668 3.27581 8.34255 3.25071C8.01823 3.20199 7.69046 3.17861 7.36234 3.1808H4.39183C4.27878 3.18072 4.16943 3.22017 4.08354 3.29202C3.99766 3.36387 3.9409 3.46339 3.92354 3.57257L3.29162 7.48473L3.27344 7.59886C3.29312 7.47432 3.35776 7.36078 3.45566 7.27878C3.55356 7.19678 3.67825 7.15174 3.80718 7.1518H4.9191C7.10295 7.1518 8.81285 6.28494 9.31265 3.77715C9.3276 3.7029 9.34013 3.63063 9.35144 3.55994C9.21955 3.49234 9.0821 3.43566 8.94053 3.39051C8.90341 3.37847 8.8661 3.36702 8.82861 3.35615Z" fill="#222D65"/>
<path d="M3.92348 3.5718C3.9407 3.46258 3.99742 3.36302 4.08335 3.29121C4.16928 3.21939 4.27871 3.18008 4.39177 3.18043H7.36228C7.7142 3.18043 8.04269 3.20294 8.34248 3.25033C8.54536 3.28149 8.74543 3.3281 8.94087 3.38974C9.08834 3.43752 9.22531 3.494 9.35178 3.55916C9.50047 2.63227 9.35057 2.00117 8.83784 1.42971C8.27258 0.800591 7.25238 0.53125 5.94692 0.53125H2.15701C1.89034 0.53125 1.66287 0.720815 1.62166 0.978703L0.0430664 10.7591C0.0357136 10.8045 0.0385111 10.8509 0.0512665 10.8952C0.0640218 10.9394 0.0864324 10.9805 0.116956 11.0154C0.147481 11.0504 0.185394 11.0785 0.228088 11.0978C0.270783 11.1171 0.317245 11.1271 0.364279 11.1272H2.70408L3.29156 7.48396L3.92348 3.5718Z" fill="#253B80"/>
</svg>
