<svg width="14" height="16" viewBox="0 0 14 16" fill="none" xmlns="http://www.w3.org/2000/svg">
<path d="M12.3735 4.30758C12.8833 4.30758 13.2966 3.8943 13.2966 3.3845C13.2966 2.8747 12.8833 2.46143 12.3735 2.46143C11.8637 2.46143 11.4504 2.8747 11.4504 3.3845C11.4504 3.8943 11.8637 4.30758 12.3735 4.30758Z" fill="#FF7474"/>
<path d="M9.91209 2.46139C10.4219 2.46139 10.8352 2.04811 10.8352 1.53831C10.8352 1.02851 10.4219 0.615234 9.91209 0.615234C9.40229 0.615234 8.98901 1.02851 8.98901 1.53831C8.98901 2.04811 9.40229 2.46139 9.91209 2.46139Z" fill="#FF7474"/>
<path d="M7.45042 1.84615C7.96022 1.84615 8.3735 1.43288 8.3735 0.923077C8.3735 0.413276 7.96022 0 7.45042 0C6.94062 0 6.52734 0.413276 6.52734 0.923077C6.52734 1.43288 6.94062 1.84615 7.45042 1.84615Z" fill="#FF7474"/>
<path d="M4.989 3.07711C5.4988 3.07711 5.91207 2.66384 5.91207 2.15403C5.91207 1.64423 5.4988 1.23096 4.989 1.23096C4.47919 1.23096 4.06592 1.64423 4.06592 2.15403C4.06592 2.66384 4.47919 3.07711 4.989 3.07711Z" fill="#FF7474"/>
<path d="M11.4505 3.38439V7.38439C11.4505 7.55424 11.3126 7.69208 11.1428 7.69208C10.9729 7.69208 10.8351 7.55424 10.8351 7.38439V1.53824H8.98893V6.769C8.98893 6.93885 8.85109 7.0767 8.68124 7.0767C8.5114 7.0767 8.37355 6.93885 8.37355 6.769V0.922852H6.5274V6.769C6.5274 6.93885 6.38955 7.0767 6.2197 7.0767C6.04986 7.0767 5.91201 6.93885 5.91201 6.769V2.15362H4.06586V9.84593L2.8197 8.1407C2.45047 7.57147 1.72986 7.3807 1.20186 7.70685C0.675703 8.04039 0.545242 8.76777 0.909549 9.33516C0.909549 9.33516 2.9194 12.377 3.77601 13.6792C4.63263 14.9813 6.02032 15.9998 8.6154 15.9998C12.912 15.9998 13.2966 12.6816 13.2966 11.6921C13.2966 10.7025 13.2966 3.38439 13.2966 3.38439H11.4505Z" fill="#FF7474"/>
</svg>
