<svg width="16" height="16" viewBox="0 0 16 16" fill="none" xmlns="http://www.w3.org/2000/svg">
<path d="M14.9488 2.24024C14.92 2.03395 14.7716 1.86426 14.571 1.80849L8.14028 0.0201138C8.04861 -0.00540252 7.95177 -0.00540252 7.86002 0.0201138L1.42935 1.80849C1.2287 1.86426 1.08028 2.03388 1.05155 2.24024C1.01425 2.50844 0.163361 8.84542 2.34584 11.9979C4.52575 15.1466 7.74157 15.9535 7.87738 15.9863C7.91775 15.9961 7.95888 16.0009 8.00015 16.0009C8.04143 16.0009 8.08256 15.996 8.12292 15.9863C8.2588 15.9535 11.4746 15.1466 13.6545 11.9979C15.8369 8.84549 14.9861 2.50851 14.9488 2.24024ZM12.1471 5.93983L7.76075 10.3262C7.65868 10.4283 7.52482 10.4794 7.39104 10.4794C7.25725 10.4794 7.1234 10.4283 7.02133 10.3262L4.30928 7.61415C4.21119 7.51613 4.15611 7.38311 4.15611 7.24444C4.15611 7.10578 4.21126 6.97276 4.30928 6.87474L4.84777 6.33624C5.05197 6.13211 5.38306 6.13204 5.58719 6.33624L7.39104 8.1401L10.8692 4.66186C10.9672 4.56377 11.1002 4.50869 11.2389 4.50869C11.3776 4.50869 11.5106 4.56377 11.6086 4.66186L12.1471 5.20035C12.3513 5.40455 12.3513 5.73563 12.1471 5.93983Z" fill="current"/>
</svg>
