<svg width="16" height="16" viewBox="0 0 16 16" fill="none" xmlns="http://www.w3.org/2000/svg">
<path d="M11.8717 5.95851C11.6226 6.9109 11.0413 7.12069 10.7312 7.16278C10.5402 7.54474 10.1202 8.32534 9.70011 8.71754C9.53219 8.87426 9.31399 9.00653 9.05157 9.11069C8.71653 9.24362 8.36269 9.31104 7.99998 9.31104C7.63728 9.31104 7.28344 9.24362 6.9484 9.11069C6.68606 9.0066 6.46777 8.87433 6.29985 8.71754C5.87969 8.32541 5.45975 7.54474 5.26869 7.16278C4.95862 7.12069 4.37735 6.91098 4.12825 5.95851C3.99503 5.44918 4.02914 5.034 4.2297 4.72444C4.31835 4.58763 4.4258 4.49444 4.52587 4.43135C4.52616 4.32967 4.53041 4.20238 4.54219 4.05759C4.36205 3.80725 4.11712 3.26711 4.42046 2.39282C4.74107 1.46853 5.46597 1.32579 5.81586 1.31342C5.93415 1.09353 6.15763 0.781331 6.56345 0.494316C7.01392 0.175532 7.60215 0 8.21973 0C8.97968 0 9.7444 0.267471 10.4312 0.773498C11.5446 1.59392 11.4492 3.4138 11.4219 3.74422C11.4623 4.02121 11.4735 4.26145 11.474 4.43127C11.5741 4.49437 11.6815 4.58755 11.7702 4.72436C11.9708 5.034 12.0049 5.44911 11.8717 5.95851ZM15.1281 13.0507V15.634C15.1281 15.8361 14.9642 16 14.7621 16H1.23782C1.03572 16 0.871826 15.8361 0.871826 15.634V13.0507C0.871826 11.9924 1.50676 11.0546 2.48939 10.6615L5.6893 9.38153C5.78138 9.34478 5.88445 9.34676 5.975 9.38746C6.06547 9.42801 6.13567 9.50363 6.16934 9.59688L6.9738 11.8209L7.13308 11.363L6.87967 10.7435C6.83355 10.6306 6.84658 10.5021 6.91458 10.4009C6.98259 10.2997 7.09648 10.2389 7.21843 10.2389H8.78153C8.90348 10.2389 9.01746 10.2997 9.08539 10.4009C9.15339 10.5021 9.16642 10.6306 9.1203 10.7435L8.86688 11.363L9.02617 11.8209L9.83063 9.59688C9.8643 9.50363 9.9345 9.42801 10.025 9.38746C10.1155 9.34683 10.2187 9.34486 10.3107 9.38153L13.5106 10.6615C14.4932 11.0546 15.1281 11.9924 15.1281 13.0507ZM13.1798 13.3316C13.1798 13.1295 13.0159 12.9656 12.8138 12.9656H10.3565C10.1544 12.9656 9.99049 13.1295 9.99049 13.3316V14.4728C9.99049 14.6749 10.1544 14.8388 10.3565 14.8388H12.8138C13.0159 14.8388 13.1798 14.6749 13.1798 14.4728V13.3316Z" fill="current"/>
</svg>
