<svg width="20" height="20" viewBox="0 0 20 20" fill="none" xmlns="http://www.w3.org/2000/svg">
<g clip-path="url(#clip0)">
<path d="M18.6368 16.3637H15.455C13.45 16.3637 11.8187 14.7324 11.8187 12.7274C11.8187 10.7224 13.45 9.09108 15.455 9.09108H18.6368C18.8881 9.09108 19.0914 8.88778 19.0914 8.63653V7.27292C19.0914 6.31975 18.352 5.54458 17.4179 5.46941L14.8074 0.909826C14.5655 0.488128 14.1749 0.186727 13.7075 0.0615729C13.2423 -0.062729 12.7558 0.00255401 12.3394 0.244894L3.39059 5.45475H1.8189C0.816173 5.45475 0.000732422 6.27015 0.000732422 7.27292V18.1818C0.000732422 19.1846 0.816131 20 1.8189 20H17.2732C18.2759 20 19.0914 19.1846 19.0914 18.1818V16.8182C19.0914 16.567 18.8881 16.3637 18.6368 16.3637ZM15.3712 3.72484L16.3616 5.45475H12.3998L15.3712 3.72484ZM5.19738 5.45475L12.7971 1.03055C13.0026 0.910252 13.2427 0.878293 13.4722 0.93957C13.7044 1.0017 13.8979 1.15174 14.0182 1.36169L14.0192 1.36336L6.99185 5.45475H5.19738Z" fill="current"/>
<path d="M18.6363 10.0002H15.4545C13.9506 10.0002 12.7273 11.2236 12.7273 12.7275C12.7273 14.2314 13.9506 15.4547 15.4545 15.4547H18.6363C19.3882 15.4547 19.9999 14.843 19.9999 14.0911V11.3639C19.9999 10.6119 19.3882 10.0002 18.6363 10.0002ZM15.4545 13.6365C14.9534 13.6365 14.5455 13.2286 14.5455 12.7275C14.5455 12.2263 14.9534 11.8184 15.4545 11.8184C15.9556 11.8184 16.3636 12.2263 16.3636 12.7275C16.3636 13.2286 15.9557 13.6365 15.4545 13.6365Z" fill="current"/>
</g>
<defs>
<clipPath id="clip0">
<rect width="20" height="20" fill="white"/>
</clipPath>
</defs>
</svg>
