<svg width="18" height="20" viewBox="0 0 18 20" fill="none" xmlns="http://www.w3.org/2000/svg">
<path d="M16.4995 5.45687C16.4934 5.37547 16.4253 5.3125 16.3437 5.3125H13.5312V4.53125C13.5312 2.03266 11.4984 0 8.99998 0C6.50154 0 4.46873 2.03266 4.46873 4.53125V5.3125H1.65623C1.57467 5.3125 1.50654 5.37547 1.50045 5.45687L0.406698 19.8319C0.403417 19.8752 0.41826 19.918 0.447948 19.9498C0.477479 19.9819 0.519042 20 0.562479 20H17.4375C17.4809 20 17.5225 19.9819 17.552 19.95C17.5815 19.9181 17.5965 19.8753 17.5933 19.832L16.4995 5.45687ZM5.71873 4.53125C5.71873 2.72203 7.1906 1.25 8.99998 1.25C10.8094 1.25 12.2812 2.72203 12.2812 4.53125V5.3125H5.71873V4.53125ZM5.09373 9.6875C4.23201 9.6875 3.53123 8.98656 3.53123 8.125C3.53123 7.50141 3.84373 6.93953 4.46873 6.69297V8.125C4.46873 8.46969 4.7492 8.75 5.09373 8.75C5.43826 8.75 5.71873 8.46969 5.71873 8.125V6.69391C6.34373 6.94047 6.65623 7.50656 6.65623 8.125C6.65623 8.98656 5.95545 9.6875 5.09373 9.6875ZM12.9062 9.6875C12.0445 9.6875 11.3437 8.98656 11.3437 8.125C11.3437 7.50141 11.6562 6.93953 12.2812 6.69297V8.125C12.2812 8.46969 12.5617 8.75 12.9062 8.75C13.2508 8.75 13.5312 8.46969 13.5312 8.125V6.69391C14.1562 6.94047 14.4687 7.50656 14.4687 8.125C14.4687 8.98656 13.7679 9.6875 12.9062 9.6875Z" fill="black"/>
</svg>
