<svg width="20" height="12" viewBox="0 0 20 12" fill="none" xmlns="http://www.w3.org/2000/svg">
<path d="M18.9147 6.39024L19.9841 1.5368C20.0641 1.17413 19.8348 0.815008 19.4721 0.73545C19.1094 0.65456 18.7507 0.884343 18.6712 1.24702L17.7178 5.57289H13.4302C13.0591 5.57289 12.7582 5.87379 12.7582 6.24535C12.7582 6.61691 13.0591 6.91781 13.4302 6.91781H13.6848L12.2368 10.3459C12.0924 10.6886 12.2519 11.0823 12.5946 11.2268C12.679 11.2628 12.7688 11.2801 12.8559 11.2801C13.1182 11.2801 13.3671 11.1255 13.4755 10.869L14.7973 7.74094L16.8938 7.74138L18.2143 10.869C18.3596 11.2112 18.7543 11.3699 19.0952 11.2268C19.4374 11.0823 19.5974 10.6881 19.453 10.3459L18.0054 6.91781H18.2601C18.5738 6.91736 18.8459 6.69869 18.9147 6.39024Z" fill="black"/>
<path d="M6.31471 6.9175H6.56938C6.9405 6.9175 7.24139 6.61661 7.24139 6.24504C7.24139 5.87348 6.9405 5.57258 6.56938 5.57258H2.28173L1.32882 1.24715C1.24837 0.884478 0.888808 0.65425 0.527911 0.735586C0.165681 0.815143 -0.0641018 1.17426 0.0159 1.53694L1.08526 6.39038C1.15326 6.69839 1.42615 6.91795 1.74172 6.91795H1.99639L0.548356 10.3469C0.403909 10.6891 0.563912 11.0825 0.906142 11.2269C1.24748 11.3709 1.64216 11.2109 1.78705 10.8691L3.10752 7.74152L5.20402 7.74108L6.52493 10.8691C6.63338 11.1256 6.88228 11.2803 7.1445 11.2803C7.23162 11.2803 7.32051 11.2629 7.40584 11.2269C7.74807 11.0825 7.90808 10.6883 7.76363 10.3469L6.31471 6.9175Z" fill="black"/>
<path d="M11.0501 9.93486H10.6714V4.13696H14.2848C14.6559 4.13696 14.9573 3.83606 14.9573 3.46494C14.9573 3.09382 14.6559 2.79248 14.2848 2.79248H5.71396C5.34284 2.79248 5.0415 3.09382 5.0415 3.46494C5.0415 3.83561 5.34284 4.13696 5.71396 4.13696H9.32738V9.93486H8.9487C8.57758 9.93486 8.27669 10.2366 8.27669 10.6078C8.27669 10.9789 8.57758 11.2802 8.9487 11.2802H11.0501C11.4221 11.2802 11.723 10.9789 11.723 10.6078C11.723 10.2366 11.4221 9.93486 11.0501 9.93486Z" fill="black"/>
</svg>
