<svg width="24" height="22" viewBox="0 0 24 22" fill="none" xmlns="http://www.w3.org/2000/svg">
<path d="M23.5202 16.4867L15.112 1.92306C13.7386 -0.482816 10.2657 -0.482816 8.89725 1.92306L0.484103 16.4867C-0.88927 18.8926 0.820036 21.8814 3.59148 21.8814H20.3832C23.1546 21.8814 24.8936 18.863 23.5202 16.4867ZM11.9997 18.6506C11.2685 18.6506 10.6609 18.0429 10.6609 17.3118C10.6609 16.5806 11.2685 15.973 11.9997 15.973C12.7308 15.973 13.3385 16.5806 13.3088 17.3463C13.3434 18.0429 12.7012 18.6506 11.9997 18.6506ZM13.2199 9.99533C13.1606 11.0328 13.0964 12.0653 13.0371 13.1027C13.0075 13.4386 13.0075 13.7449 13.0075 14.0759C12.9779 14.6243 12.5481 15.0492 11.9997 15.0492C11.4513 15.0492 11.0265 14.6539 10.9919 14.1056C10.903 12.4901 10.8091 10.9043 10.7202 9.28889C10.6905 8.86403 10.6609 8.43423 10.6263 8.00938C10.6263 7.30787 11.0215 6.72987 11.6638 6.54708C12.306 6.39393 12.9433 6.70022 13.2199 7.30787C13.3138 7.5203 13.3434 7.73273 13.3434 7.97973C13.3138 8.65654 13.2496 9.32841 13.2199 9.99533Z" fill="white"/>
</svg>
