<svg width="40" height="40" viewBox="0 0 40 40" fill="none" xmlns="http://www.w3.org/2000/svg">
<path d="M2.00021 30H24.6669C25.0351 30 25.3335 30.2984 25.3335 30.6666V34C25.3335 36.9455 22.9457 39.3334 20.0001 39.3334H6.66686C3.72131 39.3334 1.3335 36.9455 1.3335 34V30.6666C1.33357 30.2985 1.63201 30 2.00021 30Z" fill="#E57E25"/>
<path d="M26.6876 5.33336C26.3194 5.33336 26.021 5.03484 26.021 4.66672V1.33336H22.6876C22.3194 1.33336 22.021 1.03484 22.021 0.666719C22.021 0.298594 22.3194 0 22.6876 0H26.021C26.7574 0 27.3544 0.596953 27.3544 1.33336V4.66672C27.3543 5.03484 27.0558 5.33336 26.6876 5.33336Z" fill="#4482C3"/>
<path d="M36.0004 10L32.7817 39.3334H20.0004L16.7817 10H36.0004Z" fill="#4482C3"/>
<path d="M18.7816 4.66663H34.0003C34.7367 4.66663 35.3336 5.26358 35.3336 5.99999V8.66663H17.4482V5.99999C17.4482 5.26358 18.0452 4.66663 18.7816 4.66663Z" fill="#E6E7E8"/>
<path d="M16.7815 7.33337H36.0002C36.7366 7.33337 37.3336 7.93033 37.3336 8.66673V10C37.3336 10.3682 37.035 10.6667 36.6669 10.6667H16.1149C15.7467 10.6667 15.4482 10.3681 15.4482 10V8.66665C15.4482 7.93033 16.0451 7.33337 16.7815 7.33337Z" fill="#D1D4D1"/>
<path d="M24.6665 30H4.6665" stroke="black" stroke-width="2" stroke-linecap="round" stroke-linejoin="round"/>
<path d="M27.3332 27.3334L27.9999 28.6667L3.33323 28V27.3334C3.33323 27.3334 2.66659 24.6667 5.99987 24.6667C8.16651 24.6667 8.16651 24.0001 10.3332 24.0001C12.4999 24.0001 12.5066 24.6667 14.6732 24.6667C16.8399 24.6667 16.8399 24.0001 19.0066 24.0001C21.1733 24.0001 21.1666 24.6667 23.3332 24.6667C23.3332 24.6667 26.6665 24.6667 27.3332 27.3334Z" fill="#F0C419"/>
<path d="M26.6266 27.3334H3.41992C3.66656 26.6667 4.33328 26 5.99992 26C8.16656 26 8.16656 25.3334 10.3333 25.3334C12.5 25.3334 12.5066 26 14.6733 26C16.8399 26 16.8399 25.3334 19.0066 25.3334C21.1734 25.3334 21.1666 26 23.3333 26C23.3333 26 25.4333 26 26.6266 27.3334Z" fill="#E64C3C"/>
<path d="M3.99986 32H2.99986C1.71119 32 0.666504 30.9553 0.666504 29.6666C0.666504 28.378 1.71119 27.3333 2.99986 27.3333H27.6665C28.9552 27.3333 29.9999 28.378 29.9999 29.6666C29.9948 30.8241 29.1449 31.8043 27.9999 31.9733L3.99986 32Z" fill="#804537"/>
<path d="M4.66664 30H27.3333C27.7015 30 27.9999 30.2984 27.9999 30.6666V34C27.9999 36.9455 25.6121 39.3334 22.6666 39.3334H9.33336C6.38781 39.3334 4 36.9455 4 34V30.6666C4 30.2985 4.29852 30 4.66664 30Z" fill="#F29C1F"/>
<path d="M39.3335 40H38.0001C37.6319 40 37.3335 39.7016 37.3335 39.3334C37.3335 38.9652 37.6319 38.6667 38.0001 38.6667H39.3335C39.7017 38.6667 40.0001 38.9652 40.0001 39.3334C40.0001 39.7016 39.7017 40 39.3335 40Z" fill="#804537"/>
<path d="M35.3334 40H0.666641C0.298516 40 0 39.7016 0 39.3334C0 38.9652 0.298516 38.6667 0.666641 38.6667H35.3333C35.7015 38.6667 35.9999 38.9652 35.9999 39.3334C36 39.7016 35.7016 40 35.3334 40Z" fill="#804537"/>
</svg>
