<svg width="40" height="40" viewBox="0 0 40 40" fill="none" xmlns="http://www.w3.org/2000/svg">
<path d="M23.4402 13.0145C24.4329 13.0145 25.2377 12.1981 25.2377 11.1911C25.2377 10.184 24.4329 9.36765 23.4402 9.36765C22.4474 9.36765 21.6426 10.184 21.6426 11.1911C21.6426 12.1981 22.4474 13.0145 23.4402 13.0145Z" fill="#B36E44"/>
<path d="M23.4402 13.0145C24.4329 13.0145 25.2377 12.1981 25.2377 11.1911C25.2377 10.184 24.4329 9.36765 23.4402 9.36765C22.4474 9.36765 21.6426 10.184 21.6426 11.1911C21.6426 12.1981 22.4474 13.0145 23.4402 13.0145Z" fill="#B36E44"/>
<path d="M23.1274 10.9345C23.1274 10.311 23.4363 9.76111 23.9068 9.4322C23.7578 9.39158 23.6018 9.3679 23.4402 9.3679C22.4476 9.3679 21.6431 10.1843 21.6431 11.1913C21.6431 12.1984 22.4478 13.0148 23.4402 13.0148C23.8181 13.0148 24.1685 12.8959 24.4579 12.6935C23.6919 12.4849 23.1274 11.7774 23.1274 10.9345Z" fill="#8C5635"/>
<path d="M6.76452 25.1812C6.07429 24.5595 5.45976 23.5899 5.0614 22.1018C4.59484 20.3592 3.82273 19.0963 2.96585 18.1806C2.90163 18.1119 2.81116 18.0741 2.7171 18.0741H0.343351C0.0296011 18.0741 -0.119461 18.461 0.114132 18.6704C1.75257 20.1403 2.85515 22.8189 2.74929 27.8457C2.62882 33.5717 5.36968 34.0575 7.65038 34.5568C7.65038 34.5568 8.96101 33.9522 8.52312 29.5099C8.2428 26.6666 6.76452 25.1812 6.76452 25.1812Z" fill="#A9CF54"/>
<path d="M23.3636 1.58902C16.5478 1.58902 11.0225 7.16308 11.0225 14.0388C11.0225 20.9145 16.5477 26.4877 23.3636 26.4877C30.1794 26.4877 35.7047 20.9145 35.7047 14.0388C35.7045 7.16308 30.1793 1.58902 23.3636 1.58902ZM23.3636 24.4641C17.6559 24.4641 13.0289 19.7961 13.0289 14.0388C13.0289 8.28058 17.6559 3.61261 23.3636 3.61261C29.0712 3.61261 33.6982 8.28058 33.6982 14.0388C33.6981 19.7961 29.0711 24.4641 23.3636 24.4641Z" fill="#C9C9C9"/>
<path d="M24.0854 2.34961V3.63836C29.4563 4.01227 33.6983 8.52547 33.6983 14.0388C33.6983 19.5514 29.4563 24.0645 24.0854 24.4384V25.7272C30.1613 25.3512 34.9739 20.2627 34.9739 14.0387C34.9737 7.81492 30.1612 2.72562 24.0854 2.34961Z" fill="#B8B8B8"/>
<path d="M22.8311 24.9767C17.0826 24.6966 12.5072 19.9071 12.5072 14.0387C12.5072 8.17029 17.0826 3.38013 22.8311 3.10005V1.6013C16.2624 1.88271 11.0225 7.34318 11.0225 14.0389C11.0225 20.7346 16.2624 26.1941 22.8311 26.4755V24.9767Z" fill="#B8B8B8"/>
<path d="M40 27.6515C40 34.1856 38.7386 39.4822 23.1751 39.4822C7.29303 39.4822 6.35107 34.1856 6.35107 27.6515C6.35107 23.6095 9.23357 20.041 13.631 17.907H13.6318C13.9692 17.7434 14.3151 17.5884 14.6697 17.442C17.088 16.4435 19.8909 15.8586 22.8847 15.8226C22.9815 15.8209 23.0783 15.8209 23.1751 15.8209C26.3572 15.8209 29.334 16.4418 31.8722 17.5233C32.1488 17.6398 32.4203 17.7631 32.6858 17.8916C37.1029 20.0231 40 23.5992 40 27.6515Z" fill="#A9CF54"/>
<path d="M7.89248 27.6525C7.89248 23.6104 10.775 20.0419 15.1724 17.9079H15.1732C17.6874 16.6877 20.6967 15.9383 23.9455 15.8353C23.69 15.8272 23.4334 15.8218 23.1751 15.8218C19.6315 15.8218 16.3439 16.5917 13.6318 17.9079H13.631C9.2335 20.042 6.35107 23.6104 6.35107 27.6525C6.35107 34.1865 7.29303 39.4831 23.1751 39.4831C23.4335 39.4831 23.6876 39.4815 23.9383 39.4786C8.80381 39.3068 7.89248 34.078 7.89248 27.6525Z" fill="#92B83D"/>
<path d="M31.8724 17.5233C31.6292 17.6004 31.3663 17.6715 31.0795 17.7314C28.7107 18.2316 19.0621 18.3617 15.8157 17.6817C15.4234 17.5995 15.021 17.5156 14.6699 17.4419C17.0883 16.4434 19.8912 15.8585 22.885 15.8226C22.9817 15.8208 23.0785 15.8208 23.1753 15.8208C26.3575 15.8208 29.3342 16.4418 31.8724 17.5233Z" fill="#92B83D"/>
<path d="M30.4072 17.3397H16.4727C15.9788 17.3397 15.5786 16.9395 15.5786 16.4457V15.9563C15.5786 15.4625 15.9788 15.0622 16.4727 15.0622H30.4072C30.901 15.0622 31.3013 15.4625 31.3013 15.9563V16.4457C31.3012 16.9394 30.9009 17.3397 30.4072 17.3397Z" fill="#A3643E"/>
<path d="M17.1201 16.4456V15.9562C17.1201 15.4624 17.5203 15.0621 18.0142 15.0621H16.4727C15.9788 15.0621 15.5786 15.4624 15.5786 15.9562V16.4456C15.5786 16.9394 15.9788 17.3396 16.4727 17.3396H18.0142C17.5204 17.3396 17.1201 16.9394 17.1201 16.4456Z" fill="#7D4D2F"/>
<path d="M30.3299 15.0622H16.5493C16.5493 15.0622 18.1062 13.5747 21.112 13.0628C21.112 13.0619 21.1128 13.0628 21.1128 13.0628C21.7362 12.9566 22.423 12.8922 23.1706 12.8922C27.5219 12.8922 30.3299 15.0622 30.3299 15.0622Z" fill="#B36E44"/>
<path d="M23.1706 12.8922C22.4231 12.8922 21.7363 12.9566 21.1128 13.0628C21.1128 13.0628 21.112 13.0619 21.112 13.0628C18.1062 13.5747 16.5493 15.0622 16.5493 15.0622H18.0908C18.0908 15.0622 20.5087 13.2326 24.14 12.9296C23.8258 12.9061 23.5034 12.8922 23.1706 12.8922Z" fill="#8C5635"/>
<path d="M31.492 4.13585L30.5945 5.25601L30.3865 5.51546L29.7647 6.29132C29.555 6.55429 29.1867 6.61757 28.9015 6.44288C27.9629 5.86734 25.7904 4.7139 23.4397 4.7139C21.0898 4.7139 18.9164 5.86742 17.9786 6.44288C17.6935 6.61757 17.3253 6.55421 17.1154 6.29132L16.4929 5.5146L15.3881 4.13585C15.1518 3.84124 15.1989 3.40538 15.496 3.17507C15.8942 2.86499 16.3078 2.58843 16.7283 2.34093C16.9073 2.23476 17.0871 2.13452 17.2679 2.03945C21.1223 0.0106957 25.7578 0.0106957 29.6122 2.03945C30.216 2.35796 30.8154 2.73304 31.3841 3.17499C31.6804 3.40538 31.7275 3.84132 31.492 4.13585Z" fill="#A3643E"/>
<path d="M4.26929 27.8459C4.39671 23.1042 2.90499 19.3723 0.842804 18.0743H0.343351C0.0296011 18.0743 -0.119461 18.4612 0.114132 18.6706C1.75257 20.1405 2.85515 22.8191 2.74929 27.8459C2.62882 33.5719 5.36968 34.0576 7.65038 34.5569C7.65038 34.5569 7.78335 34.4953 7.95038 34.2683C6.01913 33.7278 4.14234 32.5707 4.26929 27.8459Z" fill="#92B83D"/>
</svg>
