<svg width="40" height="40" viewBox="0 0 40 40" fill="none" xmlns="http://www.w3.org/2000/svg">
<g clip-path="url(#clip0)">
<path d="M37.2995 31.2095H2.70048C1.20906 31.2095 0 30.0006 0 28.5091V27.9774C0 26.486 1.20906 25.2769 2.70048 25.2769H37.2996C38.791 25.2769 40.0001 26.486 40.0001 27.9774V28.5091C40 30.0006 38.791 31.2095 37.2995 31.2095Z" fill="#E94444"/>
<path d="M39.9997 27.977V28.5089C39.9997 30.0006 38.7912 31.2099 37.2994 31.2099H35.7192C37.211 31.2099 38.4195 30.0006 38.4195 28.5089V27.977C38.4195 26.4861 37.211 25.2768 35.7192 25.2768H37.2994C38.7912 25.2768 39.9997 26.4862 39.9997 27.977Z" fill="#D83131"/>
<path d="M37.2994 31.2095H19.9998H2.70032C2.70032 31.2095 1.50715 36.971 8.29701 39.2376C9.46012 39.6259 10.6744 39.8066 11.8921 39.8066H19.9999H28.1077C29.3254 39.8066 30.5397 39.6259 31.7028 39.2376C38.4925 36.971 37.2994 31.2095 37.2994 31.2095Z" fill="#FE9738"/>
<path d="M31.7027 39.2374C30.5393 39.626 29.3252 39.807 28.1078 39.807H26.2749C27.4931 39.807 28.7072 39.626 29.8706 39.2374C36.6598 36.9708 35.4666 31.2099 35.4666 31.2099H37.2995C37.2995 31.2099 38.4928 36.9708 31.7027 39.2374Z" fill="#FE860A"/>
<path d="M37.3629 26.3525C37.3629 27.7008 35.7962 28.4317 34.7546 27.5756C34.3264 27.2237 33.8208 26.9449 33.0194 26.9449C30.848 26.9449 30.848 28.6649 28.6766 28.6649C26.5051 28.6649 26.5051 26.9449 24.3336 26.9449C22.1623 26.9449 22.1623 28.6649 19.9909 28.6649C17.8196 28.6649 17.8196 26.9449 15.6482 26.9449C13.4768 26.9449 13.4768 28.6649 11.3053 28.6649C9.13392 28.6649 9.13392 26.9449 6.96254 26.9449C6.16153 26.9449 5.65604 27.2236 5.22796 27.5753C4.18628 28.4314 2.61963 27.7006 2.61963 26.3523V23.1614H37.3627V26.3525H37.3629Z" fill="#BBEC6C"/>
<path d="M37.3633 23.1616V26.3526C37.3633 27.6142 35.9915 28.3351 34.9624 27.7212C35.417 27.4557 35.7436 26.9689 35.7436 26.3526V23.1616H37.3633Z" fill="#A2E62E"/>
<path d="M2.63721 20.6047V23.1852H6.36184C7.13667 23.1852 7.76485 23.8134 7.76485 24.5882V32.02C7.76485 33.0107 8.56796 33.8138 9.55862 33.8138C10.5493 33.8138 11.3523 33.0107 11.3523 32.02V24.5882C11.3523 23.8134 11.9805 23.1852 12.7553 23.1852H37.363V20.6047H2.63721Z" fill="#FEE45A"/>
<path d="M35.7437 20.6046H37.3633V23.1849H35.7437V20.6046Z" fill="#FEDF30"/>
<path d="M37.2995 20.7814H2.70048C1.20906 20.7814 0 19.5724 0 18.0809V17.5493C0 16.0578 1.20906 14.8488 2.70048 14.8488H37.2996C38.791 14.8488 40.0001 16.0578 40.0001 17.5493V18.0809C40 19.5724 38.791 20.7814 37.2995 20.7814Z" fill="#9E5528"/>
<path d="M39.9997 17.5491V18.0809C39.9997 19.5727 38.7912 20.7812 37.2994 20.7812H35.7192C37.211 20.7812 38.4195 19.5727 38.4195 18.0809V17.5491C38.4195 16.0582 37.211 14.8489 35.7192 14.8489H37.2994C38.7912 14.849 39.9997 16.0583 39.9997 17.5491Z" fill="#904D24"/>
<path d="M20.0001 0.19339C6.5125 0.388579 1.98086 7.70489 0.484852 11.956C-0.0278111 13.4126 1.0652 14.9371 2.60942 14.9371H20.0001H37.3906C38.9462 14.9371 40.0252 13.3973 39.5063 11.9307C38.0013 7.67591 33.4609 0.388189 20.0001 0.19339Z" fill="#FE9738"/>
<path d="M37.3904 14.9373H37.1981C37.7219 14.3531 37.9375 13.5026 37.6455 12.6755C36.14 8.42001 31.5997 1.13283 18.1389 0.938106C14.6566 0.987955 11.7705 1.51339 9.38086 2.33808C12.0908 1.09334 15.5602 0.25736 19.9999 0.193024C33.4607 0.388524 38.0011 7.67578 39.5065 11.9304C40.0246 13.3972 38.9456 14.9373 37.3904 14.9373Z" fill="#FE860A"/>
<path d="M14.4328 6.37827C14.3391 6.37827 14.244 6.35561 14.1556 6.30794C13.8718 6.15458 13.7661 5.80011 13.9195 5.51628L14.443 4.54766C14.5963 4.26383 14.9508 4.15814 15.2346 4.3115C15.5185 4.46486 15.6241 4.81934 15.4708 5.10316L14.9473 6.07178C14.8417 6.26728 14.6406 6.37827 14.4328 6.37827Z" fill="#E57917"/>
<path d="M19.9929 6.44441C19.6702 6.44441 19.4087 6.18286 19.4087 5.86024V4.75921C19.4087 4.4366 19.6702 4.17505 19.9929 4.17505C20.3155 4.17505 20.577 4.4366 20.577 4.75921V5.86024C20.577 6.18286 20.3155 6.44441 19.9929 6.44441Z" fill="#E57917"/>
<path d="M25.5674 6.37019C25.3659 6.37019 25.1698 6.26581 25.0615 6.07896L24.5091 5.12646C24.3473 4.84739 24.4423 4.48996 24.7214 4.32811C25.0004 4.16625 25.3579 4.26128 25.5197 4.54035L26.0721 5.49285C26.234 5.77192 26.1389 6.12935 25.8599 6.29121C25.7676 6.34479 25.6669 6.37019 25.5674 6.37019Z" fill="#E57917"/>
</g>
<defs>
<clipPath id="clip0">
<rect width="40" height="40" fill="white"/>
</clipPath>
</defs>
</svg>
