<svg width="40" height="40" viewBox="0 0 40 40" fill="none" xmlns="http://www.w3.org/2000/svg">
<path d="M5.945 25.4524C4.71343 24.4382 2.89531 24.3115 1.50351 25.313C0.0557004 26.3547 -0.419456 28.3372 0.399607 29.9217C0.905857 30.9011 1.77937 31.5439 2.75187 31.7869C3.10195 31.8744 3.32328 32.2329 3.24453 32.5851C3.02578 33.5633 3.20883 34.6322 3.85734 35.5238C4.90656 36.9662 6.89172 37.4301 8.47195 36.6029C9.99109 35.8078 10.6928 34.1258 10.3383 32.5702C10.2728 32.283 10.3943 31.9861 10.6449 31.8314L15.2962 28.9605L11.3943 22.6387L6.74297 25.5096C6.49226 25.6642 6.17234 25.6397 5.945 25.4524Z" fill="#F9E8D4"/>
<path d="M15.2964 28.96L13.4244 25.9271L8.92392 28.7036C8.67376 28.858 8.55291 29.1557 8.61845 29.4427C8.97267 30.998 8.27048 32.68 6.75158 33.476C5.59509 34.0818 4.22119 33.9955 3.15595 33.3384C3.1483 34.0916 3.37212 34.8566 3.85665 35.5231C4.90658 36.9657 6.89126 37.4295 8.47212 36.6036C9.99103 35.8076 10.6932 34.1257 10.3376 32.57C10.272 32.283 10.3943 31.9856 10.6445 31.8312L15.2964 28.96Z" fill="#E8D0BA"/>
<path d="M40.0001 20.0005C40.0001 19.1061 39.5301 18.3218 38.8237 17.8802C38.7432 17.8299 38.7208 17.7241 38.7744 17.6459C39.0498 17.2443 39.2114 16.7585 39.2114 16.2348C39.2114 15.8016 39.1009 15.3943 38.9069 15.0391C38.8704 14.9722 38.8843 14.8876 38.9417 14.8373C39.5776 14.2813 39.9797 13.4646 39.9797 12.5535C39.9797 10.8781 38.6215 9.51999 36.9462 9.51999C36.8183 9.51999 36.6926 9.52827 36.569 9.54374C36.5001 9.55241 36.4344 9.51687 36.4039 9.45452C35.9602 8.54851 35.0785 7.89679 34.0344 7.77468C33.9599 7.76593 33.8998 7.70671 33.8911 7.63218C33.7153 6.12413 32.4343 4.95359 30.8791 4.95359C30.4656 4.95359 30.0717 5.03687 29.7126 5.18687C29.6121 5.22882 29.501 5.16757 29.4826 5.06023C29.2797 3.88374 28.255 2.98859 27.0205 2.98859C25.8676 2.98859 24.8972 3.76929 24.6087 4.83085C24.5775 4.94577 24.4397 4.9903 24.3462 4.91648C23.9205 4.58015 23.3829 4.37921 22.7983 4.37921C21.8369 4.37921 21.0028 4.92234 20.5848 5.71835C20.5512 5.78234 20.4781 5.8157 20.4075 5.8007C20.2394 5.76491 20.0652 5.74593 19.8865 5.74593C18.5062 5.74593 17.3872 6.86491 17.3872 8.24515C17.3872 8.24546 17.3872 8.24577 17.3872 8.24609C17.3873 8.30367 17.3583 8.35655 17.31 8.38788C16.6228 8.8332 16.168 9.60655 16.168 10.4864C16.168 11.0373 16.3466 11.5463 16.6487 11.9594C16.7117 12.0455 16.6751 12.1704 16.5752 12.2084C15.8562 12.4826 15.2966 13.079 15.0729 13.8213C15.0512 13.8933 14.9824 13.9399 14.9073 13.9365C14.8655 13.9345 14.8235 13.9335 14.7812 13.9335C13.1058 13.9335 11.7477 15.2916 11.7477 16.967C11.7477 17.7569 12.0501 18.4759 12.545 19.0157C12.6186 19.0959 12.6003 19.2242 12.504 19.275C11.7104 19.6937 11.1694 20.5269 11.1694 21.4866C11.1694 21.612 11.1788 21.7351 11.1967 21.8555C11.2069 21.9241 11.1738 21.993 11.1125 22.0255C10.3215 22.4451 9.78271 23.2766 9.78271 24.2344C9.78271 24.6112 9.86662 24.9682 10.016 25.2885C10.0372 25.3339 10.0372 25.3855 10.016 25.4309C9.86662 25.7513 9.78271 26.1083 9.78271 26.4851C9.78271 27.6637 10.5987 28.6514 11.6965 28.9149C11.759 28.9299 11.8072 28.9776 11.8228 29.0399C12.0951 30.1252 13.0771 30.9288 14.2469 30.9288C14.8661 30.9288 15.4323 30.7032 15.8688 30.3302C15.933 30.2754 16.0282 30.2785 16.089 30.337C16.5382 30.7691 17.1483 31.0348 17.8208 31.0348C18.9186 31.0348 19.8507 30.327 20.1864 29.343C20.2272 29.2232 20.3863 29.1938 20.4676 29.291C20.8337 29.7291 21.3469 30.0397 21.9316 30.1469C21.9982 30.1591 22.0513 30.212 22.0635 30.2786C22.2769 31.4423 23.2956 32.3242 24.521 32.3242C25.5422 32.3242 26.4197 31.7114 26.8075 30.8337C26.834 30.7736 26.8955 30.7364 26.9612 30.7383C26.9808 30.7388 27.0005 30.7391 27.0202 30.7391C27.7317 30.7391 28.3737 30.4418 28.8289 29.9646C28.895 29.8953 29.004 29.8953 29.0701 29.9646C29.5253 30.4418 30.1673 30.7391 30.8788 30.7391C32.034 30.7391 33.0059 29.9553 33.2922 28.8905C33.3128 28.8142 33.3849 28.7629 33.4636 28.7698C33.5344 28.7759 33.6059 28.7792 33.6783 28.7792C34.6849 28.7792 35.552 28.1837 35.948 27.3261C35.9787 27.2596 36.0502 27.2226 36.1226 27.2339C36.6464 27.3154 37.2403 27.184 37.8331 26.6874C37.8452 26.6773 37.8563 26.6651 37.8654 26.6522C38.5269 25.7033 38.3656 24.7129 37.8015 24.0977C37.7426 24.0334 37.7426 23.9362 37.8015 23.872C38.109 23.5366 38.2969 23.0896 38.2969 22.5987C38.2969 22.5647 38.2958 22.531 38.294 22.4975C38.29 22.4262 38.3303 22.3592 38.3969 22.3336C39.3347 21.9732 40.0001 21.0648 40.0001 20.0005Z" fill="#FF9017"/>
<path d="M39.9998 20.0008C39.9998 21.0648 39.3345 21.9733 38.397 22.3334C38.3301 22.3591 38.2899 22.426 38.2939 22.4976C38.2963 22.5307 38.2971 22.5645 38.2971 22.5984C38.2971 23.0897 38.1094 23.5367 37.8018 23.8717C37.7429 23.9362 37.7429 24.0336 37.8018 24.0973C38.3656 24.7126 38.5275 25.7033 37.8654 26.6521C37.8565 26.665 37.8453 26.6771 37.8332 26.6876C37.2403 27.1837 36.6468 27.315 36.1224 27.2337C36.0499 27.2224 35.979 27.2594 35.9484 27.3263C35.5521 28.1841 34.6846 28.7794 33.6787 28.7794C33.6062 28.7794 33.5346 28.7762 33.4636 28.7697C33.3847 28.7632 33.313 28.814 33.2921 28.8905C33.0061 29.9552 32.0339 30.739 30.8789 30.739C30.1678 30.739 29.525 30.4418 29.07 29.9649C29.0039 29.8956 28.8952 29.8956 28.8291 29.9649C28.374 30.4417 27.7321 30.739 27.0201 30.739C27.0008 30.739 26.9807 30.739 26.9613 30.7382C26.8953 30.7366 26.834 30.7737 26.8075 30.8341C26.42 31.7112 25.5421 32.3241 24.5208 32.3241C23.4375 32.3241 22.5145 31.6339 22.1689 30.669C23.1282 30.615 23.9417 30.0198 24.3106 29.1837C24.3371 29.1234 24.3984 29.0863 24.4644 29.0879C24.4837 29.0887 24.5039 29.0887 24.5232 29.0887C25.2353 29.0887 25.8771 28.7915 26.3322 28.3146C26.3982 28.2453 26.507 28.2453 26.5731 28.3146C27.0282 28.7914 27.6709 29.0887 28.3821 29.0887C29.5371 29.0887 30.5093 28.305 30.7952 27.2401C30.8161 27.1644 30.8878 27.1129 30.9668 27.1194C31.0376 27.1258 31.1093 27.1291 31.1818 27.1291C32.1878 27.1291 33.0553 26.5338 33.4515 25.676C33.4821 25.6091 33.553 25.5721 33.6255 25.5834C34.1499 25.6655 34.7435 25.5334 35.3363 25.0373C35.3484 25.0268 35.3596 25.0147 35.3686 25.0018C36.0306 24.053 35.8687 23.0623 35.3049 22.4477C35.2461 22.3833 35.2461 22.2859 35.3049 22.2214C35.6125 21.8863 35.8002 21.4393 35.8002 20.948C35.8002 20.9142 35.7994 20.8804 35.797 20.8473C35.793 20.7756 35.8332 20.7088 35.9001 20.683C36.8377 20.323 37.5029 19.4144 37.5029 18.3505C37.5029 17.4556 37.0333 16.6719 36.327 16.2298C36.2464 16.1798 36.2239 16.0743 36.2771 15.9954C36.5525 15.5943 36.7144 15.1086 36.7144 14.5851C36.7144 14.1517 36.6041 13.7442 36.41 13.389C36.3729 13.3221 36.3874 13.2376 36.4446 13.1868C37.0809 12.631 37.4828 11.8143 37.4828 10.9034C37.4828 10.408 37.3644 9.94085 37.1533 9.52765C38.7328 9.63398 39.9796 10.9484 39.9796 12.5537C39.9796 13.4646 39.5778 14.2813 38.9414 14.8371C38.8843 14.8879 38.8698 14.9724 38.9068 15.0393C39.101 15.3945 39.2113 15.8012 39.2113 16.2345C39.2113 16.7589 39.0494 17.2445 38.7739 17.6456C38.7207 17.7237 38.7433 17.8301 38.8239 17.88C39.5302 18.3215 39.9998 19.1059 39.9998 20.0008Z" fill="#EF7D0A"/>
<path d="M17.0924 22.7197C17.4236 22.6794 17.6594 22.3782 17.6191 22.0471C17.5789 21.716 17.2782 21.4804 16.9464 21.5203C16.0157 21.6335 15.3506 22.4829 15.4637 23.4136C15.5186 23.8645 15.7457 24.2671 16.1032 24.5471C16.4055 24.7838 16.7703 24.909 17.1483 24.909C17.2175 24.909 17.2871 24.9048 17.357 24.8964C17.6882 24.8561 17.924 24.5549 17.8838 24.2238C17.8436 23.8926 17.5426 23.6571 17.2112 23.697C17.0806 23.7131 16.9518 23.677 16.8482 23.5959C16.7447 23.5148 16.6789 23.3982 16.6631 23.2678C16.6303 22.9983 16.8228 22.7525 17.0924 22.7197Z" fill="#DB6E0B"/>
<path d="M27.7036 13.4109C27.7167 13.4118 27.7298 13.4121 27.7427 13.4121C28.0588 13.4121 28.3245 13.1664 28.345 12.8467C28.3826 12.2606 28.1897 11.695 27.8018 11.254C27.4138 10.8131 26.8775 10.5496 26.2915 10.5121C25.6277 10.47 25.0145 10.7275 24.5823 11.1675C24.266 10.8671 23.8588 10.6878 23.4181 10.6596C22.9197 10.6278 22.4397 10.7917 22.0652 11.1211C21.6906 11.4506 21.4666 11.9063 21.4349 12.4041C21.4135 12.7371 21.6661 13.0243 21.9991 13.0456C22.332 13.066 22.6192 12.8142 22.6405 12.4814C22.6517 12.3055 22.7308 12.1446 22.8631 12.0283C22.9952 11.912 23.1648 11.8541 23.3408 11.8653C23.5166 11.8766 23.6775 11.9557 23.7939 12.0879C23.9102 12.2202 23.9681 12.3899 23.9569 12.5657C23.9422 12.7946 24.057 13.0018 24.2384 13.116C24.2501 13.1233 24.2624 13.1298 24.2746 13.1364C24.2796 13.1391 24.2843 13.1422 24.2894 13.1448C24.342 13.1711 24.3991 13.1901 24.4595 13.2002C24.4797 13.2036 24.5002 13.2059 24.5209 13.2072C24.5341 13.2081 24.5471 13.2085 24.5601 13.2085C24.5647 13.2085 24.5691 13.2079 24.5738 13.2078C24.5813 13.2077 24.5887 13.2072 24.5961 13.2068C24.6092 13.206 24.6222 13.2049 24.6351 13.2032C24.6413 13.2025 24.6475 13.2015 24.6538 13.2005C24.6673 13.1984 24.6809 13.1958 24.6942 13.1928C24.6998 13.1915 24.7052 13.1901 24.7107 13.1887C24.7243 13.1852 24.7377 13.1812 24.7509 13.1768C24.7559 13.1751 24.761 13.1734 24.7661 13.1715C24.7793 13.1667 24.7922 13.1614 24.805 13.1557C24.8099 13.1536 24.8148 13.1514 24.8195 13.1491C24.832 13.1432 24.8441 13.1368 24.8561 13.13C24.8609 13.1272 24.8658 13.1245 24.8706 13.1216C24.882 13.1147 24.8931 13.1074 24.9041 13.0998C24.909 13.0964 24.9138 13.0931 24.9187 13.0895C24.929 13.0818 24.939 13.0737 24.9488 13.0654C24.9537 13.0614 24.9586 13.0573 24.9634 13.0531C24.9726 13.0448 24.9813 13.036 24.9901 13.0272C24.9948 13.0224 24.9998 13.0176 25.0044 13.0126C25.0124 13.0039 25.02 12.9947 25.0275 12.9855C25.0321 12.9799 25.0369 12.9743 25.0413 12.9685C25.0483 12.9593 25.0547 12.9497 25.0612 12.9401C25.0655 12.9338 25.0698 12.9276 25.0739 12.9211C25.0798 12.9114 25.0852 12.9014 25.0906 12.8913C25.0944 12.8843 25.0984 12.8776 25.1019 12.8705C25.1069 12.8603 25.1112 12.8497 25.1156 12.8393C25.1188 12.8319 25.1222 12.8247 25.125 12.8172C25.1291 12.8062 25.1325 12.7948 25.136 12.7835C25.1383 12.776 25.141 12.7689 25.143 12.7614C25.1464 12.7486 25.1489 12.7356 25.1515 12.7225C25.1527 12.716 25.1545 12.7098 25.1556 12.7032C25.1589 12.6835 25.1613 12.6634 25.1626 12.6429C25.1975 12.0978 25.6712 11.6827 26.2143 11.7178C26.4784 11.7347 26.7199 11.8534 26.8946 12.0521C27.0694 12.2507 27.1563 12.5055 27.1394 12.7695C27.118 13.1023 27.3706 13.3896 27.7036 13.4109Z" fill="#DB6E0B"/>
<path d="M33.1812 21.7279C32.8479 21.7034 32.5586 21.9528 32.5339 22.2854C32.5092 22.6182 32.7588 22.9079 33.0915 22.9327C33.1589 22.9377 33.2258 22.9402 33.2923 22.9402C34.681 22.9401 35.8594 21.8648 35.9641 20.4579C36.0172 19.7436 35.789 19.0515 35.3215 18.509C34.854 17.9664 34.2033 17.6383 33.4892 17.5852C33.1563 17.5608 32.8667 17.8101 32.842 18.1429C32.8173 18.4756 33.0669 18.7654 33.3995 18.79C33.7919 18.8193 34.1495 18.9994 34.4063 19.2975C34.6631 19.5956 34.7884 19.9758 34.7592 20.3682C34.699 21.1782 33.9909 21.7882 33.1812 21.7279Z" fill="#DB6E0B"/>
</svg>
