<svg width="40" height="40" viewBox="0 0 40 40" fill="none" xmlns="http://www.w3.org/2000/svg">
<g clip-path="url(#clip0)">
<path d="M22.619 15.8809L32.0681 0.449602C32.3482 -0.00789773 32.9535 -0.138913 33.3978 0.161868L34.3117 0.78054C34.7344 1.06671 34.8517 1.63788 34.576 2.06765L24.8083 17.2911C24.521 17.7388 23.9199 17.8595 23.4821 17.5573L22.8869 17.1464C22.4757 16.8626 22.3582 16.3069 22.619 15.8809Z" fill="#E19974"/>
<path d="M24.7912 17.3177L34.5542 2.1018C34.8385 1.65875 35.431 1.53516 35.8687 1.82766L37.1153 2.6607C37.5551 2.95469 37.6662 3.55344 37.361 3.98555L26.9383 18.7445C26.6481 19.1555 26.0859 19.2654 25.6623 18.994L25.0755 18.618C24.6377 18.3374 24.5105 17.7552 24.7912 17.3177Z" fill="#E19974"/>
<path d="M34.5759 2.0677L24.8081 17.2911C24.5205 17.7385 23.9196 17.8598 23.4818 17.557L22.8865 17.1465C22.6897 17.0107 22.5603 16.8131 22.5073 16.597L22.5756 16.642C23.019 16.9368 23.6176 16.805 23.8971 16.3528L33.3934 0.958249C33.5316 0.733327 33.5645 0.473015 33.5043 0.234421L34.3116 0.780671C34.7342 1.06669 34.8515 1.63786 34.5759 2.0677Z" fill="#DC8758"/>
<path d="M37.3602 3.98533L26.9377 18.7443C26.6477 19.1556 26.0853 19.2657 25.662 18.9942L25.0747 18.6182C24.8698 18.4864 24.7325 18.2881 24.6738 18.0695C25.094 18.2937 25.6202 18.1667 25.8917 17.7683L36.0508 2.82603C36.2155 2.58424 36.2516 2.29345 36.1761 2.03314L37.1144 2.66056C37.5547 2.95463 37.6655 3.55306 37.3602 3.98533Z" fill="#DC8758"/>
<path d="M30.6299 20.0786C30.5166 19.4363 30.1857 18.8872 29.7264 18.4935C29.4039 18.217 29.2514 17.798 29.3207 17.3789C29.4194 16.782 29.32 16.1487 28.9939 15.5839C28.6678 15.019 28.169 14.6163 27.6027 14.4033C27.2051 14.2538 26.9185 13.9122 26.8403 13.4947C26.7289 12.9001 26.4189 12.339 25.9193 11.9197C25.4196 11.5005 24.8132 11.2926 24.2082 11.2862C23.7835 11.2817 23.3973 11.0587 23.1811 10.6932C22.873 10.1725 22.3898 9.75122 21.7769 9.52817C21.164 9.30513 20.5231 9.31716 19.9524 9.51802C19.5517 9.65903 19.1126 9.58161 18.7843 9.31208C18.3168 8.92817 17.7186 8.69755 17.0664 8.69755C16.4141 8.69755 15.816 8.92809 15.3484 9.31208C15.0201 9.58161 14.581 9.65911 14.1804 9.51802C13.6097 9.31716 12.9687 9.30505 12.3558 9.52817C11.7429 9.75122 11.2597 10.1725 10.9517 10.6932C10.7354 11.0588 10.3493 11.2817 9.92449 11.2862C9.31957 11.2926 8.71309 11.5005 8.21348 11.9197C7.71387 12.339 7.40379 12.9001 7.29246 13.4947C7.21426 13.9122 6.92762 14.2538 6.53004 14.4033C5.96379 14.6163 5.46504 15.019 5.13887 15.5839C4.81277 16.1487 4.71332 16.782 4.81207 17.3789C4.88137 17.7979 4.72887 18.217 4.40637 18.4935C3.94707 18.8872 3.61613 19.4363 3.50293 20.0786H30.6299Z" fill="#FEF1DA"/>
<path d="M29.7265 18.4933C29.4044 18.217 29.2518 17.7984 29.3208 17.3791C29.4196 16.7822 29.32 16.1492 28.9939 15.5836C28.6677 15.0188 28.1697 14.6163 27.6032 14.4035C27.2056 14.2541 26.9188 13.9127 26.8409 13.4949C26.7293 12.9005 26.4192 12.3389 25.9195 11.9195C25.4198 11.5002 24.8133 11.2929 24.2084 11.2865C23.7843 11.2817 23.3979 11.0592 23.1818 10.6928C22.8732 10.1723 22.3904 9.75134 21.7775 9.52798C21.1646 9.30548 20.5236 9.31751 19.9532 9.51837C19.5523 9.65892 19.1129 9.58181 18.7851 9.31189C18.3175 8.9279 17.7191 8.69736 17.0668 8.69736C16.4144 8.69736 15.8168 8.9279 15.3492 9.31189C15.3428 9.31751 15.3355 9.32236 15.3291 9.32798C15.3387 9.3272 15.3484 9.3272 15.358 9.3272C16.1292 9.3272 17.1255 9.80111 17.7349 10.2495C18.3161 10.677 18.849 10.8863 19.5753 10.7584C20.1059 10.6649 20.6787 10.6348 21.1968 10.8082C21.4535 10.8942 21.7064 11.0342 21.8904 11.2363C22.0793 11.444 22.173 11.7399 22.3564 11.9605C22.5544 12.1986 22.8333 12.3203 23.132 12.3761C23.3375 12.4145 23.5468 12.4071 23.7539 12.4291C24.2204 12.4785 24.6321 12.7706 24.9069 13.1377C25.1537 13.4673 25.2386 13.8801 25.2922 14.2797C25.3442 14.6666 25.5069 14.8866 25.8947 15.0326C26.4602 15.2455 26.9591 15.6488 27.2853 16.2135C27.6114 16.7783 27.7111 17.4113 27.6122 18.0082C27.5432 18.4276 27.6957 18.8461 28.0179 19.1233C28.3184 19.3812 28.5642 19.7049 28.7297 20.0785H30.6304C30.517 19.4364 30.1861 18.8869 29.7265 18.4933Z" fill="#FAE2C0"/>
<path d="M17.5748 35.282H10.7271L11.2334 39.4611C11.2706 39.7686 11.5316 39.9999 11.8413 39.9999H17.5747H22.292C22.6017 39.9999 22.8627 39.7686 22.8999 39.4611L23.4063 35.282H17.5748Z" fill="#554E56"/>
<path d="M23.4064 35.282L22.8995 39.4609C22.8625 39.7686 22.6014 40 22.2922 40H20.5537C20.8638 40 21.1249 39.7687 21.1618 39.4609L21.6687 35.282H23.4064Z" fill="#433F43"/>
<path d="M31.6622 20.275C31.6576 20.0786 31.4968 19.9224 31.3003 19.9224H17.5746H2.83269C2.63621 19.9224 2.47535 20.0786 2.47074 20.275C2.45894 20.7757 2.46824 21.7758 2.64777 23.0582C2.72465 23.6071 3.35199 24.2077 3.50301 24.843C3.63488 25.3979 3.28012 25.9793 3.48527 26.5757C3.95965 27.9551 4.6509 29.4152 5.65535 30.8155C11.485 38.9422 22.6479 38.9422 28.4776 30.8155C29.4821 29.4152 30.1733 27.9551 30.6477 26.5757C30.8222 26.0683 30.6993 25.5683 30.82 25.0898C30.9983 24.3822 31.3911 23.7172 31.4778 23.1104C31.6645 21.803 31.6742 20.7825 31.6622 20.275Z" fill="#7A6D79"/>
<path d="M28.4782 30.8154C25.3644 35.1558 20.7299 37.1779 16.1982 36.8814C20.1507 36.6236 24.0252 34.6015 26.7405 30.8154C29.8374 26.4974 29.9563 21.6098 29.925 20.2747C29.9201 20.0786 29.7595 19.922 29.5627 19.922H31.3004C31.4971 19.922 31.6579 20.0786 31.6627 20.2747C31.6744 20.7754 31.6652 21.7756 31.4857 23.058C31.3939 23.7136 31.021 24.3157 30.8203 25.0898C30.7061 25.53 30.8078 26.112 30.6482 26.5757C30.1739 27.9551 29.4827 29.4152 28.4782 30.8154Z" fill="#685E68"/>
<path d="M31.4775 23.1104C31.3325 24.1273 31.0802 25.3181 30.6476 26.5756H3.4852C3.0527 25.3181 2.80027 24.1273 2.65527 23.1104H31.4775Z" fill="#FD9468"/>
<path d="M31.4755 23.1102C31.3467 23.9658 31.1719 24.807 30.9397 25.6467C30.9188 25.7223 30.8963 25.7985 30.873 25.8757C30.804 26.1063 30.7292 26.3392 30.6481 26.5754H28.9097C29.3426 25.3174 29.5949 24.1269 29.7395 23.1106C29.7451 23.0711 31.3094 23.1124 31.4762 23.1058C31.4759 23.1072 31.4757 23.1087 31.4755 23.1102Z" fill="#FE7D43"/>
<path d="M17.3759 12.6267C17.8187 12.6267 18.1777 12.2678 18.1777 11.825C18.1777 11.3822 17.8187 11.0233 17.3759 11.0233C16.9332 11.0233 16.5742 11.3822 16.5742 11.825C16.5742 12.2678 16.9332 12.6267 17.3759 12.6267Z" fill="#FAE2C0"/>
<path d="M19.8779 15.1284C20.3207 15.1284 20.6796 14.7695 20.6796 14.3267C20.6796 13.8839 20.3207 13.525 19.8779 13.525C19.4351 13.525 19.0762 13.8839 19.0762 14.3267C19.0762 14.7695 19.4351 15.1284 19.8779 15.1284Z" fill="#FAE2C0"/>
<path d="M10.164 16.6208C10.6068 16.6208 10.9657 16.2619 10.9657 15.8191C10.9657 15.3763 10.6068 15.0174 10.164 15.0174C9.72125 15.0174 9.3623 15.3763 9.3623 15.8191C9.3623 16.2619 9.72125 16.6208 10.164 16.6208Z" fill="#FAE2C0"/>
<path d="M23.8647 17.4225C24.3075 17.4225 24.6664 17.0636 24.6664 16.6208C24.6664 16.178 24.3075 15.8191 23.8647 15.8191C23.4219 15.8191 23.063 16.178 23.063 16.6208C23.063 17.0636 23.4219 17.4225 23.8647 17.4225Z" fill="#FAE2C0"/>
</g>
<defs>
<clipPath id="clip0">
<rect width="40" height="40" fill="white"/>
</clipPath>
</defs>
</svg>
