<svg width="40" height="40" viewBox="0 0 40 40" fill="none" xmlns="http://www.w3.org/2000/svg">
<g clip-path="url(#clip0)">
<path d="M5.10398 0.496132C4.64796 0.780154 4.26978 1.17983 4.02173 1.66506C-0.631913 10.4214 1.23777 22.5294 9.39392 30.6062C17.47 38.7618 29.5769 40.6321 38.3336 35.9798C38.8189 35.7318 39.2186 35.3537 39.5027 34.8977C39.5137 34.8802 39.5245 34.8625 39.5355 34.8449C40.7067 32.92 39.5462 30.4705 37.3471 30.1606C30.489 29.2099 23.9611 25.8881 19.0473 20.9524C14.1117 16.0385 10.79 9.51063 9.83931 2.65265C9.52953 0.453717 7.08014 -0.706756 5.15524 0.46418C5.1381 0.474804 5.12096 0.485428 5.10398 0.496132Z" fill="#FFC736"/>
<path d="M39.8996 33.9902C39.824 34.2808 39.704 34.5681 39.5358 34.845C39.5246 34.8627 39.5141 34.8804 39.5028 34.8973C39.2187 35.3536 38.8187 35.7319 38.3334 35.9798C29.577 40.6325 17.47 38.762 9.39362 30.606C1.23755 22.5296 -0.632056 10.421 4.02223 1.66536C4.27012 1.18005 4.64839 0.780058 5.10391 0.495956C5.12082 0.485493 5.13852 0.47503 5.15542 0.464568C5.43228 0.29636 5.72041 0.175637 6.01095 0.0999832C1.90796 8.77597 3.91278 20.3735 11.8081 28.1915C19.6269 36.0876 31.2228 38.0924 39.8996 33.9902Z" fill="#FAAA0A"/>
<path d="M0.0326068 18.0982C1.58575 28.9826 11.0179 38.4146 21.9024 39.9678C22.8662 40.1183 23.7931 39.7315 24.3219 38.9849C26.7675 35.5432 29.2131 32.1013 31.6588 28.6596C32.6937 27.1744 32.0517 25.2503 30.4374 24.9466C22.7362 23.5534 16.4471 17.2644 15.0539 9.56326C14.7503 7.9491 12.8261 7.3071 11.3409 8.34194C7.8991 10.7876 4.45728 13.2331 1.01554 15.6787C0.268983 16.2076 -0.117895 17.1342 0.0326068 18.0982Z" fill="#FFDE5C"/>
<path d="M24.8746 38.2067C24.6903 38.4659 24.506 38.7258 24.3216 38.985C23.7929 39.7318 22.8657 40.1182 21.9024 39.9677C11.0179 38.4144 1.58541 28.9826 0.0321041 18.0982C-0.118398 17.134 0.268722 16.2077 1.0156 15.6789C1.27475 15.4946 1.5339 15.3103 1.79306 15.1268C1.62485 15.5421 1.5669 16.0105 1.64175 16.4886C3.19506 27.373 12.6276 36.8047 23.512 38.358C23.9901 38.4329 24.4585 38.3749 24.8746 38.2067Z" fill="#FFC736"/>
<path d="M1.21711 26.7013C2.84857 32.4005 7.59992 37.1519 13.2992 38.7832C14.7302 39.2024 16.1942 38.7113 17.0459 37.6152C20.4104 33.3115 23.775 29.0078 27.1395 24.7041C28.0984 23.4547 27.7645 21.821 26.4879 21.4963C22.5654 20.5087 19.4916 17.435 18.5041 13.5125C18.1795 12.236 16.5457 11.9022 15.2963 12.8609C10.9926 16.2254 6.68878 19.59 2.38507 22.9545C1.28906 23.8063 0.797879 25.2703 1.21711 26.7013Z" fill="#FFC736"/>
<path d="M17.6081 36.8973C17.4206 37.1363 17.2331 37.3761 17.0463 37.6152C16.194 38.7113 14.7301 39.2023 13.2991 38.783C7.60013 37.1516 2.84846 32.4007 1.21708 26.701C0.797771 25.27 1.28952 23.806 2.38488 22.9545C2.62391 22.7678 2.86375 22.5803 3.10278 22.3935C2.67059 23.1831 2.54906 24.144 2.82673 25.0913C4.4581 30.7911 9.20978 35.5419 14.9087 37.1733C15.8568 37.451 16.8186 37.3294 17.6081 36.8973Z" fill="#FAAA0A"/>
<path d="M2.30751 29.8593C1.34542 30.4094 1.10382 31.6853 1.76603 32.6752C2.40135 33.6249 3.2271 34.6841 4.28906 35.7437C5.33718 36.7895 6.38386 37.6046 7.32389 38.2336C8.31294 38.8954 9.5881 38.653 10.1384 37.692C10.8548 36.4409 11.8935 34.627 12.9548 32.7731C14.0468 30.8657 15.1145 29.0004 15.8329 27.7451C16.2945 26.9385 16.0986 25.8682 15.3567 25.1951C15.1641 25.0204 14.9802 24.8365 14.8054 24.6439C14.1321 23.9019 13.0619 23.7059 12.2553 24.1677C11.0116 24.8797 9.16621 25.936 7.22707 27.0454C5.34314 28.1233 3.54734 29.1504 2.30751 29.8593Z" fill="#FFDE5C"/>
<path d="M10.5631 36.9504C10.4118 37.2144 10.2694 37.4631 10.1382 37.6924C9.58767 38.6534 8.31283 38.8956 7.32371 38.2333C6.38368 37.6047 5.33741 36.7894 4.28872 35.744C3.22716 34.684 2.40141 33.6249 1.7656 32.6752C1.10404 31.6853 1.34549 30.4096 2.30725 29.8591C2.53662 29.7279 2.78451 29.5863 3.0493 29.435C2.93179 29.9613 3.03239 30.5521 3.37525 31.0655C4.01106 32.0152 4.83681 33.0744 5.89837 34.1343C6.94705 35.1798 7.99332 35.9951 8.93335 36.6236C9.44683 36.9673 10.0376 37.0679 10.5631 36.9504Z" fill="#FFC736"/>
</g>
<defs>
<clipPath id="clip0">
<rect width="40" height="40" fill="white"/>
</clipPath>
</defs>
</svg>
