<svg width="40" height="40" viewBox="0 0 40 40" fill="none" xmlns="http://www.w3.org/2000/svg">
<g clip-path="url(#clip0)">
<path d="M16.2715 7.79662V8.18984C16.4432 11.3673 17.5284 14.4276 19.3969 17.0034L32.563 20.0949C34.1433 19.5468 35.5431 18.576 36.6105 17.2882C40.0003 13.2204 39.3223 7.79662 39.3223 7.79662H16.2715Z" fill="#A56A43"/>
<path d="M21.2071 13.8983C18.624 12.7322 16.2715 10.6102 16.2715 7.79663C16.2715 3.6746 21.4308 0.339005 27.7969 0.339005C34.163 0.339005 39.3223 3.6746 39.3223 7.79663C39.3223 11.4983 35.1528 14.5763 29.6817 15.139L21.2071 13.8983Z" fill="#CB8252"/>
<path d="M36.6105 7.7966C36.6098 8.16012 36.536 8.51979 36.3936 8.85422C33.4444 4.74575 22.1563 4.73897 19.2003 8.85422C19.0579 8.51979 18.9841 8.16012 18.9834 7.7966C18.9834 5.17287 22.9292 3.05083 27.797 3.05083C32.6648 3.05083 36.6105 5.17287 36.6105 7.7966Z" fill="#805333"/>
<path d="M36.3934 8.85425C35.5256 10.8882 32.19 12.4407 28.1629 12.5288L22.5493 11.6068C20.8883 10.9288 19.6748 9.9729 19.2002 8.85425C22.1493 4.74578 33.4375 4.739 36.3934 8.85425Z" fill="#C03A2B"/>
<path d="M23.051 34.2373H37.3425C38.0779 34.2068 38.7421 33.7889 39.0879 33.1391C39.4338 32.4894 39.4094 31.705 39.0239 31.078L26.7662 10.1424C26.4335 9.51507 25.7814 9.12286 25.0713 9.12286C24.3612 9.12286 23.7092 9.51507 23.3764 10.1424L18.0747 19.2474L23.051 34.2373Z" fill="#F0C419"/>
<path d="M26.4951 39.661H1.97985C1.24442 39.6305 0.580213 39.2127 0.23441 38.5629C-0.111392 37.9131 -0.0870054 37.1287 0.298495 36.5017L12.5561 15.5661C12.8889 14.9388 13.5409 14.5466 14.251 14.5466C14.9611 14.5466 15.6132 14.9388 15.946 15.5661L28.1765 36.5017C28.562 37.1287 28.5863 37.9131 28.2405 38.5629C27.8947 39.2127 27.2305 39.6305 26.4951 39.661Z" fill="#F0C419"/>
<path d="M26.4951 39.661H23.729C17.0307 32.4068 16.7663 21.0237 16.8883 17.2203L28.1764 36.5017C28.5619 37.1287 28.5863 37.9131 28.2405 38.5629C27.8947 39.2126 27.2305 39.6305 26.4951 39.661Z" fill="#F29C1F"/>
<path d="M37.3427 34.2373H34.5766C27.8783 26.9831 27.6139 15.6 27.736 11.7966L39.0241 31.078C39.4096 31.705 39.434 32.4894 39.0882 33.1391C38.7424 33.7889 38.0782 34.2068 37.3427 34.2373Z" fill="#F29C1F"/>
</g>
<defs>
<clipPath id="clip0">
<rect width="40" height="40" fill="white"/>
</clipPath>
</defs>
</svg>
