<svg width="40" height="40" viewBox="0 0 40 40" fill="none" xmlns="http://www.w3.org/2000/svg">
<g clip-path="url(#clip0)">
<path d="M36.0592 33.8736L36.0042 33.2489C35.6052 28.7482 31.845 25.2907 27.3269 25.2699C27.276 25.2699 27.2258 25.2753 27.1742 25.276C25.2038 23.5071 22.6373 22.5482 19.99 22.5917C17.3741 22.5917 14.8486 23.5505 12.8928 25.288C12.8024 25.2846 12.7133 25.2699 12.625 25.2699C8.09755 25.296 4.33606 28.7683 3.94902 33.2797L3.9209 34.0329L4.59043 34.0577V34.6436H35.3896V33.9325L36.0592 33.8736Z" fill="#FCAC2B"/>
<path d="M36.0016 33.2489C35.6025 28.7489 31.8444 25.2921 27.327 25.2699C27.2761 25.2699 27.2259 25.2753 27.1743 25.276C25.2038 23.5071 22.6374 22.5482 19.9901 22.5917C17.3741 22.5917 14.8487 23.5505 12.8929 25.288C12.8025 25.2846 12.7134 25.2699 12.6251 25.2699C8.09755 25.296 4.33606 28.7683 3.94902 33.2797L3.9209 34.0329L5.25996 34.0825L5.28543 33.36C5.62285 29.553 8.80255 26.6278 12.625 26.609C13.4331 26.6137 14.2346 26.7523 14.9972 27.0188C14.5955 27.3402 14.2258 27.6984 13.8924 28.09C10.6551 27.3783 7.45403 29.4251 6.74231 32.6624C6.69879 32.8612 6.66465 33.0628 6.64184 33.265L6.60036 33.9345L7.93942 34.0175L7.97692 33.3902C8.29763 30.8218 10.6404 28.9999 13.2087 29.3207C15.3365 29.5864 17.0124 31.2624 17.2783 33.3902L17.3178 33.3848L17.3573 34.0175L18.6964 33.9345L18.6508 33.3044C18.6408 32.5646 19.2313 31.9566 19.9712 31.9466C20.711 31.9365 21.319 32.5271 21.329 33.2669L21.2513 33.8909L22.5797 34.0569L22.6634 33.3874C22.6667 33.36 22.6687 33.3318 22.668 33.3043C22.668 31.8253 21.4689 30.6261 19.9898 30.6261C19.2714 30.6254 18.5831 30.9174 18.0837 31.4336C17.8908 31.0178 17.6512 30.6248 17.3693 30.2632C18.0958 29.6312 19.0271 29.2843 19.9899 29.2871C22.2074 29.2891 24.0052 31.0868 24.0072 33.3043H24.0641L24.0493 33.83L25.3884 33.8668L25.4011 33.4034C25.7145 32.3395 26.8313 31.7309 27.8959 32.0443C28.5667 32.2418 29.0863 32.7747 29.2677 33.4503L29.3802 33.9525L30.6872 33.6605L30.57 33.1376C30.1147 31.3519 28.2976 30.2739 26.5126 30.7293C25.9616 30.8699 25.4554 31.149 25.0423 31.5407C24.8909 31.1035 24.6841 30.6884 24.4256 30.3047C26.447 28.6971 29.3883 29.0326 30.9959 31.0532C31.5275 31.7221 31.8663 32.5236 31.9748 33.3712L32.0417 34.0407L33.3808 33.9068L33.3099 33.2225C33.0186 30.9414 31.4545 29.0238 29.2785 28.2799C29.0475 27.7242 28.757 27.1939 28.4134 26.6998C31.7846 27.216 34.3678 29.9678 34.6703 33.3651L34.7259 33.9925L36.0589 33.8732L36.0016 33.2489ZM19.9901 27.9481C18.6751 27.9454 17.4063 28.4308 16.4287 29.3106C16.0732 29.018 15.6862 28.7676 15.2737 28.5627C17.8709 25.9608 22.085 25.9568 24.6869 28.554C24.6895 28.5567 24.6929 28.56 24.6955 28.5627C24.2831 28.7635 23.8948 29.0106 23.5379 29.2992C22.5618 28.4282 21.2984 27.9474 19.9901 27.9481ZM27.327 27.9481C26.9071 27.9488 26.4881 27.9936 26.0776 28.082C23.6826 25.2665 19.668 24.4631 16.3745 26.1403C15.8569 25.8885 15.3153 25.6883 14.7583 25.5437C16.3015 24.4952 18.1241 23.9335 19.9901 23.9307C23.3117 23.9307 26.1974 25.4861 27.627 27.9621C27.5271 27.9568 27.4281 27.9481 27.327 27.9481Z" fill="#FA962A"/>
<path d="M12.6251 30.6263C11.0905 30.627 9.75279 31.6708 9.37787 33.1585L9.21045 33.9117L10.5174 34.2036L10.6801 33.4711C10.9553 32.3965 12.0494 31.7484 13.124 32.0235C13.843 32.2077 14.4015 32.7728 14.5776 33.4939L14.7878 34.2056L16.0713 33.826L15.8705 33.1377C15.4887 31.6581 14.1537 30.6242 12.6251 30.6263Z" fill="#FA962A"/>
<path d="M0.573242 33.3045H39.407C39.407 37.0024 36.4094 40 32.7115 40H7.26872C3.57083 40 0.573242 37.0024 0.573242 33.3045Z" fill="#E5E5E5"/>
<path d="M28.7363 33.3045C25.1207 36.6697 20.367 38.7339 15.895 40H32.7114C36.4093 40 39.4069 37.0024 39.4069 33.3045H28.7363Z" fill="#DEDEDE"/>
<path d="M9.22798 24.5796C8.4654 22.9835 8.5343 21.1147 9.41141 19.5788C10.1205 18.3314 10.1205 16.8035 9.41141 15.5561C8.46868 13.897 8.46868 11.8642 9.41141 10.2051C9.65313 9.61585 9.83728 9.00523 9.96181 8.38124L11.2688 8.67585C11.1168 9.43109 10.8845 10.1683 10.5751 10.8746C9.86673 12.122 9.86673 13.6492 10.5751 14.8966C11.5192 16.555 11.5192 18.5892 10.5751 20.2476C9.91626 21.4019 9.86399 22.8053 10.4365 24.0051L9.22798 24.5796Z" fill="#FA962A"/>
<path d="M36.4399 2.59236L16.6428 3.17486L15.4189 1.95095C14.9167 1.44876 14.2351 1.16626 13.5247 1.16626H7.31596C6.96713 1.78228 6.76088 2.46853 6.71338 3.17494H11.956V4.514H6.81111C6.91018 4.98338 7.08025 5.43533 7.31596 5.85307H11.9559V7.19213H7.82346C7.96604 7.85432 7.96604 8.53862 7.82346 9.20081H13.526C14.2364 9.20081 14.9179 8.91823 15.4201 8.41612L16.6427 7.19221L36.3555 8.3519C37.9443 8.45565 39.3169 7.25252 39.4206 5.66369C39.5244 4.07486 38.3213 2.70228 36.7324 2.59853C36.6353 2.59181 36.5376 2.59048 36.4398 2.59454V2.59236H36.4399Z" fill="#E5E5E5"/>
<path d="M3.9211 3.17489H2.58203V4.51395H3.9211V3.17489Z" fill="#E5E5E5"/>
<path d="M4.59071 5.85299H2.58203V7.19205H4.59071V5.85299Z" fill="#E5E5E5"/>
<path d="M5.26024 8.5312H2.58203V9.87026H5.26024V8.5312Z" fill="#E5E5E5"/>
<path d="M4.54383 0.496689H2.58203V1.83575H4.54383V0.496689Z" fill="#E5E5E5"/>
<path d="M4.46259 26.2917C4.40236 26.1249 4.35275 25.9703 4.30392 25.8196C4.2115 25.5049 4.09236 25.1983 3.94705 24.9044C3.01306 23.2473 3.02173 21.2206 3.96845 19.5708C4.68486 18.3288 4.68283 16.7982 3.96174 15.5588C3.01838 13.8997 3.01838 11.8669 3.96174 10.2078C4.68283 8.9678 4.68486 7.43654 3.96713 6.19451C3.01767 4.53333 3.01572 2.49458 3.96244 0.831451L4.21556 0.356059C4.389 0.02934 4.79408 -0.0951915 5.1208 0.0781682C5.44752 0.251606 5.57142 0.656685 5.39799 0.983404L5.13486 1.4802C4.41908 2.73028 4.4158 4.26482 5.12619 5.51826C6.06892 7.1774 6.06892 9.21014 5.12619 10.8693C4.40775 12.114 4.40775 13.6473 5.12619 14.8919C6.06892 16.5511 6.06892 18.5838 5.12619 20.243C4.41713 21.4903 4.41713 23.0182 5.12619 24.2656C5.31033 24.6312 5.46228 25.0122 5.58017 25.4038C5.62439 25.5378 5.66924 25.6817 5.72416 25.8337L4.46259 26.2917Z" fill="#FCAC2B"/>
<path d="M6.97588 25.4307C6.9069 25.26 6.82588 25.0932 6.73486 24.9332C5.7915 23.274 5.7915 21.2406 6.73486 19.5815C7.4533 18.3368 7.4533 16.8035 6.73486 15.5588C5.7915 13.8997 5.7915 11.867 6.73486 10.2078C7.44393 8.96047 7.44393 7.43257 6.73486 6.18515C5.829 4.51866 5.81291 2.50936 6.69268 0.82881L6.83861 0.553653C7.01205 0.226934 7.41713 0.103027 7.74385 0.276465C8.07057 0.449903 8.19448 0.854982 8.02104 1.1817L7.86033 1.48303C7.20354 2.76053 7.22088 4.28038 7.90784 5.54249C8.84323 7.19757 8.83916 9.22297 7.89713 10.8748C7.17869 12.1195 7.17869 13.6527 7.89713 14.8974C8.8412 16.5566 8.8412 18.5893 7.89713 20.2485C7.18877 21.4958 7.18877 23.0237 7.89713 24.2711C8.01963 24.484 8.12682 24.705 8.21784 24.9326L6.97588 25.4307Z" fill="#FCAC2B"/>
<path d="M36.3552 8.35181C37.942 8.45361 39.3106 7.2497 39.413 5.6629C39.5054 4.22203 38.5165 2.93516 37.0997 2.65461C32.8789 4.72024 28.4733 6.38337 23.9404 7.62134L36.3552 8.35181Z" fill="#DEDEDE"/>
</g>
<defs>
<clipPath id="clip0">
<rect width="40" height="40" fill="white"/>
</clipPath>
</defs>
</svg>
