<svg width="40" height="32" viewBox="0 0 40 32" fill="none" xmlns="http://www.w3.org/2000/svg">
<path d="M34.2164 16.0115H14.6504C12.5661 16.0115 10.8765 14.3218 10.8765 12.2375V6.37508C10.8765 4.29077 12.5661 2.60112 14.6504 2.60112H34.2164C36.3007 2.60112 37.9903 4.29077 37.9903 6.37508V12.2375C37.9903 14.3218 36.3007 16.0115 34.2164 16.0115Z" fill="url(#paint0_linear)"/>
<path opacity="0.5" d="M34.2164 2.60112H14.6504C12.5661 2.60112 10.8765 4.29077 10.8765 6.37508V9.56277L17.3252 16.0115H34.2164C36.3007 16.0115 37.9903 14.3218 37.9903 12.2375V6.37508C37.9903 4.29077 36.3007 2.60112 34.2164 2.60112Z" fill="url(#paint1_linear)"/>
<path opacity="0.5" d="M34.2165 2.60112H25.8809V16.0115H34.2165C36.3008 16.0115 37.9905 14.3218 37.9905 12.2375V6.37508C37.9905 4.29077 36.3008 2.60112 34.2165 2.60112Z" fill="url(#paint2_linear)"/>
<path d="M9.91457 8.82973C10.189 9.39138 10.8407 9.6564 11.4298 9.44714C14.9982 8.17969 19.6448 7.41318 24.7265 7.41318C29.8081 7.41318 34.4549 8.17969 38.0232 9.44714C38.6123 9.6564 39.264 9.39138 39.5384 8.82973C40.7564 6.33687 39.4657 3.33318 36.8111 2.52628C33.4303 1.49867 29.2507 0.89122 24.7265 0.89122C20.2023 0.89122 16.0226 1.49867 12.6419 2.52628C9.98727 3.33318 8.69653 6.33679 9.91457 8.82973Z" fill="url(#paint3_linear)"/>
<path d="M39.0001 4.00482C39.0802 4.80929 38.9465 5.64804 38.5616 6.43596C38.2871 6.9976 37.6354 7.26262 37.0463 7.05337C33.478 5.78592 28.8313 5.01941 23.7496 5.01941C18.668 5.01941 14.0212 5.78592 10.4529 7.05337C10.1134 7.17399 9.75348 7.13627 9.45654 6.9758C9.47458 7.59823 9.62109 8.22882 9.91474 8.82976C10.1892 9.3914 10.8409 9.65642 11.43 9.44717C14.9983 8.17972 19.645 7.41321 24.7267 7.41321C29.8083 7.41321 34.4551 8.17972 38.0234 9.44717C38.6125 9.65642 39.2641 9.3914 39.5386 8.82976C40.3426 7.18427 40.053 5.31666 39.0001 4.00482Z" fill="url(#paint4_linear)"/>
<path d="M14.5597 5.67658C14.4775 5.68889 14.3911 5.67313 14.3192 5.62622C14.1733 5.53101 14.1425 5.34356 14.2506 5.2074C14.3189 5.12136 15.9574 3.08497 18.9284 1.81728C19.0946 1.74622 19.289 1.81046 19.3621 1.96081C19.4353 2.11109 19.3596 2.29046 19.1932 2.36152C16.3891 3.55807 14.7954 5.5325 14.7796 5.55234C14.7246 5.62136 14.6444 5.66387 14.5597 5.67658Z" fill="url(#paint5_linear)"/>
<path d="M18.4284 5.06651C18.3459 5.07608 18.26 5.05741 18.1897 5.00808C18.0471 4.908 18.0226 4.71968 18.1352 4.58721C18.2064 4.50353 19.9122 2.52329 22.9242 1.356C23.0926 1.29051 23.2848 1.36125 23.3528 1.51396C23.4209 1.66659 23.3392 1.84337 23.1705 1.90878C20.3278 3.01051 18.6687 4.93035 18.6523 4.94957C18.595 5.01686 18.5135 5.0567 18.4284 5.06651Z" fill="url(#paint6_linear)"/>
<path d="M22.2523 4.65683C22.1693 4.66138 22.0848 4.63753 22.0176 4.58404C21.8813 4.47549 21.8683 4.286 21.9888 4.16059C22.0648 4.08138 23.8878 2.20836 26.965 1.226C27.1372 1.17095 27.3246 1.25314 27.3833 1.40969C27.4419 1.56616 27.3497 1.73769 27.1773 1.79267C24.273 2.71981 22.5004 4.53542 22.4829 4.55361C22.4216 4.61738 22.3378 4.6522 22.2523 4.65683Z" fill="url(#paint7_linear)"/>
<path d="M26.0944 4.79068C26.0113 4.79068 25.9281 4.76229 25.864 4.70527C25.7339 4.58942 25.7312 4.39954 25.8582 4.28087C25.9386 4.20589 27.8608 2.43491 30.9869 1.6215C31.1618 1.57586 31.3445 1.66817 31.3946 1.8277C31.4446 1.98715 31.3432 2.15335 31.1681 2.19891C28.2176 2.9666 26.3489 4.68299 26.3303 4.70025C26.2657 4.76048 26.18 4.79068 26.0944 4.79068Z" fill="url(#paint8_linear)"/>
<path d="M30.0275 5.32483C29.9444 5.32483 29.8612 5.29644 29.7972 5.23942C29.667 5.12357 29.6643 4.93369 29.7913 4.81502C29.8717 4.74004 31.7939 2.96906 34.92 2.15565C35.0949 2.11 35.2776 2.20232 35.3277 2.36185C35.3777 2.5213 35.2763 2.6875 35.1012 2.73306C32.1507 3.50075 30.282 5.21714 30.2634 5.2344C30.1988 5.29463 30.1132 5.32483 30.0275 5.32483Z" fill="url(#paint9_linear)"/>
<path d="M25.8809 7.42707C28.891 7.49633 31.7263 7.83468 34.2477 8.38488L26.797 0.93421C26.4936 0.921583 26.1881 0.911936 25.8809 0.904877V7.42707Z" fill="url(#paint10_linear)"/>
<path d="M22.9431 16.1703H26.5099C26.6885 16.1703 26.8333 16.0255 26.8333 15.847V1.08891C26.8333 0.91518 26.6962 0.771807 26.5227 0.765376C25.9308 0.743651 25.3318 0.732513 24.7264 0.732513C24.1212 0.732513 23.5221 0.743651 22.9302 0.765376C22.7566 0.771729 22.6196 0.91518 22.6196 1.08891V15.847C22.6196 16.0255 22.7644 16.1703 22.9431 16.1703Z" fill="url(#paint11_linear)"/>
<path opacity="0.5" d="M33.8867 16.009H34.2262C35.4606 16.009 36.5564 15.4162 37.245 14.5L33.8867 11.1417V16.009Z" fill="url(#paint12_linear)"/>
<path d="M29.4898 23.5601H9.92386C7.83955 23.5601 6.1499 21.8705 6.1499 19.7861V13.9237C6.1499 11.8394 7.83955 10.1497 9.92386 10.1497H29.4898C31.5741 10.1497 33.2638 11.8394 33.2638 13.9237V19.7861C33.2638 21.8704 31.5741 23.5601 29.4898 23.5601Z" fill="url(#paint13_linear)"/>
<path opacity="0.5" d="M29.4898 10.1498H9.92386C7.83955 10.1498 6.1499 11.8394 6.1499 13.9237V17.1114L12.5986 23.5601H29.4898C31.5741 23.5601 33.2638 21.8705 33.2638 19.7862V13.9237C33.2638 11.8394 31.5741 10.1498 29.4898 10.1498Z" fill="url(#paint14_linear)"/>
<path opacity="0.5" d="M29.49 10.1498H21.1543V23.5601H29.49C31.5743 23.5601 33.264 21.8705 33.264 19.7862V13.9237C33.264 11.8394 31.5742 10.1498 29.49 10.1498Z" fill="url(#paint15_linear)"/>
<path d="M5.18804 16.3784C5.46247 16.94 6.11415 17.205 6.70325 16.9958C10.2716 15.7283 14.9183 14.9618 20 14.9618C25.0816 14.9618 29.7284 15.7283 33.2967 16.9958C33.8858 17.205 34.5374 16.94 34.8119 16.3784C36.0299 13.8854 34.7392 10.8818 32.0846 10.0749C28.7039 9.04732 24.5242 8.43987 20 8.43987C15.4757 8.43987 11.2961 9.04732 7.91533 10.0749C5.26074 10.8819 3.96992 13.8855 5.18804 16.3784Z" fill="url(#paint16_linear)"/>
<path d="M34.2736 11.5533C34.3537 12.3578 34.2199 13.1966 33.835 13.9845C33.5606 14.5461 32.9089 14.8112 32.3198 14.6019C28.7515 13.3344 24.1048 12.5679 19.0231 12.5679C13.9414 12.5679 9.29469 13.3344 5.72637 14.6019C5.38684 14.7225 5.02692 14.6848 4.72998 14.5243C4.74802 15.1468 4.89453 15.7774 5.18818 16.3783C5.46261 16.9399 6.11429 17.205 6.70339 16.9957C10.2717 15.7283 14.9185 14.9617 20.0001 14.9617C25.0817 14.9617 29.7285 15.7283 33.2968 16.9957C33.8859 17.205 34.5376 16.9399 34.812 16.3783C35.616 14.7328 35.3265 12.8653 34.2736 11.5533Z" fill="url(#paint17_linear)"/>
<path d="M9.83266 13.2251C9.75046 13.2374 9.66403 13.2217 9.59219 13.1748C9.44622 13.0795 9.41548 12.8921 9.52356 12.7559C9.59187 12.6699 11.2303 10.6335 14.2014 9.36582C14.3676 9.29476 14.562 9.359 14.6351 9.50935C14.7083 9.65962 14.6326 9.839 14.4661 9.91006C11.6621 11.1066 10.0683 13.081 10.0526 13.1009C9.9976 13.1699 9.91744 13.2124 9.83266 13.2251Z" fill="url(#paint18_linear)"/>
<path d="M13.7013 12.6151C13.6188 12.6247 13.5329 12.606 13.4627 12.5568C13.32 12.4567 13.2955 12.2684 13.4082 12.1359C13.4793 12.0522 15.1852 10.072 18.1971 8.90469C18.3656 8.83928 18.5577 8.90994 18.6257 9.06265C18.6938 9.21527 18.6122 9.39206 18.4435 9.45747C15.6008 10.5592 13.9417 12.479 13.9253 12.4983C13.868 12.5654 13.7864 12.6052 13.7013 12.6151Z" fill="url(#paint19_linear)"/>
<path d="M17.5252 12.2055C17.4423 12.21 17.3577 12.1862 17.2906 12.1327C17.1543 12.0241 17.1412 11.8346 17.2617 11.7092C17.3378 11.63 19.1608 9.75699 22.2379 8.77463C22.4101 8.71957 22.5976 8.80177 22.6562 8.95832C22.7149 9.11479 22.6226 9.28632 22.4503 9.3413C19.546 10.2684 17.7735 12.084 17.7559 12.1022C17.6946 12.1659 17.6108 12.2008 17.5252 12.2055Z" fill="url(#paint20_linear)"/>
<path d="M21.3678 12.3392C21.2848 12.3392 21.2016 12.3108 21.1375 12.2538C21.0073 12.138 21.0046 11.9481 21.1317 11.8294C21.212 11.7544 23.1342 9.98345 26.2603 9.17004C26.4352 9.12439 26.618 9.21671 26.668 9.37624C26.718 9.53569 26.6166 9.70188 26.4416 9.74745C23.4911 10.5151 21.6223 12.2315 21.6038 12.2488C21.5391 12.309 21.4535 12.3392 21.3678 12.3392Z" fill="url(#paint21_linear)"/>
<path d="M25.3005 12.8735C25.2174 12.8735 25.1342 12.8451 25.0701 12.7881C24.9399 12.6722 24.9372 12.4823 25.0643 12.3637C25.1446 12.2887 27.0668 10.5177 30.1929 9.7043C30.3678 9.65865 30.5506 9.75096 30.6006 9.91049C30.6506 10.0699 30.5492 10.2361 30.3742 10.2817C27.4237 11.0494 25.555 12.7658 25.5364 12.783C25.4717 12.8433 25.3861 12.8735 25.3005 12.8735Z" fill="url(#paint22_linear)"/>
<path d="M21.1543 14.9756C24.1644 15.0448 26.9996 15.3832 29.5211 15.9334L22.0705 8.48273C21.767 8.4701 21.4615 8.46054 21.1543 8.4534V14.9756Z" fill="url(#paint23_linear)"/>
<path d="M18.2164 23.7189H21.7833C21.9618 23.7189 22.1067 23.5741 22.1067 23.3955V8.63747C22.1067 8.46375 21.9697 8.32037 21.7961 8.31402C21.2043 8.2923 20.6052 8.28116 19.9999 8.28116C19.3946 8.28116 18.7955 8.2923 18.2037 8.31402C18.0301 8.32037 17.8931 8.46383 17.8931 8.63747V23.3955C17.8931 23.5741 18.0379 23.7189 18.2164 23.7189Z" fill="url(#paint24_linear)"/>
<path opacity="0.5" d="M29.1504 23.5601H29.4899C30.7243 23.5601 31.8201 22.9673 32.5087 22.0511L29.1504 18.6928V23.5601Z" fill="url(#paint25_linear)"/>
<path d="M24.7633 31.1086H5.1973C3.11299 31.1086 1.42334 29.419 1.42334 27.3347V21.4722C1.42334 19.3879 3.11299 17.6983 5.1973 17.6983H24.7633C26.8476 17.6983 28.5372 19.3879 28.5372 21.4722V27.3347C28.5372 29.419 26.8476 31.1086 24.7633 31.1086Z" fill="url(#paint26_linear)"/>
<path opacity="0.5" d="M24.7633 17.6983H5.1973C3.11299 17.6983 1.42334 19.3879 1.42334 21.4722V24.6599L7.87205 31.1086H24.7633C26.8476 31.1086 28.5372 29.419 28.5372 27.3347V21.4722C28.5372 19.3879 26.8476 17.6983 24.7633 17.6983Z" fill="url(#paint27_linear)"/>
<path opacity="0.5" d="M24.7629 17.6983H16.4272V31.1086H24.7629C26.8472 31.1086 28.5369 29.419 28.5369 27.3347V21.4722C28.5369 19.3879 26.8472 17.6983 24.7629 17.6983Z" fill="url(#paint28_linear)"/>
<path d="M0.461486 23.9269C0.735917 24.4885 1.3876 24.7536 1.9767 24.5443C5.54502 23.2768 10.1917 22.5103 15.2734 22.5103C20.3551 22.5103 25.0018 23.2768 28.5701 24.5443C29.1592 24.7536 29.8109 24.4885 30.0853 23.9269C31.3034 21.434 30.0126 18.4303 27.358 17.6234C23.9773 16.5958 19.7976 15.9884 15.2734 15.9884C10.7493 15.9884 6.56956 16.5958 3.18878 17.6234C0.534114 18.4303 -0.756632 21.4339 0.461486 23.9269Z" fill="url(#paint29_linear)"/>
<path d="M29.547 19.1019C29.6271 19.9063 29.4934 20.7451 29.1084 21.533C28.834 22.0946 28.1823 22.3597 27.5932 22.1504C24.0249 20.883 19.3782 20.1164 14.2965 20.1164C9.21479 20.1164 4.56812 20.883 0.99981 22.1504C0.660281 22.271 0.300359 22.2333 0.00341797 22.0728C0.0214572 22.6953 0.167967 23.3259 0.461614 23.9268C0.736045 24.4884 1.38773 24.7535 1.97683 24.5442C5.54514 23.2768 10.1919 22.5102 15.2735 22.5102C20.3552 22.5102 25.0019 23.2768 28.5702 24.5442C29.1593 24.7535 29.811 24.4884 30.0855 23.9268C30.8895 22.2814 30.5999 20.4138 29.547 19.1019Z" fill="url(#paint30_linear)"/>
<path d="M5.10658 20.7738C5.02439 20.7861 4.93795 20.7703 4.86611 20.7234C4.72015 20.6282 4.68941 20.4407 4.79748 20.3046C4.8658 20.2185 6.50423 18.1822 9.47529 16.9145C9.64148 16.8434 9.83592 16.9076 9.90901 17.058C9.98219 17.2083 9.9065 17.3877 9.74007 17.4587C6.93599 18.6553 5.34227 20.6297 5.3265 20.6495C5.27144 20.7185 5.19129 20.7611 5.10658 20.7738Z" fill="url(#paint31_linear)"/>
<path d="M8.97527 20.1637C8.89276 20.1732 8.80687 20.1546 8.7366 20.1052C8.59393 20.0052 8.56946 19.8168 8.68209 19.6844C8.75323 19.6007 10.4591 17.6204 13.471 16.4532C13.6395 16.3877 13.8317 16.4584 13.8997 16.6111C13.9677 16.7637 13.8861 16.9405 13.7174 17.0059C10.8747 18.1077 9.21558 20.0275 9.19919 20.0467C9.14193 20.114 9.06037 20.1539 8.97527 20.1637Z" fill="url(#paint32_linear)"/>
<path d="M12.7992 19.754C12.7162 19.7585 12.6316 19.7347 12.5645 19.6812C12.4282 19.5726 12.4152 19.3831 12.5356 19.2577C12.6117 19.1785 14.4347 17.3055 17.5119 16.3231C17.684 16.268 17.8716 16.3503 17.9301 16.5069C17.9888 16.6634 17.8966 16.8349 17.7243 16.8899C14.8199 17.817 13.0474 19.6326 13.0298 19.6508C12.9685 19.7145 12.8847 19.7493 12.7992 19.754Z" fill="url(#paint33_linear)"/>
<path d="M16.6418 19.8878C16.5587 19.8878 16.4756 19.8594 16.4114 19.8024C16.2812 19.6866 16.2785 19.4967 16.4056 19.378C16.4859 19.303 18.4081 17.5321 21.5342 16.7186C21.7091 16.673 21.8919 16.7653 21.9419 16.9248C21.992 17.0843 21.8905 17.2505 21.7155 17.2961C18.765 18.0637 16.8963 19.7801 16.8777 19.7974C16.813 19.8576 16.7274 19.8878 16.6418 19.8878Z" fill="url(#paint34_linear)"/>
<path d="M20.5744 20.422C20.4913 20.422 20.4081 20.3936 20.344 20.3366C20.2138 20.2207 20.2112 20.0309 20.3382 19.9122C20.4185 19.8372 22.3407 18.0662 25.4669 17.2528C25.6418 17.2072 25.8245 17.2995 25.8745 17.459C25.9246 17.6185 25.8232 17.7847 25.6481 17.8302C22.6976 18.5979 20.8289 20.3143 20.8103 20.3316C20.7456 20.3918 20.66 20.422 20.5744 20.422Z" fill="url(#paint35_linear)"/>
<path d="M16.4272 22.5242C19.4374 22.5935 22.2726 22.9318 24.7941 23.482L17.3434 16.0313C17.04 16.0187 16.7345 16.0091 16.4272 16.002V22.5242Z" fill="url(#paint36_linear)"/>
<path d="M13.49 31.2674H17.0568C17.2354 31.2674 17.3801 31.1226 17.3801 30.944V16.186C17.3801 16.0122 17.2431 15.8689 17.0696 15.8624C16.4777 15.8407 15.8787 15.8296 15.2733 15.8296C14.6681 15.8296 14.0689 15.8407 13.4771 15.8624C13.3034 15.8688 13.1665 16.0122 13.1665 16.186V30.944C13.1666 31.1226 13.3114 31.2674 13.49 31.2674Z" fill="url(#paint37_linear)"/>
<defs>
<linearGradient id="paint0_linear" x1="24.4334" y1="11.7612" x2="24.4334" y2="14.8024" gradientUnits="userSpaceOnUse">
<stop stop-color="#F8F6FB"/>
<stop offset="1" stop-color="#EFDCFB"/>
</linearGradient>
<linearGradient id="paint1_linear" x1="24.8286" y1="12.9702" x2="24.1325" y2="4.02998" gradientUnits="userSpaceOnUse">
<stop stop-color="#EFDCFB" stop-opacity="0"/>
<stop offset="0.2889" stop-color="#C7B6DF" stop-opacity="0.289"/>
<stop offset="0.5915" stop-color="#A495C7" stop-opacity="0.592"/>
<stop offset="0.8395" stop-color="#8E80B7" stop-opacity="0.84"/>
<stop offset="1" stop-color="#8679B2"/>
</linearGradient>
<linearGradient id="paint2_linear" x1="32.116" y1="9.52426" x2="26.1803" y2="8.86473" gradientUnits="userSpaceOnUse">
<stop stop-color="#EFDCFB" stop-opacity="0"/>
<stop offset="0.2889" stop-color="#C7B6DF" stop-opacity="0.289"/>
<stop offset="0.5915" stop-color="#A495C7" stop-opacity="0.592"/>
<stop offset="0.8395" stop-color="#8E80B7" stop-opacity="0.84"/>
<stop offset="1" stop-color="#8679B2"/>
</linearGradient>
<linearGradient id="paint3_linear" x1="24.7265" y1="3.16291" x2="24.7265" y2="10.5398" gradientUnits="userSpaceOnUse">
<stop stop-color="#FF7044"/>
<stop offset="1" stop-color="#F82814"/>
</linearGradient>
<linearGradient id="paint4_linear" x1="23.986" y1="3.78537" x2="27.4301" y2="18.0018" gradientUnits="userSpaceOnUse">
<stop stop-color="#F82814" stop-opacity="0"/>
<stop offset="1" stop-color="#C0272D"/>
</linearGradient>
<linearGradient id="paint5_linear" x1="16.9466" y1="3.89482" x2="14.7627" y2="1.7917" gradientUnits="userSpaceOnUse">
<stop stop-color="#FF7044"/>
<stop offset="1" stop-color="#F82814"/>
</linearGradient>
<linearGradient id="paint6_linear" x1="20.8711" y1="3.35332" x2="18.7592" y2="1.17951" gradientUnits="userSpaceOnUse">
<stop stop-color="#FF7044"/>
<stop offset="1" stop-color="#F82814"/>
</linearGradient>
<linearGradient id="paint7_linear" x1="24.8089" y1="3.12078" x2="22.8323" y2="0.819712" gradientUnits="userSpaceOnUse">
<stop stop-color="#FF7044"/>
<stop offset="1" stop-color="#F82814"/>
</linearGradient>
<linearGradient id="paint8_linear" x1="28.7238" y1="3.37954" x2="26.875" y2="0.97601" gradientUnits="userSpaceOnUse">
<stop stop-color="#FF7044"/>
<stop offset="1" stop-color="#F82814"/>
</linearGradient>
<linearGradient id="paint9_linear" x1="32.657" y1="3.91369" x2="30.8081" y2="1.51024" gradientUnits="userSpaceOnUse">
<stop stop-color="#FF7044"/>
<stop offset="1" stop-color="#F82814"/>
</linearGradient>
<linearGradient id="paint10_linear" x1="30.7195" y1="5.88135" x2="24.4906" y2="3.46307" gradientUnits="userSpaceOnUse">
<stop stop-color="#F82814" stop-opacity="0"/>
<stop offset="1" stop-color="#C0272D"/>
</linearGradient>
<linearGradient id="paint11_linear" x1="22.4059" y1="8.45142" x2="27.4962" y2="8.45142" gradientUnits="userSpaceOnUse">
<stop stop-color="#534854"/>
<stop offset="1" stop-color="#342434"/>
</linearGradient>
<linearGradient id="paint12_linear" x1="38.1521" y1="15.6032" x2="31.773" y2="12.5705" gradientUnits="userSpaceOnUse">
<stop stop-color="#EFDCFB" stop-opacity="0"/>
<stop offset="0.2889" stop-color="#C7B6DF" stop-opacity="0.289"/>
<stop offset="0.5915" stop-color="#A495C7" stop-opacity="0.592"/>
<stop offset="0.8395" stop-color="#8E80B7" stop-opacity="0.84"/>
<stop offset="1" stop-color="#8679B2"/>
</linearGradient>
<linearGradient id="paint13_linear" x1="19.7068" y1="19.3098" x2="19.7068" y2="22.3509" gradientUnits="userSpaceOnUse">
<stop stop-color="#F8F6FB"/>
<stop offset="1" stop-color="#EFDCFB"/>
</linearGradient>
<linearGradient id="paint14_linear" x1="20.1021" y1="20.5189" x2="19.4059" y2="11.5786" gradientUnits="userSpaceOnUse">
<stop stop-color="#EFDCFB" stop-opacity="0"/>
<stop offset="0.2889" stop-color="#C7B6DF" stop-opacity="0.289"/>
<stop offset="0.5915" stop-color="#A495C7" stop-opacity="0.592"/>
<stop offset="0.8395" stop-color="#8E80B7" stop-opacity="0.84"/>
<stop offset="1" stop-color="#8679B2"/>
</linearGradient>
<linearGradient id="paint15_linear" x1="27.3894" y1="17.0729" x2="21.4537" y2="16.4134" gradientUnits="userSpaceOnUse">
<stop stop-color="#EFDCFB" stop-opacity="0"/>
<stop offset="0.2889" stop-color="#C7B6DF" stop-opacity="0.289"/>
<stop offset="0.5915" stop-color="#A495C7" stop-opacity="0.592"/>
<stop offset="0.8395" stop-color="#8E80B7" stop-opacity="0.84"/>
<stop offset="1" stop-color="#8679B2"/>
</linearGradient>
<linearGradient id="paint16_linear" x1="20" y1="10.7116" x2="20" y2="18.0885" gradientUnits="userSpaceOnUse">
<stop stop-color="#FF7044"/>
<stop offset="1" stop-color="#F82814"/>
</linearGradient>
<linearGradient id="paint17_linear" x1="19.2593" y1="11.334" x2="22.7036" y2="25.5504" gradientUnits="userSpaceOnUse">
<stop stop-color="#F82814" stop-opacity="0"/>
<stop offset="1" stop-color="#C0272D"/>
</linearGradient>
<linearGradient id="paint18_linear" x1="12.2183" y1="11.4423" x2="10.0343" y2="9.3391" gradientUnits="userSpaceOnUse">
<stop stop-color="#FF7044"/>
<stop offset="1" stop-color="#F82814"/>
</linearGradient>
<linearGradient id="paint19_linear" x1="16.1471" y1="10.8996" x2="14.0351" y2="8.72587" gradientUnits="userSpaceOnUse">
<stop stop-color="#FF7044"/>
<stop offset="1" stop-color="#F82814"/>
</linearGradient>
<linearGradient id="paint20_linear" x1="20.0764" y1="10.6709" x2="18.0997" y2="8.36988" gradientUnits="userSpaceOnUse">
<stop stop-color="#FF7044"/>
<stop offset="1" stop-color="#F82814"/>
</linearGradient>
<linearGradient id="paint21_linear" x1="23.9973" y1="10.9281" x2="22.1484" y2="8.52455" gradientUnits="userSpaceOnUse">
<stop stop-color="#FF7044"/>
<stop offset="1" stop-color="#F82814"/>
</linearGradient>
<linearGradient id="paint22_linear" x1="27.9299" y1="11.4623" x2="26.0811" y2="9.05881" gradientUnits="userSpaceOnUse">
<stop stop-color="#FF7044"/>
<stop offset="1" stop-color="#F82814"/>
</linearGradient>
<linearGradient id="paint23_linear" x1="25.9929" y1="13.4299" x2="19.764" y2="11.0116" gradientUnits="userSpaceOnUse">
<stop stop-color="#F82814" stop-opacity="0"/>
<stop offset="1" stop-color="#C0272D"/>
</linearGradient>
<linearGradient id="paint24_linear" x1="17.6793" y1="16" x2="22.7696" y2="16" gradientUnits="userSpaceOnUse">
<stop stop-color="#534854"/>
<stop offset="1" stop-color="#342434"/>
</linearGradient>
<linearGradient id="paint25_linear" x1="33.4157" y1="23.1542" x2="27.0367" y2="20.1215" gradientUnits="userSpaceOnUse">
<stop stop-color="#EFDCFB" stop-opacity="0"/>
<stop offset="0.2889" stop-color="#C7B6DF" stop-opacity="0.289"/>
<stop offset="0.5915" stop-color="#A495C7" stop-opacity="0.592"/>
<stop offset="0.8395" stop-color="#8E80B7" stop-opacity="0.84"/>
<stop offset="1" stop-color="#8679B2"/>
</linearGradient>
<linearGradient id="paint26_linear" x1="14.9803" y1="26.8584" x2="14.9803" y2="29.8995" gradientUnits="userSpaceOnUse">
<stop stop-color="#F8F6FB"/>
<stop offset="1" stop-color="#EFDCFB"/>
</linearGradient>
<linearGradient id="paint27_linear" x1="15.3756" y1="28.0674" x2="14.6794" y2="19.1271" gradientUnits="userSpaceOnUse">
<stop stop-color="#EFDCFB" stop-opacity="0"/>
<stop offset="0.2889" stop-color="#C7B6DF" stop-opacity="0.289"/>
<stop offset="0.5915" stop-color="#A495C7" stop-opacity="0.592"/>
<stop offset="0.8395" stop-color="#8E80B7" stop-opacity="0.84"/>
<stop offset="1" stop-color="#8679B2"/>
</linearGradient>
<linearGradient id="paint28_linear" x1="22.6625" y1="24.6213" x2="16.7267" y2="23.9618" gradientUnits="userSpaceOnUse">
<stop stop-color="#EFDCFB" stop-opacity="0"/>
<stop offset="0.2889" stop-color="#C7B6DF" stop-opacity="0.289"/>
<stop offset="0.5915" stop-color="#A495C7" stop-opacity="0.592"/>
<stop offset="0.8395" stop-color="#8E80B7" stop-opacity="0.84"/>
<stop offset="1" stop-color="#8679B2"/>
</linearGradient>
<linearGradient id="paint29_linear" x1="15.2734" y1="18.2601" x2="15.2734" y2="25.637" gradientUnits="userSpaceOnUse">
<stop stop-color="#FF7044"/>
<stop offset="1" stop-color="#F82814"/>
</linearGradient>
<linearGradient id="paint30_linear" x1="14.5328" y1="18.8825" x2="17.9769" y2="33.0989" gradientUnits="userSpaceOnUse">
<stop stop-color="#F82814" stop-opacity="0"/>
<stop offset="1" stop-color="#C0272D"/>
</linearGradient>
<linearGradient id="paint31_linear" x1="7.4908" y1="18.9897" x2="5.30692" y2="16.8866" gradientUnits="userSpaceOnUse">
<stop stop-color="#FF7044"/>
<stop offset="1" stop-color="#F82814"/>
</linearGradient>
<linearGradient id="paint32_linear" x1="11.4239" y1="18.446" x2="9.31197" y2="16.2722" gradientUnits="userSpaceOnUse">
<stop stop-color="#FF7044"/>
<stop offset="1" stop-color="#F82814"/>
</linearGradient>
<linearGradient id="paint33_linear" x1="15.3448" y1="18.221" x2="13.3682" y2="15.92" gradientUnits="userSpaceOnUse">
<stop stop-color="#FF7044"/>
<stop offset="1" stop-color="#F82814"/>
</linearGradient>
<linearGradient id="paint34_linear" x1="19.2712" y1="18.4767" x2="17.4223" y2="16.0732" gradientUnits="userSpaceOnUse">
<stop stop-color="#FF7044"/>
<stop offset="1" stop-color="#F82814"/>
</linearGradient>
<linearGradient id="paint35_linear" x1="23.2038" y1="19.0109" x2="21.3549" y2="16.6073" gradientUnits="userSpaceOnUse">
<stop stop-color="#FF7044"/>
<stop offset="1" stop-color="#F82814"/>
</linearGradient>
<linearGradient id="paint36_linear" x1="21.2658" y1="20.9784" x2="15.0371" y2="18.5601" gradientUnits="userSpaceOnUse">
<stop stop-color="#F82814" stop-opacity="0"/>
<stop offset="1" stop-color="#C0272D"/>
</linearGradient>
<linearGradient id="paint37_linear" x1="12.9529" y1="23.5485" x2="18.043" y2="23.5485" gradientUnits="userSpaceOnUse">
<stop stop-color="#534854"/>
<stop offset="1" stop-color="#342434"/>
</linearGradient>
</defs>
</svg>
