<svg width="40" height="40" viewBox="0 0 40 40" fill="none" xmlns="http://www.w3.org/2000/svg">
<g clip-path="url(#clip0)">
<path d="M39.2863 14.6913C36.9605 6.2225 29.2075 0 20 0C8.9543 0 0 8.9543 0 20C0 29.2075 6.2225 36.9605 14.6913 39.2863L39.2863 14.6913Z" fill="#813115"/>
<path d="M40.0002 20C40.0002 18.1618 39.7509 16.3821 39.2865 14.6913L32.2976 7.70239L7.70264 32.2975L14.6915 39.2864C16.3822 39.7508 18.162 40 20.0002 40C31.0459 40 40.0002 31.0456 40.0002 20Z" fill="#3A160A"/>
<path d="M19.9998 2.60869L11.3042 20L19.9998 37.3913C29.6047 37.3913 37.3912 29.605 37.3912 20C37.3912 10.395 29.6047 2.60869 19.9998 2.60869Z" fill="#FFF3AD"/>
<path d="M2.6084 20C2.6084 29.6049 10.3947 37.3913 19.9997 37.3913V2.60869C10.3948 2.60869 2.6084 10.3951 2.6084 20Z" fill="white"/>
<path d="M19.9997 5.21742L12.6084 20L19.9997 34.7826C28.1639 34.7826 34.7823 28.1642 34.7823 20C34.7823 11.8358 28.1639 5.21742 19.9997 5.21742Z" fill="#FFD23E"/>
<path d="M5.21729 20C5.21729 28.1643 11.8357 34.7826 19.9999 34.7826V5.21742C11.8357 5.21742 5.21729 11.8357 5.21729 20Z" fill="#FFE376"/>
<path d="M32.8475 17.5661C32.9266 18.0148 32.7649 18.4505 32.4561 18.7417L32.4544 20.9209C32.7622 21.2122 32.9222 21.647 32.8431 22.0956C32.7639 22.5452 32.4639 22.8991 32.0736 23.067C32.3266 23.407 32.4092 23.8634 32.2536 24.2913C32.0971 24.72 31.7397 25.0166 31.3266 25.1139L30.2353 27.0009C30.3561 27.407 30.2779 27.8634 29.9848 28.2122C29.6918 28.5617 29.2543 28.7183 28.8326 28.6687C28.8813 29.0895 28.7248 29.5261 28.3761 29.8191C28.0266 30.1122 27.5683 30.1905 27.1622 30.0678L25.2736 31.1565C25.1753 31.5678 24.8788 31.9252 24.451 32.0809C24.0223 32.2365 23.5649 32.1531 23.2249 31.9C23.0562 32.2887 22.7032 32.5878 22.2544 32.667C21.8049 32.7461 21.3692 32.5852 21.0779 32.2756L20.011 32.2748L15.6631 19.8234L20.0109 7.36516L21.1014 7.36602C21.3927 7.05821 21.8275 6.89735 22.2761 6.97649C22.7248 7.05563 23.0787 7.35649 23.2475 7.74602C23.5875 7.49384 24.0431 7.41126 24.4718 7.56688C24.9005 7.72251 25.1971 8.08079 25.2944 8.49384L27.1805 9.58516C27.5866 9.46431 28.0439 9.54259 28.3927 9.8347C28.7422 10.1286 28.8988 10.566 28.8492 10.9877C29.27 10.9391 29.7066 11.0956 29.9987 11.4442C30.2918 11.7938 30.37 12.2512 30.2482 12.6581L31.3361 14.5468C31.7482 14.6451 32.1047 14.9407 32.2604 15.3685C32.4169 15.7972 32.3335 16.2546 32.0796 16.5946C32.4683 16.7635 32.7683 17.1174 32.8475 17.5661Z" fill="#C9A06C"/>
<path d="M20.011 7.36872V32.2783L18.8988 32.2774C18.6074 32.5852 18.1727 32.7461 17.724 32.6669C17.2753 32.5878 16.9214 32.2869 16.7527 31.8974C16.4127 32.1496 15.957 32.2322 15.5283 32.0765C15.0996 31.9209 14.8031 31.5626 14.7057 31.1496L12.8196 30.0583C12.4135 30.1791 11.9561 30.1008 11.6074 29.8087C11.2579 29.5148 11.1013 29.0774 11.151 28.6557C10.7301 28.7043 10.2935 28.5479 10.0014 28.1992C9.70838 27.8497 9.6301 27.3922 9.75189 26.9853L8.66408 25.0966C8.25189 24.9983 7.89541 24.7027 7.73971 24.2749C7.58322 23.8462 7.66666 23.3888 7.92057 23.0488C7.53189 22.8801 7.23189 22.5262 7.15275 22.0775C7.07361 21.6288 7.23533 21.1931 7.54408 20.9018L7.5458 18.7227C7.23799 18.4314 7.07799 17.9966 7.15713 17.5479C7.23627 17.0984 7.53627 16.7444 7.92666 16.5766C7.67361 16.2366 7.59103 15.7801 7.74666 15.3522C7.90314 14.9236 8.26057 14.627 8.67361 14.5297L9.76494 12.6427C9.64408 12.2366 9.72236 11.7801 10.0154 11.4314C10.3085 11.0818 10.7459 10.9253 11.1676 10.9749C11.1189 10.554 11.2754 10.1175 11.6241 9.82442C11.9736 9.53137 12.4319 9.45309 12.838 9.57575L14.7267 8.48708C14.8249 8.07575 15.1214 7.7184 15.5492 7.5627C15.9779 7.40707 16.4353 7.49051 16.7753 7.74356C16.944 7.35489 17.297 7.05575 17.7458 6.97661C18.1953 6.89747 18.631 7.05832 18.9223 7.36793L20.011 7.36872Z" fill="#DBBC82"/>
<path d="M27.1737 18.6956L26.5215 20L27.1737 21.3044C27.894 21.3044 28.478 20.7204 28.478 20C28.478 19.2796 27.8941 18.6956 27.1737 18.6956Z" fill="#A56840"/>
<path d="M25.8696 20.0001C25.8696 20.7204 26.4536 21.3044 27.174 21.3044V18.6958C26.4537 18.6957 25.8696 19.2797 25.8696 20.0001Z" fill="#B78456"/>
<path d="M12.6195 18.7066L11.9673 20.011L12.6195 21.3153C13.3398 21.3153 13.9238 20.7314 13.9238 20.011C13.9238 19.2907 13.3399 18.7066 12.6195 18.7066Z" fill="#B78456"/>
<path d="M11.3154 20.0109C11.3154 20.7312 11.8994 21.3153 12.6198 21.3153V18.7066C11.8994 18.7065 11.3154 19.2906 11.3154 20.0109Z" fill="#C9A06C"/>
<path d="M15.2284 16.0978L14.5762 17.4022L15.2284 18.7066C15.9487 18.7066 16.5327 18.1226 16.5327 17.4022C16.5327 16.6818 15.9487 16.0978 15.2284 16.0978Z" fill="#B78456"/>
<path d="M13.9238 17.4022C13.9238 18.1225 14.5078 18.7066 15.2282 18.7066V16.0979C14.5078 16.0978 13.9238 16.6818 13.9238 17.4022Z" fill="#C9A06C"/>
<path d="M19.9998 18.6956L19.3477 20L19.9998 21.3044C20.7202 21.3044 21.3042 20.7204 21.3042 20C21.3042 19.2796 20.7202 18.6956 19.9998 18.6956Z" fill="#A56840"/>
<path d="M18.6958 20.0001C18.6958 20.7204 19.2798 21.3044 20.0002 21.3044V18.6958C19.2799 18.6957 18.6958 19.2797 18.6958 20.0001Z" fill="#C9A06C"/>
<path d="M15.2284 21.3153L14.5762 22.6196L15.2284 23.924C15.9487 23.924 16.5327 23.34 16.5327 22.6196C16.5327 21.8992 15.9487 21.3153 15.2284 21.3153Z" fill="#B78456"/>
<path d="M13.9238 22.6196C13.9238 23.3399 14.5078 23.9239 15.2282 23.9239V21.3153C14.5078 21.3153 13.9238 21.8992 13.9238 22.6196Z" fill="#C9A06C"/>
<path d="M23.2596 26.259L22.6074 27.5634L23.2596 28.8677C23.9799 28.8677 24.564 28.2838 24.564 27.5634C24.564 26.843 23.9801 26.259 23.2596 26.259Z" fill="#A56840"/>
<path d="M21.9551 27.5633C21.9551 28.2836 22.5391 28.8677 23.2595 28.8677V26.259C22.5391 26.259 21.9551 26.843 21.9551 27.5633Z" fill="#B78456"/>
<path d="M25.868 28.8676L25.2158 30.172L25.868 31.4764C26.5883 31.4764 27.1724 30.8924 27.1724 30.172C27.1723 29.4516 26.5884 28.8676 25.868 28.8676Z" fill="#A56840"/>
<path d="M24.5635 30.172C24.5635 30.8923 25.1475 31.4764 25.8679 31.4764V28.8677C25.1475 28.8676 24.5635 29.4516 24.5635 30.172Z" fill="#B78456"/>
<path d="M24.5653 21.3153L23.9131 22.6196L24.5653 23.924C25.2856 23.924 25.8696 23.34 25.8696 22.6196C25.8696 21.8992 25.2856 21.3153 24.5653 21.3153Z" fill="#A56840"/>
<path d="M23.2607 22.6196C23.2607 23.3399 23.8447 23.9239 24.5651 23.9239V21.3153C23.8447 21.3153 23.2607 21.8992 23.2607 22.6196Z" fill="#B78456"/>
<path d="M24.5653 18.7065L23.9131 17.4021L24.5653 16.0977C25.2856 16.0977 25.8696 16.6817 25.8696 17.4021C25.8696 18.1225 25.2856 18.7065 24.5653 18.7065Z" fill="#A56840"/>
<path d="M23.2607 17.4022C23.2607 16.6819 23.8447 16.0978 24.5651 16.0978V18.7065C23.8447 18.7065 23.2607 18.1225 23.2607 17.4022Z" fill="#B78456"/>
<path d="M19.9998 9.56526L19.3477 8.26089L19.9998 6.95651C20.7202 6.95651 21.3042 7.5405 21.3042 8.26089C21.3042 8.98128 20.7202 9.56526 19.9998 9.56526Z" fill="#A56840"/>
<path d="M18.6958 8.26089C18.6958 7.54058 19.2798 6.95651 20.0002 6.95651V9.56519C19.2799 9.56526 18.6958 8.98128 18.6958 8.26089Z" fill="#C9A06C"/>
<path d="M19.9784 30.4348L19.3262 31.7391L19.9784 33.0435C20.6987 33.0435 21.2827 32.4595 21.2827 31.7391C21.2827 31.0187 20.6987 30.4348 19.9784 30.4348Z" fill="#A56840"/>
<path d="M18.6738 31.7391C18.6738 32.4594 19.2578 33.0435 19.9782 33.0435V30.4348C19.2578 30.4347 18.6738 31.0187 18.6738 31.7391Z" fill="#C9A06C"/>
<path d="M30.1502 27.1833L29.498 25.8789L30.1502 24.5745C30.8705 24.5745 31.4546 25.1585 31.4546 25.8789C31.4546 26.5993 30.8706 27.1833 30.1502 27.1833Z" fill="#A56840"/>
<path d="M28.8457 25.879C28.8457 25.1587 29.4297 24.5747 30.1501 24.5747V27.1833C29.4298 27.1833 28.8457 26.5993 28.8457 25.879Z" fill="#B78456"/>
<path d="M31.7284 21.3152L31.0762 20.0109L31.7284 18.7065C32.4487 18.7065 33.0327 19.2905 33.0327 20.0109C33.0327 20.7312 32.4487 21.3152 31.7284 21.3152Z" fill="#A56840"/>
<path d="M30.4238 20.0109C30.4238 19.2905 31.0078 18.7065 31.7282 18.7065V21.3152C31.0078 21.3152 30.4238 20.7312 30.4238 20.0109Z" fill="#B78456"/>
<path d="M30.161 15.4442L29.5088 14.1398L30.161 12.8354C30.8813 12.8354 31.4654 13.4194 31.4654 14.1398C31.4654 14.8602 30.8814 15.4442 30.161 15.4442Z" fill="#A56840"/>
<path d="M28.8564 14.1398C28.8564 13.4195 29.4404 12.8355 30.1608 12.8355V15.4441C29.4404 15.4441 28.8564 14.8602 28.8564 14.1398Z" fill="#B78456"/>
<path d="M25.868 11.1434L25.2158 9.83898L25.868 8.53461C26.5883 8.53461 27.1724 9.11859 27.1724 9.83898C27.1724 10.5594 26.5884 11.1434 25.868 11.1434Z" fill="#A56840"/>
<path d="M24.564 9.83904C24.564 9.11873 25.148 8.53467 25.8683 8.53467V11.1433C25.148 11.1433 24.564 10.5594 24.564 9.83904Z" fill="#B78456"/>
<path d="M9.84994 27.1833L9.19775 25.8789L9.84994 24.5745C10.5703 24.5745 11.1543 25.1585 11.1543 25.8789C11.1543 26.5993 10.5703 27.1833 9.84994 27.1833Z" fill="#B78456"/>
<path d="M8.54541 25.879C8.54541 25.1587 9.12939 24.5747 9.84978 24.5747V27.1833C9.12939 27.1833 8.54541 26.5993 8.54541 25.879Z" fill="#C9A06C"/>
<path d="M8.27182 21.3152L7.61963 20.0109L8.27182 18.7065C8.99213 18.7065 9.57619 19.2905 9.57619 20.0109C9.57619 20.7312 8.99221 21.3152 8.27182 21.3152Z" fill="#B78456"/>
<path d="M6.96729 20.0109C6.96729 19.2905 7.55127 18.7065 8.27166 18.7065V21.3152C7.55127 21.3152 6.96729 20.7312 6.96729 20.0109Z" fill="#C9A06C"/>
<path d="M9.8392 15.4442L9.18701 14.1398L9.8392 12.8354C10.5595 12.8354 11.1436 13.4194 11.1436 14.1398C11.1435 14.8602 10.5595 15.4442 9.8392 15.4442Z" fill="#B78456"/>
<path d="M8.53467 14.1398C8.53467 13.4195 9.11865 12.8355 9.83904 12.8355V15.4441C9.11865 15.4441 8.53467 14.8602 8.53467 14.1398Z" fill="#C9A06C"/>
<path d="M14.1317 11.1434L13.4795 9.83898L14.1317 8.53461C14.852 8.53461 15.4361 9.11859 15.4361 9.83898C15.4361 10.5594 14.8521 11.1434 14.1317 11.1434Z" fill="#B78456"/>
<path d="M12.8276 9.83904C12.8276 9.11873 13.4116 8.53467 14.132 8.53467V11.1433C13.4115 11.1433 12.8276 10.5594 12.8276 9.83904Z" fill="#C9A06C"/>
<path d="M14.1317 31.4764L13.4795 30.172L14.1317 28.8676C14.852 28.8676 15.4361 29.4516 15.4361 30.172C15.4361 30.8924 14.8521 31.4764 14.1317 31.4764Z" fill="#B78456"/>
<path d="M12.8276 30.172C12.8276 29.4517 13.4116 28.8676 14.132 28.8676V31.4763C13.4115 31.4763 12.8276 30.8924 12.8276 30.172Z" fill="#C9A06C"/>
<path d="M20.0002 11.3044L18.5654 14.1739L20.0002 17.0435C21.585 17.0435 22.8697 15.7587 22.8697 14.174C22.8697 12.5892 21.585 11.3044 20.0002 11.3044Z" fill="#F94C10"/>
<path d="M17.1304 14.1739C17.1304 15.7586 18.4151 17.0434 19.9999 17.0434V11.3042C18.4151 11.3043 17.1304 12.5891 17.1304 14.1739Z" fill="#FA690E"/>
<path d="M19.9999 15.0434C20.4801 15.0434 20.8694 14.6541 20.8694 14.1739C20.8694 13.6937 20.4801 13.3044 19.9999 13.3044C19.5197 13.3044 19.1304 13.6937 19.1304 14.1739C19.1304 14.6541 19.5197 15.0434 19.9999 15.0434Z" fill="#F72E12"/>
<path d="M15.8801 21.2501L14.4453 24.1196L15.8801 26.9892C17.4648 26.9892 18.7496 25.7044 18.7496 24.1196C18.7496 22.5349 17.4649 21.2501 15.8801 21.2501Z" fill="#F94C10"/>
<path d="M13.0107 24.1197C13.0107 25.7045 14.2955 26.9892 15.8803 26.9892V21.2501C14.2955 21.2501 13.0107 22.5349 13.0107 24.1197Z" fill="#FA690E"/>
<path d="M15.8798 24.9895C16.36 24.9895 16.7493 24.6002 16.7493 24.12C16.7493 23.6398 16.36 23.2505 15.8798 23.2505C15.3996 23.2505 15.0103 23.6398 15.0103 24.12C15.0103 24.6002 15.3996 24.9895 15.8798 24.9895Z" fill="#F72E12"/>
</g>
<defs>
<clipPath id="clip0">
<rect width="40" height="40" fill="white"/>
</clipPath>
</defs>
</svg>
