<svg width="40" height="40" viewBox="0 0 40 40" fill="none" xmlns="http://www.w3.org/2000/svg">
<g clip-path="url(#clip0)">
<path d="M23.8728 10.3253C14.9959 10.3411 7.80469 17.5422 7.80469 26.4228V33.7399H36.0973C38.2526 33.7399 39.9998 31.9927 39.9998 29.8375V26.5607C39.9998 17.6907 32.7429 10.3094 23.8728 10.3253Z" fill="#DBB56A"/>
<path d="M28.4364 27.9315C28.2383 28.2735 28.123 28.6695 28.123 29.0932C28.123 30.3763 29.1633 31.4165 30.4464 31.4165C30.4464 32.6996 31.4866 33.7399 32.7697 33.7399C34.0528 33.7399 35.093 32.6996 35.093 31.4165C36.3762 31.4165 37.4164 30.3763 37.4164 29.0932C37.4164 28.6695 37.3012 28.2735 37.103 27.9315C37.3012 27.5895 37.4164 27.1935 37.4164 26.7699C37.4164 25.4867 36.3762 24.4465 35.093 24.4465C35.093 23.1634 34.0529 22.1232 32.7697 22.1232C31.4866 22.1232 30.4464 23.1633 30.4464 24.4464C29.1633 24.4464 28.123 25.4866 28.123 26.7698C28.123 27.1935 28.2383 27.5895 28.4364 27.9315Z" fill="#9A6A53"/>
<path d="M35.093 24.4465C35.093 23.1634 34.0529 22.1232 32.7697 22.1232C31.4866 22.1232 30.4464 23.1633 30.4464 24.4464C29.1633 24.4464 28.123 25.4866 28.123 26.7697C28.123 26.854 28.1288 26.9369 28.1377 27.0188C28.6763 27.5242 29.3586 27.8706 30.1038 27.9953C30.8064 28.8135 31.8459 29.318 32.9713 29.318C33.3125 29.318 33.6529 29.2715 33.983 29.1798C35.4408 28.7751 36.462 27.564 36.6984 26.1623C36.8641 26.0202 37.0163 25.8644 37.1539 25.6975C36.7663 24.9542 35.9892 24.4465 35.093 24.4465Z" fill="#855B47"/>
<path d="M32.145 19.4711C32.1785 19.7457 32.2811 20.0155 32.4598 20.2521C33.0008 20.9689 34.0204 21.1114 34.7372 20.5704C35.2782 21.2872 36.2978 21.4297 37.0145 20.8888C37.7313 20.3478 37.8738 19.3281 37.3328 18.6114C38.0496 18.0703 38.1921 17.0507 37.6511 16.3339C37.4725 16.0973 37.2412 15.9246 36.9862 15.8171C36.9527 15.5425 36.8501 15.2728 36.6716 15.0361C36.1305 14.3193 35.1109 14.1768 34.3941 14.7178C33.8531 14.001 32.8335 13.8585 32.1167 14.3994C31.4 14.9403 31.2574 15.9599 31.7984 16.6767C31.0816 17.2177 30.9391 18.2374 31.4801 18.9542C31.6587 19.191 31.8901 19.3635 32.145 19.4711Z" fill="#9A6A53"/>
<path d="M10.828 14.1479C11.1031 14.1761 11.389 14.1359 11.6594 14.0143C12.4784 13.6458 12.8435 12.6833 12.4751 11.8643C13.2941 11.4958 13.6592 10.5333 13.2908 9.71435C12.9223 8.89536 11.9598 8.53021 11.1408 8.89864C10.7723 8.07966 9.80976 7.7145 8.99077 8.08294C8.72038 8.20458 8.50069 8.39185 8.33929 8.61654C8.06413 8.58833 7.77827 8.62841 7.50788 8.75013C6.6889 9.11857 6.32374 10.0811 6.69218 10.9001C5.87319 11.2686 5.50804 12.2311 5.87648 13.0501C6.24491 13.869 7.20749 14.2343 8.0264 13.8658C8.39484 14.6848 9.35741 15.05 10.1764 14.6816C10.4469 14.5598 10.6665 14.3725 10.828 14.1479Z" fill="#855B47"/>
<path d="M37.0144 20.8888C37.1644 20.7756 37.2877 20.6405 37.3864 20.4925C36.9872 19.0961 35.8202 18.0659 34.4248 17.8129C34.9287 16.9335 35.2184 15.9164 35.2184 14.8323C35.2184 14.687 35.2113 14.5433 35.2012 14.4005C34.9177 14.4305 34.6383 14.5336 34.3941 14.7179C33.8531 14.0011 32.8335 13.8586 32.1167 14.3995C31.4 14.9404 31.2574 15.96 31.7984 16.6768C31.0816 17.2178 30.9391 18.2375 31.4801 18.9543C31.6587 19.191 31.89 19.3636 32.1449 19.4711C32.1784 19.7457 32.281 20.0155 32.4597 20.2521C33.0007 20.9689 34.0203 21.1114 34.7371 20.5704C35.278 21.2873 36.2977 21.4298 37.0144 20.8888Z" fill="#855B47"/>
<path d="M29.2023 18.8974C31.4474 18.8974 33.2674 17.0774 33.2674 14.8323C33.2674 12.5872 31.4474 10.7672 29.2023 10.7672C26.9572 10.7672 25.1372 12.5872 25.1372 14.8323C25.1372 17.0774 26.9572 18.8974 29.2023 18.8974Z" fill="#D87A24"/>
<path d="M29.2021 18.8973C30.2474 18.8973 31.2004 18.5024 31.9206 17.8541C31.1067 16.3701 30.0802 14.9883 28.8548 13.7487C28.1299 13.0155 27.3553 12.3528 26.5395 11.7623C25.6809 12.5076 25.1372 13.6062 25.1372 14.8323C25.1371 17.0773 26.9571 18.8973 29.2021 18.8973Z" fill="#DF9864"/>
<path d="M29.2022 16.2957C30.0104 16.2957 30.6656 15.6405 30.6656 14.8323C30.6656 14.024 30.0104 13.3688 29.2022 13.3688C28.394 13.3688 27.7388 14.024 27.7388 14.8323C27.7388 15.6405 28.394 16.2957 29.2022 16.2957Z" fill="#E47C1D"/>
<path d="M17.4787 14.3903C19.7237 14.3903 21.5437 12.5703 21.5437 10.3253C21.5437 8.08017 19.7237 6.26018 17.4787 6.26018C15.2336 6.26018 13.4136 8.08017 13.4136 10.3253C13.4136 12.5703 15.2336 14.3903 17.4787 14.3903Z" fill="#D87A24"/>
<path d="M17.4787 14.3902C19.7237 14.3902 21.5437 12.5702 21.5437 10.3252C21.5437 9.92468 21.4848 9.53812 21.3769 9.17257C19.6853 8.64671 17.9103 8.3739 16.0966 8.3739L16.0645 8.37398C15.3149 8.37531 14.5724 8.42218 13.84 8.51296C13.5676 9.05867 13.4136 9.67375 13.4136 10.3252C13.4137 12.5702 15.2337 14.3902 17.4787 14.3902Z" fill="#DF9864"/>
<path d="M21.9409 14.0502C22.1583 14.2722 22.4341 14.4428 22.7551 14.5319C23.7272 14.8017 24.734 14.2324 25.0039 13.2603C25.976 13.5302 26.9828 12.9609 27.2527 11.9889C27.5225 11.0167 26.9533 10.0099 25.9812 9.74003C26.251 8.76792 25.6818 7.76112 24.7097 7.4912C24.3887 7.40206 24.0644 7.40612 23.7637 7.48424C23.5462 7.26221 23.2705 7.09167 22.9494 7.00253C21.9773 6.73268 20.9705 7.3019 20.7006 8.27401C19.7285 8.00417 18.7217 8.57339 18.4518 9.5455C18.1819 10.5175 18.7512 11.5244 19.7233 11.7942C19.4534 12.7664 20.0226 13.7732 20.9948 14.0431C21.3158 14.1324 21.64 14.1283 21.9409 14.0502Z" fill="#ABD641"/>
<path d="M19.7233 11.7944C19.4534 12.7665 20.0227 13.7734 20.9948 14.0433C21.3158 14.1324 21.64 14.1283 21.9409 14.0502C22.1583 14.2722 22.4341 14.4428 22.7551 14.5319C23.7272 14.8018 24.734 14.2325 25.0039 13.2604C25.8909 13.5066 26.8064 13.054 27.165 12.2346C24.7832 10.35 22.0087 9.11607 19.0555 8.62076C18.7732 8.85131 18.5567 9.16787 18.4518 9.54568C18.1819 10.5177 18.7512 11.5246 19.7233 11.7944Z" fill="#9EC63D"/>
<path d="M28.9561 23.811C28.878 24.1117 28.874 24.436 28.963 24.757C29.233 25.7291 30.2398 26.2983 31.2119 26.0284C31.4819 27.0005 32.4887 27.5697 33.4608 27.2998C34.4329 27.0299 35.0021 26.023 34.7322 25.0509C35.7043 24.781 36.2735 23.7741 36.0036 22.802C35.9144 22.481 35.7438 22.2053 35.5218 21.9878C35.5999 21.687 35.604 21.3628 35.5148 21.0418C35.2449 20.0697 34.238 19.5005 33.2659 19.7704C32.996 18.7983 31.9891 18.2291 31.017 18.499C30.045 18.7689 29.4758 19.7757 29.7457 20.7478C28.7736 21.0178 28.2044 22.0246 28.4743 22.9967C28.5634 23.3177 28.7341 23.5935 28.9561 23.811Z" fill="#ABD641"/>
<path d="M28.4748 22.9967C28.5639 23.3177 28.7345 23.5934 28.9566 23.8109C28.8784 24.1117 28.8745 24.4359 28.9635 24.757C29.2334 25.7291 30.2403 26.2983 31.2124 26.0284C31.4824 27.0005 32.4892 27.5697 33.4613 27.2998C33.7215 27.2275 33.9525 27.102 34.1466 26.939V26.5607C34.1466 23.7731 33.5142 21.0734 32.3193 18.6236C31.9296 18.4298 31.4699 18.3734 31.0175 18.4991C30.0455 18.769 29.4763 19.7758 29.7462 20.7479C28.7741 21.0178 28.2049 22.0246 28.4748 22.9967Z" fill="#9EC63D"/>
<path d="M36.0976 33.7399C33.9423 33.7399 32.1952 31.9927 32.1952 29.8375V26.5607C32.1952 17.6907 24.9382 10.3094 16.0681 10.3254C7.19125 10.3411 0 17.5422 0 26.4228V29.8374C0 31.9926 1.74719 33.7398 3.90242 33.7398H36.0976V33.7399Z" fill="#F3D69E"/>
<path d="M19.191 30.7838C18.0851 31.8896 16.9227 32.8761 15.7295 33.7399H36.0975C33.9422 33.7399 32.195 31.9927 32.195 29.8374V26.5607C32.195 21.6118 29.9354 17.127 26.3975 14.1312C26.9494 19.1955 24.3692 25.6056 19.191 30.7838Z" fill="#EDC472"/>
<path d="M12.7632 21.0534C13.1224 21.0534 13.4136 20.7622 13.4136 20.403C13.4136 20.0438 13.1224 19.7526 12.7632 19.7526C12.404 19.7526 12.1128 20.0438 12.1128 20.403C12.1128 20.7622 12.404 21.0534 12.7632 21.0534Z" fill="#DBB56A"/>
<path d="M23.4785 24.5859C23.8377 24.5859 24.1289 24.2947 24.1289 23.9355C24.1289 23.5763 23.8377 23.2851 23.4785 23.2851C23.1193 23.2851 22.8281 23.5763 22.8281 23.9355C22.8281 24.2947 23.1193 24.5859 23.4785 24.5859Z" fill="#DBB56A"/>
<path d="M24.1289 18.5947C24.4881 18.5947 24.7793 18.3035 24.7793 17.9443C24.7793 17.5851 24.4881 17.2939 24.1289 17.2939C23.7697 17.2939 23.4785 17.5851 23.4785 17.9443C23.4785 18.3035 23.7697 18.5947 24.1289 18.5947Z" fill="#DBB56A"/>
<path d="M5.71777 29.8373C6.07697 29.8373 6.36816 29.5461 6.36816 29.1869C6.36816 28.8277 6.07697 28.5365 5.71777 28.5365C5.35857 28.5365 5.06738 28.8277 5.06738 29.1869C5.06738 29.5461 5.35857 29.8373 5.71777 29.8373Z" fill="#DBB56A"/>
<path d="M14.1943 30.4878C14.5535 30.4878 14.8447 30.1967 14.8447 29.8374C14.8447 29.4782 14.5535 29.1871 14.1943 29.1871C13.8351 29.1871 13.5439 29.4782 13.5439 29.8374C13.5439 30.1967 13.8351 30.4878 14.1943 30.4878Z" fill="#DBB56A"/>
<path d="M4.39014 24.4233C4.74934 24.4233 5.04053 24.1321 5.04053 23.7729C5.04053 23.4137 4.74934 23.1225 4.39014 23.1225C4.03094 23.1225 3.73975 23.4137 3.73975 23.7729C3.73975 24.1321 4.03094 24.4233 4.39014 24.4233Z" fill="#DBB56A"/>
<path d="M6.56492 18.6729C6.415 18.6729 6.265 18.6157 6.15062 18.5012C5.9218 18.2724 5.9218 17.9014 6.15062 17.6727L7.12625 16.697C7.35508 16.4682 7.72609 16.4682 7.95484 16.697C8.18367 16.9259 8.18367 17.2969 7.95484 17.5256L6.97922 18.5012C6.86484 18.6156 6.71484 18.6729 6.56492 18.6729Z" fill="#DBB56A"/>
<path d="M9.30027 25.8187C9.15035 25.8187 9.00035 25.7615 8.88598 25.647C8.65715 25.4182 8.65715 25.0472 8.88598 24.8184L9.8616 23.8428C10.0904 23.614 10.4614 23.614 10.6902 23.8428C10.919 24.0716 10.919 24.4427 10.6902 24.6714L9.71457 25.647C9.6002 25.7615 9.45027 25.8187 9.30027 25.8187Z" fill="#DBB56A"/>
<path d="M14.2031 15.6812C14.0532 15.6812 13.9032 15.624 13.7888 15.5096C13.56 15.2807 13.56 14.9097 13.7888 14.681L14.7644 13.7054C14.9933 13.4765 15.3643 13.4765 15.593 13.7054C15.8219 13.9342 15.8219 14.3052 15.593 14.534L14.6174 15.5096C14.503 15.624 14.353 15.6812 14.2031 15.6812Z" fill="#DBB56A"/>
<path d="M16.2173 25.1719C16.0673 25.1719 15.9173 25.1147 15.803 25.0002C15.5741 24.7714 15.5741 24.4004 15.803 24.1716L16.7786 23.196C17.0074 22.9672 17.3784 22.9672 17.6072 23.196C17.836 23.4248 17.836 23.7958 17.6072 24.0246L16.6316 25.0002C16.5172 25.1147 16.3672 25.1719 16.2173 25.1719Z" fill="#DBB56A"/>
<path d="M18.4175 19.3111C18.2675 19.3111 18.1175 19.254 18.0032 19.1395C17.7743 18.9107 17.7743 18.5397 18.0032 18.3109L18.9788 17.3353C19.2076 17.1065 19.5786 17.1065 19.8074 17.3353C20.0362 17.5641 20.0362 17.9351 19.8074 18.1639L18.8318 19.1395C18.7174 19.2539 18.5674 19.3111 18.4175 19.3111Z" fill="#DBB56A"/>
<path d="M21.8526 30.9112C21.7027 30.9112 21.5527 30.854 21.4383 30.7396C21.2094 30.5107 21.2094 30.1398 21.4382 29.911L22.4138 28.9353C22.6427 28.7065 23.0137 28.7064 23.2424 28.9353C23.4713 29.1642 23.4713 29.5351 23.2424 29.7639L22.2669 30.7396C22.1525 30.8539 22.0025 30.9112 21.8526 30.9112Z" fill="#DBB56A"/>
<path d="M27.9195 26.3065C27.7695 26.3065 27.6196 26.2493 27.5051 26.1349C27.2763 25.906 27.2763 25.535 27.5052 25.3063L28.4808 24.3306C28.7096 24.1017 29.0807 24.1018 29.3094 24.3306C29.5382 24.5595 29.5382 24.9305 29.3093 25.1592L28.3337 26.1349C28.2194 26.2493 28.0694 26.3065 27.9195 26.3065Z" fill="#DBB56A"/>
</g>
<defs>
<clipPath id="clip0">
<rect width="40" height="40" fill="white"/>
</clipPath>
</defs>
</svg>
