<svg width="40" height="40" viewBox="0 0 40 40" fill="none" xmlns="http://www.w3.org/2000/svg">
<path d="M36.4105 27.91L35.8487 26.5527L29.3874 10.9459C29.3277 10.8023 29.2139 10.6885 29.0703 10.6288L12.0922 3.59782C11.9425 3.5354 11.774 3.53813 11.626 3.60556C11.4785 3.67243 11.3652 3.79782 11.3133 3.95141L10.2603 7.06282L0.123067 37.0133L0.120332 37.0227C-0.155918 37.8403 0.0512697 38.7281 0.661739 39.3385C0.967207 39.644 1.34182 39.8484 1.74229 39.9418C2.14283 40.0352 2.56932 40.0175 2.97807 39.8794L22.1907 33.3804L23.2547 32.281L28.1449 31.3662L32.9467 29.742L36.0574 28.6895C36.211 28.6376 36.3353 28.5244 36.4027 28.3763C36.4696 28.2288 36.4724 28.0603 36.4105 27.91Z" fill="#F9D11F"/>
<path d="M36.0575 28.6895L32.9467 29.7419L28.1449 31.3662L23.2548 32.281L22.1908 33.3804L2.97803 39.8794C2.5692 40.0175 2.14272 40.0351 1.74225 39.9418C1.3417 39.8484 0.967173 39.644 0.661704 39.3385C0.0512353 38.728 -0.155874 37.8402 0.120298 37.0226L0.123032 37.0133C0.949517 37.7281 2.09795 37.9585 3.14374 37.6055L35.8486 26.5526L36.4104 27.91C36.4723 28.0602 36.4695 28.2287 36.4026 28.3762C36.3354 28.5244 36.2111 28.6376 36.0575 28.6895Z" fill="#FFA402"/>
<path d="M36.0574 28.6895L32.9467 29.742C32.7958 29.1006 32.6097 28.426 32.381 27.7244C31.1999 24.1025 28.8824 19.7442 24.48 15.3407C19.2219 10.0858 14.2346 8.0097 10.2824 7.08384L10.2603 7.06282L11.3132 3.95141C11.3652 3.79782 11.4784 3.67243 11.6259 3.60556C11.7739 3.53813 11.9424 3.5354 12.0921 3.59782L29.0702 10.6288C29.2139 10.6885 29.3276 10.8023 29.3873 10.9459L35.8486 26.5527L36.4104 27.91C36.4723 28.0602 36.4696 28.2288 36.4027 28.3763C36.3353 28.5244 36.211 28.6376 36.0574 28.6895Z" fill="#FDEDA5"/>
<path d="M36.0573 28.6895L32.9466 29.7419C32.7957 29.1005 32.6096 28.426 32.3809 27.7244L35.8485 26.5526L36.4103 27.91C36.4722 28.0602 36.4694 28.2287 36.4026 28.3762C36.3352 28.5244 36.2109 28.6376 36.0573 28.6895Z" fill="#FBDF63"/>
<path d="M39.9496 27.299C39.0789 23.149 36.6316 16.7925 29.9178 10.0786C23.203 3.36684 16.8456 0.920674 12.6946 0.049971C11.4742 -0.20581 10.2721 0.544424 9.95557 1.73606C9.9451 1.77638 9.93565 1.81669 9.92682 1.85763C9.79807 2.46919 9.9158 3.09294 10.2578 3.61606C10.3473 3.75419 10.4506 3.88067 10.5643 3.9945C10.882 4.31216 11.2847 4.53146 11.7344 4.62544C15.2645 5.36575 20.7104 7.48599 26.6121 13.3845C32.5116 19.2852 34.633 24.7301 35.3738 28.2586C35.4666 28.7039 35.6859 29.1089 36.0069 29.4298L36.0074 29.4304C36.5681 29.9911 37.3664 30.2292 38.1415 30.0662C38.1824 30.0574 38.2239 30.048 38.2636 30.0369C38.8227 29.8889 39.3006 29.5447 39.6188 29.0574C39.9606 28.5343 40.0778 27.91 39.9496 27.299Z" fill="#F79E60"/>
<path d="M39.9495 27.299C39.0789 23.149 36.6316 16.7925 29.9178 10.0786C23.203 3.36685 16.8456 0.920674 12.6946 0.049971C11.4742 -0.20581 10.2721 0.544424 9.95557 1.73606C10.2981 1.64435 10.6666 1.62942 11.0372 1.70731C15.1882 2.57802 21.5456 5.02419 28.2606 11.7359C34.9743 18.4498 37.4217 24.8063 38.2923 28.9563C38.3685 29.3198 38.3581 29.6883 38.2635 30.0369C38.8226 29.8889 39.3005 29.5447 39.6187 29.0574C39.9606 28.5343 40.0777 27.91 39.9495 27.299Z" fill="#D77D41"/>
<path d="M18.5503 15.5194C18.5502 14.534 18.1666 13.6077 17.4698 12.9108C17.4697 12.9108 17.4695 12.9106 17.4695 12.9105C16.0306 11.4721 13.6895 11.4721 12.2508 12.9105C11.5537 13.6074 11.1699 14.5339 11.1699 15.5195C11.1699 16.5049 11.5537 17.4312 12.2505 18.1281C12.2505 18.1282 12.2507 18.1283 12.2508 18.1285C13.6896 19.5669 16.0307 19.5669 17.4695 18.1285C18.1664 17.4315 18.5502 16.505 18.5503 15.5194Z" fill="#ED2020"/>
<path d="M15.483 24.5109C15.4829 24.5109 15.4828 24.5108 15.4827 24.5107C14.0439 23.0723 11.7028 23.0723 10.264 24.5107C9.56701 25.2076 9.18311 26.1341 9.18311 27.1197C9.18311 28.1051 9.56686 29.0314 10.2637 29.7283C10.2637 29.7284 10.2639 29.7285 10.264 29.7286C11.7029 31.167 14.044 31.167 15.4827 29.7286C16.1797 29.0317 16.5636 28.1052 16.5636 27.1196C16.5636 26.1342 16.1798 25.2079 15.483 24.5109Z" fill="#ED2020"/>
<path d="M28.1452 31.3667L22.1861 33.3671L21.9292 33.1102C21.4917 32.6726 21.1779 32.1445 21.0044 31.5689C20.9017 31.2275 20.8486 30.8684 20.8486 30.5015C20.8486 29.516 21.2325 28.5895 21.9292 27.8929C22.649 27.1741 23.5943 26.8145 24.5389 26.8145C25.4836 26.8145 26.4288 27.1741 27.148 27.8934C27.5286 28.274 27.8148 28.7205 27.9971 29.2055C28.2092 29.7701 28.2799 30.3855 28.1943 31.007L28.1452 31.3667Z" fill="#ED2020"/>
<path d="M28.1457 31.3666L22.1865 33.367L21.9296 33.1102C21.4921 32.6726 21.1783 32.1445 21.0049 31.5688L27.9976 29.2055C28.2097 29.7701 28.2804 30.3855 28.1948 31.007L28.1457 31.3666Z" fill="#C71E1E"/>
<path d="M8.82802 31.6791C8.79083 31.4224 8.58919 31.2207 8.33247 31.1835C8.28622 31.1768 7.86512 31.1193 7.3277 31.1696C6.55762 31.2417 5.92466 31.5056 5.49708 31.9331C5.0695 32.3606 4.80536 32.9935 4.73333 33.7635C4.68302 34.3009 4.74059 34.7219 4.74731 34.7681C4.76591 34.8965 4.82567 35.011 4.91278 35.0982C4.99989 35.1854 5.1145 35.2451 5.24286 35.2638C5.28903 35.2705 5.71012 35.3279 6.24762 35.2776C7.0177 35.2056 7.65067 34.9416 8.07825 34.5142C8.50583 34.0867 8.76997 33.4538 8.842 32.6838C8.89223 32.1463 8.83473 31.7253 8.82802 31.6791Z" fill="#68C044"/>
<path d="M22.3227 25.3311C22.3398 25.2876 22.4918 24.8908 22.5654 24.3561C22.671 23.5899 22.5582 22.9134 22.2394 22.3998C21.9206 21.8859 21.3645 21.4846 20.631 21.239C20.1192 21.0674 19.6961 21.0274 19.6496 21.0234C19.3913 21.0012 19.149 21.1515 19.0541 21.393C19.037 21.4364 18.885 21.8332 18.8114 22.3679C18.7059 23.134 18.8186 23.8105 19.1374 24.3242C19.2268 24.4684 19.335 24.6037 19.4605 24.7291C19.7822 25.0509 20.2181 25.3083 20.7457 25.485C21.2575 25.6566 21.6806 25.6966 21.7271 25.7005C21.9856 25.7227 22.2278 25.5725 22.3227 25.3311Z" fill="#68C044"/>
<path d="M11.649 21.1942L10.755 19.8005C10.5802 19.5278 10.2178 19.449 9.94546 19.6236C9.67303 19.7984 9.59389 20.1608 9.76858 20.4332L10.6626 21.8269C10.6858 21.8633 10.7124 21.8961 10.7417 21.9254C10.9323 22.116 11.236 22.1553 11.4721 22.0038C11.7445 21.829 11.8237 21.4666 11.649 21.1942Z" fill="#FDEDA5"/>
<path d="M24.1514 19.6436L22.8939 18.5663C22.6482 18.3557 22.2783 18.3842 22.0678 18.63C21.8672 18.8641 21.8835 19.2107 22.0979 19.4251C22.1086 19.4358 22.1198 19.4462 22.1315 19.4562L23.389 20.5335C23.6347 20.7441 24.0046 20.7156 24.2152 20.4698C24.4258 20.2241 24.3978 19.8531 24.1514 19.6436Z" fill="#FDEDA5"/>
<path d="M18.9525 30.8724L19.1102 29.3619C19.1438 29.0402 18.91 28.7519 18.5882 28.7183C18.2664 28.6847 17.9782 28.9184 17.9446 29.2403L17.7869 30.7508C17.7678 30.9336 17.835 31.1056 17.9556 31.2262C18.0474 31.3179 18.1699 31.3799 18.3089 31.3944C18.6308 31.428 18.9189 31.1943 18.9525 30.8724Z" fill="#FDEDA5"/>
</svg>
