<svg width="40" height="40" viewBox="0 0 40 40" fill="none" xmlns="http://www.w3.org/2000/svg">
<path d="M27.0812 35.7657V38.1836H12.9194V35.7657C17.5837 36.7969 22.4169 36.7969 27.0812 35.7657Z" fill="#86909D"/>
<path d="M12.8906 35.7657V38.2032H15.3125V36.212C14.5312 36.0932 13.6719 35.9441 12.8906 35.7657Z" fill="#6C747C"/>
<path d="M36.8844 20.5094C37.0265 20.4723 37.175 20.4665 37.3196 20.4924C37.4642 20.5182 37.6015 20.5752 37.722 20.6592C37.8424 20.7433 37.9432 20.8525 38.0174 20.9793C38.0916 21.1061 38.1373 21.2475 38.1516 21.3937L38.4117 24.1133L38.4078 24.1297C38.1806 24.0833 37.949 24.0626 37.7172 24.0679H34.5391V21.4531L36.8844 20.5094Z" fill="#EAA086"/>
<path d="M34.5392 21.4532V24.068H31.0845V24.0313L27.0806 22.3282C27.2228 21.9719 27.4845 21.5719 27.8649 21.3594L32.2829 18.8938L33.9313 17.9743C33.9934 17.9395 34.0634 17.9215 34.1345 17.922C34.2056 17.9226 34.2753 17.9418 34.3368 17.9776C34.3982 18.0135 34.4492 18.0648 34.4847 18.1264C34.5202 18.188 34.539 18.2578 34.5392 18.329V21.4532Z" fill="#EDBF8A"/>
<path d="M0.969727 26.7679H39.0314C38.2666 30.8695 33.5393 34.2937 27.0814 35.7656C22.4172 36.7968 17.584 36.7968 12.9197 35.7656C6.46191 34.2937 1.73457 30.8695 0.969727 26.7679Z" fill="#C96177"/>
<path d="M5.33184 18.8039L8.53574 20.2899L6.4123 24.068H2.2834C2.04314 24.0611 1.80303 24.086 1.56934 24.1422L2.08574 18.7414C2.09968 18.5981 2.14455 18.4595 2.21726 18.3353C2.28997 18.211 2.38879 18.1039 2.50689 18.0216C2.62499 17.9392 2.75956 17.8834 2.90132 17.8581C3.04307 17.8328 3.18862 17.8386 3.32793 17.875L5.33184 18.8039Z" fill="#EDBF8A"/>
<path d="M7.47578 16.3211L9.79688 18.0461L8.53594 20.2899L5.33203 18.8039L5.99688 16.6555C6.06407 16.528 6.15808 16.4167 6.27244 16.329C6.3868 16.2413 6.51879 16.1795 6.65932 16.1477C6.79986 16.116 6.94562 16.115 7.08656 16.1449C7.2275 16.1749 7.36029 16.235 7.47578 16.3211Z" fill="#EAA086"/>
<path d="M8.53603 20.2899L9.79697 18.0461L10.1501 17.418C10.3044 17.1447 10.5281 16.917 10.7985 16.7578C11.0689 16.5985 11.3765 16.5133 11.6904 16.5109C12.0042 16.5084 12.3131 16.5888 12.586 16.7438C12.8588 16.8988 13.086 17.123 13.2446 17.3938L14.2829 19.1735V19.1742L15.454 21.1821L17.1376 24.068H6.4126L8.53603 20.2899Z" fill="#D3AB84"/>
<path d="M31.0842 24.0312V24.0679H21.7366L21.5827 22.9015C21.4038 21.539 22.7795 20.4992 24.0483 21.039L24.7577 21.3406L27.0803 22.3281L31.0842 24.0312Z" fill="#D3AB84"/>
<path d="M24.6197 18.3969L24.758 21.3406L24.0486 21.0391C22.7799 20.4992 21.4041 21.5391 21.583 22.9016L21.7369 24.068H17.1377L15.4541 21.182L15.4666 21.175L21.7416 17.075L21.8635 16.9953C22.1962 16.7766 22.5926 16.6757 22.9894 16.7087C23.3862 16.7417 23.7605 16.9067 24.0525 17.1774C24.2228 17.3332 24.3606 17.5212 24.458 17.7305C24.5553 17.9398 24.6103 18.1662 24.6197 18.3969Z" fill="#EAA086"/>
<path d="M21.7413 17.075L15.4663 21.175L15.4538 21.1821L14.2827 19.1743V14.218C14.2833 14.0383 14.3309 13.862 14.4206 13.7063C14.5103 13.5506 14.6391 13.4211 14.7943 13.3305C14.9494 13.2399 15.1256 13.1914 15.3052 13.1897C15.4849 13.1881 15.6619 13.2334 15.8187 13.3211L20.9569 16.1891C21.3131 16.3847 21.5903 16.6978 21.7413 17.075Z" fill="#EDBF8A"/>
<path d="M25.632 15.5L24.0523 17.1774C23.7603 16.9067 23.386 16.7417 22.9892 16.7088C22.5924 16.6758 22.196 16.7767 21.8633 16.9953L21.7414 17.075C21.5904 16.6978 21.3132 16.3847 20.957 16.1891L21.6539 13.8914C21.7212 13.7641 21.8153 13.6529 21.9297 13.5653C22.0441 13.4778 22.176 13.416 22.3165 13.3842C22.457 13.3525 22.6027 13.3515 22.7436 13.3813C22.8845 13.4111 23.0173 13.4711 23.1328 13.5571L25.632 15.5Z" fill="#D3AB84"/>
<path d="M30.8163 13.9054L32.2827 18.8937L27.8647 21.3594C27.4843 21.5719 27.2226 21.9719 27.0804 22.3281L24.7577 21.3406L24.6194 18.3969C24.61 18.1662 24.555 17.9397 24.4577 17.7304C24.3603 17.5211 24.2225 17.3331 24.0522 17.1773L25.6319 15.5L27.8054 13.1922C28.0202 12.9634 28.2916 12.7953 28.5922 12.7049C28.8928 12.6146 29.2119 12.6051 29.5173 12.6774C29.8227 12.7498 30.1036 12.9014 30.3317 13.117C30.5598 13.3326 30.7269 13.6046 30.8163 13.9054Z" fill="#F3CE7D"/>
<path d="M28.4727 9.37032C28.532 9.47769 28.5619 9.59884 28.5593 9.72147C28.5566 9.8441 28.5216 9.96386 28.4577 10.0686C28.3939 10.1733 28.3034 10.2593 28.1956 10.3178C28.0878 10.3762 27.9664 10.4052 27.8438 10.4016L19.6157 10.1789C19.4746 10.1751 19.3369 10.1342 19.2167 10.0603C19.0964 9.9863 18.9978 9.88193 18.9307 9.75768C18.8637 9.63343 18.8306 9.49369 18.8348 9.35257C18.839 9.21145 18.8804 9.07394 18.9547 8.95392L23.1462 2.19611C23.22 2.07698 23.3238 1.97926 23.4471 1.91265C23.5705 1.84604 23.7091 1.81287 23.8492 1.81642C23.9893 1.81997 24.1261 1.86014 24.2459 1.93291C24.3657 2.00569 24.4644 2.10854 24.5321 2.23126L28.4727 9.37032Z" fill="#D3AB84"/>
<path d="M15.8274 5.91251C15.9481 5.93417 16.061 5.98738 16.1545 6.06674C16.248 6.1461 16.3189 6.24878 16.3599 6.36437C16.4009 6.47996 16.4106 6.60434 16.388 6.72489C16.3655 6.84544 16.3114 6.95788 16.2313 7.05079L10.8649 13.2883C10.7728 13.3953 10.6541 13.4761 10.5208 13.5227C10.3874 13.5692 10.2442 13.5798 10.1055 13.5533C9.96679 13.5268 9.83751 13.4643 9.73067 13.372C9.62384 13.2796 9.54322 13.1608 9.49696 13.0274L6.89696 5.51407C6.85124 5.38158 6.84099 5.23943 6.86722 5.10175C6.89345 4.96407 6.95526 4.83565 7.04649 4.72926C7.13772 4.62286 7.25521 4.54219 7.38727 4.49525C7.51934 4.44832 7.66138 4.43676 7.7993 4.46173L15.8274 5.91251ZM13.8837 7.31329C13.8862 7.31227 13.8882 7.31034 13.8894 7.30788C13.8906 7.30541 13.8908 7.3026 13.8899 7.30001C13.8895 7.29868 13.8889 7.29745 13.888 7.2964C13.887 7.29535 13.8859 7.2945 13.8847 7.29391C13.8834 7.29332 13.8821 7.293 13.8807 7.29298C13.8793 7.29295 13.8779 7.29322 13.8766 7.29376C13.8742 7.29478 13.8722 7.29671 13.8711 7.29916C13.87 7.3016 13.8699 7.30436 13.8708 7.30688C13.8717 7.30939 13.8736 7.31146 13.876 7.31265C13.8784 7.31385 13.8811 7.31408 13.8837 7.31329ZM12.3673 9.15626C12.3699 9.1553 12.372 9.15341 12.3733 9.15096C12.3746 9.14851 12.375 9.14567 12.3743 9.14298C12.3739 9.14168 12.3732 9.14048 12.3723 9.13945C12.3713 9.13843 12.3702 9.1376 12.369 9.13701C12.3678 9.13643 12.3664 9.1361 12.365 9.13605C12.3637 9.136 12.3623 9.13623 12.361 9.13673C12.3597 9.13706 12.3585 9.13767 12.3575 9.1385C12.3565 9.13933 12.3557 9.14038 12.3551 9.14156C12.3545 9.14274 12.3541 9.14404 12.3541 9.14536C12.354 9.14668 12.3543 9.148 12.3548 9.14923C12.3555 9.15178 12.3573 9.15393 12.3596 9.15524C12.3619 9.15655 12.3647 9.15692 12.3673 9.15626ZM10.7141 11.393C10.7167 11.392 10.7187 11.39 10.7199 11.3876C10.721 11.3851 10.7212 11.3823 10.7204 11.3797C10.7196 11.3771 10.7177 11.3749 10.7153 11.3737C10.7129 11.3725 10.7101 11.3722 10.7075 11.3731C10.7049 11.3739 10.7028 11.3757 10.7015 11.3781C10.7003 11.3805 10.7 11.3834 10.7009 11.3859C10.7017 11.3886 10.7036 11.3908 10.7061 11.3921C10.7086 11.3934 10.7114 11.3937 10.7141 11.393ZM9.69774 8.85469C9.70026 8.85368 9.70231 8.85175 9.70347 8.84928C9.70463 8.84682 9.70481 8.84401 9.70399 8.84141C9.70355 8.84011 9.70286 8.83891 9.70194 8.83789C9.70103 8.83687 9.69992 8.83604 9.69868 8.83545C9.69744 8.83487 9.69609 8.83454 9.69472 8.83449C9.69335 8.83444 9.69199 8.83467 9.69071 8.83516C9.68823 8.836 9.68618 8.83779 9.68501 8.84013C9.68384 8.84247 9.68364 8.84518 9.68446 8.84766C9.68534 8.85032 9.68721 8.85254 9.68968 8.85385C9.69216 8.85516 9.69504 8.85546 9.69774 8.85469ZM8.68133 5.9336C8.6838 5.93252 8.68579 5.93057 8.68694 5.92813C8.68809 5.92569 8.68832 5.92292 8.68758 5.92032C8.68656 5.91779 8.68463 5.91575 8.68217 5.91459C8.6797 5.91343 8.67689 5.91324 8.6743 5.91407C8.67297 5.91447 8.67174 5.91514 8.67069 5.91604C8.66964 5.91694 8.66879 5.91806 8.6682 5.91931C8.66761 5.92057 8.66729 5.92193 8.66727 5.92332C8.66724 5.9247 8.66751 5.92608 8.66805 5.92735C8.669 5.92993 8.67093 5.93203 8.67341 5.93319C8.6759 5.93436 8.67874 5.93451 8.68133 5.9336Z" fill="#EDBF8A"/>
<path d="M39.0908 24.7992C39.0181 24.4024 38.7689 24.2106 38.408 24.127C38.1809 24.0796 37.9493 24.058 37.7174 24.0625H2.28377C2.04339 24.0564 1.80327 24.0823 1.56971 24.1395C1.2244 24.2364 0.985336 24.4502 0.899398 24.8932C0.861298 25.129 0.848205 25.3682 0.860336 25.6067C0.860409 26.006 0.89702 26.4044 0.96971 26.7969H39.0314C39.1041 26.4046 39.1407 26.0064 39.1408 25.6075C39.1481 25.3371 39.1314 25.0666 39.0908 24.7992Z" fill="#EB7288"/>
<path d="M15.3416 35.7801C8.88379 34.3082 4.15645 30.8594 3.3916 26.7969H0.969727C1.73457 30.8594 6.46191 34.3082 12.9197 35.7801C15.2443 36.2982 17.6194 36.5552 20.001 36.5462C20.4079 36.5462 20.8114 36.5419 21.2119 36.5276C19.2361 36.4628 17.2706 36.2125 15.3416 35.7801Z" fill="#9E4F62"/>
<path d="M3.32127 24.8932C3.40721 24.4502 3.64627 24.2364 3.99159 24.1395C4.22514 24.0823 4.46527 24.0564 4.70565 24.0625H2.28377C2.04339 24.0564 1.80327 24.0823 1.56971 24.1395C1.2244 24.2364 0.985336 24.4502 0.899398 24.8932C0.861298 25.129 0.848205 25.3682 0.860336 25.6067C0.860409 26.006 0.89702 26.4044 0.969711 26.7969H3.39159C3.31889 26.4044 3.28228 26.006 3.28221 25.6067C3.27008 25.3682 3.28317 25.129 3.32127 24.8932Z" fill="#B25D71"/>
<path d="M16.4408 34.1425H16.4287C14.1612 34.0944 11.9331 33.5401 9.90743 32.5201C9.85204 32.4926 9.80263 32.4545 9.76205 32.4078C9.72147 32.3612 9.69053 32.307 9.67099 32.2483C9.65145 32.1896 9.64371 32.1277 9.64822 32.066C9.65272 32.0044 9.66938 31.9442 9.69724 31.889C9.72509 31.8338 9.76359 31.7847 9.81052 31.7444C9.85744 31.7042 9.91187 31.6736 9.97066 31.6545C10.0295 31.6353 10.0915 31.628 10.1531 31.6329C10.2147 31.6379 10.2748 31.6549 10.3298 31.6832C12.2318 32.6404 14.3237 33.1605 16.4525 33.2053C16.5768 33.2069 16.6954 33.2578 16.7822 33.3468C16.8691 33.4358 16.9169 33.5556 16.9154 33.68C16.9138 33.8043 16.863 33.9229 16.774 34.0097C16.6849 34.0965 16.5651 34.1444 16.4408 34.1428V34.1425Z" fill="#F4F8FC"/>
<path d="M8.54533 31.6537C8.45314 31.6539 8.36297 31.6267 8.28619 31.5756C8.0776 31.4369 7.8683 31.2905 7.66416 31.1407C7.5657 31.0665 7.50044 30.9565 7.48252 30.8345C7.4646 30.7125 7.49546 30.5884 7.56841 30.489C7.64136 30.3896 7.75054 30.323 7.87228 30.3035C7.99403 30.284 8.11854 30.3133 8.21885 30.385C8.41135 30.5262 8.60862 30.6642 8.80518 30.795C8.88916 30.8507 8.95295 30.932 8.98709 31.0268C9.02124 31.1216 9.02392 31.2249 8.99473 31.3214C8.96555 31.4178 8.90606 31.5023 8.82508 31.5623C8.74411 31.6223 8.64595 31.6546 8.54518 31.6544L8.54533 31.6537Z" fill="#F4F8FC"/>
<path d="M36.6336 21.9687C36.5388 21.9687 36.4461 21.9968 36.3673 22.0495C36.2885 22.1022 36.227 22.177 36.1908 22.2646C36.1545 22.3522 36.145 22.4486 36.1635 22.5416C36.182 22.6345 36.2277 22.7199 36.2947 22.787C36.3617 22.854 36.4472 22.8996 36.5401 22.9181C36.6331 22.9366 36.7295 22.9271 36.8171 22.8908C36.9046 22.8545 36.9795 22.7931 37.0322 22.7142C37.0848 22.6354 37.1129 22.5427 37.1129 22.4479C37.1127 22.3209 37.0622 22.1991 36.9723 22.1092C36.8825 22.0194 36.7607 21.9689 36.6336 21.9687Z" fill="#C68671"/>
<path d="M32.8116 20.7875C32.9063 20.7875 32.999 20.7594 33.0777 20.7068C33.1565 20.6542 33.2179 20.5793 33.2542 20.4918C33.2904 20.4043 33.2999 20.3079 33.2814 20.215C33.263 20.1221 33.2173 20.0367 33.1503 19.9697C33.0833 19.9027 32.998 19.8571 32.905 19.8386C32.8121 19.8201 32.7158 19.8296 32.6283 19.8659C32.5407 19.9021 32.4659 19.9635 32.4133 20.0423C32.3606 20.1211 32.3325 20.2137 32.3325 20.3085C32.3327 20.4355 32.3832 20.5572 32.473 20.6471C32.5628 20.7369 32.6846 20.7874 32.8116 20.7875Z" fill="#D3AB84"/>
<path d="M32.8116 23.1053C32.9063 23.1053 32.999 23.0772 33.0777 23.0245C33.1565 22.9719 33.2179 22.8971 33.2542 22.8095C33.2904 22.722 33.2999 22.6257 33.2814 22.5327C33.263 22.4398 33.2173 22.3544 33.1503 22.2874C33.0833 22.2204 32.998 22.1748 32.905 22.1563C32.8121 22.1378 32.7158 22.1473 32.6283 22.1836C32.5407 22.2199 32.4659 22.2813 32.4133 22.36C32.3606 22.4388 32.3325 22.5314 32.3325 22.6262C32.3327 22.7532 32.3832 22.875 32.473 22.9648C32.5628 23.0546 32.6846 23.1051 32.8116 23.1053Z" fill="#D3AB84"/>
<path d="M11.6587 18.8263C11.7535 18.8263 11.8461 18.7982 11.9249 18.7455C12.0037 18.6929 12.0651 18.6181 12.1013 18.5306C12.1376 18.443 12.1471 18.3467 12.1286 18.2538C12.1101 18.1608 12.0645 18.0755 11.9975 18.0085C11.9305 17.9415 11.8451 17.8959 11.7522 17.8774C11.6593 17.8589 11.563 17.8684 11.4754 17.9046C11.3879 17.9409 11.3131 18.0023 11.2604 18.0811C11.2078 18.1599 11.1797 18.2525 11.1797 18.3472C11.1798 18.4742 11.2304 18.596 11.3202 18.6858C11.41 18.7756 11.5317 18.8261 11.6587 18.8263Z" fill="#AF8D71"/>
<path d="M10.1382 21.5006C10.233 21.5006 10.3256 21.4725 10.4044 21.4199C10.4832 21.3673 10.5446 21.2924 10.5808 21.2049C10.6171 21.1174 10.6266 21.021 10.6081 20.9281C10.5896 20.8352 10.544 20.7498 10.477 20.6828C10.41 20.6158 10.3246 20.5702 10.2317 20.5517C10.1388 20.5332 10.0425 20.5427 9.95491 20.579C9.86738 20.6152 9.79256 20.6766 9.73992 20.7554C9.68728 20.8342 9.65918 20.9268 9.65918 21.0216C9.6593 21.1486 9.70982 21.2704 9.79963 21.3602C9.88945 21.45 10.0112 21.5005 10.1382 21.5006Z" fill="#AF8D71"/>
<path d="M13.001 21.0549C13.2656 21.0549 13.4801 20.8404 13.4801 20.5758C13.4801 20.3113 13.2656 20.0968 13.001 20.0968C12.7365 20.0968 12.522 20.3113 12.522 20.5758C12.522 20.8404 12.7365 21.0549 13.001 21.0549Z" fill="#AF8D71"/>
<path d="M11.7485 22.3254C11.6538 22.3254 11.5612 22.3535 11.4824 22.4062C11.4036 22.4588 11.3422 22.5337 11.306 22.6212C11.2697 22.7087 11.2603 22.8051 11.2787 22.898C11.2972 22.9909 11.3429 23.0763 11.4099 23.1432C11.4769 23.2102 11.5622 23.2559 11.6552 23.2743C11.7481 23.2928 11.8444 23.2833 11.9319 23.2471C12.0195 23.2108 12.0943 23.1494 12.1469 23.0706C12.1996 22.9918 12.2277 22.8992 12.2277 22.8045C12.2275 22.6774 12.177 22.5557 12.0872 22.4659C11.9973 22.376 11.8755 22.3255 11.7485 22.3254Z" fill="#AF8D71"/>
<path d="M17.7814 22.3921C17.8761 22.3921 17.9688 22.364 18.0475 22.3113C18.1263 22.2587 18.1877 22.1838 18.2239 22.0963C18.2602 22.0087 18.2697 21.9124 18.2512 21.8195C18.2327 21.7266 18.187 21.6412 18.12 21.5742C18.053 21.5072 17.9676 21.4616 17.8747 21.4431C17.7818 21.4247 17.6854 21.4342 17.5979 21.4705C17.5104 21.5067 17.4356 21.5681 17.3829 21.6469C17.3303 21.7257 17.3022 21.8184 17.3022 21.9131C17.3024 22.0401 17.3529 22.1619 17.4428 22.2517C17.5326 22.3415 17.6544 22.392 17.7814 22.3921Z" fill="#C68671"/>
<path d="M22.7022 19.3611C22.797 19.3611 22.8896 19.333 22.9684 19.2804C23.0471 19.2278 23.1085 19.1529 23.1448 19.0654C23.1811 18.9779 23.1905 18.8815 23.1721 18.7886C23.1536 18.6957 23.108 18.6103 23.041 18.5433C22.974 18.4763 22.8886 18.4307 22.7957 18.4122C22.7027 18.3937 22.6064 18.4032 22.5189 18.4395C22.4313 18.4757 22.3565 18.5371 22.3039 18.6159C22.2512 18.6947 22.2231 18.7873 22.2231 18.8821C22.2233 19.0091 22.2738 19.1309 22.3636 19.2207C22.4534 19.3105 22.5752 19.361 22.7022 19.3611Z" fill="#C68671"/>
<path d="M20.3761 20.6984C20.4709 20.6983 20.5635 20.6702 20.6422 20.6176C20.721 20.5649 20.7824 20.4901 20.8187 20.4026C20.8549 20.315 20.8644 20.2187 20.8459 20.1258C20.8274 20.0329 20.7818 19.9475 20.7148 19.8805C20.6478 19.8135 20.5624 19.7679 20.4695 19.7494C20.3765 19.731 20.2802 19.7404 20.1927 19.7767C20.1052 19.813 20.0303 19.8744 19.9777 19.9532C19.9251 20.0319 19.897 20.1246 19.897 20.2193C19.8971 20.3463 19.9476 20.4681 20.0375 20.5579C20.1273 20.6477 20.2491 20.6982 20.3761 20.6984Z" fill="#C68671"/>
<path d="M20.1968 23.3727C20.2916 23.3727 20.3842 23.3446 20.463 23.2919C20.5418 23.2393 20.6032 23.1645 20.6394 23.0769C20.6757 22.9894 20.6852 22.8931 20.6667 22.8001C20.6482 22.7072 20.6026 22.6218 20.5356 22.5548C20.4686 22.4878 20.3832 22.4422 20.2903 22.4237C20.1974 22.4052 20.101 22.4147 20.0135 22.451C19.926 22.4872 19.8511 22.5486 19.7985 22.6274C19.7459 22.7062 19.7178 22.7988 19.7178 22.8936C19.7179 23.0206 19.7684 23.1424 19.8582 23.2322C19.9481 23.322 20.0698 23.3725 20.1968 23.3727Z" fill="#C68671"/>
<path d="M23.207 22.7153C23.207 22.8101 23.2351 22.9027 23.2878 22.9815C23.3404 23.0602 23.4152 23.1216 23.5028 23.1579C23.5903 23.1942 23.6866 23.2036 23.7796 23.1852C23.8725 23.1667 23.9578 23.121 24.0248 23.0541C24.0918 22.9871 24.1375 22.9017 24.1559 22.8088C24.1744 22.7158 24.1649 22.6195 24.1287 22.532C24.0924 22.4444 24.031 22.3696 23.9522 22.317C23.8735 22.2643 23.7808 22.2362 23.6861 22.2362C23.5591 22.2364 23.4373 22.2869 23.3475 22.3767C23.2577 22.4665 23.2072 22.5883 23.207 22.7153Z" fill="#AF8D71"/>
<path d="M26.46 16.776C26.5548 16.776 26.6474 16.7479 26.7262 16.6953C26.805 16.6427 26.8664 16.5678 26.9026 16.4803C26.9389 16.3928 26.9484 16.2964 26.9299 16.2035C26.9114 16.1106 26.8658 16.0252 26.7988 15.9582C26.7318 15.8912 26.6464 15.8456 26.5535 15.8271C26.4606 15.8086 26.3642 15.8181 26.2767 15.8544C26.1892 15.8906 26.1143 15.952 26.0617 16.0308C26.0091 16.1096 25.981 16.2022 25.981 16.297C25.9811 16.424 26.0316 16.5457 26.1214 16.6356C26.2112 16.7254 26.333 16.7759 26.46 16.776Z" fill="#D3AB84"/>
<path d="M26.2814 20.7875C26.3761 20.7875 26.4688 20.7594 26.5475 20.7068C26.6263 20.6541 26.6877 20.5793 26.7239 20.4917C26.7602 20.4042 26.7697 20.3079 26.7512 20.215C26.7327 20.122 26.687 20.0367 26.62 19.9697C26.553 19.9027 26.4677 19.8571 26.3747 19.8386C26.2818 19.8201 26.1855 19.8296 26.098 19.8659C26.0104 19.9021 25.9356 19.9635 25.883 20.0423C25.8303 20.1211 25.8022 20.2137 25.8022 20.3085C25.8024 20.4355 25.8529 20.5573 25.9427 20.6471C26.0326 20.7369 26.1544 20.7874 26.2814 20.7875Z" fill="#D3AB84"/>
<path d="M30.3965 18.0241C30.4913 18.0241 30.5839 17.996 30.6627 17.9433C30.7415 17.8907 30.8029 17.8159 30.8391 17.7283C30.8754 17.6408 30.8849 17.5445 30.8664 17.4516C30.8479 17.3586 30.8023 17.2733 30.7353 17.2063C30.6683 17.1393 30.5829 17.0936 30.49 17.0752C30.3971 17.0567 30.3008 17.0662 30.2132 17.1024C30.1257 17.1387 30.0509 17.2001 29.9982 17.2789C29.9456 17.3576 29.9175 17.4503 29.9175 17.545C29.9176 17.672 29.9681 17.7938 30.058 17.8836C30.1478 17.9734 30.2695 18.0239 30.3965 18.0241Z" fill="#D3AB84"/>
<path d="M28.965 15.1714C29.0597 15.1714 29.1523 15.1433 29.2311 15.0906C29.3099 15.038 29.3713 14.9632 29.4075 14.8756C29.4438 14.7881 29.4532 14.6918 29.4348 14.5988C29.4163 14.5059 29.3706 14.4206 29.3036 14.3536C29.2366 14.2866 29.1513 14.241 29.0583 14.2225C28.9654 14.204 28.8691 14.2135 28.7816 14.2498C28.694 14.286 28.6192 14.3474 28.5666 14.4262C28.5139 14.505 28.4858 14.5976 28.4858 14.6923C28.486 14.8194 28.5365 14.9412 28.6263 15.031C28.7162 15.1208 28.838 15.1713 28.965 15.1714Z" fill="#D3AB84"/>
<path d="M27.8912 18.8263C27.9859 18.8263 28.0785 18.7982 28.1573 18.7455C28.2361 18.6929 28.2975 18.6181 28.3338 18.5306C28.37 18.443 28.3795 18.3467 28.361 18.2538C28.3425 18.1608 28.2969 18.0755 28.2299 18.0085C28.1629 17.9415 28.0776 17.8959 27.9846 17.8774C27.8917 17.8589 27.7954 17.8684 27.7078 17.9046C27.6203 17.9409 27.5455 18.0023 27.4928 18.0811C27.4402 18.1599 27.4121 18.2525 27.4121 18.3472C27.4123 18.4742 27.4628 18.596 27.5526 18.6858C27.6424 18.7756 27.7642 18.8261 27.8912 18.8263Z" fill="#D3AB84"/>
<path d="M30.6647 22.2137C30.7594 22.2137 30.8521 22.1856 30.9308 22.1329C31.0096 22.0803 31.071 22.0054 31.1072 21.9179C31.1435 21.8304 31.153 21.734 31.1345 21.6411C31.116 21.5482 31.0703 21.4628 31.0033 21.3958C30.9363 21.3289 30.8509 21.2832 30.758 21.2648C30.6651 21.2463 30.5687 21.2558 30.4812 21.2921C30.3937 21.3284 30.3189 21.3898 30.2662 21.4686C30.2136 21.5473 30.1855 21.64 30.1855 21.7347C30.1857 21.8617 30.2362 21.9835 30.3261 22.0733C30.4159 22.1631 30.5377 22.2136 30.6647 22.2137Z" fill="#D3AB84"/>
<path d="M22.8809 15.7063C23.1455 15.7063 23.36 15.4918 23.36 15.2272C23.36 14.9627 23.1455 14.7482 22.8809 14.7482C22.6163 14.7482 22.4019 14.9627 22.4019 15.2272C22.4019 15.4918 22.6163 15.7063 22.8809 15.7063Z" fill="#AF8D71"/>
<path d="M15.7238 15.6172C15.8185 15.6172 15.9111 15.5891 15.9899 15.5364C16.0687 15.4837 16.1301 15.4089 16.1663 15.3214C16.2026 15.2338 16.212 15.1375 16.1935 15.0446C16.175 14.9517 16.1294 14.8663 16.0624 14.7993C15.9954 14.7323 15.91 14.6867 15.8171 14.6682C15.7241 14.6498 15.6278 14.6593 15.5403 14.6956C15.4528 14.7318 15.3779 14.7932 15.3253 14.872C15.2727 14.9508 15.2446 15.0434 15.2446 15.1382C15.2448 15.2652 15.2953 15.387 15.3851 15.4768C15.475 15.5666 15.5968 15.6171 15.7238 15.6172Z" fill="#D3AB84"/>
<path d="M17.0655 17.2217C17.1602 17.2217 17.2529 17.1936 17.3316 17.141C17.4104 17.0884 17.4718 17.0135 17.5081 16.926C17.5443 16.8385 17.5538 16.7421 17.5353 16.6492C17.5169 16.5563 17.4712 16.4709 17.4042 16.4039C17.3372 16.3369 17.2519 16.2913 17.159 16.2728C17.066 16.2543 16.9697 16.2638 16.8822 16.3001C16.7946 16.3363 16.7198 16.3977 16.6672 16.4765C16.6145 16.5553 16.5864 16.6479 16.5864 16.7427C16.5866 16.8697 16.6371 16.9915 16.7269 17.0813C16.8167 17.1711 16.9385 17.2216 17.0655 17.2217Z" fill="#D3AB84"/>
<path d="M16.2923 18.7038C16.2923 18.6091 16.2642 18.5164 16.2115 18.4376C16.1589 18.3588 16.0841 18.2974 15.9965 18.2611C15.909 18.2248 15.8126 18.2153 15.7197 18.2338C15.6267 18.2523 15.5413 18.2979 15.4743 18.3649C15.4073 18.432 15.3617 18.5173 15.3432 18.6103C15.3247 18.7032 15.3342 18.7996 15.3705 18.8871C15.4067 18.9747 15.4682 19.0495 15.547 19.1022C15.6258 19.1548 15.7184 19.1829 15.8132 19.1829C15.9402 19.1827 16.062 19.1322 16.1518 19.0424C16.2416 18.9526 16.2921 18.8308 16.2923 18.7038Z" fill="#D3AB84"/>
<path d="M19.3917 17.6674C19.4864 17.6674 19.579 17.6393 19.6578 17.5867C19.7366 17.534 19.798 17.4592 19.8343 17.3717C19.8705 17.2841 19.88 17.1878 19.8615 17.0949C19.843 17.002 19.7974 16.9166 19.7304 16.8496C19.6634 16.7826 19.5781 16.737 19.4851 16.7185C19.3922 16.7 19.2959 16.7095 19.2083 16.7458C19.1208 16.782 19.046 16.8434 18.9933 16.9222C18.9407 17.001 18.9126 17.0936 18.9126 17.1884C18.9127 17.3154 18.9633 17.4371 19.0531 17.5269C19.1429 17.6167 19.2646 17.6673 19.3917 17.6674Z" fill="#D3AB84"/>
<path d="M7.13475 17.3334C7.04 17.3334 6.94739 17.3615 6.86862 17.4142C6.78985 17.4668 6.72846 17.5416 6.69221 17.6292C6.65596 17.7167 6.64648 17.813 6.66497 17.9059C6.68346 17.9989 6.72908 18.0842 6.79608 18.1512C6.86307 18.2182 6.94842 18.2638 7.04135 18.2823C7.13427 18.3008 7.23058 18.2913 7.31812 18.2551C7.40565 18.2188 7.48047 18.1574 7.53312 18.0787C7.58576 17.9999 7.61387 17.9073 7.61389 17.8125C7.61378 17.6855 7.56327 17.5637 7.47344 17.4739C7.3836 17.384 7.26179 17.3335 7.13475 17.3334Z" fill="#C68671"/>
<path d="M3.55621 20.0743C3.65096 20.0743 3.74358 20.0462 3.82236 19.9936C3.90115 19.941 3.96255 19.8661 3.99881 19.7786C4.03507 19.6911 4.04455 19.5947 4.02607 19.5018C4.00758 19.4089 3.96196 19.3235 3.89496 19.2565C3.82796 19.1895 3.7426 19.1439 3.64967 19.1254C3.55674 19.1069 3.46042 19.1164 3.37288 19.1527C3.28534 19.1889 3.21053 19.2503 3.15789 19.3291C3.10524 19.4079 3.07715 19.5005 3.07715 19.5953C3.07729 19.7223 3.12781 19.8441 3.21762 19.9339C3.30743 20.0237 3.4292 20.0742 3.55621 20.0743Z" fill="#D3AB84"/>
<path d="M3.55621 22.7487C3.65096 22.7487 3.74358 22.7206 3.82236 22.6679C3.90115 22.6153 3.96255 22.5405 3.99881 22.4529C4.03507 22.3654 4.04455 22.2691 4.02607 22.1762C4.00758 22.0832 3.96196 21.9979 3.89496 21.9309C3.82796 21.8639 3.7426 21.8182 3.64967 21.7998C3.55674 21.7813 3.46042 21.7908 3.37288 21.827C3.28534 21.8633 3.21053 21.9247 3.15789 22.0035C3.10524 22.0822 3.07715 22.1749 3.07715 22.2696C3.07729 22.3966 3.12781 22.5184 3.21762 22.6082C3.30743 22.698 3.4292 22.7485 3.55621 22.7487Z" fill="#D3AB84"/>
<path d="M5.34576 21.2332C5.44051 21.2332 5.53313 21.2051 5.61192 21.1525C5.6907 21.0998 5.7521 21.025 5.78836 20.9375C5.82462 20.8499 5.8341 20.7536 5.81562 20.6607C5.79713 20.5678 5.75151 20.4824 5.68451 20.4154C5.61751 20.3484 5.53215 20.3028 5.43922 20.2843C5.34629 20.2658 5.24997 20.2753 5.16243 20.3116C5.0749 20.3478 5.00008 20.4092 4.94744 20.488C4.8948 20.5668 4.8667 20.6594 4.8667 20.7541C4.86684 20.8812 4.91736 21.0029 5.00717 21.0927C5.09698 21.1825 5.21875 21.2331 5.34576 21.2332Z" fill="#D3AB84"/>
<path d="M5.13477 22.8047C5.13477 22.8994 5.16286 22.992 5.2155 23.0708C5.26814 23.1496 5.34296 23.211 5.4305 23.2473C5.51804 23.2835 5.61436 23.293 5.70729 23.2745C5.80022 23.256 5.88558 23.2104 5.95258 23.1434C6.01957 23.0764 6.0652 22.991 6.08369 22.8981C6.10217 22.8052 6.09268 22.7089 6.05642 22.6213C6.02017 22.5338 5.95876 22.459 5.87998 22.4063C5.8012 22.3537 5.70858 22.3256 5.61383 22.3256C5.48682 22.3257 5.36505 22.3763 5.27524 22.4661C5.18543 22.5559 5.13491 22.6776 5.13477 22.8047Z" fill="#D3AB84"/>
<path d="M13.6706 7.73433C13.7704 7.78279 13.8838 7.79515 13.9917 7.76931C14.0995 7.74346 14.1951 7.68102 14.262 7.59262C14.3289 7.50421 14.3632 7.39533 14.3588 7.28452C14.3544 7.17372 14.3118 7.06786 14.2381 6.98499C14.1644 6.90212 14.0643 6.84737 13.9547 6.83008C13.8452 6.81279 13.7331 6.83403 13.6374 6.89017C13.5418 6.94632 13.4686 7.03389 13.4303 7.13797C13.3921 7.24204 13.3911 7.35617 13.4275 7.46089C13.448 7.52024 13.4801 7.57495 13.5218 7.62188C13.5635 7.6688 13.6141 7.70702 13.6706 7.73433Z" fill="#D3AB84"/>
<path d="M10.7977 7.01887C10.8974 7.06726 11.0108 7.07958 11.1185 7.05376C11.2263 7.02794 11.3218 6.96556 11.3887 6.87724C11.4556 6.78893 11.4899 6.68015 11.4856 6.56942C11.4813 6.45869 11.4388 6.35287 11.3653 6.26998C11.2917 6.18708 11.1917 6.13225 11.0823 6.1148C10.9729 6.09736 10.8608 6.11838 10.7651 6.17431C10.6695 6.23023 10.5961 6.31758 10.5577 6.42149C10.5192 6.5254 10.5179 6.63944 10.554 6.74418C10.5745 6.80381 10.6065 6.85879 10.6484 6.90594C10.6902 6.95309 10.741 6.99147 10.7977 7.01887Z" fill="#D3AB84"/>
<path d="M12.155 9.57718C12.2547 9.62563 12.3682 9.63801 12.476 9.61222C12.5838 9.58643 12.6793 9.52406 12.7463 9.43574C12.8133 9.34742 12.8476 9.2386 12.8433 9.12783C12.8391 9.01707 12.7966 8.91119 12.7231 8.82824C12.6495 8.7453 12.5495 8.69041 12.44 8.67293C12.3306 8.65545 12.2184 8.67646 12.1227 8.73237C12.027 8.78829 11.9537 8.87566 11.9151 8.9796C11.8766 9.08355 11.8753 9.19763 11.9114 9.30242C11.9319 9.36202 11.964 9.41697 12.0058 9.46413C12.0476 9.51129 12.0983 9.54971 12.155 9.57718Z" fill="#D3AB84"/>
<path d="M9.69541 9.32365C9.74764 9.32361 9.7995 9.31497 9.84892 9.2981L9.85166 9.29685C9.96523 9.25744 10.0598 9.17679 10.1167 9.07088C10.1736 8.96498 10.1886 8.84156 10.1588 8.72511C10.1289 8.60866 10.0564 8.50769 9.95556 8.44221C9.85474 8.37674 9.73299 8.35155 9.61447 8.37164C9.49594 8.39173 9.3893 8.45563 9.31569 8.55067C9.24207 8.64571 9.20687 8.76495 9.21706 8.88473C9.22724 9.00451 9.28208 9.11609 9.37068 9.19734C9.45929 9.27858 9.57519 9.32355 9.69541 9.32334V9.32365Z" fill="#D3AB84"/>
<path d="M8.46822 6.35469C8.52471 6.38235 8.58613 6.39853 8.64892 6.40228C8.71171 6.40604 8.77462 6.3973 8.834 6.37657C8.93874 6.34031 9.02767 6.26887 9.08563 6.1744C9.1436 6.07993 9.16701 5.96829 9.15189 5.85849C9.13677 5.74869 9.08404 5.64754 9.0027 5.57226C8.92135 5.49698 8.81642 5.45223 8.70579 5.44564C8.59515 5.43905 8.48565 5.47103 8.39594 5.53612C8.30624 5.60122 8.24188 5.6954 8.21383 5.80263C8.18579 5.90985 8.19579 6.02349 8.24213 6.12417C8.28847 6.22485 8.36829 6.30634 8.46799 6.35477L8.46822 6.35469Z" fill="#D3AB84"/>
<path d="M10.5013 11.8138C10.601 11.8623 10.7145 11.8746 10.8223 11.8487C10.9301 11.8229 11.0256 11.7604 11.0925 11.672C11.1594 11.5836 11.1936 11.4747 11.1892 11.3639C11.1848 11.2532 11.1421 11.1473 11.0685 11.0645C10.9948 10.9817 10.8947 10.9269 10.7851 10.9097C10.6756 10.8924 10.5635 10.9136 10.4679 10.9698C10.3723 11.0259 10.2991 11.1135 10.2609 11.2175C10.2226 11.3216 10.2216 11.4357 10.2581 11.5404C10.2786 11.5997 10.3107 11.6544 10.3524 11.7014C10.3942 11.7483 10.4448 11.7865 10.5013 11.8138Z" fill="#D3AB84"/>
<path d="M25.9109 9.14531L25.9131 9.14672C25.988 9.19277 26.0741 9.21712 26.162 9.21703C26.2774 9.21727 26.389 9.17574 26.4763 9.10011C26.5635 9.02449 26.6204 8.91987 26.6366 8.80555C26.6527 8.69124 26.627 8.57494 26.5641 8.47812C26.5012 8.3813 26.4054 8.31049 26.2944 8.27875C26.1834 8.24701 26.0647 8.25648 25.9601 8.30543C25.8556 8.35437 25.7722 8.43947 25.7255 8.54504C25.6788 8.65061 25.6718 8.76952 25.7059 8.87983C25.7399 8.99013 25.8127 9.0844 25.9109 9.14524V9.14531Z" fill="#AF8D71"/>
<path d="M24.6531 6.46665L24.6553 6.46805C24.7304 6.51446 24.817 6.53905 24.9053 6.53907C25.021 6.53936 25.1328 6.49784 25.2203 6.42214C25.3077 6.34645 25.3648 6.2417 25.3811 6.1272C25.3973 6.0127 25.3717 5.89618 25.3088 5.79913C25.2459 5.70208 25.15 5.63104 25.0389 5.59911C24.9277 5.56718 24.8088 5.57651 24.704 5.62539C24.5992 5.67427 24.5156 5.75939 24.4686 5.86507C24.4216 5.97075 24.4144 6.08984 24.4483 6.2004C24.4823 6.31096 24.555 6.40552 24.6532 6.46665H24.6531Z" fill="#AF8D71"/>
<path d="M23.5225 9.13282C23.5984 9.18062 23.6863 9.20602 23.776 9.2061C23.8126 9.20608 23.8491 9.20188 23.8848 9.1936C23.9463 9.17958 24.0044 9.15346 24.0557 9.11676C24.1071 9.08007 24.1506 9.03353 24.1837 8.97985C24.2337 8.89945 24.2588 8.80604 24.2557 8.71141C24.2527 8.61678 24.2216 8.52518 24.1666 8.44818C24.1115 8.37118 24.0348 8.31222 23.9462 8.27876C23.8577 8.24529 23.7612 8.23882 23.6689 8.26016C23.5767 8.2815 23.4929 8.32969 23.428 8.39865C23.3631 8.46761 23.3201 8.55424 23.3045 8.64761C23.2888 8.74098 23.3011 8.8369 23.3399 8.92326C23.3788 9.00962 23.4423 9.08254 23.5225 9.13282Z" fill="#AF8D71"/>
<path d="M22.073 6.87322L22.0752 6.87463C22.1841 6.94423 22.3162 6.96776 22.4424 6.94005C22.5686 6.91234 22.6787 6.83567 22.7485 6.72686C22.8182 6.61805 22.8419 6.486 22.8144 6.35973C22.7868 6.23346 22.7103 6.12327 22.6016 6.05339C22.4929 5.9835 22.3609 5.95962 22.2345 5.98699C22.1082 6.01436 21.9979 6.09074 21.9279 6.19936C21.8579 6.30799 21.8338 6.43997 21.861 6.56631C21.8882 6.69266 21.9645 6.80305 22.073 6.87322Z" fill="#AF8D71"/>
<path d="M23.7004 4.24319C23.7754 4.28926 23.8616 4.3136 23.9496 4.3135C24.0652 4.31363 24.1769 4.27192 24.2641 4.19608C24.3513 4.12024 24.4081 4.0154 24.424 3.90092C24.4399 3.78645 24.4138 3.67009 24.3506 3.57334C24.2874 3.4766 24.1913 3.40601 24.0801 3.37461C23.9688 3.34322 23.85 3.35316 23.7455 3.40258C23.6411 3.452 23.558 3.53756 23.5117 3.64346C23.4654 3.74936 23.4591 3.86843 23.4937 3.97868C23.5284 4.08892 23.6019 4.18288 23.7004 4.24319Z" fill="#AF8D71"/>
<path d="M20.7441 9.26308C20.8526 9.33026 20.9834 9.35161 21.1076 9.32246C21.1686 9.30815 21.2262 9.28196 21.277 9.24539C21.3279 9.20882 21.371 9.16259 21.404 9.10933C21.4375 9.05591 21.4602 8.99638 21.4707 8.93418C21.4811 8.87197 21.4792 8.8083 21.465 8.74684C21.4509 8.68537 21.4247 8.62731 21.388 8.57599C21.3513 8.52467 21.3048 8.4811 21.2513 8.44778C21.1977 8.41446 21.1381 8.39205 21.0758 8.38184C21.0136 8.37163 20.9499 8.37381 20.8885 8.38826C20.8271 8.40271 20.7692 8.42915 20.718 8.46605C20.6668 8.50296 20.6235 8.54961 20.5904 8.60332C20.5571 8.65673 20.5347 8.71617 20.5245 8.77824C20.5142 8.8403 20.5163 8.90379 20.5306 8.96506C20.5448 9.02632 20.5711 9.08418 20.6077 9.13532C20.6443 9.18645 20.6907 9.22987 20.7441 9.26308Z" fill="#AF8D71"/>
<path d="M16.5296 10.9141L16.1911 11.1587C16.1409 11.1947 16.0983 11.2402 16.0657 11.2926C16.0331 11.3451 16.0112 11.4035 16.0013 11.4644C15.9913 11.5253 15.9935 11.5876 16.0077 11.6477C16.0219 11.7078 16.0478 11.7645 16.084 11.8146C16.1202 11.8646 16.1659 11.907 16.2185 11.9394C16.2711 11.9717 16.3296 11.9933 16.3906 12.003C16.4516 12.0126 16.5139 12.0101 16.5739 11.9956C16.6339 11.9811 16.6905 11.9549 16.7403 11.9185L17.0788 11.6739C17.1795 11.6011 17.2472 11.4912 17.267 11.3684C17.2867 11.2457 17.2569 11.1201 17.1841 11.0194C17.1113 10.9186 17.0014 10.8509 16.8786 10.8311C16.7559 10.8114 16.6303 10.8412 16.5296 10.9141Z" fill="#D3AB84"/>
<path d="M3.16882 7.83528L3.50007 8.08942C3.54886 8.12738 3.60468 8.15532 3.66432 8.17163C3.72395 8.18793 3.78622 8.19228 3.84755 8.18441C3.90887 8.17655 3.96803 8.15664 4.02162 8.12582C4.07521 8.09499 4.12218 8.05388 4.15982 8.00483C4.19745 7.95578 4.22501 7.89977 4.24091 7.84003C4.25682 7.78028 4.26074 7.71798 4.25246 7.65672C4.24419 7.59545 4.22387 7.53642 4.19269 7.48304C4.16151 7.42966 4.12007 7.38297 4.07077 7.34567L3.73944 7.09145C3.6406 7.01883 3.51722 6.98784 3.39579 7.00515C3.27436 7.02245 3.16455 7.08666 3.08992 7.18399C3.01529 7.28133 2.98179 7.40404 2.99659 7.5258C3.0114 7.64756 3.07334 7.75866 3.16913 7.83528H3.16882Z" fill="#D3AB84"/>
<path d="M28.5639 5.89172C28.6734 5.95064 28.8018 5.96367 28.9209 5.92794C29.0399 5.8922 29.1399 5.81063 29.1989 5.70117L29.3967 5.33351C29.4557 5.22404 29.4687 5.09564 29.4329 4.97657C29.3972 4.8575 29.3156 4.75751 29.2061 4.69859C29.0966 4.63967 28.9682 4.62666 28.8492 4.66241C28.7301 4.69816 28.6301 4.77974 28.5712 4.88922L28.3734 5.25679C28.3145 5.36626 28.3014 5.49465 28.3372 5.61372C28.3729 5.73279 28.4545 5.83279 28.5639 5.89172Z" fill="#D3AB84"/>
<path d="M14.1925 4.14062C14.2873 4.1406 14.3799 4.1125 14.4587 4.05985C14.5374 4.0072 14.5988 3.93237 14.6351 3.84483C14.6713 3.75729 14.6808 3.66097 14.6623 3.56805C14.6438 3.47513 14.5982 3.38977 14.5312 3.32278C14.4642 3.25579 14.3788 3.21017 14.2859 3.19169C14.1929 3.17322 14.0966 3.18271 14.0091 3.21897C13.9216 3.25523 13.8467 3.31663 13.7941 3.39541C13.7415 3.47419 13.7134 3.56681 13.7134 3.66156C13.7135 3.78858 13.7641 3.91036 13.8539 4.00017C13.9437 4.08999 14.0655 4.1405 14.1925 4.14062Z" fill="#D3AB84"/>
<path d="M24.4321 12.0776C24.4321 12.1724 24.4602 12.2651 24.5128 12.3439C24.5655 12.4227 24.6403 12.4841 24.7279 12.5204C24.8154 12.5566 24.9118 12.5661 25.0047 12.5476C25.0977 12.5292 25.1831 12.4835 25.2501 12.4165C25.3171 12.3495 25.3627 12.2641 25.3812 12.1712C25.3997 12.0782 25.3902 11.9819 25.3539 11.8943C25.3177 11.8068 25.2562 11.7319 25.1774 11.6793C25.0986 11.6266 25.006 11.5986 24.9112 11.5986C24.7842 11.5987 24.6624 11.6492 24.5726 11.739C24.4828 11.8289 24.4323 11.9506 24.4321 12.0776Z" fill="#D3AB84"/>
<path d="M8.1699 23.2835C8.07516 23.2835 7.98254 23.2554 7.90377 23.2027C7.825 23.1501 7.76361 23.0753 7.72736 22.9877C7.69112 22.9002 7.68164 22.8039 7.70013 22.7109C7.71863 22.618 7.76426 22.5327 7.83126 22.4657C7.89826 22.3987 7.98362 22.3531 8.07655 22.3346C8.16948 22.3161 8.2658 22.3256 8.35333 22.3619C8.44086 22.3981 8.51568 22.4595 8.56831 22.5383C8.62095 22.6171 8.64904 22.7097 8.64904 22.8044C8.6489 22.9315 8.59837 23.0532 8.50854 23.1431C8.41871 23.2329 8.29693 23.2834 8.1699 23.2835Z" fill="#AF8D71"/>
<path d="M15.3272 23.2835C15.2325 23.2835 15.1398 23.2554 15.0611 23.2028C14.9823 23.1501 14.9209 23.0753 14.8846 22.9878C14.8484 22.9002 14.8389 22.8039 14.8573 22.711C14.8758 22.6181 14.9215 22.5327 14.9885 22.4657C15.0555 22.3987 15.1408 22.3531 15.2337 22.3346C15.3267 22.3161 15.423 22.3256 15.5105 22.3618C15.5981 22.3981 15.6729 22.4595 15.7255 22.5383C15.7782 22.6171 15.8063 22.7097 15.8063 22.8044C15.8061 22.9315 15.7556 23.0532 15.6658 23.143C15.576 23.2328 15.4542 23.2834 15.3272 23.2835Z" fill="#D3AB84"/>
</svg>
