<svg width="40" height="40" viewBox="0 0 40 40" fill="none" xmlns="http://www.w3.org/2000/svg">
<g clip-path="url(#clip0)">
<path d="M38.8691 4.54572L35.4545 1.13119C34.8863 0.562988 34.1284 0.250175 33.3204 0.250175C32.5123 0.250175 31.7544 0.563066 31.1862 1.13119L29.0308 3.28666L29.8844 4.14025L32.0397 1.98479C32.38 1.64463 32.8347 1.45728 33.3203 1.45728C33.8058 1.45728 34.2607 1.64455 34.6007 1.98479L38.0153 5.39932C38.7213 6.10541 38.7214 7.25424 38.0153 7.96025L35.8598 10.1157L36.7135 10.9693L38.869 8.81385C40.0458 7.63721 40.0458 5.72252 38.8691 4.54572Z" fill="#565656"/>
<path d="M10.9695 36.7134L10.1158 35.8597L7.96047 38.0152C7.62016 38.3554 7.16547 38.5427 6.67992 38.5427C6.19437 38.5427 5.73953 38.3554 5.39953 38.0152L1.98477 34.6007C1.27875 33.8946 1.27867 32.7458 1.98477 32.0397L4.14023 29.8843L3.28648 29.0304L1.13102 31.1859C-0.045625 32.3626 -0.045625 34.2773 1.13102 35.4542L4.54562 38.8687C5.11383 39.4369 5.87172 39.7497 6.67976 39.7497C7.48781 39.7497 8.2457 39.4368 8.81398 38.8687L10.9695 36.7134Z" fill="#565656"/>
<path d="M20 0V40C31.0457 40 40 31.0457 40 20C40 8.9543 31.0457 0 20 0Z" fill="#565656"/>
<path d="M37.5855 20C37.5855 8.9543 29.7122 0 20 0C8.9543 0 0 8.9543 0 20C0 31.0457 8.9543 40 20 40C29.7122 40 37.5855 31.0457 37.5855 20Z" fill="#6B6B6B"/>
<path d="M20.0001 37.5855C29.7123 37.5855 37.5856 29.7122 37.5856 20C37.5856 10.2877 29.7123 2.41441 20.0001 2.41441C10.2879 2.41441 2.41455 10.2877 2.41455 20C2.41455 29.7122 10.2879 37.5855 20.0001 37.5855Z" fill="#424242"/>
<path d="M34.2718 18.1207C34.82 18.5633 35.1708 19.241 35.1708 20C35.1708 20.759 34.8199 21.4366 34.2718 21.8793C34.6871 22.4482 34.8505 23.1928 34.6541 23.9268C34.4577 24.66 33.9435 25.2233 33.2996 25.509C33.5523 26.1657 33.5177 26.9279 33.1386 27.5855C32.7588 28.2431 32.1165 28.6543 31.4204 28.763C31.4952 29.464 31.2642 30.1907 30.7274 30.7276C30.1906 31.2644 29.4638 31.4954 28.7628 31.4206C28.6541 32.1168 28.2429 32.759 27.5853 33.1389C27.0324 33.4576 26.4054 33.5332 25.8291 33.398L25.8299 6.60208C26.4061 6.4677 27.0323 6.54255 27.5852 6.86122C28.2428 7.24106 28.654 7.88333 28.7627 8.5795C29.4637 8.50466 30.1904 8.73567 30.7273 9.27247C31.2641 9.80927 31.4951 10.5361 31.4203 11.2371C32.1164 11.3458 32.7587 11.757 33.1386 12.4146C33.5176 13.0722 33.5522 13.8343 33.2995 14.4911C33.9433 14.7768 34.4576 15.3401 34.654 16.0733C34.8505 16.8072 34.6871 17.5517 34.2718 18.1207Z" fill="#FF9C30"/>
<path d="M32.0006 18.1207C32.4617 18.5634 32.7563 19.241 32.7563 20C32.7563 20.759 32.4617 21.4366 32.0006 21.8793C32.3491 22.4483 32.4867 23.1928 32.3217 23.9268C32.1567 24.66 31.7245 25.2234 31.1828 25.5091C31.3953 26.1658 31.3664 26.928 31.0476 27.5856C30.7281 28.2431 30.1881 28.6544 29.6029 28.7631C29.6657 29.4641 29.4717 30.1908 29.0203 30.7277C28.5688 31.2645 27.9571 31.4955 27.3688 31.4206C27.2762 32.1168 26.931 32.7591 26.378 33.1389C26.2017 33.2596 26.0174 33.3449 25.8291 33.3981C25.7204 33.3731 25.6134 33.3401 25.5088 33.2999C25.2231 33.9437 24.6597 34.458 23.9265 34.6544C23.1925 34.8508 22.4481 34.6874 21.879 34.2721C21.4363 34.8202 20.7587 35.1711 19.9997 35.1711C19.2407 35.1711 18.5631 34.8202 18.1204 34.2721C17.5514 34.6874 16.8069 34.8508 16.0729 34.6544C15.3397 34.458 14.7763 33.9438 14.4906 33.2999C13.8339 33.5526 13.0717 33.518 12.4142 33.1389C11.7566 32.7591 11.3453 32.1168 11.2367 31.4206C10.5356 31.4955 9.80893 31.2645 9.27205 30.7277C8.73525 30.1909 8.50424 29.4641 8.57908 28.7631C7.88291 28.6544 7.24064 28.2431 6.8608 27.5856C6.48174 26.928 6.44713 26.1659 6.69986 25.5091C6.05604 25.2234 5.54174 24.66 5.34533 23.9268C5.14893 23.1928 5.31236 22.4484 5.7276 21.8793C5.17955 21.4366 4.82861 20.759 4.82861 20C4.82861 19.241 5.17955 18.5634 5.7276 18.1207C5.31229 17.5517 5.14893 16.8072 5.34533 16.0732C5.54174 15.34 6.05604 14.7766 6.69986 14.4909C6.44713 13.8342 6.48174 13.072 6.8608 12.4145C7.24064 11.7569 7.88291 11.3456 8.57908 11.237C8.50424 10.5359 8.73525 9.80922 9.27205 9.27235C9.80885 8.73547 10.5356 8.50454 11.2367 8.57938C11.3453 7.88321 11.7566 7.24094 12.4142 6.8611C13.0717 6.48204 13.8338 6.44743 14.4906 6.70016C14.7763 6.05633 15.3397 5.54204 16.0729 5.34563C16.8069 5.14922 17.5513 5.31266 18.1204 5.7279C18.5631 5.17977 19.2407 4.82891 19.9997 4.82891C20.7587 4.82891 21.4363 5.17985 21.879 5.7279C22.448 5.31258 23.1925 5.14922 23.9265 5.34563C24.6597 5.54204 25.2231 6.05633 25.5088 6.70016C25.6134 6.65993 25.7204 6.62696 25.8299 6.60196C26.0174 6.65508 26.2025 6.7404 26.378 6.8611C26.9309 7.24094 27.2762 7.88321 27.3688 8.57938C27.9571 8.50454 28.5688 8.73555 29.0203 9.27235C29.4717 9.80915 29.6657 10.5359 29.6029 11.237C30.188 11.3456 30.7281 11.7569 31.0476 12.4145C31.3663 13.072 31.3953 13.8341 31.1828 14.4909C31.7245 14.7766 32.1567 15.34 32.3217 16.0732C32.4867 16.8073 32.3491 17.5517 32.0006 18.1207Z" fill="#FFB833"/>
<path d="M23.6219 13.4608C23.6219 11.4605 22.0004 9.83907 20.0001 9.83907C17.9999 9.83907 16.3784 11.4605 16.3784 13.4608C16.3784 14.1198 16.5553 14.737 16.8629 15.2693L18.9554 18.8926C19.164 19.2535 19.5533 19.497 20.0003 19.497C20.4472 19.497 20.8365 19.2536 21.0452 18.8926L23.1377 15.2693C23.445 14.737 23.6219 14.1198 23.6219 13.4608Z" fill="#2D2D2D"/>
<path d="M20.0002 12.2536C19.3345 12.2536 18.793 12.7951 18.793 13.4608C18.793 13.675 18.847 13.8771 18.9537 14.0618L20.0002 15.8739L21.047 14.0614C21.1535 13.8771 21.2075 13.675 21.2075 13.4608C21.2075 12.7951 20.6659 12.2536 20.0002 12.2536Z" fill="#FF6529"/>
<path d="M16.3784 26.5392C16.3784 28.5394 17.9999 30.1609 20.0001 30.1609C22.0004 30.1609 23.6219 28.5394 23.6219 26.5392C23.6219 25.8802 23.445 25.263 23.1374 24.7307L21.0449 21.1074C20.8362 20.7465 20.4469 20.503 20 20.503C19.553 20.503 19.1638 20.7464 18.9551 21.1074L16.8626 24.7307C16.5552 25.263 16.3784 25.8803 16.3784 26.5392Z" fill="#2D2D2D"/>
<path d="M20.0002 27.7465C20.6659 27.7465 21.2075 27.2049 21.2075 26.5392C21.2075 26.325 21.1535 26.123 21.0468 25.9382L20.0002 24.1261L18.9534 25.9386C18.847 26.123 18.793 26.325 18.793 26.5392C18.793 27.2049 19.3345 27.7465 20.0002 27.7465Z" fill="#FF6529"/>
<path d="M13.4611 16.3783C11.4608 16.3783 9.83936 17.9998 9.83936 20C9.83936 22.0002 11.4608 23.6217 13.4611 23.6217C14.1201 23.6217 14.7373 23.4449 15.2696 23.1373L18.8929 21.0448C19.2538 20.8361 19.4973 20.4468 19.4973 19.9999C19.4973 19.5529 19.2539 19.1637 18.8929 18.9549L15.2696 16.8624C14.7372 16.5552 14.12 16.3783 13.4611 16.3783Z" fill="#2D2D2D"/>
<path d="M12.2534 20C12.2534 20.6657 12.795 21.2072 13.4607 21.2072C13.6749 21.2072 13.8769 21.1533 14.0617 21.0465L15.8738 20L14.0613 18.9532C13.8769 18.8467 13.6749 18.7927 13.4607 18.7927C12.795 18.7927 12.2534 19.3343 12.2534 20Z" fill="#FF6529"/>
<path d="M26.5392 23.6217C28.5394 23.6217 30.1609 22.0002 30.1609 20C30.1609 17.9998 28.5394 16.3783 26.5392 16.3783C25.8802 16.3783 25.2629 16.5552 24.7307 16.8627L21.1074 18.9552C20.7464 19.1639 20.5029 19.5532 20.5029 20.0002C20.5029 20.4471 20.7464 20.8363 21.1074 21.0451L24.7307 23.1376C25.263 23.4449 25.8802 23.6217 26.5392 23.6217Z" fill="#2D2D2D"/>
<path d="M27.7464 20C27.7464 19.3343 27.2048 18.7927 26.5391 18.7927C26.3249 18.7927 26.1229 18.8467 25.9381 18.9534L24.126 20L25.9385 21.0468C26.1229 21.1533 26.3249 21.2072 26.5391 21.2072C27.2048 21.2072 27.7464 20.6657 27.7464 20Z" fill="#FF6529"/>
<path d="M12.4026 13.6097C13.0693 13.6097 13.6098 13.0692 13.6098 12.4024C13.6098 11.7357 13.0693 11.1951 12.4026 11.1951C11.7358 11.1951 11.1953 11.7357 11.1953 12.4024C11.1953 13.0692 11.7358 13.6097 12.4026 13.6097Z" fill="#AB9433"/>
<path d="M12.4026 28.8048C13.0693 28.8048 13.6098 28.2643 13.6098 27.5975C13.6098 26.9308 13.0693 26.3903 12.4026 26.3903C11.7358 26.3903 11.1953 26.9308 11.1953 27.5975C11.1953 28.2643 11.7358 28.8048 12.4026 28.8048Z" fill="#806F26"/>
<path d="M27.5974 28.8048C28.2642 28.8048 28.8047 28.2643 28.8047 27.5975C28.8047 26.9308 28.2642 26.3903 27.5974 26.3903C26.9306 26.3903 26.3901 26.9308 26.3901 27.5975C26.3901 28.2643 26.9306 28.8048 27.5974 28.8048Z" fill="#AB9433"/>
<path d="M27.5974 13.6097C28.2642 13.6097 28.8047 13.0692 28.8047 12.4024C28.8047 11.7357 28.2642 11.1951 27.5974 11.1951C26.9306 11.1951 26.3901 11.7357 26.3901 12.4024C26.3901 13.0692 26.9306 13.6097 27.5974 13.6097Z" fill="#95822D"/>
</g>
<defs>
<clipPath id="clip0">
<rect width="40" height="40" fill="white"/>
</clipPath>
</defs>
</svg>
