<svg width="40" height="40" viewBox="0 0 40 40" fill="none" xmlns="http://www.w3.org/2000/svg">
<path d="M34.3748 6.87498V15.4812C34.3736 16.8451 33.8313 18.1527 32.8669 19.1171C31.9026 20.0815 30.5949 20.6238 29.2311 20.625H19.9998C19.8746 20.6246 19.7525 20.5865 19.6491 20.5159C19.5458 20.4452 19.4661 20.3451 19.4203 20.2286C19.3745 20.1121 19.3647 19.9845 19.3923 19.8624C19.4198 19.7403 19.4834 19.6293 19.5748 19.5437C19.5998 19.5187 22.2561 17.05 25.9873 13.7687C26.1056 13.6667 26.2579 13.6126 26.414 13.6173C26.5702 13.6219 26.719 13.6849 26.8311 13.7937L28.7873 11.8375C28.6709 11.7204 28.6056 11.562 28.6056 11.3969C28.6056 11.2317 28.6709 11.0733 28.7873 10.9562L31.9873 7.74998L33.306 6.43123C33.3939 6.34451 33.5055 6.28576 33.6268 6.2624C33.748 6.23904 33.8735 6.25212 33.9873 6.29998C34.1021 6.34595 34.2004 6.42535 34.2695 6.52788C34.3386 6.63041 34.3753 6.75134 34.3748 6.87498Z" fill="#F96720"/>
<path d="M37.5003 3.12503C37.377 3.12516 37.2565 3.08861 37.154 3.02003C36.2617 2.37612 35.1905 2.02693 34.0901 2.02121C32.9897 2.0155 31.9149 2.35355 31.0159 2.98815C30.9519 3.04002 30.8782 3.0787 30.7992 3.10199C30.7201 3.12527 30.6373 3.1327 30.5553 3.12383C30.4734 3.11497 30.394 3.08999 30.3218 3.05034C30.2496 3.01068 30.1859 2.95714 30.1344 2.89278C30.083 2.82842 30.0447 2.75452 30.0219 2.67533C29.9992 2.59614 29.9922 2.51323 30.0016 2.43136C30.011 2.34949 30.0365 2.27029 30.0766 2.1983C30.1167 2.12631 30.1706 2.06297 30.2353 2.0119C31.344 1.21754 32.6723 0.787721 34.0361 0.78201C35.4 0.776298 36.7319 1.19498 37.8472 1.98003C37.9588 2.05445 38.0435 2.16281 38.0887 2.28909C38.134 2.41536 38.1375 2.55285 38.0986 2.68124C38.0597 2.80962 37.9805 2.92209 37.8728 3.00201C37.765 3.08193 37.6344 3.12506 37.5003 3.12503Z" fill="#769B1B"/>
<path d="M33.75 13.75C33.6188 13.75 33.491 13.7087 33.3846 13.632C33.2781 13.5553 33.1986 13.4471 33.1571 13.3226C33.1156 13.1982 33.1143 13.0639 33.1534 12.9386C33.1925 12.8134 33.2701 12.7037 33.375 12.625C33.4225 12.5894 38.125 9.01625 38.125 5.625C38.125 5.45924 38.1909 5.30027 38.3081 5.18306C38.4253 5.06585 38.5842 5 38.75 5C38.9158 5 39.0747 5.06585 39.1919 5.18306C39.3092 5.30027 39.375 5.45924 39.375 5.625C39.375 9.64125 34.3394 13.4644 34.125 13.625C34.0169 13.7064 33.8853 13.7503 33.75 13.75Z" fill="#F96720"/>
<path d="M10.625 20L5 14.375C5 14.375 4.375 17.5 5.625 20H10.625Z" fill="#F96720"/>
<path d="M34.3751 6.87498V15.4812C34.3739 16.8451 33.8316 18.1527 32.8672 19.1171C31.9029 20.0815 30.5952 20.6238 29.2313 20.625H25.8501L26.6938 19.3187C26.9438 18.9312 27.1751 18.5312 27.4063 18.1312C28.9343 15.3916 30.2466 12.5371 31.3313 9.59373C31.5563 8.98748 31.7813 8.37498 31.9876 7.74998L33.3063 6.43123C33.3942 6.34451 33.5058 6.28576 33.6271 6.2624C33.7483 6.23904 33.8738 6.25212 33.9876 6.29998C34.1024 6.34595 34.2007 6.42535 34.2698 6.52788C34.3389 6.63041 34.3756 6.75134 34.3751 6.87498Z" fill="#D34F1C"/>
<path d="M13.75 20C13.75 20 13.75 16.25 16.25 14.375C16.25 14.375 18.75 16.875 18.75 20H13.75Z" fill="#A7D745"/>
<path d="M15.147 18.75H17.3395C17.096 17.8523 16.6955 17.0049 16.1563 16.2469C15.6481 17.0013 15.3042 17.8541 15.147 18.75Z" fill="#A7D745"/>
<path d="M12.5 10.625C15.2614 10.625 17.5 8.38642 17.5 5.625C17.5 2.86358 15.2614 0.625 12.5 0.625C9.73858 0.625 7.5 2.86358 7.5 5.625C7.5 8.38642 9.73858 10.625 12.5 10.625Z" fill="#A7D745"/>
<path d="M31.8749 4.375C29.1687 6.25 24.5812 8.75 21.8749 10.625C21.6947 10.7831 21.4792 10.8957 21.2465 10.9533C21.0137 11.0109 20.7706 11.0119 20.5374 10.9562C20.3269 10.9075 20.1381 10.7911 19.9999 10.625C19.9118 10.4621 19.8581 10.2828 19.842 10.0983C19.826 9.91375 19.8479 9.72789 19.9064 9.55217C19.965 9.37646 20.059 9.21462 20.1826 9.07665C20.3061 8.93867 20.4567 8.8275 20.6249 8.75L29.3749 1.25L30.4437 2.5875L31.8749 4.375Z" fill="#FA3A1E"/>
<path d="M29.2068 3.04062L22.8462 8.49249C23.9087 7.82374 25.0818 7.11749 26.2318 6.42999C27.5481 5.63999 28.8981 4.82999 30.0443 4.09187L29.2068 3.04062Z" fill="#FA3A1E"/>
<path d="M31.8751 4.37499C29.1688 6.24999 24.5813 8.74999 21.8751 10.625C21.6949 10.7831 21.4793 10.8956 21.2466 10.9533C21.0139 11.0109 20.7708 11.0119 20.5376 10.9562C23.9813 8.76874 27.9376 5.07499 30.4438 2.58749L31.8751 4.37499Z" fill="#D62C1A"/>
<path d="M28.4375 15.625C29.6456 15.625 30.625 14.6456 30.625 13.4375C30.625 12.2294 29.6456 11.25 28.4375 11.25C27.2294 11.25 26.25 12.2294 26.25 13.4375C26.25 14.6456 27.2294 15.625 28.4375 15.625Z" fill="#F96720"/>
<path d="M28.4375 12.5C28.2521 12.5 28.0708 12.555 27.9167 12.658C27.7625 12.761 27.6423 12.9074 27.5714 13.0787C27.5004 13.25 27.4818 13.4385 27.518 13.6204C27.5542 13.8023 27.6435 13.9693 27.7746 14.1004C27.9057 14.2315 28.0727 14.3208 28.2546 14.357C28.4365 14.3932 28.625 14.3746 28.7963 14.3036C28.9676 14.2327 29.114 14.1125 29.217 13.9583C29.32 13.8042 29.375 13.6229 29.375 13.4375C29.375 13.1889 29.2762 12.9504 29.1004 12.7746C28.9246 12.5988 28.6861 12.5 28.4375 12.5Z" fill="#933815"/>
<path d="M7.5 5H17.5V6.25H7.5V5Z" fill="#769B1B"/>
<path d="M11.875 0.625H13.125V10.625H11.875V0.625Z" fill="#769B1B"/>
<path d="M28.4412 16.25C27.9319 16.2507 27.432 16.1131 26.9948 15.8518C26.5576 15.5906 26.1996 15.2155 25.9589 14.7667C25.7182 14.3178 25.6039 13.8121 25.6282 13.3034C25.6525 12.7946 25.8145 12.3021 26.0968 11.8782C26.3792 11.4543 26.7714 11.1151 27.2315 10.8967C27.6916 10.6783 28.2023 10.589 28.7092 10.6382C29.2162 10.6874 29.7002 10.8733 30.1097 11.1761C30.5192 11.4789 30.8388 11.8873 31.0344 12.3575C31.212 12.7846 31.2815 13.2489 31.2368 13.7093C31.1921 14.1696 31.0346 14.6119 30.7782 14.9968C30.5217 15.3818 30.1743 15.6975 29.7667 15.9161C29.359 16.1347 28.9038 16.2494 28.4412 16.25ZM28.4375 11.875C28.1023 11.8755 27.7761 11.9838 27.5072 12.1839C27.2382 12.3839 27.0407 12.6652 26.9439 12.9861C26.8471 13.307 26.856 13.6506 26.9694 13.966C27.0828 14.2815 27.2946 14.5521 27.5736 14.7379C27.8526 14.9238 28.1839 15.015 28.5187 14.998C28.8535 14.9811 29.1739 14.8569 29.4328 14.6439C29.6916 14.4309 29.875 14.1403 29.956 13.815C30.037 13.4897 30.0112 13.147 29.8825 12.8375C29.7645 12.5517 29.5641 12.3075 29.3067 12.136C29.0493 11.9646 28.7467 11.8737 28.4375 11.875Z" fill="#F96720"/>
<path d="M10.625 20.625H5.62499C5.50884 20.625 5.39498 20.5927 5.29617 20.5317C5.19737 20.4706 5.11753 20.3832 5.06561 20.2794C3.73561 17.6181 4.35999 14.3887 4.38749 14.25C4.40965 14.139 4.46152 14.0361 4.53757 13.9524C4.61362 13.8686 4.71099 13.807 4.8193 13.7742C4.9276 13.7414 5.04277 13.7386 5.15253 13.7662C5.26228 13.7937 5.3625 13.8506 5.44249 13.9306L11.0675 19.5556C11.1558 19.6429 11.216 19.7545 11.2406 19.8762C11.2652 19.998 11.253 20.1242 11.2055 20.239C11.158 20.3537 11.0775 20.4517 10.9741 20.5204C10.8707 20.5892 10.7491 20.6256 10.625 20.625ZM6.02624 19.375H9.11623L5.48186 15.7412C5.40171 16.9775 5.58733 18.2165 6.02624 19.375Z" fill="#F96720"/>
<path d="M5 11.25C4.83424 11.25 4.67527 11.1842 4.55806 11.0669C4.44085 10.9497 4.375 10.7908 4.375 10.625V10C4.375 9.83424 4.44085 9.67527 4.55806 9.55806C4.67527 9.44085 4.83424 9.375 5 9.375C5.16576 9.375 5.32473 9.44085 5.44194 9.55806C5.55915 9.67527 5.625 9.83424 5.625 10V10.625C5.625 10.7908 5.55915 10.9497 5.44194 11.0669C5.32473 11.1842 5.16576 11.25 5 11.25Z" fill="#F96720"/>
<path d="M5 15H0.625C0.45924 15 0.300269 14.9342 0.183058 14.8169C0.065848 14.6997 0 14.5408 0 14.375C0 14.2092 0.065848 14.0503 0.183058 13.9331C0.300269 13.8158 0.45924 13.75 0.625 13.75H4.375V12.5C4.375 12.3342 4.44085 12.1753 4.55806 12.0581C4.67527 11.9408 4.83424 11.875 5 11.875C5.16576 11.875 5.32473 11.9408 5.44194 12.0581C5.55915 12.1753 5.625 12.3342 5.625 12.5V14.375C5.625 14.5408 5.55915 14.6997 5.44194 14.8169C5.32473 14.9342 5.16576 15 5 15Z" fill="#F96720"/>
<path d="M18.75 20.625H13.75C13.5842 20.625 13.4253 20.5591 13.3081 20.4419C13.1908 20.3247 13.125 20.1657 13.125 20C13.125 19.8337 13.1562 15.9137 15.875 13.875C15.9954 13.7847 16.1442 13.7409 16.2943 13.7516C16.4443 13.7623 16.5855 13.8267 16.6919 13.9331C16.8013 14.0425 19.375 16.6544 19.375 20C19.375 20.1657 19.3092 20.3247 19.1919 20.4419C19.0747 20.5591 18.9158 20.625 18.75 20.625ZM14.42 19.375H18.0881C17.8415 17.8528 17.1846 16.4267 16.1881 15.25C15.1647 16.3954 14.5438 17.844 14.42 19.375Z" fill="#A7D745"/>
<path d="M38.75 20V24.375C38.75 27.3587 37.5647 30.2202 35.4549 32.33C33.3452 34.4397 30.4837 35.625 27.5 35.625H12.5C9.51758 35.6209 6.6585 34.4343 4.54961 32.3254C2.44073 30.2165 1.25413 27.3574 1.25 24.375V20H38.75Z" fill="#FCDA44"/>
<path d="M11.875 35.625H28.125V40H11.875V35.625Z" fill="#B2920D"/>
<path d="M35.0002 20C35.0002 20 29.3752 26.875 20.0002 27.8125C10.6252 28.75 7.50021 34.375 7.50021 34.375L7.45459 34.4206C9.01806 35.2141 10.7469 35.6267 12.5002 35.625H27.5002C30.4839 35.625 33.3454 34.4397 35.4552 32.33C37.5649 30.2202 38.7502 27.3587 38.7502 24.375V20H35.0002Z" fill="#E8BE0F"/>
<path d="M7.5 25H6.875C6.70924 25 6.55027 24.9342 6.43306 24.8169C6.31585 24.6997 6.25 24.5408 6.25 24.375C6.25 24.2092 6.31585 24.0503 6.43306 23.9331C6.55027 23.8158 6.70924 23.75 6.875 23.75H7.5C7.66576 23.75 7.82473 23.8158 7.94194 23.9331C8.05915 24.0503 8.125 24.2092 8.125 24.375C8.125 24.5408 8.05915 24.6997 7.94194 24.8169C7.82473 24.9342 7.66576 25 7.5 25Z" fill="#E8BE0F"/>
<path d="M10 25H9.375C9.20924 25 9.05027 24.9342 8.93306 24.8169C8.81585 24.6997 8.75 24.5408 8.75 24.375C8.75 24.2092 8.81585 24.0503 8.93306 23.9331C9.05027 23.8158 9.20924 23.75 9.375 23.75H10C10.1658 23.75 10.3247 23.8158 10.4419 23.9331C10.5592 24.0503 10.625 24.2092 10.625 24.375C10.625 24.5408 10.5592 24.6997 10.4419 24.8169C10.3247 24.9342 10.1658 25 10 25Z" fill="#E8BE0F"/>
</svg>
