<svg width="40" height="40" viewBox="0 0 40 40" fill="none" xmlns="http://www.w3.org/2000/svg">
<path d="M9.37646 40C9.03084 40 8.75146 39.7206 8.75146 39.375V35C8.75146 34.6544 9.03084 34.375 9.37646 34.375C9.72209 34.375 10.0015 34.6544 10.0015 35V39.375C10.0015 39.7206 9.72209 40 9.37646 40Z" fill="#CCD1D9"/>
<path d="M9.37646 30C9.03084 30 8.75146 29.7206 8.75146 29.375V28.1256C8.75146 27.78 9.03084 27.5006 9.37646 27.5006C9.72209 27.5006 10.0015 27.78 10.0015 28.1256V29.375C10.0015 29.7206 9.72209 30 9.37646 30Z" fill="#CCD1D9"/>
<path d="M9.37402 26.8756C9.0284 26.8756 8.74902 26.5963 8.74902 26.2506V25.015C8.74902 24.6694 9.0284 24.39 9.37402 24.39C9.71965 24.39 9.99902 24.6694 9.99902 25.015V26.2506C9.99902 26.5963 9.71965 26.8756 9.37402 26.8756Z" fill="#CCD1D9"/>
<path d="M9.37646 19.39C9.03084 19.39 8.75146 19.1106 8.75146 18.765V17.5019C8.75146 17.1563 9.03084 16.8769 9.37646 16.8769C9.72209 16.8769 10.0015 17.1563 10.0015 17.5019V18.765C10.0015 19.1106 9.72209 19.39 9.37646 19.39Z" fill="#CCD1D9"/>
<path d="M9.37646 16.2531C9.03084 16.2531 8.75146 15.9738 8.75146 15.6281V14.38C8.75146 14.0344 9.03084 13.755 9.37646 13.755C9.72209 13.755 10.0015 14.0344 10.0015 14.38V15.6281C10.0015 15.9738 9.72209 16.2531 9.37646 16.2531Z" fill="#CCD1D9"/>
<path d="M9.37695 9.29997C9.03133 9.29997 8.75195 9.0206 8.75195 8.67497V4.37747C8.75195 4.03185 9.03133 3.75247 9.37695 3.75247C9.72258 3.75247 10.002 4.03185 10.002 4.37747V8.67497C10.002 9.0206 9.72258 9.29997 9.37695 9.29997Z" fill="#CCD1D9"/>
<path d="M9.37598 5C7.99723 5 6.87598 3.87875 6.87598 2.5C6.87598 1.12125 7.99723 0 9.37598 0C10.7547 0 11.876 1.12125 11.876 2.5C11.876 3.87875 10.7547 5 9.37598 5ZM9.37598 1.25C8.6866 1.25 8.12598 1.81062 8.12598 2.5C8.12598 3.18937 8.6866 3.75 9.37598 3.75C10.0654 3.75 10.626 3.18937 10.626 2.5C10.626 1.81062 10.0647 1.25 9.37598 1.25Z" fill="#E6E9ED"/>
<path d="M20.0024 40C19.6568 40 19.3774 39.7206 19.3774 39.375V35C19.3774 34.6544 19.6568 34.375 20.0024 34.375C20.3481 34.375 20.6274 34.6544 20.6274 35V39.375C20.6274 39.7206 20.3481 40 20.0024 40Z" fill="#CCD1D9"/>
<path d="M20.0024 30C19.6568 30 19.3774 29.7206 19.3774 29.375V28.1256C19.3774 27.78 19.6568 27.5006 20.0024 27.5006C20.3481 27.5006 20.6274 27.78 20.6274 28.1256V29.375C20.6274 29.7206 20.3481 30 20.0024 30Z" fill="#CCD1D9"/>
<path d="M20.001 26.8756C19.6553 26.8756 19.376 26.5963 19.376 26.2506V25.015C19.376 24.6694 19.6553 24.39 20.001 24.39C20.3466 24.39 20.626 24.6694 20.626 25.015V26.2506C20.626 26.5963 20.3466 26.8756 20.001 26.8756Z" fill="#CCD1D9"/>
<path d="M20.0024 20.0157C19.6568 20.0157 19.3774 19.7363 19.3774 19.3907V18.1275C19.3774 17.7819 19.6568 17.5025 20.0024 17.5025C20.3481 17.5025 20.6274 17.7819 20.6274 18.1275V19.3907C20.6274 19.7363 20.3481 20.0157 20.0024 20.0157Z" fill="#CCD1D9"/>
<path d="M20.0024 16.8787C19.6568 16.8787 19.3774 16.5994 19.3774 16.2537V15.0056C19.3774 14.66 19.6568 14.3806 20.0024 14.3806C20.3481 14.3806 20.6274 14.66 20.6274 15.0056V16.2537C20.6274 16.5994 20.3481 16.8787 20.0024 16.8787Z" fill="#CCD1D9"/>
<path d="M20.0024 9.29997C19.6568 9.29997 19.3774 9.0206 19.3774 8.67497V4.37747C19.3774 4.03185 19.6568 3.75247 20.0024 3.75247C20.3481 3.75247 20.6274 4.03185 20.6274 4.37747V8.67497C20.6274 9.0206 20.3481 9.29997 20.0024 9.29997Z" fill="#CCD1D9"/>
<path d="M20.0024 5C18.6237 5 17.5024 3.87875 17.5024 2.5C17.5024 1.12125 18.6237 0 20.0024 0C21.3812 0 22.5024 1.12125 22.5024 2.5C22.5024 3.87875 21.3812 5 20.0024 5ZM20.0024 1.25C19.3131 1.25 18.7524 1.81062 18.7524 2.5C18.7524 3.18937 19.3131 3.75 20.0024 3.75C20.6918 3.75 21.2524 3.18937 21.2524 2.5C21.2524 1.81062 20.6912 1.25 20.0024 1.25Z" fill="#E6E9ED"/>
<path d="M30.6274 40C30.2818 40 30.0024 39.7206 30.0024 39.375V35C30.0024 34.6544 30.2818 34.375 30.6274 34.375C30.9731 34.375 31.2524 34.6544 31.2524 35V39.375C31.2524 39.7206 30.9731 40 30.6274 40Z" fill="#CCD1D9"/>
<path d="M30.6274 29.3744C30.2818 29.3744 30.0024 29.095 30.0024 28.7494V27.5C30.0024 27.1544 30.2818 26.875 30.6274 26.875C30.9731 26.875 31.2524 27.1544 31.2524 27.5V28.7494C31.2524 29.095 30.9731 29.3744 30.6274 29.3744Z" fill="#CCD1D9"/>
<path d="M30.626 26.25C30.2804 26.25 30.001 25.9706 30.001 25.625V24.3894C30.001 24.0437 30.2804 23.7644 30.626 23.7644C30.9716 23.7644 31.251 24.0437 31.251 24.3894V25.625C31.251 25.9706 30.9716 26.25 30.626 26.25Z" fill="#CCD1D9"/>
<path d="M30.6274 19.39C30.2818 19.39 30.0024 19.1106 30.0024 18.765V17.5019C30.0024 17.1562 30.2818 16.8769 30.6274 16.8769C30.9731 16.8769 31.2524 17.1562 31.2524 17.5019V18.765C31.2524 19.1106 30.9731 19.39 30.6274 19.39Z" fill="#CCD1D9"/>
<path d="M30.6274 16.2531C30.2818 16.2531 30.0024 15.9738 30.0024 15.6281V14.38C30.0024 14.0344 30.2818 13.755 30.6274 13.755C30.9731 13.755 31.2524 14.0344 31.2524 14.38V15.6281C31.2524 15.9738 30.9731 16.2531 30.6274 16.2531Z" fill="#CCD1D9"/>
<path d="M30.6274 9.29997C30.2818 9.29997 30.0024 9.0206 30.0024 8.67497V4.37747C30.0024 4.03185 30.2818 3.75247 30.6274 3.75247C30.9731 3.75247 31.2524 4.03185 31.2524 4.37747V8.67497C31.2524 9.0206 30.9731 9.29997 30.6274 9.29997Z" fill="#CCD1D9"/>
<path d="M30.6274 5C29.2487 5 28.1274 3.87875 28.1274 2.5C28.1274 1.12125 29.2487 0 30.6274 0C32.0062 0 33.1274 1.12125 33.1274 2.5C33.1274 3.87875 32.0062 5 30.6274 5ZM30.6274 1.25C29.9381 1.25 29.3774 1.81062 29.3774 2.5C29.3774 3.18937 29.9381 3.75 30.6274 3.75C31.3168 3.75 31.8774 3.18937 31.8774 2.5C31.8774 1.81062 31.3162 1.25 30.6274 1.25Z" fill="#E6E9ED"/>
<path d="M30.0063 15.5581H31.2563H33.1313C33.4751 15.5581 33.7563 15.8393 33.7563 16.1831V16.8081C33.7563 17.1518 33.4751 17.4331 33.1313 17.4331H31.2563C30.9126 17.4331 30.3501 17.4331 30.0063 17.4331H28.1313C27.7876 17.4331 27.5063 17.1518 27.5063 16.8081V16.1831C27.5063 15.8393 27.7876 15.5581 28.1313 15.5581H30.0063Z" fill="#FFCE54"/>
<path d="M30.6313 28.675C32.3563 28.675 33.7563 30.075 33.7563 31.8C33.7563 33.5313 32.3563 34.925 30.6313 34.925C28.9001 34.925 27.5063 33.5313 27.5063 31.8C27.5063 30.075 28.9001 28.675 30.6313 28.675Z" fill="#ED5565"/>
<path d="M30.6312 18.6825H32.5C33.1875 18.6825 33.75 19.245 33.75 19.9325V23.0575C33.75 23.745 33.1875 24.3075 32.5 24.3075H28.75C28.0625 24.3075 27.5 23.745 27.5 23.0575V19.9325C27.5 19.245 28.0625 18.6825 28.75 18.6825H30.6312Z" fill="#965353"/>
<path d="M33.1313 25.5569C33.4751 25.5569 33.7563 25.8381 33.7563 26.1819V26.8069C33.7563 27.1506 33.4751 27.4319 33.1313 27.4319H31.2563C30.9126 27.4319 30.3501 27.4319 30.0063 27.4319H28.1313C27.7876 27.4319 27.5063 27.1506 27.5063 26.8069V26.1819C27.5063 25.8381 27.7876 25.5569 28.1313 25.5569H30.0001H31.2501H33.1313Z" fill="#FFCE54"/>
<path d="M22.5063 26.1819C22.8501 26.1819 23.1313 26.4631 23.1313 26.8069V27.4319C23.1313 27.7756 22.8501 28.0569 22.5063 28.0569H20.6313C20.2876 28.0569 19.7251 28.0569 19.3813 28.0569H17.5063C17.1626 28.0569 16.8813 27.7756 16.8813 27.4319V26.8069C16.8813 26.4631 17.1626 26.1819 17.5063 26.1819H19.3751H20.6251H22.5063Z" fill="#FFCE54"/>
<path d="M20.0062 34.9369H18.125C17.4375 34.9369 16.875 34.375 16.875 33.6869V30.5619C16.875 29.8744 17.4375 29.3119 18.125 29.3119H21.875C22.5625 29.3119 23.125 29.8744 23.125 30.5619V33.6869C23.125 34.375 22.5625 34.9369 21.875 34.9369H20.0062Z" fill="#965353"/>
<path d="M19.3813 16.1831H20.6313H22.5063C22.8501 16.1831 23.1313 16.4643 23.1313 16.8081V17.4331C23.1313 17.7768 22.8501 18.0581 22.5063 18.0581H20.6313C20.2876 18.0581 19.7251 18.0581 19.3813 18.0581H17.5063C17.1626 18.0581 16.8813 17.7768 16.8813 17.4331V16.8081C16.8813 16.4643 17.1626 16.1831 17.5063 16.1831H19.3813Z" fill="#FFCE54"/>
<path d="M20.0063 8.68376C21.7313 8.68376 23.1313 10.0838 23.1313 11.8088C23.1313 13.5338 21.7313 14.9338 20.0063 14.9338C18.2751 14.9338 16.8813 13.5338 16.8813 11.8088C16.8813 10.0838 18.2751 8.68376 20.0063 8.68376Z" fill="#ED5565"/>
<path d="M9.375 18.6944C11.1062 18.6944 12.5 20.0944 12.5 21.8194C12.5 23.5513 11.1062 24.9444 9.375 24.9444C7.65 24.9444 6.25 23.5513 6.25 21.8194C6.25 20.0944 7.65 18.6944 9.375 18.6944Z" fill="#ED5565"/>
<path d="M8.75 26.1819H10H11.875C12.2188 26.1819 12.5 26.4631 12.5 26.8069V27.4319C12.5 27.7756 12.2188 28.0569 11.875 28.0569H10C9.65625 28.0569 9.09375 28.0569 8.75 28.0569H6.875C6.53125 28.0569 6.25 27.7756 6.25 27.4319V26.8069C6.25 26.4631 6.53125 26.1819 6.875 26.1819H8.75Z" fill="#FFCE54"/>
<path d="M8.75 15.5581H10H11.875C12.2188 15.5581 12.5 15.8393 12.5 16.1831V16.8081C12.5 17.1518 12.2188 17.4331 11.875 17.4331H10C9.65625 17.4331 9.09375 17.4331 8.75 17.4331H6.875C6.53125 17.4331 6.25 17.1518 6.25 16.8081V16.1831C6.25 15.8393 6.53125 15.5581 6.875 15.5581H8.75Z" fill="#FFCE54"/>
<path d="M12.5 9.93938V13.0644C12.5 13.7525 11.9375 14.3144 11.25 14.3144H9.375H7.5C6.8125 14.3144 6.25 13.7525 6.25 13.0644V9.93938C6.25 9.25188 6.8125 8.68938 7.5 8.68938H11.25C11.9375 8.68938 12.5 9.2525 12.5 9.93938Z" fill="#965353"/>
<path d="M11.25 29.3119H7.5C6.46875 29.3119 5.625 30.1494 5.625 31.1869C5.625 32.2181 6.46875 33.0619 7.5 33.0619V34.305H7.50063C7.50063 34.6506 7.78 34.93 8.12563 34.93H9.37312L9.375 34.9313L9.37688 34.9306H10.6244C10.97 34.9306 11.2494 34.6513 11.2494 34.3056H11.25V33.0625C12.2875 33.0625 13.125 32.2188 13.125 31.1875C13.125 30.1494 12.2875 29.3119 11.25 29.3119Z" fill="#E6E9ED"/>
<path d="M21.875 19.3225H18.125C17.0938 19.3225 16.25 20.16 16.25 21.1975C16.25 22.2288 17.0938 23.0725 18.125 23.0725V24.3156H18.1256C18.1256 24.6613 18.405 24.9406 18.7506 24.9406H19.9981L20 24.9413L20.0019 24.9406H21.2494C21.595 24.9406 21.8744 24.6613 21.8744 24.3156H21.875V23.0725C22.9125 23.0725 23.75 22.2288 23.75 21.1975C23.75 20.16 22.9125 19.3225 21.875 19.3225Z" fill="#E6E9ED"/>
<path d="M32.5 8.6925H28.75C27.7188 8.6925 26.875 9.53001 26.875 10.5675C26.875 11.5988 27.7188 12.4425 28.75 12.4425V13.6856H28.7506C28.7506 14.0313 29.03 14.3106 29.3756 14.3106H30.6231L30.625 14.3113L30.6269 14.3106H31.8744C32.22 14.3106 32.4994 14.0313 32.4994 13.6856H32.5V12.4425C33.5375 12.4425 34.375 11.5988 34.375 10.5675C34.375 9.53001 33.5375 8.6925 32.5 8.6925Z" fill="#E6E9ED"/>
</svg>
